<svg width="202" height="40" viewBox="0 0 202 40" fill="none" xmlns="http://www.w3.org/2000/svg">
<rect width="202" height="40" rx="8" fill="#B0ABFF"/>
<path d="M27.25 13.3369C27.25 12.9818 27.064 12.6608 26.8488 12.3782C26.6279 12.0881 26.5 11.744 26.5 11.375C26.5 10.3395 27.5074 9.5 28.75 9.5C29.9926 9.5 31 10.3395 31 11.375C31 11.744 30.8721 12.0881 30.6512 12.3782C30.436 12.6608 30.25 12.9818 30.25 13.3369C30.25 13.6693 30.5277 13.9346 30.8595 13.9148C32.7701 13.8008 34.6498 13.5733 36.4922 13.239C36.6949 13.2022 36.9039 13.2504 37.07 13.3724C37.2361 13.4944 37.3447 13.6793 37.3703 13.8838C37.5943 15.6732 37.7213 17.4926 37.7459 19.3365C37.7508 19.7028 37.4533 19.9999 37.0869 20C36.7318 20 36.4108 19.814 36.1282 19.5988C35.8381 19.3779 35.494 19.25 35.125 19.25C34.0895 19.25 33.25 20.2574 33.25 21.5C33.25 22.7426 34.0895 23.75 35.125 23.75C35.494 23.75 35.8381 23.6221 36.1282 23.4012C36.4108 23.186 36.7318 23 37.0869 23C37.3974 23 37.6439 23.2617 37.6214 23.5713C37.5028 25.2098 37.3031 26.8261 37.0263 28.4161C36.9721 28.728 36.7279 28.9721 36.416 29.0264C34.5969 29.343 32.7434 29.5587 30.8615 29.6677C30.5285 29.6869 30.25 29.4205 30.25 29.0869C30.25 28.7318 30.436 28.4108 30.6512 28.1282C30.8721 27.8381 31 27.494 31 27.125C31 26.0895 29.9926 25.25 28.75 25.25C27.5074 25.25 26.5 26.0895 26.5 27.125C26.5 27.494 26.6279 27.8381 26.8488 28.1282C27.064 28.4108 27.25 28.7318 27.25 29.0869C27.25 29.4485 26.954 29.7405 26.5925 29.7303C25.003 29.6852 23.4324 29.564 21.8841 29.3702C21.6797 29.3446 21.4947 29.236 21.3728 29.0699C21.2508 28.9038 21.2026 28.6948 21.2393 28.4921C21.5322 26.8781 21.7431 25.2354 21.8676 23.5683C21.8906 23.2605 21.6456 23 21.3369 23C20.9818 23 20.6608 23.186 20.3782 23.4012C20.0881 23.6221 19.744 23.75 19.375 23.75C18.3395 23.75 17.5 22.7426 17.5 21.5C17.5 20.2574 18.3395 19.25 19.375 19.25C19.744 19.25 20.0881 19.3779 20.3782 19.5988C20.6608 19.814 20.9818 20 21.3369 20C21.7033 20 22.0008 19.703 21.9957 19.3367C21.9733 17.7084 21.8686 16.1003 21.6856 14.5163C21.6593 14.2888 21.7384 14.0618 21.9003 13.8999C22.0622 13.7379 22.2892 13.6589 22.5167 13.6852C23.859 13.8403 25.2186 13.9391 26.5931 13.9793C26.9541 13.9899 27.25 13.6982 27.25 13.3369Z" fill="#0F172A"/>
<path d="M57.1191 22.3594L58.8379 12.2812H60.6641L58.9551 22.3496C58.8314 23.2285 58.5482 24 58.1055 24.6641C57.6628 25.3216 57.0898 25.8327 56.3867 26.1973C55.6836 26.5553 54.8796 26.7279 53.9746 26.7148C53.1348 26.6953 52.4186 26.5163 51.8262 26.1777C51.2402 25.8392 50.8008 25.3639 50.5078 24.752C50.2148 24.1335 50.0977 23.4043 50.1562 22.5645H51.9922C51.9531 23.0592 51.9987 23.4987 52.1289 23.8828C52.2591 24.2669 52.4837 24.5729 52.8027 24.8008C53.1217 25.0286 53.5449 25.1491 54.0723 25.1621C54.6387 25.1816 55.1335 25.0677 55.5566 24.8203C55.9863 24.5664 56.3314 24.2246 56.5918 23.7949C56.8587 23.3652 57.0345 22.8867 57.1191 22.3594ZM65.4883 26.6953C64.7656 26.6823 64.1374 26.5391 63.6035 26.2656C63.0762 25.9857 62.6432 25.6113 62.3047 25.1426C61.9727 24.6673 61.735 24.127 61.5918 23.5215C61.4486 22.916 61.4062 22.2812 61.4648 21.6172L61.5039 21.1973C61.569 20.5202 61.735 19.8561 62.002 19.2051C62.2689 18.5475 62.6237 17.9551 63.0664 17.4277C63.5156 16.9004 64.043 16.4837 64.6484 16.1777C65.2604 15.8652 65.9375 15.7188 66.6797 15.7383C67.4154 15.7513 68.0273 15.9076 68.5156 16.207C69.0039 16.5065 69.3848 16.9036 69.6582 17.3984C69.9382 17.8867 70.1204 18.4368 70.2051 19.0488C70.2897 19.6543 70.2962 20.276 70.2246 20.9141L70.1172 21.7246H62.4512L62.6855 20.25L68.5352 20.2598L68.5645 20.1035C68.6296 19.6348 68.6035 19.1823 68.4863 18.7461C68.3691 18.3099 68.1543 17.9518 67.8418 17.6719C67.5358 17.3854 67.1224 17.2357 66.6016 17.2227C66.0612 17.2031 65.5924 17.3138 65.1953 17.5547C64.7982 17.7891 64.4661 18.1081 64.1992 18.5117C63.9323 18.9089 63.7207 19.3451 63.5645 19.8203C63.4147 20.2891 63.3105 20.748 63.252 21.1973L63.2129 21.6074C63.1738 22.0241 63.1868 22.444 63.252 22.8672C63.3171 23.2904 63.4408 23.6777 63.623 24.0293C63.8118 24.3743 64.0723 24.6576 64.4043 24.8789C64.7363 25.0938 65.1465 25.2077 65.6348 25.2207C66.2272 25.2337 66.7578 25.1068 67.2266 24.8398C67.7018 24.5664 68.1348 24.2214 68.5254 23.8047L69.5312 24.6641C69.2253 25.1133 68.8607 25.4909 68.4375 25.7969C68.0143 26.1029 67.5521 26.3307 67.0508 26.4805C66.5495 26.6302 66.0286 26.7018 65.4883 26.6953ZM78.0273 23.9609L79.4141 15.9336H81.1914L79.3555 26.5H77.666L78.0273 23.9609ZM78.6914 21.832L79.4141 21.8027C79.3294 22.4668 79.1797 23.0983 78.9648 23.6973C78.75 24.2897 78.457 24.8171 78.0859 25.2793C77.7214 25.735 77.2656 26.0931 76.7188 26.3535C76.1784 26.6074 75.5371 26.7246 74.7949 26.7051C74.2155 26.6855 73.7305 26.5684 73.3398 26.3535C72.9557 26.1387 72.653 25.849 72.4316 25.4844C72.2103 25.1198 72.0638 24.7031 71.9922 24.2344C71.9206 23.7656 71.9108 23.2708 71.9629 22.75L73.1055 15.9336H74.873L73.7305 22.7793C73.7044 23.0658 73.7012 23.349 73.7207 23.6289C73.7402 23.9023 73.7988 24.153 73.8965 24.3809C73.9941 24.6087 74.1439 24.7943 74.3457 24.9375C74.554 25.0742 74.8275 25.1491 75.166 25.1621C75.8691 25.1882 76.4648 25.0579 76.9531 24.7715C77.4414 24.4785 77.8288 24.0749 78.1152 23.5605C78.4017 23.0462 78.5938 22.4701 78.6914 21.832ZM84.9121 15.9336L86.543 19.7715L89.4141 15.9336H91.5918L87.3535 21.2363L89.9316 26.5H88.0078L86.2598 22.5449L83.2812 26.5H81.123L85.4785 21.0605L82.9883 15.9336H84.9121ZM103.398 24.3418L105.625 11.5H107.402L104.795 26.5H103.184L103.398 24.3418ZM97.0312 21.4121L97.0508 21.207C97.1354 20.556 97.2917 19.9049 97.5195 19.2539C97.7539 18.6029 98.0697 18.0072 98.4668 17.4668C98.8639 16.9264 99.3457 16.4967 99.9121 16.1777C100.479 15.8587 101.139 15.709 101.895 15.7285C102.572 15.748 103.138 15.9076 103.594 16.207C104.049 16.5065 104.408 16.9036 104.668 17.3984C104.935 17.8867 105.114 18.4238 105.205 19.0098C105.303 19.5957 105.332 20.1849 105.293 20.7773L105.186 21.6758C105.075 22.3073 104.893 22.9258 104.639 23.5312C104.385 24.1367 104.056 24.6836 103.652 25.1719C103.255 25.6536 102.777 26.0345 102.217 26.3145C101.663 26.5944 101.029 26.7246 100.312 26.7051C99.6224 26.679 99.0495 26.5 98.5938 26.168C98.1445 25.8359 97.793 25.4095 97.5391 24.8887C97.2917 24.3613 97.1289 23.7949 97.0508 23.1895C96.9792 22.5775 96.9727 21.985 97.0312 21.4121ZM98.8477 21.1875L98.8281 21.3926C98.7826 21.7832 98.7663 22.1966 98.7793 22.6328C98.7988 23.0625 98.8737 23.4694 99.0039 23.8535C99.1341 24.2311 99.3457 24.5436 99.6387 24.791C99.9316 25.0319 100.329 25.1621 100.83 25.1816C101.364 25.1947 101.859 25.0742 102.314 24.8203C102.77 24.5664 103.161 24.2279 103.486 23.8047C103.812 23.3815 104.046 22.9225 104.189 22.4277L104.57 20.0547C104.59 19.6966 104.548 19.3548 104.443 19.0293C104.339 18.6973 104.183 18.401 103.975 18.1406C103.773 17.8802 103.522 17.6719 103.223 17.5156C102.93 17.3529 102.601 17.2682 102.236 17.2617C101.689 17.2422 101.217 17.3496 100.82 17.584C100.423 17.8118 100.088 18.1211 99.8145 18.5117C99.5475 18.8958 99.3359 19.3223 99.1797 19.791C99.0234 20.2598 98.9128 20.7253 98.8477 21.1875ZM111.973 26.6953C111.25 26.6823 110.622 26.5391 110.088 26.2656C109.561 25.9857 109.128 25.6113 108.789 25.1426C108.457 24.6673 108.219 24.127 108.076 23.5215C107.933 22.916 107.891 22.2812 107.949 21.6172L107.988 21.1973C108.053 20.5202 108.219 19.8561 108.486 19.2051C108.753 18.5475 109.108 17.9551 109.551 17.4277C110 16.9004 110.527 16.4837 111.133 16.1777C111.745 15.8652 112.422 15.7188 113.164 15.7383C113.9 15.7513 114.512 15.9076 115 16.207C115.488 16.5065 115.869 16.9036 116.143 17.3984C116.423 17.8867 116.605 18.4368 116.689 19.0488C116.774 19.6543 116.781 20.276 116.709 20.9141L116.602 21.7246H108.936L109.17 20.25L115.02 20.2598L115.049 20.1035C115.114 19.6348 115.088 19.1823 114.971 18.7461C114.854 18.3099 114.639 17.9518 114.326 17.6719C114.02 17.3854 113.607 17.2357 113.086 17.2227C112.546 17.2031 112.077 17.3138 111.68 17.5547C111.283 17.7891 110.951 18.1081 110.684 18.5117C110.417 18.9089 110.205 19.3451 110.049 19.8203C109.899 20.2891 109.795 20.748 109.736 21.1973L109.697 21.6074C109.658 22.0241 109.671 22.444 109.736 22.8672C109.801 23.2904 109.925 23.6777 110.107 24.0293C110.296 24.3743 110.557 24.6576 110.889 24.8789C111.221 25.0938 111.631 25.2077 112.119 25.2207C112.712 25.2337 113.242 25.1068 113.711 24.8398C114.186 24.5664 114.619 24.2214 115.01 23.8047L116.016 24.6641C115.71 25.1133 115.345 25.4909 114.922 25.7969C114.499 26.1029 114.036 26.3307 113.535 26.4805C113.034 26.6302 112.513 26.7018 111.973 26.6953ZM129.238 23.6387C129.297 23.235 129.222 22.9193 129.014 22.6914C128.812 22.4635 128.545 22.291 128.213 22.1738C127.887 22.0501 127.568 21.9492 127.256 21.8711C126.865 21.7734 126.471 21.653 126.074 21.5098C125.677 21.3665 125.312 21.1842 124.98 20.9629C124.655 20.735 124.395 20.4551 124.199 20.123C124.01 19.7845 123.926 19.3743 123.945 18.8926C123.971 18.3717 124.108 17.9128 124.355 17.5156C124.609 17.1185 124.935 16.7865 125.332 16.5195C125.736 16.2526 126.175 16.054 126.65 15.9238C127.126 15.7936 127.598 15.7318 128.066 15.7383C128.73 15.7513 129.333 15.888 129.873 16.1484C130.42 16.4089 130.853 16.7832 131.172 17.2715C131.491 17.7598 131.641 18.3522 131.621 19.0488L129.873 19.0391C129.886 18.668 129.811 18.349 129.648 18.082C129.486 17.8151 129.261 17.61 128.975 17.4668C128.688 17.3171 128.363 17.2389 127.998 17.2324C127.653 17.2259 127.314 17.2812 126.982 17.3984C126.65 17.5091 126.367 17.6849 126.133 17.9258C125.898 18.1602 125.755 18.4661 125.703 18.8438C125.664 19.1237 125.706 19.3548 125.83 19.5371C125.954 19.7129 126.123 19.8561 126.338 19.9668C126.559 20.071 126.79 20.1589 127.031 20.2305C127.279 20.2956 127.503 20.3542 127.705 20.4062C128.239 20.556 128.766 20.7448 129.287 20.9727C129.808 21.2005 130.231 21.5163 130.557 21.9199C130.882 22.3171 131.029 22.8411 130.996 23.4922C130.97 24.0456 130.824 24.5273 130.557 24.9375C130.296 25.3411 129.958 25.6764 129.541 25.9434C129.131 26.2038 128.678 26.3958 128.184 26.5195C127.689 26.6432 127.194 26.7018 126.699 26.6953C126.016 26.6823 125.378 26.5423 124.785 26.2754C124.199 26.002 123.73 25.6113 123.379 25.1035C123.027 24.5892 122.861 23.9642 122.881 23.2285L124.648 23.2383C124.648 23.6615 124.736 24.0195 124.912 24.3125C125.094 24.599 125.345 24.8171 125.664 24.9668C125.983 25.1165 126.348 25.1947 126.758 25.2012C127.103 25.2077 127.454 25.1621 127.812 25.0645C128.177 24.9668 128.49 24.804 128.75 24.5762C129.017 24.3418 129.18 24.0293 129.238 23.6387ZM133.193 21.3926L133.223 21.168C133.301 20.4583 133.477 19.7747 133.75 19.1172C134.03 18.4596 134.398 17.8737 134.854 17.3594C135.309 16.8451 135.85 16.4414 136.475 16.1484C137.1 15.8555 137.796 15.7188 138.564 15.7383C139.307 15.7513 139.941 15.9108 140.469 16.2168C141.003 16.5228 141.432 16.9297 141.758 17.4375C142.09 17.9388 142.321 18.5052 142.451 19.1367C142.581 19.7682 142.614 20.4193 142.549 21.0898L142.529 21.3145C142.445 22.0241 142.262 22.7044 141.982 23.3555C141.702 24.0065 141.331 24.5859 140.869 25.0938C140.413 25.6016 139.873 26.002 139.248 26.2949C138.623 26.5814 137.93 26.7148 137.168 26.6953C136.432 26.6823 135.798 26.526 135.264 26.2266C134.736 25.9206 134.31 25.5169 133.984 25.0156C133.659 24.5143 133.431 23.9512 133.301 23.3262C133.171 22.7012 133.135 22.0566 133.193 21.3926ZM134.98 21.168L134.961 21.4023C134.915 21.8125 134.912 22.2389 134.951 22.6816C134.997 23.1243 135.101 23.5345 135.264 23.9121C135.433 24.2897 135.677 24.599 135.996 24.8398C136.315 25.0807 136.729 25.2077 137.236 25.2207C137.777 25.2337 138.252 25.1296 138.662 24.9082C139.072 24.6803 139.421 24.3743 139.707 23.9902C140 23.6061 140.231 23.1797 140.4 22.7109C140.576 22.2422 140.693 21.7767 140.752 21.3145L140.771 21.0898C140.817 20.6797 140.817 20.2533 140.771 19.8105C140.732 19.3613 140.628 18.9447 140.459 18.5605C140.296 18.1699 140.055 17.8542 139.736 17.6133C139.417 17.3659 139.004 17.2357 138.496 17.2227C137.956 17.2031 137.477 17.3105 137.061 17.5449C136.65 17.7728 136.302 18.082 136.016 18.4727C135.729 18.8633 135.498 19.2962 135.322 19.7715C135.153 20.2402 135.039 20.7057 134.98 21.168ZM148.213 25.2207C148.643 25.2272 149.043 25.1458 149.414 24.9766C149.785 24.8073 150.101 24.5664 150.361 24.2539C150.622 23.9414 150.807 23.5801 150.918 23.1699L152.598 23.1602C152.493 23.8698 152.217 24.4915 151.768 25.0254C151.325 25.5592 150.781 25.9759 150.137 26.2754C149.499 26.5684 148.831 26.7083 148.135 26.6953C147.393 26.6823 146.761 26.5293 146.24 26.2363C145.726 25.9368 145.312 25.5397 145 25.0449C144.688 24.5501 144.473 23.9935 144.355 23.375C144.238 22.75 144.212 22.1087 144.277 21.4512L144.316 21.0312C144.395 20.3216 144.567 19.6478 144.834 19.0098C145.101 18.3652 145.456 17.7956 145.898 17.3008C146.348 16.7995 146.878 16.4089 147.49 16.1289C148.102 15.849 148.789 15.7188 149.551 15.7383C150.293 15.7513 150.938 15.9271 151.484 16.2656C152.031 16.5977 152.454 17.0501 152.754 17.623C153.053 18.196 153.203 18.847 153.203 19.5762L151.543 19.5664C151.536 19.1497 151.455 18.7656 151.299 18.4141C151.143 18.0625 150.911 17.7793 150.605 17.5645C150.299 17.3496 149.922 17.2324 149.473 17.2129C148.932 17.1999 148.46 17.3008 148.057 17.5156C147.66 17.7305 147.321 18.0267 147.041 18.4043C146.768 18.7754 146.549 19.1888 146.387 19.6445C146.23 20.1003 146.123 20.5625 146.064 21.0312L146.016 21.4414C145.977 21.8581 145.97 22.2845 145.996 22.7207C146.029 23.1569 146.12 23.5638 146.27 23.9414C146.419 24.3125 146.65 24.6152 146.963 24.8496C147.275 25.084 147.692 25.2077 148.213 25.2207ZM157.715 15.9336L155.879 26.5H154.111L155.947 15.9336H157.715ZM156.299 13.1602C156.299 12.8542 156.393 12.6003 156.582 12.3984C156.777 12.1901 157.028 12.0827 157.334 12.0762C157.64 12.0697 157.891 12.1641 158.086 12.3594C158.288 12.5547 158.385 12.8021 158.379 13.1016C158.379 13.401 158.278 13.6517 158.076 13.8535C157.881 14.0488 157.633 14.1497 157.334 14.1562C157.035 14.1628 156.787 14.0749 156.592 13.8926C156.396 13.7038 156.299 13.4596 156.299 13.1602ZM163.164 26.6953C162.441 26.6823 161.813 26.5391 161.279 26.2656C160.752 25.9857 160.319 25.6113 159.98 25.1426C159.648 24.6673 159.411 24.127 159.268 23.5215C159.124 22.916 159.082 22.2812 159.141 21.6172L159.18 21.1973C159.245 20.5202 159.411 19.8561 159.678 19.2051C159.945 18.5475 160.299 17.9551 160.742 17.4277C161.191 16.9004 161.719 16.4837 162.324 16.1777C162.936 15.8652 163.613 15.7188 164.355 15.7383C165.091 15.7513 165.703 15.9076 166.191 16.207C166.68 16.5065 167.061 16.9036 167.334 17.3984C167.614 17.8867 167.796 18.4368 167.881 19.0488C167.965 19.6543 167.972 20.276 167.9 20.9141L167.793 21.7246H160.127L160.361 20.25L166.211 20.2598L166.24 20.1035C166.305 19.6348 166.279 19.1823 166.162 18.7461C166.045 18.3099 165.83 17.9518 165.518 17.6719C165.212 17.3854 164.798 17.2357 164.277 17.2227C163.737 17.2031 163.268 17.3138 162.871 17.5547C162.474 17.7891 162.142 18.1081 161.875 18.5117C161.608 18.9089 161.396 19.3451 161.24 19.8203C161.09 20.2891 160.986 20.748 160.928 21.1973L160.889 21.6074C160.85 22.0241 160.863 22.444 160.928 22.8672C160.993 23.2904 161.117 23.6777 161.299 24.0293C161.488 24.3743 161.748 24.6576 162.08 24.8789C162.412 25.0938 162.822 25.2077 163.311 25.2207C163.903 25.2337 164.434 25.1068 164.902 24.8398C165.378 24.5664 165.811 24.2214 166.201 23.8047L167.207 24.6641C166.901 25.1133 166.536 25.4909 166.113 25.7969C165.69 26.1029 165.228 26.3307 164.727 26.4805C164.225 26.6302 163.704 26.7018 163.164 26.6953ZM163.682 14.3711L165.977 11.5H168.223L165.234 14.3711H163.682ZM175.127 15.9336L174.883 17.3203H169.326L169.57 15.9336H175.127ZM171.895 13.3652H173.652L171.865 23.9023C171.846 24.1302 171.852 24.3353 171.885 24.5176C171.917 24.6999 171.995 24.8464 172.119 24.957C172.243 25.0612 172.432 25.1165 172.686 25.123C172.829 25.123 172.969 25.1133 173.105 25.0938C173.249 25.0677 173.392 25.0449 173.535 25.0254L173.408 26.5098C173.2 26.5684 172.985 26.6107 172.764 26.6367C172.549 26.6693 172.334 26.6823 172.119 26.6758C171.579 26.6693 171.156 26.5326 170.85 26.2656C170.544 25.9987 170.335 25.6536 170.225 25.2305C170.114 24.8073 170.081 24.3548 170.127 23.873L171.895 13.3652ZM179.805 26.6953C179.082 26.6823 178.454 26.5391 177.92 26.2656C177.393 25.9857 176.96 25.6113 176.621 25.1426C176.289 24.6673 176.051 24.127 175.908 23.5215C175.765 22.916 175.723 22.2812 175.781 21.6172L175.82 21.1973C175.885 20.5202 176.051 19.8561 176.318 19.2051C176.585 18.5475 176.94 17.9551 177.383 17.4277C177.832 16.9004 178.359 16.4837 178.965 16.1777C179.577 15.8652 180.254 15.7188 180.996 15.7383C181.732 15.7513 182.344 15.9076 182.832 16.207C183.32 16.5065 183.701 16.9036 183.975 17.3984C184.255 17.8867 184.437 18.4368 184.521 19.0488C184.606 19.6543 184.613 20.276 184.541 20.9141L184.434 21.7246H176.768L177.002 20.25L182.852 20.2598L182.881 20.1035C182.946 19.6348 182.92 19.1823 182.803 18.7461C182.686 18.3099 182.471 17.9518 182.158 17.6719C181.852 17.3854 181.439 17.2357 180.918 17.2227C180.378 17.2031 179.909 17.3138 179.512 17.5547C179.115 17.7891 178.783 18.1081 178.516 18.5117C178.249 18.9089 178.037 19.3451 177.881 19.8203C177.731 20.2891 177.627 20.748 177.568 21.1973L177.529 21.6074C177.49 22.0241 177.503 22.444 177.568 22.8672C177.633 23.2904 177.757 23.6777 177.939 24.0293C178.128 24.3743 178.389 24.6576 178.721 24.8789C179.053 25.0938 179.463 25.2077 179.951 25.2207C180.544 25.2337 181.074 25.1068 181.543 24.8398C182.018 24.5664 182.451 24.2214 182.842 23.8047L183.848 24.6641C183.542 25.1133 183.177 25.4909 182.754 25.7969C182.331 26.1029 181.868 26.3307 181.367 26.4805C180.866 26.6302 180.345 26.7018 179.805 26.6953ZM180.322 14.3711L182.617 11.5H184.863L181.875 14.3711H180.322Z" fill="#0F172A"/>
</svg>
