<svg width="181" height="40" viewBox="0 0 181 40" fill="none" xmlns="http://www.w3.org/2000/svg">
<rect width="181" height="40" rx="8" fill="#FFABDF"/>
<path fill-rule="evenodd" clip-rule="evenodd" d="M34.6854 27.0971C36.5721 25.3191 37.75 22.7971 37.75 20C37.75 14.6152 33.3848 10.25 28 10.25C22.6152 10.25 18.25 14.6152 18.25 20C18.25 22.7971 19.4279 25.3191 21.3146 27.0971C23.0601 28.7419 25.4123 29.75 28 29.75C30.5877 29.75 32.9399 28.7419 34.6854 27.0971ZM22.1451 25.8123C23.5196 24.0978 25.6316 23 28 23C30.3684 23 32.4804 24.0978 33.8549 25.8123C32.3603 27.3178 30.289 28.25 28 28.25C25.711 28.25 23.6397 27.3178 22.1451 25.8123ZM31.75 17C31.75 19.0711 30.0711 20.75 28 20.75C25.9289 20.75 24.25 19.0711 24.25 17C24.25 14.9289 25.9289 13.25 28 13.25C30.0711 13.25 31.75 14.9289 31.75 17Z" fill="#0F172A"/>
<path d="M59.6289 24.9668L59.3555 26.5H52.041L52.3047 24.9668H59.6289ZM54.8926 12.2812L52.4219 26.5H50.5762L53.0469 12.2812H54.8926ZM59.7949 18.3945L59.5312 19.9277H53.1738L53.4473 18.3945H59.7949ZM61.7285 12.2812L61.4551 13.8242H54.2383L54.5117 12.2812H61.7285ZM67.8711 23.6387C67.9297 23.235 67.8548 22.9193 67.6465 22.6914C67.4447 22.4635 67.1777 22.291 66.8457 22.1738C66.5202 22.0501 66.2012 21.9492 65.8887 21.8711C65.498 21.7734 65.1042 21.653 64.707 21.5098C64.3099 21.3665 63.9453 21.1842 63.6133 20.9629C63.2878 20.735 63.0273 20.4551 62.832 20.123C62.6432 19.7845 62.5586 19.3743 62.5781 18.8926C62.6042 18.3717 62.7409 17.9128 62.9883 17.5156C63.2422 17.1185 63.5677 16.7865 63.9648 16.5195C64.3685 16.2526 64.8079 16.054 65.2832 15.9238C65.7585 15.7936 66.2305 15.7318 66.6992 15.7383C67.3633 15.7513 67.9655 15.888 68.5059 16.1484C69.0527 16.4089 69.4857 16.7832 69.8047 17.2715C70.1237 17.7598 70.2734 18.3522 70.2539 19.0488L68.5059 19.0391C68.5189 18.668 68.444 18.349 68.2812 18.082C68.1185 17.8151 67.8939 17.61 67.6074 17.4668C67.321 17.3171 66.9954 17.2389 66.6309 17.2324C66.2858 17.2259 65.9473 17.2812 65.6152 17.3984C65.2832 17.5091 65 17.6849 64.7656 17.9258C64.5312 18.1602 64.388 18.4661 64.3359 18.8438C64.2969 19.1237 64.3392 19.3548 64.4629 19.5371C64.5866 19.7129 64.7559 19.8561 64.9707 19.9668C65.1921 20.071 65.4232 20.1589 65.6641 20.2305C65.9115 20.2956 66.1361 20.3542 66.3379 20.4062C66.8717 20.556 67.3991 20.7448 67.9199 20.9727C68.4408 21.2005 68.8639 21.5163 69.1895 21.9199C69.515 22.3171 69.6615 22.8411 69.6289 23.4922C69.6029 24.0456 69.4564 24.5273 69.1895 24.9375C68.929 25.3411 68.5905 25.6764 68.1738 25.9434C67.7637 26.2038 67.3112 26.3958 66.8164 26.5195C66.3216 26.6432 65.8268 26.7018 65.332 26.6953C64.6484 26.6823 64.0104 26.5423 63.418 26.2754C62.832 26.002 62.3633 25.6113 62.0117 25.1035C61.6602 24.5892 61.4941 23.9642 61.5137 23.2285L63.2812 23.2383C63.2812 23.6615 63.3691 24.0195 63.5449 24.3125C63.7272 24.599 63.9779 24.8171 64.2969 24.9668C64.6159 25.1165 64.9805 25.1947 65.3906 25.2012C65.7357 25.2077 66.0872 25.1621 66.4453 25.0645C66.8099 24.9668 67.1224 24.804 67.3828 24.5762C67.6497 24.3418 67.8125 24.0293 67.8711 23.6387ZM74.5996 18.0723L72.4316 30.5625H70.6543L73.1934 15.9336H74.8145L74.5996 18.0723ZM80.957 21.0703L80.9375 21.2754C80.8529 21.9134 80.6966 22.5579 80.4688 23.209C80.2474 23.8535 79.9447 24.4427 79.5605 24.9766C79.1764 25.5104 78.7044 25.9368 78.1445 26.2559C77.5911 26.5749 76.9401 26.7246 76.1914 26.7051C75.5339 26.6921 74.9707 26.5488 74.502 26.2754C74.0332 25.9954 73.6556 25.6276 73.3691 25.1719C73.0827 24.7096 72.8776 24.1953 72.7539 23.6289C72.6367 23.056 72.5977 22.4701 72.6367 21.8711L72.7734 20.7871C72.8841 20.1491 73.0697 19.5273 73.3301 18.9219C73.597 18.3099 73.9355 17.7598 74.3457 17.2715C74.7559 16.7832 75.2409 16.4023 75.8008 16.1289C76.3672 15.849 77.0085 15.7188 77.7246 15.7383C78.4473 15.7578 79.0332 15.9336 79.4824 16.2656C79.9382 16.5911 80.2832 17.0176 80.5176 17.5449C80.7585 18.0658 80.9082 18.6354 80.9668 19.2539C81.0254 19.8659 81.0221 20.4714 80.957 21.0703ZM79.1602 21.2656L79.1895 21.0508C79.235 20.6602 79.2448 20.2467 79.2188 19.8105C79.1992 19.3743 79.1178 18.9674 78.9746 18.5898C78.8379 18.2057 78.6198 17.89 78.3203 17.6426C78.0273 17.3952 77.627 17.265 77.1191 17.252C76.7155 17.2389 76.3314 17.3073 75.9668 17.457C75.6087 17.6003 75.2832 17.8053 74.9902 18.0723C74.6973 18.3327 74.4466 18.6354 74.2383 18.9805C74.0299 19.319 73.877 19.6771 73.7793 20.0547L73.3594 22.6035C73.3529 23.0658 73.4538 23.4954 73.6621 23.8926C73.8704 24.2832 74.1536 24.599 74.5117 24.8398C74.8763 25.0807 75.2897 25.2077 75.752 25.2207C76.2923 25.2337 76.7611 25.1263 77.1582 24.8984C77.5618 24.6641 77.9004 24.3516 78.1738 23.9609C78.4473 23.5638 78.6654 23.1309 78.8281 22.6621C78.9909 22.1868 79.1016 21.7214 79.1602 21.2656ZM88.6523 24.6934L89.5312 19.2344C89.5768 18.8307 89.5378 18.4759 89.4141 18.1699C89.2969 17.8639 89.0983 17.6263 88.8184 17.457C88.5449 17.2878 88.1999 17.1966 87.7832 17.1836C87.4186 17.1771 87.0605 17.2357 86.709 17.3594C86.3639 17.4831 86.0645 17.6686 85.8105 17.916C85.5566 18.1634 85.3906 18.4759 85.3125 18.8535L83.5547 18.8633C83.6003 18.3359 83.7663 17.877 84.0527 17.4863C84.3392 17.0892 84.6973 16.7604 85.127 16.5C85.5566 16.2331 86.0189 16.0378 86.5137 15.9141C87.0085 15.7839 87.4902 15.722 87.959 15.7285C88.6686 15.7415 89.2839 15.8945 89.8047 16.1875C90.332 16.474 90.7292 16.8776 90.9961 17.3984C91.263 17.9193 91.3607 18.5443 91.2891 19.2734L90.4785 24.1953C90.4199 24.5534 90.3841 24.9147 90.3711 25.2793C90.3646 25.6374 90.4069 25.9889 90.498 26.334L90.4785 26.5L88.6914 26.5098C88.6198 26.2103 88.584 25.9076 88.584 25.6016C88.5905 25.2956 88.6133 24.9928 88.6523 24.6934ZM89.7363 20.0938L89.5312 21.3633L87.8613 21.3535C87.5098 21.3535 87.1387 21.3796 86.748 21.4316C86.3574 21.4837 85.9863 21.5814 85.6348 21.7246C85.2832 21.8678 84.987 22.0762 84.7461 22.3496C84.5052 22.6165 84.3587 22.9648 84.3066 23.3945C84.2676 23.7461 84.3099 24.0521 84.4336 24.3125C84.5638 24.5664 84.7591 24.765 85.0195 24.9082C85.2799 25.0514 85.5827 25.1263 85.9277 25.1328C86.377 25.1393 86.8197 25.0514 87.2559 24.8691C87.6921 24.6868 88.0729 24.4264 88.3984 24.0879C88.724 23.7493 88.9486 23.3587 89.0723 22.916L89.7168 23.7852C89.5931 24.2148 89.3913 24.612 89.1113 24.9766C88.8314 25.3346 88.4993 25.6439 88.1152 25.9043C87.7376 26.1647 87.3307 26.3665 86.8945 26.5098C86.4583 26.653 86.0221 26.7214 85.5859 26.7148C84.9935 26.7018 84.4564 26.5684 83.9746 26.3145C83.4993 26.0605 83.1217 25.7057 82.8418 25.25C82.5684 24.7878 82.4512 24.2507 82.4902 23.6387C82.5293 22.9681 82.7051 22.4049 83.0176 21.9492C83.3301 21.4935 83.7305 21.1289 84.2188 20.8555C84.7135 20.582 85.2539 20.3867 85.8398 20.2695C86.4258 20.1458 87.0052 20.084 87.5781 20.084L89.7363 20.0938ZM97.2363 25.2207C97.666 25.2272 98.0664 25.1458 98.4375 24.9766C98.8086 24.8073 99.1243 24.5664 99.3848 24.2539C99.6452 23.9414 99.8307 23.5801 99.9414 23.1699L101.621 23.1602C101.517 23.8698 101.24 24.4915 100.791 25.0254C100.348 25.5592 99.8047 25.9759 99.1602 26.2754C98.5221 26.5684 97.8548 26.7083 97.1582 26.6953C96.416 26.6823 95.7845 26.5293 95.2637 26.2363C94.7493 25.9368 94.3359 25.5397 94.0234 25.0449C93.7109 24.5501 93.4961 23.9935 93.3789 23.375C93.2617 22.75 93.2357 22.1087 93.3008 21.4512L93.3398 21.0312C93.418 20.3216 93.5905 19.6478 93.8574 19.0098C94.1243 18.3652 94.4792 17.7956 94.9219 17.3008C95.3711 16.7995 95.9017 16.4089 96.5137 16.1289C97.1257 15.849 97.8125 15.7188 98.5742 15.7383C99.3164 15.7513 99.9609 15.9271 100.508 16.2656C101.055 16.5977 101.478 17.0501 101.777 17.623C102.077 18.196 102.227 18.847 102.227 19.5762L100.566 19.5664C100.56 19.1497 100.479 18.7656 100.322 18.4141C100.166 18.0625 99.9349 17.7793 99.6289 17.5645C99.3229 17.3496 98.9453 17.2324 98.4961 17.2129C97.9557 17.1999 97.4837 17.3008 97.0801 17.5156C96.6829 17.7305 96.3444 18.0267 96.0645 18.4043C95.791 18.7754 95.5729 19.1888 95.4102 19.6445C95.2539 20.1003 95.1465 20.5625 95.0879 21.0312L95.0391 21.4414C95 21.8581 94.9935 22.2845 95.0195 22.7207C95.0521 23.1569 95.1432 23.5638 95.293 23.9414C95.4427 24.3125 95.6738 24.6152 95.9863 24.8496C96.2988 25.084 96.7155 25.2077 97.2363 25.2207ZM107.461 26.6953C106.738 26.6823 106.11 26.5391 105.576 26.2656C105.049 25.9857 104.616 25.6113 104.277 25.1426C103.945 24.6673 103.708 24.127 103.564 23.5215C103.421 22.916 103.379 22.2812 103.438 21.6172L103.477 21.1973C103.542 20.5202 103.708 19.8561 103.975 19.2051C104.242 18.5475 104.596 17.9551 105.039 17.4277C105.488 16.9004 106.016 16.4837 106.621 16.1777C107.233 15.8652 107.91 15.7188 108.652 15.7383C109.388 15.7513 110 15.9076 110.488 16.207C110.977 16.5065 111.357 16.9036 111.631 17.3984C111.911 17.8867 112.093 18.4368 112.178 19.0488C112.262 19.6543 112.269 20.276 112.197 20.9141L112.09 21.7246H104.424L104.658 20.25L110.508 20.2598L110.537 20.1035C110.602 19.6348 110.576 19.1823 110.459 18.7461C110.342 18.3099 110.127 17.9518 109.814 17.6719C109.508 17.3854 109.095 17.2357 108.574 17.2227C108.034 17.2031 107.565 17.3138 107.168 17.5547C106.771 17.7891 106.439 18.1081 106.172 18.5117C105.905 18.9089 105.693 19.3451 105.537 19.8203C105.387 20.2891 105.283 20.748 105.225 21.1973L105.186 21.6074C105.146 22.0241 105.16 22.444 105.225 22.8672C105.29 23.2904 105.413 23.6777 105.596 24.0293C105.785 24.3743 106.045 24.6576 106.377 24.8789C106.709 25.0938 107.119 25.2077 107.607 25.2207C108.2 25.2337 108.73 25.1068 109.199 24.8398C109.674 24.5664 110.107 24.2214 110.498 23.8047L111.504 24.6641C111.198 25.1133 110.833 25.4909 110.41 25.7969C109.987 26.1029 109.525 26.3307 109.023 26.4805C108.522 26.6302 108.001 26.7018 107.461 26.6953ZM122.607 25.2207C123.037 25.2272 123.438 25.1458 123.809 24.9766C124.18 24.8073 124.495 24.5664 124.756 24.2539C125.016 23.9414 125.202 23.5801 125.312 23.1699L126.992 23.1602C126.888 23.8698 126.611 24.4915 126.162 25.0254C125.719 25.5592 125.176 25.9759 124.531 26.2754C123.893 26.5684 123.226 26.7083 122.529 26.6953C121.787 26.6823 121.156 26.5293 120.635 26.2363C120.12 25.9368 119.707 25.5397 119.395 25.0449C119.082 24.5501 118.867 23.9935 118.75 23.375C118.633 22.75 118.607 22.1087 118.672 21.4512L118.711 21.0312C118.789 20.3216 118.962 19.6478 119.229 19.0098C119.495 18.3652 119.85 17.7956 120.293 17.3008C120.742 16.7995 121.273 16.4089 121.885 16.1289C122.497 15.849 123.184 15.7188 123.945 15.7383C124.688 15.7513 125.332 15.9271 125.879 16.2656C126.426 16.5977 126.849 17.0501 127.148 17.623C127.448 18.196 127.598 18.847 127.598 19.5762L125.938 19.5664C125.931 19.1497 125.85 18.7656 125.693 18.4141C125.537 18.0625 125.306 17.7793 125 17.5645C124.694 17.3496 124.316 17.2324 123.867 17.2129C123.327 17.1999 122.855 17.3008 122.451 17.5156C122.054 17.7305 121.715 18.0267 121.436 18.4043C121.162 18.7754 120.944 19.1888 120.781 19.6445C120.625 20.1003 120.518 20.5625 120.459 21.0312L120.41 21.4414C120.371 21.8581 120.365 22.2845 120.391 22.7207C120.423 23.1569 120.514 23.5638 120.664 23.9414C120.814 24.3125 121.045 24.6152 121.357 24.8496C121.67 25.084 122.087 25.2077 122.607 25.2207ZM132.881 11.5L130.273 26.5H128.506L131.104 11.5H132.881ZM136.836 15.9336L135 26.5H133.232L135.068 15.9336H136.836ZM135.42 13.1602C135.42 12.8542 135.514 12.6003 135.703 12.3984C135.898 12.1901 136.149 12.0827 136.455 12.0762C136.761 12.0697 137.012 12.1641 137.207 12.3594C137.409 12.5547 137.507 12.8021 137.5 13.1016C137.5 13.401 137.399 13.6517 137.197 13.8535C137.002 14.0488 136.755 14.1497 136.455 14.1562C136.156 14.1628 135.908 14.0749 135.713 13.8926C135.518 13.7038 135.42 13.4596 135.42 13.1602ZM142.285 26.6953C141.562 26.6823 140.934 26.5391 140.4 26.2656C139.873 25.9857 139.44 25.6113 139.102 25.1426C138.77 24.6673 138.532 24.127 138.389 23.5215C138.245 22.916 138.203 22.2812 138.262 21.6172L138.301 21.1973C138.366 20.5202 138.532 19.8561 138.799 19.2051C139.066 18.5475 139.421 17.9551 139.863 17.4277C140.312 16.9004 140.84 16.4837 141.445 16.1777C142.057 15.8652 142.734 15.7188 143.477 15.7383C144.212 15.7513 144.824 15.9076 145.312 16.207C145.801 16.5065 146.182 16.9036 146.455 17.3984C146.735 17.8867 146.917 18.4368 147.002 19.0488C147.087 19.6543 147.093 20.276 147.021 20.9141L146.914 21.7246H139.248L139.482 20.25L145.332 20.2598L145.361 20.1035C145.426 19.6348 145.4 19.1823 145.283 18.7461C145.166 18.3099 144.951 17.9518 144.639 17.6719C144.333 17.3854 143.919 17.2357 143.398 17.2227C142.858 17.2031 142.389 17.3138 141.992 17.5547C141.595 17.7891 141.263 18.1081 140.996 18.5117C140.729 18.9089 140.518 19.3451 140.361 19.8203C140.212 20.2891 140.107 20.748 140.049 21.1973L140.01 21.6074C139.971 22.0241 139.984 22.444 140.049 22.8672C140.114 23.2904 140.238 23.6777 140.42 24.0293C140.609 24.3743 140.869 24.6576 141.201 24.8789C141.533 25.0938 141.943 25.2077 142.432 25.2207C143.024 25.2337 143.555 25.1068 144.023 24.8398C144.499 24.5664 144.932 24.2214 145.322 23.8047L146.328 24.6641C146.022 25.1133 145.658 25.4909 145.234 25.7969C144.811 26.1029 144.349 26.3307 143.848 26.4805C143.346 26.6302 142.826 26.7018 142.285 26.6953ZM151.299 18.2969L149.873 26.5H148.105L149.941 15.9336H151.611L151.299 18.2969ZM150.479 20.8164L149.756 20.7969C149.847 20.1654 150.013 19.5469 150.254 18.9414C150.501 18.3294 150.824 17.7793 151.221 17.291C151.624 16.8027 152.103 16.4186 152.656 16.1387C153.216 15.8522 153.854 15.7188 154.57 15.7383C155.137 15.7513 155.609 15.862 155.986 16.0703C156.37 16.2721 156.67 16.5488 156.885 16.9004C157.1 17.252 157.243 17.6589 157.314 18.1211C157.386 18.5768 157.393 19.0618 157.334 19.5762L156.182 26.5H154.404L155.576 19.5469C155.622 19.1237 155.605 18.7428 155.527 18.4043C155.456 18.0592 155.293 17.7858 155.039 17.584C154.792 17.3757 154.434 17.265 153.965 17.252C153.47 17.2389 153.024 17.3333 152.627 17.5352C152.23 17.737 151.882 18.0137 151.582 18.3652C151.289 18.7103 151.048 19.0977 150.859 19.5273C150.677 19.9505 150.55 20.3802 150.479 20.8164ZM164.971 15.9336L164.727 17.3203H159.17L159.414 15.9336H164.971ZM161.738 13.3652H163.496L161.709 23.9023C161.689 24.1302 161.696 24.3353 161.729 24.5176C161.761 24.6999 161.839 24.8464 161.963 24.957C162.087 25.0612 162.275 25.1165 162.529 25.123C162.673 25.123 162.812 25.1133 162.949 25.0938C163.092 25.0677 163.236 25.0449 163.379 25.0254L163.252 26.5098C163.044 26.5684 162.829 26.6107 162.607 26.6367C162.393 26.6693 162.178 26.6823 161.963 26.6758C161.423 26.6693 160.999 26.5326 160.693 26.2656C160.387 25.9987 160.179 25.6536 160.068 25.2305C159.958 24.8073 159.925 24.3548 159.971 23.873L161.738 13.3652Z" fill="#0F172A"/>
</svg>
