<svg width="126" height="40" viewBox="0 0 126 40" fill="none" xmlns="http://www.w3.org/2000/svg">
<rect width="125.8" height="40" rx="8" fill="#F0FFF2"/>
<path d="M26.8498 26.75C26.4218 26.75 26.0748 27.0858 26.0748 27.5C26.0748 27.9142 26.4218 28.25 26.8498 28.25H29.9498C30.3778 28.25 30.7248 27.9142 30.7248 27.5C30.7248 27.0858 30.3778 26.75 29.9498 26.75H26.8498Z" fill="#0F172A"/>
<path fill-rule="evenodd" clip-rule="evenodd" d="M24.9123 8.75C22.9862 8.75 21.4248 10.261 21.4248 12.125V27.875C21.4248 29.739 22.9862 31.25 24.9123 31.25H31.8873C33.8134 31.25 35.3748 29.739 35.3748 27.875V12.125C35.3748 10.261 33.8134 8.75 31.8873 8.75H24.9123ZM23.7498 12.125C23.7498 11.5037 24.2703 11 24.9123 11H26.0748V11.375C26.0748 11.9963 26.5953 12.5 27.2373 12.5H29.5623C30.2043 12.5 30.7248 11.9963 30.7248 11.375V11H31.8873C32.5293 11 33.0498 11.5037 33.0498 12.125V27.875C33.0498 28.4963 32.5293 29 31.8873 29H24.9123C24.2703 29 23.7498 28.4963 23.7498 27.875V12.125Z" fill="#0F172A"/>
<path d="M54.4629 12.2812H56.1621L58.6719 23.8535L65.1855 12.2812H67.0605L58.9844 26.5H57.5879L54.4629 12.2812ZM53.8477 12.2812H55.4199L54.1699 21.0117L53.2129 26.5H51.377L53.8477 12.2812ZM66.0059 12.2812H67.5879L65.1172 26.5H63.291L64.2676 20.8555L66.0059 12.2812ZM68.5059 21.3926L68.5352 21.168C68.6133 20.4583 68.7891 19.7747 69.0625 19.1172C69.3424 18.4596 69.7103 17.8737 70.166 17.3594C70.6217 16.8451 71.1621 16.4414 71.7871 16.1484C72.4121 15.8555 73.1087 15.7188 73.877 15.7383C74.6191 15.7513 75.2539 15.9108 75.7812 16.2168C76.3151 16.5228 76.7448 16.9297 77.0703 17.4375C77.4023 17.9388 77.6335 18.5052 77.7637 19.1367C77.8939 19.7682 77.9264 20.4193 77.8613 21.0898L77.8418 21.3145C77.7572 22.0241 77.5749 22.7044 77.2949 23.3555C77.015 24.0065 76.6439 24.5859 76.1816 25.0938C75.7259 25.6016 75.1855 26.002 74.5605 26.2949C73.9355 26.5814 73.2422 26.7148 72.4805 26.6953C71.7448 26.6823 71.11 26.526 70.5762 26.2266C70.0488 25.9206 69.6224 25.5169 69.2969 25.0156C68.9714 24.5143 68.7435 23.9512 68.6133 23.3262C68.4831 22.7012 68.4473 22.0566 68.5059 21.3926ZM70.293 21.168L70.2734 21.4023C70.2279 21.8125 70.2246 22.2389 70.2637 22.6816C70.3092 23.1243 70.4134 23.5345 70.5762 23.9121C70.7454 24.2897 70.9896 24.599 71.3086 24.8398C71.6276 25.0807 72.041 25.2077 72.5488 25.2207C73.0892 25.2337 73.5645 25.1296 73.9746 24.9082C74.3848 24.6803 74.7331 24.3743 75.0195 23.9902C75.3125 23.6061 75.5436 23.1797 75.7129 22.7109C75.8887 22.2422 76.0059 21.7767 76.0645 21.3145L76.084 21.0898C76.1296 20.6797 76.1296 20.2533 76.084 19.8105C76.0449 19.3613 75.9408 18.9447 75.7715 18.5605C75.6087 18.1699 75.3678 17.8542 75.0488 17.6133C74.7298 17.3659 74.3164 17.2357 73.8086 17.2227C73.2682 17.2031 72.7897 17.3105 72.373 17.5449C71.9629 17.7728 71.6146 18.082 71.3281 18.4727C71.0417 18.8633 70.8105 19.2962 70.6348 19.7715C70.4655 20.2402 70.3516 20.7057 70.293 21.168ZM81.7188 11.5H83.4961L81.2305 24.5566L80.7422 26.5H79.1113L81.7188 11.5ZM88.7305 21.0703L88.7109 21.2754C88.6263 21.9199 88.4701 22.5645 88.2422 23.209C88.0208 23.8535 87.7148 24.4427 87.3242 24.9766C86.9401 25.5104 86.4681 25.9368 85.9082 26.2559C85.3548 26.5749 84.7038 26.7246 83.9551 26.7051C83.278 26.6921 82.7083 26.5358 82.2461 26.2363C81.7839 25.9368 81.4193 25.5462 81.1523 25.0645C80.8854 24.5762 80.7031 24.0391 80.6055 23.4531C80.5078 22.8607 80.4785 22.2682 80.5176 21.6758L80.625 20.7773C80.7357 20.1458 80.918 19.5273 81.1719 18.9219C81.4258 18.3164 81.7546 17.7695 82.1582 17.2812C82.5618 16.793 83.0404 16.4089 83.5938 16.1289C84.1471 15.8424 84.7819 15.709 85.498 15.7285C86.2207 15.748 86.8066 15.9238 87.2559 16.2559C87.7116 16.5879 88.0566 17.0176 88.291 17.5449C88.5254 18.0658 88.6719 18.6354 88.7305 19.2539C88.7956 19.8724 88.7956 20.4779 88.7305 21.0703ZM86.9336 21.2656L86.9629 21.0508C87.0085 20.6602 87.0247 20.2467 87.0117 19.8105C86.9987 19.3743 86.9271 18.9642 86.7969 18.5801C86.6732 18.196 86.4648 17.8835 86.1719 17.6426C85.8854 17.3952 85.485 17.265 84.9707 17.252C84.5605 17.2389 84.1732 17.3073 83.8086 17.457C83.4505 17.6003 83.125 17.8053 82.832 18.0723C82.5391 18.3327 82.2884 18.6354 82.0801 18.9805C81.8783 19.319 81.7253 19.6771 81.6211 20.0547L81.2402 22.4277C81.2272 22.8965 81.3184 23.3392 81.5137 23.7559C81.709 24.166 81.9857 24.5013 82.3438 24.7617C82.7083 25.0156 83.1315 25.1523 83.6133 25.1719C84.1536 25.1914 84.6191 25.0872 85.0098 24.8594C85.4004 24.625 85.7259 24.3158 85.9863 23.9316C86.2533 23.541 86.4616 23.1113 86.6113 22.6426C86.7676 22.1738 86.875 21.7148 86.9336 21.2656ZM93.7695 15.9336L91.9336 26.5H90.166L92.002 15.9336H93.7695ZM92.3535 13.1602C92.3535 12.8542 92.4479 12.6003 92.6367 12.3984C92.832 12.1901 93.0827 12.0827 93.3887 12.0762C93.6947 12.0697 93.9453 12.1641 94.1406 12.3594C94.3424 12.5547 94.4401 12.8021 94.4336 13.1016C94.4336 13.401 94.3327 13.6517 94.1309 13.8535C93.9355 14.0488 93.6882 14.1497 93.3887 14.1562C93.0892 14.1628 92.8418 14.0749 92.6465 13.8926C92.4512 13.7038 92.3535 13.4596 92.3535 13.1602ZM99.2676 11.5L96.6602 26.5H94.8926L97.4902 11.5H99.2676ZM103.945 26.6953C103.223 26.6823 102.594 26.5391 102.061 26.2656C101.533 25.9857 101.1 25.6113 100.762 25.1426C100.43 24.6673 100.192 24.127 100.049 23.5215C99.9056 22.916 99.8633 22.2812 99.9219 21.6172L99.9609 21.1973C100.026 20.5202 100.192 19.8561 100.459 19.2051C100.726 18.5475 101.081 17.9551 101.523 17.4277C101.973 16.9004 102.5 16.4837 103.105 16.1777C103.717 15.8652 104.395 15.7188 105.137 15.7383C105.872 15.7513 106.484 15.9076 106.973 16.207C107.461 16.5065 107.842 16.9036 108.115 17.3984C108.395 17.8867 108.577 18.4368 108.662 19.0488C108.747 19.6543 108.753 20.276 108.682 20.9141L108.574 21.7246H100.908L101.143 20.25L106.992 20.2598L107.021 20.1035C107.087 19.6348 107.061 19.1823 106.943 18.7461C106.826 18.3099 106.611 17.9518 106.299 17.6719C105.993 17.3854 105.579 17.2357 105.059 17.2227C104.518 17.2031 104.049 17.3138 103.652 17.5547C103.255 17.7891 102.923 18.1081 102.656 18.5117C102.389 18.9089 102.178 19.3451 102.021 19.8203C101.872 20.2891 101.768 20.748 101.709 21.1973L101.67 21.6074C101.631 22.0241 101.644 22.444 101.709 22.8672C101.774 23.2904 101.898 23.6777 102.08 24.0293C102.269 24.3743 102.529 24.6576 102.861 24.8789C103.193 25.0938 103.604 25.2077 104.092 25.2207C104.684 25.2337 105.215 25.1068 105.684 24.8398C106.159 24.5664 106.592 24.2214 106.982 23.8047L107.988 24.6641C107.682 25.1133 107.318 25.4909 106.895 25.7969C106.471 26.1029 106.009 26.3307 105.508 26.4805C105.007 26.6302 104.486 26.7018 103.945 26.6953Z" fill="#0F172A"/>
</svg>
