<svg viewBox="0 0 162 164" fill="none" xmlns="http://www.w3.org/2000/svg">
<g filter="url(#filter0_d_280_9198)">
<rect x="11.9004" y="9.8999" width="130" height="130" rx="10" fill="#1482C2"/>
<path d="M24.9004 61.8997V87.5369L128.275 87.6065V61.8997H24.9004Z" fill="#1482C2"/>
<path d="M66.235 68.0489L60.4458 76.6218C59.8437 77.5291 58.7874 78.0775 57.6818 78.0775C55.8815 78.0775 54.3914 76.5982 54.3914 74.8133C54.3914 73.0021 55.8815 71.5256 57.6944 71.5256C57.8741 71.5026 58.1152 71.4774 58.2834 71.4774C59.5331 71.4774 60.8063 72.0017 61.6713 72.8837L63.4004 70.2633C62.0554 68.8827 60.0612 67.999 58.0664 67.999C54.3426 67.999 50.9316 71.072 50.9316 74.7881C50.9316 78.4823 53.9827 81.5065 57.7076 81.5065C59.509 81.5065 61.3103 80.7445 62.56 79.4811H66.5479L66.5715 81.5065H70.0324V68.0489H66.2351H66.235ZM64.6512 76.527L66.5479 73.8852L66.5715 76.527H64.6513H64.6512Z" fill="white"/>
<path d="M76.662 81.5065H73.2022V71.1914H70.5117V68.0713L79.3514 68.0488V71.1914H76.662V81.5065Z" fill="white"/>
<path d="M90.8836 68.049L87.4238 68.0499L87.3997 73.0744H83.3149L83.289 68.0488H79.832V81.5065H83.3148V76.1939H87.4237V81.5065H90.8835V68.0488L90.8836 68.049Z" fill="white"/>
<path d="M118.609 68.0488V74.3114L113.853 68.0488L110.704 68.0707L110.68 72.979C109.888 70.1203 107.172 68.0488 104.145 68.0488C100.422 68.0488 97.3706 71.0719 97.3706 74.7881C97.3706 75.9813 97.7306 77.1932 98.3064 78.2429H94.879V68.0488H91.3535V81.5065H99.4131V79.6235C100.686 80.7915 102.416 81.5065 104.145 81.5065C107.172 81.5065 109.84 79.481 110.68 76.6218L110.704 81.5065H114.189V74.9574L118.92 81.5065H122.066L122.07 68.0488H118.61H118.609ZM104.146 78.2193C102.248 78.2193 100.686 76.6952 100.686 74.7881C100.686 72.9073 102.248 71.3596 104.146 71.3596C106.069 71.3596 107.63 72.9073 107.63 74.7881C107.63 76.6952 106.069 78.2193 104.146 78.2193Z" fill="white"/>
<path d="M46.7466 78.2431V76.3596H50.4594L50.4529 73.074H46.7466V71.3598H50.8391L50.8321 68.0491L42.9522 68.071V72.6927C42.1353 70.1682 39.7801 68.3093 37.0895 68.071L31.1074 68.0491V81.5062H37.1142C39.7801 81.269 42.1353 79.4112 42.9522 76.9096V81.5062H50.8392L50.8322 78.2431H46.7467H46.7466ZM39.1319 76.8373C38.9165 77.7435 38.0509 78.385 37.1141 78.4091H34.904V71.1911H37.1141C38.0509 71.1911 38.9165 71.8611 39.1319 72.7886C39.3488 73.4082 39.4688 74.1227 39.4688 74.7883C39.4688 75.4808 39.3488 76.1941 39.1319 76.8373Z" fill="white"/>
</g>
<defs>
<filter id="filter0_d_280_9198" x="0.000391006" y="-9.72748e-05" width="163.8" height="163.8" filterUnits="userSpaceOnUse" color-interpolation-filters="sRGB">
<feFlood flood-opacity="0" result="BackgroundImageFix"/>
<feColorMatrix in="SourceAlpha" type="matrix" values="0 0 0 0 0 0 0 0 0 0 0 0 0 0 0 0 0 0 127 0" result="hardAlpha"/>
<feOffset dx="5" dy="7"/>
<feGaussianBlur stdDeviation="8.45"/>
<feComposite in2="hardAlpha" operator="out"/>
<feColorMatrix type="matrix" values="0 0 0 0 0 0 0 0 0 0 0 0 0 0 0 0 0 0 0.25 0"/>
<feBlend mode="normal" in2="BackgroundImageFix" result="effect1_dropShadow_280_9198"/>
<feBlend mode="normal" in="SourceGraphic" in2="effect1_dropShadow_280_9198" result="shape"/>
</filter>
</defs>
</svg>
