<svg width="162" height="164" viewBox="0 0 162 164" fill="none" xmlns="http://www.w3.org/2000/svg">
<g filter="url(#filter0_d_280_9302)">
<rect x="11.9004" y="9.8999" width="130" height="130" rx="10" fill="#EEEEF0"/>
<path fill-rule="evenodd" clip-rule="evenodd" d="M47.0427 68.6856C47.2805 68.6856 47.5131 68.6149 47.7109 68.4824C47.9087 68.3499 48.063 68.1616 48.1542 67.9413C48.2455 67.7209 48.2696 67.4783 48.2235 67.2442C48.1774 67.0101 48.0632 66.795 47.8953 66.626C47.7274 66.4569 47.5134 66.3416 47.2802 66.2945C47.047 66.2474 46.8051 66.2707 46.5851 66.3614C46.3651 66.4521 46.1768 66.6061 46.044 66.8041C45.9113 67.0021 45.8399 67.2351 45.839 67.4737C45.839 67.7939 45.9659 68.1011 46.1916 68.3275C46.4173 68.5539 46.7234 68.6811 47.0427 68.6811V68.6856ZM47.8443 69.2915C47.9519 69.2915 48.0571 69.3236 48.1466 69.3835C48.2361 69.4435 48.3058 69.5287 48.347 69.6285C48.3882 69.7282 48.3989 69.8379 48.378 69.9438C48.357 70.0497 48.3051 70.1469 48.2291 70.2233C48.153 70.2996 48.056 70.3516 47.9505 70.3727C47.8449 70.3937 47.7355 70.3829 47.6361 70.3416C47.5367 70.3003 47.4517 70.2303 47.392 70.1406C47.3322 70.0508 47.3003 69.9453 47.3003 69.8373C47.3009 69.693 47.3584 69.5547 47.4604 69.4528C47.5624 69.351 47.7004 69.2938 47.8443 69.2938V69.2915ZM48.0442 70.9713C48.1189 70.9713 48.1919 70.9935 48.2539 71.0351C48.316 71.0767 48.3644 71.1358 48.393 71.205C48.4216 71.2743 48.429 71.3504 48.4145 71.4239C48.3999 71.4973 48.3639 71.5648 48.3111 71.6178C48.2584 71.6707 48.1911 71.7068 48.1179 71.7214C48.0446 71.736 47.9687 71.7285 47.8997 71.6999C47.8307 71.6712 47.7718 71.6227 47.7303 71.5604C47.6888 71.4981 47.6667 71.4249 47.6667 71.35C47.6667 71.2495 47.7065 71.1532 47.7773 71.0822C47.8481 71.0112 47.9441 70.9713 48.0442 70.9713ZM39.55 85.4961C39.8095 85.4961 40.0632 85.5733 40.2789 85.7178C40.4947 85.8624 40.6629 86.0679 40.7623 86.3084C40.8617 86.5488 40.8879 86.8134 40.8374 87.0687C40.7869 87.3241 40.6622 87.5587 40.4788 87.7429C40.2955 87.9271 40.0619 88.0527 39.8074 88.1037C39.553 88.1548 39.2892 88.129 39.0493 88.0297C38.8094 87.9304 38.6043 87.762 38.4598 87.5458C38.3154 87.3296 38.238 87.0752 38.2376 86.8149C38.2376 86.4655 38.3758 86.1304 38.6218 85.8832C38.8679 85.6359 39.2017 85.4967 39.55 85.4961ZM36.8385 87.0778C36.7138 87.0778 36.5919 87.1149 36.4881 87.1844C36.3844 87.254 36.3036 87.3528 36.2559 87.4684C36.2081 87.584 36.1956 87.7112 36.22 87.8339C36.2443 87.9566 36.3044 88.0694 36.3926 88.1579C36.4808 88.2463 36.5932 88.3066 36.7155 88.331C36.8378 88.3554 36.9646 88.3429 37.0799 88.295C37.1951 88.2471 37.2936 88.166 37.3629 88.062C37.4322 87.9579 37.4692 87.8356 37.4692 87.7105C37.4692 87.5427 37.4028 87.3818 37.2845 87.2631C37.1662 87.1445 37.0058 87.0778 36.8385 87.0778ZM19.3527 78.98C19.1726 78.98 18.9966 79.0335 18.8469 79.1339C18.6971 79.2343 18.5804 79.3769 18.5115 79.5438C18.4426 79.7107 18.4246 79.8944 18.4597 80.0715C18.4949 80.2487 18.5816 80.4115 18.7089 80.5392C18.8362 80.6669 18.9985 80.7539 19.1751 80.7892C19.3517 80.8244 19.5348 80.8063 19.7011 80.7372C19.8675 80.6681 20.0097 80.551 20.1098 80.4008C20.2098 80.2506 20.2632 80.074 20.2632 79.8934C20.2635 79.7733 20.2401 79.6544 20.1945 79.5435C20.1488 79.4325 20.0818 79.3317 19.9972 79.2468C19.9126 79.162 19.8121 79.0947 19.7015 79.0489C19.5909 79.0031 19.4724 78.9797 19.3527 78.98ZM18.6421 77.347C18.4952 77.347 18.3516 77.3033 18.2296 77.2213C18.1075 77.1394 18.0124 77.0229 17.9564 76.8867C17.9004 76.7505 17.886 76.6006 17.915 76.4562C17.944 76.3117 18.015 76.1792 18.1192 76.0753C18.2234 75.9714 18.356 75.9009 18.5001 75.8727C18.6443 75.8445 18.7936 75.8598 18.929 75.9168C19.0645 75.9738 19.18 76.0699 19.261 76.1929C19.3419 76.3158 19.3847 76.4601 19.3838 76.6074C19.3832 76.8046 19.3049 76.9935 19.1659 77.1329C19.0269 77.2723 18.8386 77.3509 18.6421 77.3515V77.347ZM19.4304 67.8903C19.296 67.8885 19.1651 67.8469 19.0541 67.7707C18.9432 67.6945 18.8572 67.5871 18.807 67.462C18.7567 67.3369 18.7445 67.1997 18.7718 67.0676C18.7991 66.9355 18.8647 66.8145 18.9604 66.7197C19.0561 66.625 19.1776 66.5607 19.3096 66.535C19.4416 66.5094 19.5782 66.5234 19.7022 66.5754C19.8263 66.6274 19.9322 66.7151 20.0068 66.8274C20.0813 66.9396 20.1211 67.0715 20.1211 67.2064C20.1211 67.3874 20.0496 67.561 19.9222 67.6892C19.7948 67.8174 19.622 67.8897 19.4415 67.8903H19.4304ZM20.5186 66.2663C20.6184 66.2667 20.7161 66.2374 20.7993 66.1821C20.8824 66.1268 20.9474 66.048 20.9859 65.9557C21.0244 65.8633 21.0347 65.7615 21.0155 65.6633C20.9963 65.5651 20.9485 65.4747 20.878 65.4038C20.8076 65.3329 20.7178 65.2845 20.62 65.2648C20.5221 65.2451 20.4207 65.255 20.3284 65.2932C20.2362 65.3314 20.1573 65.3962 20.1018 65.4794C20.0463 65.5626 20.0167 65.6605 20.0167 65.7606C20.0164 65.827 20.0292 65.8928 20.0542 65.9543C20.0793 66.0157 20.1162 66.0717 20.1628 66.1188C20.2094 66.166 20.2648 66.2035 20.3258 66.2292C20.3869 66.2548 20.4524 66.2682 20.5186 66.2685V66.2663ZM19.124 68.3804C19.0449 68.3804 18.9676 68.4039 18.9019 68.448C18.8362 68.492 18.7849 68.5547 18.7547 68.6279C18.7244 68.7012 18.7165 68.7818 18.7319 68.8596C18.7474 68.9374 18.7854 69.0089 18.8413 69.0649C18.8972 69.121 18.9685 69.1592 19.046 69.1747C19.1235 69.1902 19.2039 69.1822 19.277 69.1519C19.35 69.1215 19.4124 69.0701 19.4563 69.0042C19.5003 68.9382 19.5237 68.8607 19.5237 68.7814C19.524 68.7288 19.5139 68.6767 19.4941 68.6281C19.4742 68.5795 19.445 68.5352 19.4081 68.498C19.3711 68.4607 19.3272 68.4311 19.2788 68.411C19.2305 68.3908 19.1786 68.3804 19.1262 68.3804H19.124ZM21.8599 78.2003C21.8605 79.9927 22.5705 81.7115 23.8339 82.9789C25.0974 84.2463 26.8108 84.9586 28.5975 84.9592C29.861 86.2263 31.5744 86.9381 33.3609 86.9381C35.1474 86.9381 36.8608 86.2263 38.1243 84.9592C39.9113 84.9586 41.6249 84.2464 42.8887 82.9791C44.1524 81.7117 44.863 79.9929 44.8642 78.2003C45.4899 77.5726 45.9863 76.8275 46.3249 76.0074C46.6636 75.1873 46.8379 74.3083 46.8379 73.4207C46.8379 72.533 46.6636 71.654 46.3249 70.8339C45.9863 70.0138 45.4899 69.2687 44.8642 68.641C44.8642 66.8483 44.1544 65.1289 42.8909 63.861C41.6274 62.5931 39.9137 61.8805 38.1265 61.8799C37.5009 61.2521 36.7581 60.7542 35.9406 60.4145C35.1231 60.0748 34.2469 59.8999 33.362 59.8999C32.4772 59.8999 31.601 60.0748 30.7835 60.4145C29.9659 60.7542 29.2232 61.2521 28.5975 61.8799C26.8106 61.8799 25.0968 62.592 23.8333 63.8595C22.5697 65.1271 21.8599 66.8462 21.8599 68.6388C21.2342 69.2665 20.7378 70.0116 20.3991 70.8317C20.0605 71.6518 19.8862 72.5308 19.8862 73.4184C19.8862 74.3061 20.0605 75.1851 20.3991 76.0052C20.7378 76.8253 21.2342 77.5704 21.8599 78.198V78.2003Z" fill="#F38484"/>
<path fill-rule="evenodd" clip-rule="evenodd" d="M33.3633 82.979C32.738 83.6076 31.9952 84.1062 31.1774 84.4461C30.3596 84.7859 29.4829 84.9604 28.5977 84.9595C29.8611 86.2265 31.5745 86.9383 33.3611 86.9383C35.1476 86.9383 36.861 86.2265 38.1245 84.9595C37.2396 84.9606 36.3632 84.7862 35.5457 84.4463C34.7282 84.1064 33.9857 83.6078 33.3611 82.979" fill="#F38484"/>
<path fill-rule="evenodd" clip-rule="evenodd" d="M31.3887 78.2016C31.3871 79.0892 31.5606 79.9683 31.899 80.7884C32.2374 81.6085 32.7342 82.3534 33.3607 82.9801C33.9874 82.3535 34.4845 81.6087 34.8233 80.7886C35.1622 79.9685 35.336 79.0893 35.3349 78.2016C34.7082 77.5744 34.2112 76.8292 33.8724 76.0088C33.5337 75.1884 33.3597 74.3089 33.3607 73.4209C33.3615 74.3087 33.1878 75.188 32.8494 76.0083C32.511 76.8287 32.0146 77.574 31.3887 78.2016Z" fill="#C94665"/>
<path fill-rule="evenodd" clip-rule="evenodd" d="M31.3887 78.2016C32.0146 77.574 32.511 76.8287 32.8494 76.0083C33.1878 75.188 33.3615 74.3087 33.3607 73.4209C32.7339 74.0479 32.237 74.7931 31.8986 75.6136C31.5602 76.4341 31.3869 77.3137 31.3887 78.2016Z" fill="#DC234A"/>
<path fill-rule="evenodd" clip-rule="evenodd" d="M33.3633 73.4209C33.3615 74.3089 33.5348 75.1884 33.8732 76.0089C34.2116 76.8294 34.7085 77.5746 35.3353 78.2016C35.3366 77.3137 35.1631 76.4343 34.8247 75.6139C34.4863 74.7935 33.9896 74.0482 33.3633 73.4209Z" fill="#CD474B"/>
<path fill-rule="evenodd" clip-rule="evenodd" d="M33.3633 73.4209C33.988 74.0497 34.7304 74.5483 35.5479 74.8882C36.3654 75.2281 37.2418 75.4025 38.1267 75.4014C37.502 74.7726 36.7596 74.2739 35.9421 73.9341C35.1246 73.5942 34.2482 73.4198 33.3633 73.4209Z" fill="#E25306"/>
<path fill-rule="evenodd" clip-rule="evenodd" d="M33.3633 73.4192C34.248 73.42 35.1241 73.2457 35.9415 72.9062C36.7589 72.5667 37.5015 72.0688 38.1267 71.4409C37.2418 71.4389 36.3654 71.6127 35.5478 71.9522C34.7302 72.2917 33.9878 72.7903 33.3633 73.4192Z" fill="#C28C22"/>
<path fill-rule="evenodd" clip-rule="evenodd" d="M33.3633 73.4196C33.9894 72.7925 34.4859 72.0476 34.8243 71.2276C35.1627 70.4076 35.3363 69.5286 35.3353 68.6411C34.7084 69.2676 34.2114 70.0124 33.873 70.8325C33.5345 71.6527 33.3613 72.532 33.3633 73.4196Z" fill="#88A73C"/>
<path fill-rule="evenodd" clip-rule="evenodd" d="M33.3629 73.4196C33.363 72.532 33.1887 71.6531 32.85 70.8332C32.5112 70.0133 32.0147 69.2684 31.3887 68.6411C31.3873 69.529 31.5609 70.4084 31.8993 71.2288C32.2377 72.0492 32.7343 72.7945 33.3607 73.4218" fill="#88604F"/>
<path fill-rule="evenodd" clip-rule="evenodd" d="M33.3633 73.4192C32.7382 72.7904 31.9954 72.292 31.1775 71.9525C30.3596 71.6129 29.4828 71.4391 28.5977 71.4409C29.2233 72.0689 29.9663 72.5668 30.784 72.9063C31.6018 73.2457 32.4783 73.42 33.3633 73.4192Z" fill="#91427F"/>
<path fill-rule="evenodd" clip-rule="evenodd" d="M33.3633 73.4209C32.478 73.4197 31.6013 73.5941 30.7834 73.934C29.9656 74.2738 29.2227 74.7725 28.5977 75.4014C29.4829 75.4023 30.3596 75.2278 31.1774 74.888C31.9952 74.5481 32.738 74.0495 33.3633 73.4209Z" fill="#BA2056"/>
<path fill-rule="evenodd" clip-rule="evenodd" d="M33.3633 73.4195C33.9896 74.0469 34.4863 74.7921 34.8247 75.6125C35.1631 76.433 35.3366 77.3124 35.3353 78.2003C35.9622 78.8278 36.7065 79.325 37.5255 79.6633C38.3444 80.0016 39.2219 80.1744 40.1076 80.1718C40.1087 79.2841 39.9348 78.4049 39.596 77.5848C39.2572 76.7647 38.7601 76.02 38.1334 75.3933C37.2484 75.3944 36.372 75.22 35.5545 74.8802C34.7371 74.5403 33.9946 74.0416 33.3699 73.4128" fill="#F5511B"/>
<path fill-rule="evenodd" clip-rule="evenodd" d="M33.3633 73.4192C34.2482 73.418 35.1246 73.5924 35.9421 73.9323C36.7596 74.2722 37.502 74.7709 38.1267 75.3996C39.0119 75.4006 39.8886 75.2261 40.7064 74.8862C41.5242 74.5464 42.2671 74.0478 42.8923 73.4192C42.2673 72.7904 41.5244 72.292 40.7065 71.9525C39.8886 71.6129 39.0118 71.4391 38.1267 71.4409C37.5015 72.0688 36.7589 72.5667 35.9415 72.9062C35.1241 73.2457 34.248 73.42 33.3633 73.4192Z" fill="#E2911B"/>
<path fill-rule="evenodd" clip-rule="evenodd" d="M33.3633 73.4189C33.9878 72.79 34.7302 72.2914 35.5478 71.9519C36.3653 71.6124 37.2418 71.4386 38.1267 71.4406C38.7545 70.814 39.2528 70.069 39.5927 69.2486C39.9326 68.4281 40.1076 67.5484 40.1076 66.6599C39.2223 66.659 38.3457 66.8335 37.5278 67.1733C36.71 67.5132 35.9672 68.0117 35.3419 68.6404C35.343 69.5279 35.1693 70.4069 34.8309 71.2269C34.4925 72.0469 33.996 72.7918 33.3699 73.4189" fill="#A6C043"/>
<path fill-rule="evenodd" clip-rule="evenodd" d="M33.3629 73.4196C33.3609 72.5319 33.5341 71.6527 33.8725 70.8325C34.211 70.0124 34.708 69.2676 35.3349 68.6411C35.336 67.7532 35.1623 66.8739 34.8239 66.0535C34.4855 65.2331 33.989 64.4878 33.3629 63.8604C32.736 64.4874 32.2389 65.2326 31.9001 66.053C31.5613 66.8735 31.3875 67.753 31.3887 68.6411C32.0155 69.2677 32.5125 70.0125 32.8514 70.8326C33.1902 71.6527 33.364 72.5319 33.3629 73.4196Z" fill="#4AA769"/>
<path fill-rule="evenodd" clip-rule="evenodd" d="M33.3629 73.4189C32.7361 72.7922 32.239 72.0474 31.9002 71.2274C31.5614 70.4073 31.3876 69.5281 31.3887 68.6404C30.7634 68.0117 30.0206 67.5132 29.2028 67.1733C28.3849 66.8335 27.5083 66.659 26.6231 66.6599C26.6221 67.5479 26.796 68.4274 27.1348 69.2478C27.4736 70.0682 27.9706 70.8134 28.5973 71.4406C29.4824 71.4388 30.3592 71.6127 31.1771 71.9522C31.995 72.2917 32.7378 72.7901 33.3629 73.4189Z" fill="#895681"/>
<path fill-rule="evenodd" clip-rule="evenodd" d="M33.363 73.4192C32.478 73.42 31.6015 73.2457 30.7838 72.9063C29.966 72.5668 29.223 72.0689 28.5974 71.4409C27.7125 71.4389 26.8361 71.6127 26.0185 71.9522C25.2009 72.2917 24.4585 72.7903 23.834 73.4192C24.4587 74.0479 25.2011 74.5466 26.0186 74.8865C26.8361 75.2264 27.7125 75.4008 28.5974 75.3996C29.2225 74.7708 29.9653 74.2721 30.7832 73.9322C31.601 73.5924 32.4778 73.418 33.363 73.4192Z" fill="#AD3A78"/>
<path fill-rule="evenodd" clip-rule="evenodd" d="M33.3629 73.4195C32.7376 74.0482 31.9948 74.5467 31.177 74.8866C30.3592 75.2264 29.4825 75.4009 28.5973 75.4C27.9713 76.0259 27.4746 76.7696 27.1359 77.5884C26.7971 78.4073 26.6228 79.2852 26.623 80.1718C27.5081 80.1727 28.3845 79.9984 29.2023 79.6589C30.0201 79.3195 30.763 78.8215 31.3887 78.1936C31.3877 77.3055 31.5617 76.4261 31.9005 75.6057C32.2392 74.7853 32.7362 74.0401 33.3629 73.4128" fill="#DB2F61"/>
<path fill-rule="evenodd" clip-rule="evenodd" d="M38.127 75.4C38.7541 76.0253 39.252 76.7688 39.5919 77.5876C39.9319 78.4065 40.1072 79.2847 40.1078 80.1718C40.9928 80.1727 41.8693 79.9984 42.6871 79.6589C43.5048 79.3195 44.2478 78.8215 44.8735 78.1936C44.8744 77.3055 44.7005 76.4261 44.3617 75.6057C44.0229 74.7853 43.5259 74.0401 42.8992 73.4128C42.274 74.0415 41.5312 74.54 40.7133 74.8799C39.8955 75.2198 39.0188 75.3942 38.1336 75.3933" fill="#FF9540"/>
<path fill-rule="evenodd" clip-rule="evenodd" d="M38.127 71.4406C39.0121 71.4388 39.8889 71.6126 40.7068 71.9522C41.5247 72.2917 42.2675 72.7901 42.8926 73.4189C43.5194 72.7922 44.0165 72.0474 44.3553 71.2273C44.6941 70.4073 44.8679 69.5281 44.8668 68.6404C44.2423 68.0125 43.5006 67.5144 42.684 67.1746C41.8673 66.8348 40.9919 66.6599 40.1078 66.6599C40.1087 67.5479 39.9348 68.4274 39.596 69.2478C39.2572 70.0682 38.7603 70.8134 38.1336 71.4406" fill="#D2CC40"/>
<path fill-rule="evenodd" clip-rule="evenodd" d="M35.3353 68.6413C35.9613 68.0119 36.7052 67.5129 37.5243 67.173C38.3433 66.8331 39.2212 66.659 40.1076 66.6609C40.1076 65.7724 39.9326 64.8926 39.5927 64.0722C39.2528 63.2518 38.7545 62.5068 38.1267 61.8801C37.2418 61.879 36.3654 62.0534 35.5479 62.3933C34.7304 62.7332 33.988 63.2318 33.3633 63.8606C33.9894 64.4881 34.4859 65.2334 34.8243 66.0538C35.1627 66.8741 35.3364 67.7535 35.3353 68.6413Z" fill="#72CD80"/>
<path fill-rule="evenodd" clip-rule="evenodd" d="M31.3887 68.6413C31.3875 67.7533 31.5613 66.8737 31.9001 66.0533C32.2389 65.2328 32.736 64.4877 33.3629 63.8606C32.7376 63.232 31.9948 62.7334 31.177 62.3935C30.3592 62.0537 29.4825 61.8792 28.5973 61.8801C27.9704 62.5072 27.4733 63.2524 27.1345 64.0728C26.7957 64.8933 26.6219 65.7728 26.6231 66.6609C27.5083 66.6599 28.385 66.8344 29.2028 67.1743C30.0206 67.5141 30.7634 68.0127 31.3887 68.6413Z" fill="#449EBE"/>
<path fill-rule="evenodd" clip-rule="evenodd" d="M28.5992 71.4406C27.9726 70.8134 27.4756 70.0682 27.1368 69.2478C26.798 68.4274 26.6241 67.5479 26.625 66.6599C25.7398 66.6587 24.863 66.8331 24.0451 67.173C23.2273 67.5129 22.4845 68.0115 21.8594 68.6404C21.8583 69.5281 22.0321 70.4073 22.3709 71.2274C22.7097 72.0474 23.2068 72.7922 23.8336 73.4189C24.4586 72.7901 25.2015 72.2917 26.0194 71.9522C26.8373 71.6127 27.7141 71.4388 28.5992 71.4406Z" fill="#B24F78"/>
<path fill-rule="evenodd" clip-rule="evenodd" d="M28.5992 75.4014C27.714 75.4023 26.8373 75.2278 26.0195 74.888C25.2017 74.5481 24.4588 74.0495 23.8336 73.4209C23.2067 74.048 22.7096 74.7931 22.3708 75.6136C22.032 76.434 21.8582 77.3136 21.8594 78.2016C22.4856 78.8284 23.2288 79.3251 24.0465 79.6634C24.8643 80.0017 25.7405 80.1749 26.625 80.1732C26.6228 79.2853 26.7961 78.4058 27.135 77.5856C27.4739 76.7653 27.9715 76.0207 28.5992 75.3947" fill="#DC568D"/>
<path fill-rule="evenodd" clip-rule="evenodd" d="M31.3887 78.1996C30.7625 78.8263 30.0193 79.323 29.2015 79.6613C28.3838 79.9996 27.5076 80.1728 26.6231 80.1711C26.6219 81.0592 26.7957 81.9387 27.1345 82.7591C27.4733 83.5796 27.9704 84.3248 28.5973 84.9518C29.4825 84.9528 30.3592 84.7783 31.177 84.4384C31.9948 84.0986 32.7376 83.6 33.3629 82.9714C32.7361 82.3447 32.239 81.5999 31.9002 80.7798C31.5614 79.9598 31.3876 79.0806 31.3887 78.1929" fill="#C56190"/>
<path fill-rule="evenodd" clip-rule="evenodd" d="M35.3353 78.1996C35.3363 79.0871 35.1627 79.966 34.8243 80.7861C34.4858 81.6061 33.9894 82.351 33.3633 82.9781C33.988 83.6068 34.7304 84.1055 35.5479 84.4454C36.3654 84.7852 37.2418 84.9596 38.1267 84.9585C38.7553 84.3311 39.254 83.585 39.594 82.7634C39.9339 81.9417 40.1085 81.0607 40.1076 80.1711C39.2225 80.172 38.3461 79.9977 37.5283 79.6582C36.7105 79.3188 35.9676 78.8208 35.3419 78.1929" fill="#F45340"/>
<path fill-rule="evenodd" clip-rule="evenodd" d="M40.107 80.1711C40.1079 81.0591 39.934 81.9386 39.5952 82.759C39.2564 83.5794 38.7595 84.3246 38.1328 84.9518C39.9198 84.9512 41.6334 84.239 42.8972 82.9717C44.1609 81.7043 44.8715 79.9855 44.8726 78.1929C44.247 78.8208 43.504 79.3188 42.6863 79.6582C41.8685 79.9977 40.992 80.172 40.107 80.1711Z" fill="#FEA584"/>
<path fill-rule="evenodd" clip-rule="evenodd" d="M42.8926 73.4196C43.5192 74.0468 44.0162 74.792 44.355 75.6124C44.6938 76.4329 44.8677 77.3123 44.8668 78.2003C45.4925 77.5727 45.9889 76.8276 46.3275 76.0075C46.6662 75.1874 46.8405 74.3084 46.8405 73.4207C46.8405 72.5331 46.6662 71.6541 46.3275 70.834C45.9889 70.0139 45.4925 69.2688 44.8668 68.6411C44.8679 69.5288 44.6941 70.408 44.3553 71.2281C44.0164 72.0482 43.5194 72.793 42.8926 73.4196Z" fill="#FFDB84"/>
<path fill-rule="evenodd" clip-rule="evenodd" d="M40.1078 66.6609C40.993 66.6599 41.8697 66.8344 42.6875 67.1743C43.5054 67.5141 44.2482 68.0127 44.8734 68.6413C44.8734 67.7529 44.6989 66.8731 44.3598 66.0524C44.0206 65.2316 43.5236 64.486 42.897 63.8581C42.2705 63.2301 41.5267 62.7323 40.7082 62.3929C39.8897 62.0535 39.0126 61.8793 38.127 61.8801C38.7548 62.5068 39.253 63.2518 39.593 64.0722C39.9329 64.8926 40.1079 65.7724 40.1078 66.6609Z" fill="#B7E184"/>
<path fill-rule="evenodd" clip-rule="evenodd" d="M33.3633 63.8603C33.988 63.2316 34.7304 62.7329 35.5479 62.393C36.3654 62.0531 37.2418 61.8787 38.1267 61.8799C37.501 61.2521 36.7582 60.7542 35.9407 60.4145C35.1232 60.0748 34.247 59.8999 33.3622 59.8999C32.4773 59.8999 31.6011 60.0748 30.7836 60.4145C29.9661 60.7542 29.2233 61.2521 28.5977 61.8799C29.4829 61.8789 30.3596 62.0534 31.1774 62.3933C31.9952 62.7331 32.738 63.2317 33.3633 63.8603Z" fill="#89DAE9"/>
<path fill-rule="evenodd" clip-rule="evenodd" d="M26.6228 66.6609C26.6213 65.7726 26.7952 64.8927 27.1344 64.0722C27.4736 63.2517 27.9715 62.5066 28.5992 61.8801C26.8117 61.8801 25.0974 62.5925 23.8334 63.8604C22.5695 65.1284 21.8594 66.8481 21.8594 68.6413C22.4842 68.0127 23.2267 67.5142 24.0441 67.1743C24.8616 66.8345 25.7379 66.66 26.6228 66.6609Z" fill="#849BB7"/>
<path fill-rule="evenodd" clip-rule="evenodd" d="M23.8346 73.4196C23.2079 72.793 22.7108 72.0482 22.372 71.2281C22.0331 70.408 21.8593 69.5288 21.8604 68.6411C21.2347 69.2688 20.7383 70.0139 20.3997 70.834C20.061 71.6541 19.8867 72.5331 19.8867 73.4207C19.8867 74.3084 20.061 75.1874 20.3997 76.0075C20.7383 76.8276 21.2347 77.5727 21.8604 78.2003C21.8582 77.3125 22.0315 76.433 22.3704 75.6127C22.7093 74.7925 23.207 74.0478 23.8346 73.4218" fill="#FF859D"/>
<path fill-rule="evenodd" clip-rule="evenodd" d="M26.6231 80.1711C25.738 80.172 24.8616 79.9977 24.0438 79.6582C23.226 79.3188 22.4831 78.8208 21.8574 78.1929C21.8577 79.0808 22.0323 79.9599 22.3713 80.7801C22.7103 81.6003 23.207 82.3455 23.833 82.9731C24.4591 83.6007 25.2023 84.0985 26.0201 84.438C26.8379 84.7775 27.7144 84.9521 28.5995 84.9518C27.9718 84.3253 27.4742 83.5803 27.1353 82.7597C26.7965 81.9391 26.6231 81.0593 26.6253 80.1711" fill="#C8A8DA"/>
<path fill-rule="evenodd" clip-rule="evenodd" d="M47.0415 68.6861C47.2794 68.6861 47.5119 68.6154 47.7097 68.4829C47.9076 68.3504 48.0619 68.1621 48.1531 67.9418C48.2443 67.7214 48.2684 67.4788 48.2223 67.2447C48.1762 67.0107 48.062 66.7955 47.8942 66.6265C47.7263 66.4574 47.5122 66.3421 47.279 66.295C47.0458 66.2479 46.804 66.2712 46.584 66.3619C46.364 66.4526 46.1757 66.6066 46.0429 66.8046C45.9101 67.0026 45.8388 67.2356 45.8379 67.4742C45.8379 67.7945 45.9647 68.1016 46.1904 68.328C46.4161 68.5544 46.7223 68.6817 47.0415 68.6817" fill="#B7E184"/>
<path fill-rule="evenodd" clip-rule="evenodd" d="M47.8446 69.2961C47.9523 69.2957 48.0577 69.3273 48.1475 69.387C48.2372 69.4467 48.3073 69.5318 48.3488 69.6315C48.3903 69.7312 48.4014 69.841 48.3807 69.9471C48.36 70.0531 48.3083 70.1505 48.2323 70.2271C48.1563 70.3036 48.0594 70.3558 47.9538 70.3771C47.8482 70.3983 47.7387 70.3876 47.6391 70.3464C47.5396 70.3052 47.4545 70.2352 47.3946 70.1454C47.3347 70.0556 47.3027 69.95 47.3027 69.8419C47.3024 69.7704 47.3162 69.6995 47.3433 69.6332C47.3704 69.567 47.4103 69.5069 47.4607 69.4561C47.511 69.4054 47.5708 69.3652 47.6367 69.3377C47.7026 69.3103 47.7732 69.2961 47.8446 69.2961Z" fill="#D2CC40"/>
<path fill-rule="evenodd" clip-rule="evenodd" d="M48.0474 70.9785C48.1216 70.979 48.1939 71.0014 48.2553 71.0431C48.3168 71.0847 48.3645 71.1437 48.3926 71.2125C48.4207 71.2813 48.4278 71.357 48.413 71.4298C48.3983 71.5027 48.3624 71.5696 48.3098 71.622C48.2572 71.6745 48.1904 71.7101 48.1176 71.7244C48.0449 71.7388 47.9695 71.7312 47.9011 71.7026C47.8326 71.6741 47.7742 71.6258 47.733 71.564C47.6919 71.5021 47.6699 71.4294 47.6699 71.355C47.6696 71.3053 47.6792 71.256 47.6981 71.2101C47.717 71.1641 47.7448 71.1224 47.78 71.0874C47.8151 71.0523 47.8569 71.0246 47.9028 71.0059C47.9487 70.9873 47.9979 70.9779 48.0474 70.9785Z" fill="#FFDB84"/>
<path fill-rule="evenodd" clip-rule="evenodd" d="M19.3519 78.98C19.1718 78.98 18.9958 79.0336 18.8461 79.1339C18.6963 79.2343 18.5796 79.3769 18.5107 79.5438C18.4418 79.7107 18.4238 79.8944 18.4589 80.0715C18.494 80.2487 18.5807 80.4115 18.7081 80.5392C18.8354 80.6669 18.9976 80.7539 19.1743 80.7892C19.3509 80.8244 19.534 80.8063 19.7003 80.7372C19.8667 80.6681 20.0089 80.551 20.1089 80.4008C20.209 80.2506 20.2624 80.074 20.2624 79.8934C20.2627 79.7733 20.2393 79.6544 20.1937 79.5435C20.148 79.4325 20.081 79.3317 19.9964 79.2468C19.9118 79.162 19.8113 79.0947 19.7007 79.0489C19.5901 79.0031 19.4715 78.9797 19.3519 78.98Z" fill="#DC568D"/>
<path fill-rule="evenodd" clip-rule="evenodd" d="M18.6421 77.3473C18.4952 77.3473 18.3516 77.3035 18.2296 77.2215C18.1075 77.1396 18.0124 77.0231 17.9564 76.8869C17.9004 76.7507 17.886 76.6008 17.915 76.4564C17.944 76.3119 18.015 76.1794 18.1192 76.0755C18.2234 75.9716 18.356 75.9011 18.5001 75.8729C18.6443 75.8447 18.7936 75.8601 18.929 75.9171C19.0645 75.9741 19.18 76.0701 19.261 76.1931C19.3419 76.316 19.3847 76.4603 19.3838 76.6077C19.3832 76.8048 19.3049 76.9937 19.1659 77.1331C19.0269 77.2725 18.8386 77.3511 18.6421 77.3517" fill="#FF859D"/>
<path fill-rule="evenodd" clip-rule="evenodd" d="M19.4307 67.891C19.2962 67.8892 19.1653 67.8476 19.0544 67.7714C18.9434 67.6952 18.8574 67.5878 18.8072 67.4627C18.757 67.3375 18.7447 67.2003 18.772 67.0682C18.7993 66.9362 18.8649 66.8151 18.9606 66.7204C19.0563 66.6256 19.1778 66.5614 19.3098 66.5357C19.4418 66.51 19.5784 66.5241 19.7025 66.5761C19.8265 66.6281 19.9325 66.7158 20.007 66.828C20.0815 66.9403 20.1213 67.0722 20.1213 67.2071C20.1213 67.3881 20.0498 67.5617 19.9224 67.6899C19.7951 67.8181 19.6222 67.8904 19.4418 67.891" fill="#449EBE"/>
<path fill-rule="evenodd" clip-rule="evenodd" d="M20.5195 66.266C20.6193 66.2665 20.7169 66.2372 20.8001 66.1819C20.8833 66.1266 20.9483 66.0478 20.9868 65.9554C21.0253 65.863 21.0356 65.7613 21.0164 65.663C20.9972 65.5648 20.9493 65.4745 20.8789 65.4035C20.8085 65.3326 20.7187 65.2842 20.6208 65.2645C20.523 65.2448 20.4215 65.2547 20.3293 65.2929C20.237 65.3311 20.1582 65.3959 20.1027 65.4792C20.0472 65.5624 20.0176 65.6602 20.0176 65.7603C20.0176 65.8941 20.0704 66.0224 20.1644 66.1171C20.2585 66.2119 20.3861 66.2654 20.5195 66.266Z" fill="#849BB7"/>
<path fill-rule="evenodd" clip-rule="evenodd" d="M19.1243 68.3801C19.0453 68.3801 18.968 68.4037 18.9023 68.4477C18.8365 68.4918 18.7853 68.5544 18.755 68.6277C18.7248 68.7009 18.7169 68.7816 18.7323 68.8594C18.7477 68.9371 18.7858 69.0086 18.8417 69.0647C18.8976 69.1208 18.9688 69.1589 19.0464 69.1744C19.1239 69.1899 19.2043 69.1819 19.2773 69.1516C19.3503 69.1212 19.4128 69.0698 19.4567 69.0039C19.5006 68.938 19.5241 68.8604 19.5241 68.7811C19.5244 68.7284 19.5142 68.6761 19.4942 68.6273C19.4743 68.5785 19.4448 68.5342 19.4076 68.4969C19.3705 68.4596 19.3263 68.4301 19.2777 68.4101C19.229 68.39 19.1769 68.3798 19.1243 68.3801Z" fill="#FF859D"/>
<path fill-rule="evenodd" clip-rule="evenodd" d="M32.3348 71.4287V65.5564C32.3348 64.6853 31.0202 64.6853 31.0202 65.5564V70.1344C31.0202 70.223 30.9851 70.308 30.9226 70.3706C30.8602 70.4333 30.7754 70.4685 30.6871 70.4685C30.5987 70.4685 30.514 70.4333 30.4515 70.3706C30.3891 70.308 30.354 70.223 30.354 70.1344V65.5564C30.354 64.6853 29.0415 64.6853 29.0415 65.5564V70.1344C29.0415 70.223 29.0065 70.308 28.944 70.3706C28.8815 70.4333 28.7968 70.4685 28.7084 70.4685C28.6201 70.4685 28.5354 70.4333 28.4729 70.3706C28.4104 70.308 28.3753 70.223 28.3753 70.1344V65.5564C28.3753 64.6853 27.0629 64.6853 27.0629 65.5564V70.1344C27.0629 70.223 27.0278 70.308 26.9653 70.3706C26.9029 70.4333 26.8181 70.4685 26.7298 70.4685C26.6414 70.4685 26.5567 70.4333 26.4943 70.3706C26.4318 70.308 26.3967 70.223 26.3967 70.1344V65.5564C26.3967 64.6853 25.082 64.6853 25.082 65.5564V71.4287C25.082 73.5339 26.4744 74.7146 28.0378 74.9708V77.2765C27.8991 77.3795 27.7866 77.5139 27.7094 77.6687C27.6323 77.8236 27.5926 77.9945 27.5936 78.1676V89.6159C27.587 89.7645 27.6104 89.9128 27.6625 90.052C27.7145 90.1912 27.7942 90.3184 27.8966 90.4259C27.999 90.5334 28.1221 90.6189 28.2584 90.6774C28.3947 90.7358 28.5413 90.7659 28.6896 90.7659C28.8378 90.7659 28.9845 90.7358 29.1208 90.6774C29.257 90.6189 29.3801 90.5334 29.4825 90.4259C29.585 90.3184 29.6646 90.1912 29.7167 90.052C29.7687 89.9128 29.7921 89.7645 29.7855 89.6159V78.1676C29.7865 77.9945 29.7469 77.8236 29.6697 77.6687C29.5925 77.5139 29.48 77.3795 29.3413 77.2765V74.9708C30.8958 74.7168 32.2993 73.5361 32.2993 71.4287H32.3348ZM37.8688 64.9036C40.5004 64.9036 41.6174 69.2722 41.6174 71.3752C41.6174 72.997 40.2139 74.9708 38.5262 74.9708V77.2765C38.6641 77.3802 38.776 77.5148 38.8531 77.6694C38.9302 77.8241 38.9703 77.9947 38.9703 78.1676V89.6159C38.9703 89.9078 38.8547 90.1877 38.649 90.3941C38.4433 90.6005 38.1642 90.7164 37.8733 90.7164C37.5823 90.7164 37.3033 90.6005 37.0976 90.3941C36.8918 90.1877 36.7763 89.9078 36.7763 89.6159V78.1676C36.7752 77.9945 36.8149 77.8236 36.8921 77.6687C36.9692 77.5139 37.0817 77.3795 37.2204 77.2765V74.9708C35.5238 74.9708 34.1114 72.997 34.1114 71.3752C34.1114 69.2722 35.2373 64.9036 37.8688 64.9036Z" fill="white"/>
<path fill-rule="evenodd" clip-rule="evenodd" d="M39.5507 85.4963C39.8108 85.4959 40.0652 85.5729 40.2817 85.7175C40.4982 85.8622 40.667 86.068 40.7669 86.3089C40.8667 86.5499 40.8931 86.8151 40.8426 87.0711C40.7921 87.3271 40.6671 87.5622 40.4833 87.7469C40.2996 87.9316 40.0653 88.0574 39.8102 88.1085C39.5552 88.1595 39.2907 88.1335 39.0504 88.0338C38.81 87.934 38.6046 87.765 38.46 87.5481C38.3154 87.3312 38.2383 87.0761 38.2383 86.8152C38.2383 86.4658 38.3765 86.1307 38.6226 85.8834C38.8686 85.6361 39.2024 85.4969 39.5507 85.4963Z" fill="#FEA584"/>
<path d="M64.6009 79.5193C64.5698 78.9579 64.6009 73.7271 64.7408 72.4395C64.7719 72.0652 64.8185 71.8781 65.1849 71.8781C65.6046 71.8781 66.0399 71.9249 66.4596 71.9561C66.5428 71.9876 66.615 72.0427 66.6674 72.1147C66.7199 72.1867 66.7503 72.2725 66.7549 72.3615V72.4083C66.7394 72.5954 66.6306 74.0145 66.7083 79.4569C66.7083 79.722 66.6306 79.9715 66.3819 80.0495H65.9777C65.6184 80.0612 65.2589 80.0351 64.9051 79.9715C64.8161 79.9339 64.7399 79.8711 64.6859 79.7908C64.6319 79.7105 64.6023 79.6161 64.6009 79.5193ZM65.8667 68.884C66.4885 68.884 66.8149 69.461 66.8149 70.1316C66.8149 70.7086 66.504 71.2699 65.9599 71.2699C65.8205 71.2639 65.6836 71.2303 65.5572 71.171C65.4308 71.1116 65.3173 71.0278 65.2234 70.9242C65.1294 70.8206 65.0569 70.6995 65.0099 70.5676C64.9629 70.4358 64.9423 70.2959 64.9495 70.1561C64.9428 69.5234 65.2227 68.884 65.8667 68.884Z" fill="black"/>
<path d="M67.7571 79.5193C67.726 78.9579 67.7571 73.7271 67.897 72.4395C67.9281 72.0652 67.9725 71.8781 68.3412 71.8781C68.7609 71.8781 69.1961 71.9249 69.6158 71.9561C69.699 71.9876 69.7712 72.0427 69.8237 72.1147C69.8762 72.1867 69.9066 72.2725 69.9112 72.3615V72.4083C69.8956 72.5954 69.7868 74.0145 69.8646 79.4569C69.8646 79.722 69.7868 79.9715 69.5381 80.0495H69.1339C68.7747 80.0612 68.4152 80.0351 68.0613 79.9715C67.9718 79.9346 67.8952 79.872 67.8411 79.7915C67.7869 79.711 67.7577 79.6163 67.7571 79.5193ZM69.0162 68.884C69.638 68.884 69.9645 69.461 69.9645 70.1316C69.9645 70.7086 69.6536 71.2699 69.1095 71.2699C68.9701 71.2639 68.8332 71.2303 68.7068 71.171C68.5804 71.1116 68.4669 71.0278 68.373 70.9242C68.279 70.8206 68.2065 70.6995 68.1594 70.5676C68.1124 70.4358 68.0919 70.2959 68.0991 70.1561C68.0991 69.5234 68.3767 68.884 69.0162 68.884Z" fill="black"/>
<path d="M70.9114 79.5193C70.8803 78.9579 70.9114 73.7271 71.0513 72.4395C71.0824 72.0652 71.129 71.8781 71.4954 71.8781C71.9152 71.8781 72.3504 71.9249 72.7724 71.9561C72.8554 71.9878 72.9275 72.043 72.9799 72.1149C73.0323 72.1869 73.0628 72.2725 73.0677 72.3615V72.4083C73.0499 72.5954 72.9411 74.0145 73.0188 79.4569C73.0188 79.722 72.9411 79.9715 72.6924 80.0495H72.2905C71.9245 80.0626 71.5583 80.0364 71.1979 79.9715C71.1122 79.9312 71.0397 79.8673 70.989 79.7872C70.9383 79.7071 70.9113 79.6142 70.9114 79.5193ZM72.1728 68.884C72.7923 68.884 73.1188 69.461 73.1188 70.1316C73.1188 70.7086 72.8079 71.2699 72.2638 71.2699C72.1244 71.2639 71.9875 71.2303 71.8611 71.171C71.7346 71.1116 71.6212 71.0278 71.5273 70.9242C71.4333 70.8206 71.3607 70.6995 71.3137 70.5676C71.2667 70.4358 71.2462 70.2959 71.2534 70.1561C71.2534 69.5234 71.5332 68.884 72.1728 68.884Z" fill="black"/>
<path d="M77.8587 75.2922C77.8587 75.1674 77.8431 74.7776 77.8431 74.762C77.7343 74.0134 77.2969 73.9199 76.9238 73.9355C76.2576 73.9823 76.1465 74.6216 76.0688 75.0493C76.0688 75.0649 76.0555 75.0805 76.0555 75.0961C76.0555 75.1585 76.0377 75.2053 76.0377 75.2365C75.9976 75.4319 75.9716 75.6299 75.96 75.829C75.8356 77.0766 76.2709 80.1954 75.6646 80.0618C75.2969 80.1136 74.9255 80.1344 74.5543 80.1241C74.1346 80.1241 74.0568 79.8434 74.0568 79.438V78.9924C74.0568 76.7781 74.0102 74.1738 74.0879 72.053C73.9947 71.6075 75.8645 71.476 75.8756 72.0998L75.8911 72.63C77.3835 71.3201 79.8262 72.0062 79.8262 74.3922V74.8377L79.7796 79.5471C79.7485 79.7967 79.7019 80.015 79.4532 80.1241C79.3132 80.1553 78.7225 80.2021 78.5826 80.2177H78.0541C77.9742 80.2021 77.852 80.1085 77.852 80.015V79.6429C77.8454 75.1674 77.8587 75.4013 77.8587 75.2922Z" fill="black"/>
<path d="M82.6151 77.0082C82.6151 77.8993 82.6151 78.3805 82.6928 79.8776C82.6773 80.2362 82.3042 80.2362 82.0266 80.2362H81.5447C81.4981 80.2362 81.4204 80.2051 81.3227 80.1895C81.1361 80.1895 80.7009 80.1583 80.6698 79.8776L80.6387 69.8037C80.6698 69.3047 80.7319 69.2891 81.1672 69.2112C81.473 69.2009 81.7791 69.2061 82.0844 69.2268H82.3642C82.5507 69.2579 82.6129 69.4763 82.6129 69.6322L82.5662 74.5756C83.0637 74.3261 83.53 74.0921 83.7477 72.5706C83.7943 71.9468 85.8329 72.0092 85.9883 72.4147C86.0816 72.6486 85.6308 74.7538 84.1385 75.6115C85.1334 76.1261 85.4443 77.2488 85.7707 79.7439C85.8484 80.3989 84.4938 80.3209 84.2629 80.3365C84.2451 80.3365 84.1385 80.3521 84.1052 80.3521C83.7343 80.3521 83.6411 80.2117 83.6078 79.8531C83.4523 78.356 83.4523 76.6251 82.6129 76.6251L82.6151 77.0082Z" fill="black"/>
<path d="M87.4083 62.7333C87.5104 62.5105 87.5615 62.3992 87.8169 62.3992C88.1744 62.3992 88.5053 63.092 93.7151 68.0621H93.7662C93.7794 68.061 93.7918 68.0553 93.8011 68.0459C93.8105 68.0365 93.8162 68.0241 93.8172 68.0108C95.0941 66.32 96.7797 63.9363 98.3119 62.4415C98.3652 62.3902 98.4407 62.339 98.4918 62.2878C98.5544 62.2309 98.6277 62.1874 98.7075 62.1599C98.7873 62.1323 98.8718 62.1212 98.9559 62.1274C99.6466 62.1274 100.029 63.4841 100.106 63.9964L100.693 79.2409C100.67 79.329 100.622 79.4082 100.554 79.468C100.485 79.5277 100.401 79.565 100.311 79.575C100.004 79.5995 98.5984 79.6775 98.292 79.6775H97.9611C97.397 79.6775 97.3459 79.3701 97.2949 78.8822C97.2949 78.2673 97.1905 75.4493 97.3948 68.4296C97.3948 68.3027 97.4459 67.8393 97.4459 67.6878L97.3948 67.7636L94.67 71.9562C94.4657 72.1789 94.2258 72.444 93.9038 72.444C93.4952 72.444 93.3664 72.2636 93.1377 71.9562L90.4551 68.5745L90.2952 79.7265C90.2667 79.8109 90.2163 79.8861 90.1491 79.9445C90.082 80.0028 90.0006 80.0422 89.9132 80.0584C89.6579 80.0852 88.4054 80.1097 88.15 80.1364H88.0745C87.717 80.1364 87.4083 79.5973 87.3328 79.2899C87.1351 77.276 87.3661 74.9035 87.4083 62.7333Z" fill="#DC568D"/>
<path d="M104.993 79.847C103.251 80.3772 101.977 79.6131 101.946 77.4455C101.915 75.6209 103.64 74.5494 105.381 75.0751V74.8412C105.397 73.4689 104.493 73.5313 102.894 73.968L102.987 72.1278C105.874 71.317 107.278 72.5489 107.309 75.2311C107.309 75.3402 107.309 75.6766 107.029 80.19L105.226 80.5643C105.039 80.5799 105.039 80.3616 105.039 80.2524C105.017 80.1181 105.001 79.9828 104.993 79.847ZM105.055 78.194C105.117 78.1784 105.179 78.1784 105.241 78.1628C105.328 77.8857 105.359 77.5944 105.335 77.3051C105.335 76.12 103.64 76.4786 103.64 77.5858C103.656 78.4279 104.448 78.3031 105.055 78.194Z" fill="#DC568D"/>
<path d="M108.24 72.1527C108.24 72.0435 108.271 71.5757 108.462 71.5757H109.615C109.724 71.5757 110.019 71.7628 110.019 71.9188V72.821C110.532 72.2596 111.216 71.6514 112.102 71.6514C113.423 71.6514 113.532 73.6564 113.299 74.5675C113.05 75.1133 112.04 74.973 111.791 74.8638C111.589 74.7079 112.071 73.6943 111.589 73.6007C109.615 73.7878 110.206 78.0762 110.128 79.7604C110.112 79.854 110.019 79.9832 109.906 79.9832C108.336 80.1235 108.274 79.7025 108.274 79.6869C108.274 79.6713 108.258 79.4062 108.258 79.3594L108.24 72.1527Z" fill="#DC568D"/>
<path d="M116.185 77.0082C116.185 77.8993 116.185 78.3805 116.263 79.8776C116.248 80.2362 115.875 80.2362 115.597 80.2362H115.115C115.068 80.2362 114.991 80.2051 114.893 80.1895C114.706 80.1895 114.271 80.1583 114.24 79.8776L114.209 69.8037C114.24 69.3047 114.302 69.2891 114.738 69.2112C115.043 69.2009 115.349 69.2061 115.655 69.2268H115.934C116.121 69.2579 116.183 69.4763 116.183 69.6322L116.137 74.5756C116.634 74.3261 117.1 74.0921 117.318 72.5706C117.365 71.9468 119.401 72.0092 119.556 72.4147C119.65 72.6486 119.199 74.7538 117.707 75.6115C118.701 76.1261 119.012 77.2488 119.339 79.7439C119.417 80.3989 118.064 80.3209 117.831 80.3365C117.815 80.3365 117.707 80.3521 117.676 80.3521C117.302 80.3521 117.209 80.2117 117.178 79.8531C117.023 78.356 117.023 76.6251 116.183 76.6251L116.185 77.0082Z" fill="#DC568D"/>
<path d="M123.133 71.7224C124.377 71.7224 125.527 73.0167 125.511 74.2955C125.496 76.5098 123.366 76.541 121.843 76.5878H121.621C121.843 79.6598 124.45 77.773 124.978 77.9445C125.087 77.9601 125.212 79.1452 125.258 79.691C123.175 80.6423 119.988 80.4863 119.786 76.4474C119.698 73.8744 120.755 71.7224 123.133 71.7224ZM121.703 74.8724C122.465 74.8724 123.479 74.9972 123.786 74.2955C123.786 73.0947 121.812 73.5157 121.703 74.8724Z" fill="#DC568D"/>
<path d="M126.568 73.5005C126.568 73.4537 126.552 73.2354 126.552 73.2042C126.21 73.1262 125.729 73.2198 125.729 72.7208C125.732 72.3763 125.758 72.0325 125.806 71.6915C125.853 71.4688 125.884 71.3329 126.133 71.3329C126.304 71.3329 126.49 71.4108 126.661 71.4108C126.677 71.4108 126.723 71.3953 126.739 71.3953L126.925 69.7423C126.941 69.6175 127.19 69.446 127.299 69.4148H127.547C127.967 69.4148 128.744 69.4304 128.744 70.0074C128.744 70.6623 128.698 70.6467 128.698 71.344V71.4064L128.76 71.4688C128.9 71.4688 129.49 71.4844 129.63 71.5C129.852 71.5 130.205 71.5311 130.205 71.843C130.205 71.8586 130.19 71.921 130.19 71.9366C130.174 72.0769 130.112 72.7163 130.097 72.8567C130.081 72.997 129.895 73.2465 129.739 73.2465H128.558C128.464 73.6364 127.998 78.1899 128.558 78.2834C129.117 78.377 129.133 78.0027 129.195 76.0379V75.8151C129.195 75.6436 129.366 75.6436 129.475 75.6436H129.739C129.879 75.6436 130.439 75.7059 130.594 75.7059C130.889 75.8151 130.905 76.0646 130.921 76.3297V76.4077C130.921 76.5168 130.936 77.0626 130.936 77.1874C130.936 78.6064 130.641 79.9943 129.055 80.0411C125.464 80.1436 126.568 75.9176 126.568 73.5005Z" fill="#DC568D"/>
<path d="M133.345 70.437C134.381 70.437 134.899 70.9657 134.899 72.0231C134.899 73.0806 134.381 73.6123 133.345 73.6182C133.14 73.6313 132.934 73.6023 132.74 73.533C132.546 73.4637 132.368 73.3555 132.217 73.215C132.074 73.0532 131.965 72.8644 131.897 72.6597C131.828 72.455 131.801 72.2385 131.817 72.0231C131.801 71.8081 131.828 71.5919 131.896 71.3875C131.965 71.1831 132.074 70.9947 132.217 70.8335C132.369 70.6954 132.547 70.5892 132.741 70.5211C132.935 70.453 133.14 70.4244 133.345 70.437ZM133.345 73.3665C134.179 73.3665 134.595 72.9209 134.593 72.0298C134.625 71.6629 134.513 71.2979 134.282 71.0117C134.155 70.8984 134.007 70.812 133.846 70.7576C133.685 70.7033 133.514 70.6821 133.345 70.6954C132.514 70.6954 132.099 71.1409 132.099 72.032C132.099 72.9231 132.523 73.3665 133.354 73.3665H133.345ZM133.252 72.1991H133.014V72.7115C133.014 72.7475 133 72.7821 132.974 72.8076C132.949 72.8331 132.915 72.8474 132.879 72.8474C132.843 72.8474 132.808 72.8331 132.783 72.8076C132.757 72.7821 132.743 72.7475 132.743 72.7115V71.3437C132.741 71.3252 132.742 71.3064 132.748 71.2887C132.754 71.2711 132.764 71.255 132.777 71.2418C132.79 71.2287 132.806 71.2187 132.824 71.2128C132.842 71.2069 132.86 71.2052 132.879 71.2078H133.449C133.518 71.2055 133.587 71.217 133.651 71.2414C133.716 71.2659 133.775 71.3029 133.825 71.3504C133.872 71.3953 133.909 71.4497 133.934 71.5099C133.959 71.5702 133.971 71.6349 133.969 71.7001C133.971 71.828 133.925 71.9519 133.84 72.0476C133.805 72.0938 133.76 72.1315 133.709 72.1577C133.657 72.1839 133.6 72.1981 133.543 72.1991L133.887 72.6268C133.906 72.6511 133.917 72.6807 133.918 72.7115C133.918 72.8006 133.876 72.8452 133.794 72.8452C133.771 72.8459 133.748 72.8405 133.728 72.8295C133.707 72.8186 133.69 72.8024 133.678 72.7828L133.252 72.1991ZM133.014 71.9763H133.458C133.625 71.9763 133.707 71.8872 133.707 71.7068C133.707 71.5263 133.625 71.4461 133.458 71.4461H133.014V71.9763Z" fill="#333333"/>
<path d="M59.5986 65.8029C59.6934 65.7911 59.7811 65.7463 59.8465 65.6762C59.9118 65.6062 59.9506 65.5155 59.9561 65.4197C59.9827 65.0856 60.0072 63.5997 60.0338 63.2922V63.0873C60.0338 61.7818 55.5635 62.165 54.8485 62.4479C54.2356 62.6707 53.8025 63.1653 53.4183 63.5997C52.0859 65.0165 51.815 69.2581 51.8105 71.0893V71.1673C51.8105 72.9985 52.0815 77.2401 53.4183 78.6569C53.8025 79.1025 54.2356 79.5792 54.8485 79.8109C55.5635 80.0916 60.0338 80.4792 60.0338 79.1693V78.9644C60.0072 78.657 59.9827 77.1822 59.9561 76.8369C59.9506 76.7412 59.9118 76.6504 59.8465 76.5804C59.7811 76.5104 59.6934 76.4655 59.5986 76.4537C57.1735 76.4537 55.9988 76.7611 55.5391 75.0703C55.2904 74.1569 55.1349 72.6643 55.115 71.1294C55.1349 69.5923 55.2904 68.0997 55.5391 67.1863C55.9988 65.4955 57.1735 65.8029 59.5986 65.8029Z" fill="black"/>
<path d="M52.7656 84.6067H53.132V86.9525H54.3779V87.2376H52.7656V84.6067Z" fill="black"/>
<path d="M56.424 86.267C56.4217 86.1191 56.4489 85.9722 56.5039 85.8349C56.5559 85.7135 56.6314 85.6037 56.726 85.5118C56.8128 85.426 56.9153 85.3579 57.028 85.3114C57.1398 85.2645 57.2598 85.2402 57.3811 85.2401C57.504 85.2385 57.6261 85.2605 57.7408 85.3047C57.843 85.3443 57.9343 85.4077 58.0073 85.4896C58.0801 85.5734 58.1352 85.6712 58.1694 85.7769C58.2089 85.8985 58.2284 86.0256 58.2272 86.1534C58.2281 86.2146 58.2236 86.2757 58.2138 86.3361H56.7837C56.7923 86.5253 56.8716 86.7042 57.0058 86.8373C57.0717 86.8991 57.1493 86.9471 57.234 86.9784C57.3186 87.0098 57.4086 87.0239 57.4988 87.02C57.5944 87.0212 57.6897 87.007 57.7808 86.9777C57.8666 86.9501 57.9492 86.9135 58.0273 86.8685L58.1539 87.0913C58.0546 87.1473 57.9506 87.1943 57.843 87.2317C57.7185 87.2736 57.5879 87.2939 57.4566 87.2918C57.3203 87.2932 57.1848 87.2698 57.0569 87.2227C56.9373 87.1781 56.8278 87.1099 56.7349 87.0223C56.639 86.9332 56.5633 86.8246 56.5128 86.7037C56.4537 86.5658 56.4234 86.4172 56.424 86.267ZM57.9052 86.1178C57.9159 85.9532 57.8671 85.7902 57.7675 85.6589C57.7188 85.6054 57.6589 85.5635 57.5921 85.5361C57.5252 85.5087 57.4531 85.4967 57.3811 85.5007C57.3049 85.4992 57.2293 85.5136 57.159 85.543C57.0907 85.5714 57.0282 85.6122 56.9747 85.6633C56.9168 85.7176 56.8701 85.7827 56.837 85.8549C56.7995 85.9382 56.7756 86.0269 56.7659 86.1178H57.9052Z" fill="black"/>
<path d="M63.0314 87.6093C63.0318 87.5236 63.0608 87.4405 63.1136 87.3731C63.1742 87.2916 63.2495 87.2221 63.3356 87.1682V87.1526C63.2833 87.1214 63.238 87.0796 63.2024 87.0301C63.1642 86.9673 63.1457 86.8944 63.1493 86.8209C63.1528 86.7475 63.1783 86.6767 63.2224 86.6179C63.2664 86.5617 63.3197 86.5135 63.38 86.4754V86.4575C63.3036 86.396 63.2395 86.3204 63.1913 86.2348C63.1328 86.1423 63.1027 86.0346 63.1047 85.9251C63.1034 85.8249 63.1254 85.7257 63.1691 85.6355C63.2088 85.5494 63.2672 85.4732 63.3401 85.4127C63.4156 85.3508 63.5023 85.3039 63.5954 85.2746C63.6942 85.2414 63.7977 85.2248 63.9019 85.2256C63.957 85.2254 64.0119 85.2298 64.0662 85.239C64.1173 85.239 64.1617 85.2613 64.2039 85.2746H64.939V85.5264H64.4948C64.5473 85.5754 64.5896 85.6345 64.6192 85.7001C64.6519 85.7698 64.6686 85.8459 64.668 85.9229C64.6695 86.0205 64.649 86.1172 64.6081 86.2058C64.5715 86.2926 64.5143 86.369 64.4415 86.4286C64.3688 86.4881 64.2861 86.5341 64.1973 86.5645C64.099 86.5962 63.9963 86.612 63.893 86.6113C63.8392 86.6117 63.7855 86.6057 63.7331 86.5934C63.6791 86.5822 63.6263 86.5657 63.5755 86.5444C63.5393 86.5725 63.5071 86.6055 63.48 86.6425C63.4527 86.6816 63.4387 86.7284 63.44 86.7761C63.4401 86.806 63.4472 86.8355 63.4607 86.8622C63.4741 86.8889 63.4937 86.9121 63.5177 86.9298C63.6089 86.9788 63.7124 86.9997 63.8153 86.99H64.2239C64.416 86.9773 64.6081 87.0149 64.7813 87.0991C64.8415 87.1355 64.8906 87.1877 64.9231 87.2502C64.9556 87.3127 64.9703 87.383 64.9656 87.4533C64.9658 87.5447 64.9404 87.6342 64.8923 87.7118C64.8358 87.8017 64.7599 87.8778 64.6703 87.9345C64.5662 88.0006 64.4522 88.0494 64.3327 88.0793C64.0696 88.1461 63.7949 88.153 63.5288 88.0994C63.4323 88.0811 63.3393 88.0472 63.2535 87.9991C63.1822 87.958 63.1208 87.9017 63.0736 87.8343C63.0381 87.765 63.0235 87.6868 63.0314 87.6093ZM63.3445 87.5647C63.3457 87.6176 63.3617 87.6691 63.3908 87.7133C63.4199 87.7574 63.4608 87.7924 63.5088 87.8142C63.6473 87.8805 63.7997 87.9119 63.953 87.9056C64.0458 87.9067 64.1384 87.8955 64.2283 87.8722C64.3063 87.8535 64.3811 87.8235 64.4504 87.7831C64.5039 87.7515 64.5495 87.708 64.5837 87.6561C64.6152 87.6136 64.6324 87.562 64.6325 87.509C64.6358 87.4701 64.6271 87.4311 64.6077 87.3973C64.5882 87.3634 64.5589 87.3364 64.5237 87.3197C64.4225 87.2808 64.3144 87.2634 64.2061 87.2684H63.8397H63.7065C63.6586 87.2637 63.6111 87.2555 63.5644 87.2439C63.4984 87.2836 63.4422 87.3377 63.4 87.4021C63.3671 87.4502 63.3479 87.5065 63.3445 87.5647ZM63.9063 86.3974C63.9656 86.3987 64.0245 86.3881 64.0796 86.3662C64.1331 86.3444 64.1821 86.3127 64.2239 86.2726C64.2661 86.2317 64.2994 86.1824 64.3216 86.1278C64.3445 86.0658 64.3558 86.0001 64.3549 85.934C64.3589 85.8718 64.3492 85.8094 64.3265 85.7513C64.3039 85.6932 64.2689 85.6407 64.2239 85.5976C64.1356 85.5213 64.0229 85.4793 63.9063 85.4793C63.7898 85.4793 63.6771 85.5213 63.5888 85.5976C63.5447 85.6414 63.5103 85.694 63.4878 85.7519C63.4652 85.8099 63.455 85.8719 63.4578 85.934C63.4565 86.0004 63.4685 86.0663 63.4933 86.1278C63.5139 86.1832 63.5474 86.2329 63.591 86.2726C63.6326 86.313 63.6816 86.3447 63.7353 86.3662C63.789 86.3916 63.8471 86.406 63.9063 86.4085V86.3974Z" fill="black"/>
<path d="M66.9594 86.2664C66.9553 86.1139 66.9826 85.9623 67.0393 85.8208C67.09 85.6988 67.1657 85.5887 67.2614 85.4978C67.3499 85.4098 67.4558 85.3415 67.5723 85.2973C67.8125 85.2053 68.0782 85.2053 68.3184 85.2973C68.4352 85.341 68.5412 85.4094 68.6293 85.4978C68.725 85.5887 68.8007 85.6988 68.8514 85.8208C68.9082 85.9623 68.9354 86.1139 68.9314 86.2664C68.9338 86.4136 68.9066 86.5598 68.8514 86.6963C68.8036 86.8145 68.7323 86.9218 68.6418 87.0114C68.5513 87.101 68.4436 87.1712 68.3251 87.2176C68.0843 87.3068 67.8197 87.3068 67.5789 87.2176C67.4633 87.1717 67.3577 87.1036 67.2681 87.0171C67.1724 86.927 67.0967 86.8177 67.046 86.6963C66.9885 86.5603 66.9591 86.4141 66.9594 86.2664ZM67.328 86.2664C67.3271 86.3698 67.3421 86.4727 67.3724 86.5716C67.3997 86.6529 67.4419 86.7285 67.4968 86.7943C67.5507 86.8599 67.6186 86.9125 67.6955 86.9484C67.7723 86.9842 67.8562 87.0024 67.9409 87.0015C68.027 87.0029 68.1123 86.9838 68.1896 86.9458C68.2645 86.9103 68.3305 86.8586 68.3828 86.7943C68.4377 86.7285 68.4799 86.6529 68.5072 86.5716C68.5375 86.4727 68.5525 86.3698 68.5516 86.2664C68.5525 86.1622 68.5375 86.0585 68.5072 85.9589C68.4807 85.8725 68.4386 85.7917 68.3828 85.7206C68.3312 85.655 68.265 85.6024 68.1896 85.5668C68.1119 85.5299 68.0269 85.5108 67.9409 85.5112C67.8549 85.5111 67.77 85.5301 67.6922 85.5668C67.6168 85.6024 67.5507 85.655 67.499 85.7206C67.4433 85.7917 67.4011 85.8725 67.3746 85.9589C67.3436 86.0584 67.3279 86.1621 67.328 86.2664Z" fill="black"/>
<path d="M71.2308 85.2955H71.5927V86.4851C71.5815 86.6245 71.6141 86.764 71.686 86.8839C71.7233 86.9271 71.7704 86.9608 71.8233 86.9822C71.8762 87.0035 71.9335 87.0118 71.9903 87.0064C72.0927 87.009 72.1937 86.9819 72.2812 86.9284C72.3857 86.8589 72.4799 86.7749 72.561 86.6789V85.2955H72.9185V87.2448H72.6209L72.5898 86.9396H72.5787C72.487 87.0394 72.3816 87.1257 72.2656 87.1957C72.1486 87.262 72.0158 87.2951 71.8814 87.2915C71.7898 87.2997 71.6975 87.2867 71.6116 87.2535C71.5258 87.2203 71.4487 87.1677 71.3862 87.0999C71.2712 86.9331 71.2164 86.732 71.2308 86.5296V85.2955ZM71.9414 84.3799H72.239L72.652 84.9457H72.39L72.0991 84.5804H72.0857L71.7926 84.9457H71.5328L71.9414 84.3799Z" fill="black"/>
<path d="M75.4791 85.5565H75.166V85.3093L75.4969 85.2892L75.5413 84.7434H75.8411V85.2959H76.4118V85.5632H75.8411V86.6325C75.8354 86.7305 75.8602 86.8278 75.9122 86.911C75.9437 86.9468 75.9834 86.9744 76.0279 86.9914C76.0723 87.0085 76.1203 87.0145 76.1676 87.009C76.2088 87.0091 76.2498 87.0038 76.2897 86.9934C76.3298 86.9848 76.3692 86.9729 76.4074 86.9578L76.4785 87.2073C76.4185 87.2251 76.3563 87.2429 76.2875 87.2563C76.2212 87.2713 76.1534 87.2788 76.0854 87.2786C75.9878 87.2813 75.8906 87.2654 75.7989 87.2318C75.7277 87.2015 75.6641 87.1558 75.6124 87.0981C75.5632 87.0385 75.5283 86.9684 75.5102 86.8932C75.489 86.8064 75.4786 86.7174 75.4791 86.6281V85.5565Z" fill="black"/>
<path d="M81.1907 86.2655C81.1889 86.1193 81.2153 85.974 81.2685 85.8378C81.3147 85.7182 81.3833 85.6086 81.4705 85.5148C81.5532 85.4286 81.6521 85.3597 81.7615 85.3121C81.8713 85.2635 81.9901 85.2384 82.1101 85.2385C82.2197 85.2361 82.3286 85.2566 82.4299 85.2987C82.5265 85.3438 82.618 85.3991 82.703 85.4635L82.6853 85.1294V84.3809H83.0472V87.2368H82.7452L82.7141 87.0141H82.7008C82.6139 87.0917 82.5168 87.1569 82.4121 87.2079C82.3034 87.2631 82.1831 87.2914 82.0613 87.2903C81.9418 87.296 81.8225 87.2753 81.7119 87.2294C81.6014 87.1836 81.5023 87.1139 81.4217 87.0252C81.2521 86.8101 81.1697 86.5389 81.1907 86.2655ZM81.5616 86.2655C81.5497 86.461 81.6037 86.6548 81.7148 86.8158C81.7659 86.8805 81.8317 86.932 81.9066 86.9661C81.9815 87.0002 82.0635 87.0159 82.1456 87.0118C82.2429 87.0122 82.3388 86.9893 82.4254 86.945C82.5228 86.8925 82.6106 86.824 82.6853 86.7423V85.7242C82.6085 85.6578 82.5215 85.6044 82.4277 85.566C82.346 85.5353 82.2595 85.5194 82.1723 85.5192C82.0898 85.5184 82.0083 85.5375 81.9347 85.5749C81.8602 85.611 81.7943 85.6626 81.7415 85.7264C81.6848 85.7922 81.6404 85.8676 81.6104 85.9492C81.5758 86.0494 81.5592 86.155 81.5616 86.2611V86.2655Z" fill="black"/>
<path d="M85.3927 86.2671C85.3905 86.1191 85.4176 85.9722 85.4726 85.8349C85.5246 85.7135 85.6001 85.6037 85.6947 85.5119C85.7823 85.426 85.8856 85.358 85.999 85.3114C86.1108 85.2645 86.2308 85.2403 86.352 85.2401C86.4743 85.2384 86.5956 85.2603 86.7096 85.3047C86.8117 85.3443 86.903 85.4077 86.9761 85.4896C87.0495 85.5733 87.1054 85.6711 87.1404 85.777C87.179 85.8986 87.1978 86.0258 87.1959 86.1535C87.1968 86.2146 87.1924 86.2757 87.1826 86.3361H85.7547C85.7592 86.524 85.8346 86.7031 85.9656 86.8374C86.0319 86.8993 86.1099 86.9474 86.1949 86.9787C86.28 87.0101 86.3704 87.0241 86.4609 87.02C86.5558 87.021 86.6502 87.0067 86.7407 86.9777C86.8266 86.9505 86.9093 86.9139 86.9872 86.8686L87.1137 87.0913C87.0153 87.1473 86.912 87.1943 86.8051 87.2317C86.6798 87.2734 86.5484 87.2937 86.4164 87.2918C86.2801 87.2932 86.1447 87.2698 86.0167 87.2228C85.8972 87.1781 85.7877 87.1099 85.6947 87.0223C85.5996 86.9326 85.524 86.8241 85.4726 86.7037C85.4177 86.5648 85.3905 86.4165 85.3927 86.2671ZM86.8739 86.1178C86.8847 85.9532 86.8358 85.7902 86.7362 85.6589C86.6876 85.6054 86.6276 85.5635 86.5608 85.5361C86.494 85.5088 86.4219 85.4967 86.3498 85.5007C86.2737 85.4992 86.198 85.5136 86.1278 85.5431C86.0601 85.5726 85.9978 85.6133 85.9434 85.6634C85.8856 85.7177 85.8388 85.7827 85.8058 85.8549C85.7683 85.9382 85.7443 86.027 85.7347 86.1178H86.8739Z" fill="black"/>
<path d="M92.1641 85.2956H92.4594L92.4905 85.5763H92.5038C92.6013 85.4858 92.7086 85.4066 92.8236 85.3401C92.9436 85.2756 93.0783 85.2434 93.2145 85.2466C93.3053 85.2387 93.3967 85.2521 93.4815 85.2858C93.5663 85.3194 93.6421 85.3723 93.703 85.4404C93.8185 85.6061 93.8734 85.8068 93.8585 86.0085V87.2449H93.5009V86.053C93.5133 85.9132 93.4797 85.7732 93.4054 85.6542C93.3678 85.6114 93.3207 85.578 93.2678 85.5567C93.215 85.5354 93.1579 85.5269 93.1012 85.5317C92.9984 85.5292 92.8969 85.5555 92.8081 85.6075C92.7053 85.6717 92.6093 85.7464 92.5216 85.8302V87.2426H92.1641V85.2956Z" fill="black"/>
<path d="M96.1762 86.2664C96.1721 86.1139 96.1993 85.9623 96.2561 85.8208C96.3076 85.6992 96.3832 85.5893 96.4782 85.4978C96.5667 85.4098 96.6726 85.3415 96.7891 85.2973C97.0293 85.2053 97.295 85.2053 97.5352 85.2973C97.652 85.341 97.758 85.4094 97.8461 85.4978C97.9418 85.5887 98.0175 85.6988 98.0682 85.8208C98.1257 85.9621 98.1537 86.1138 98.1504 86.2664C98.1521 86.4138 98.1241 86.56 98.0682 86.6963C98.0204 86.8145 97.9491 86.9218 97.8586 87.0114C97.7681 87.101 97.6604 87.1712 97.5419 87.2176C97.3011 87.3068 97.0365 87.3068 96.7957 87.2176C96.6773 87.1712 96.5695 87.101 96.479 87.0114C96.3885 86.9218 96.3172 86.8145 96.2694 86.6963C96.2097 86.5608 96.178 86.4145 96.1762 86.2664ZM96.5448 86.2664C96.5439 86.3698 96.5589 86.4727 96.5892 86.5716C96.6165 86.6529 96.6587 86.7285 96.7136 86.7943C96.7675 86.8599 96.8354 86.9125 96.9123 86.9484C96.9891 86.9842 97.073 87.0024 97.1577 87.0015C97.2438 87.0029 97.3291 86.9838 97.4064 86.9458C97.4812 86.9103 97.5472 86.8586 97.5996 86.7943C97.6553 86.729 97.6975 86.6533 97.724 86.5716C97.7543 86.4727 97.7693 86.3698 97.7684 86.2664C97.7693 86.1622 97.7543 86.0585 97.724 85.9589C97.6984 85.8721 97.6562 85.7911 97.5996 85.7206C97.548 85.655 97.4818 85.6024 97.4064 85.5668C97.3287 85.5299 97.2437 85.5108 97.1577 85.5112C97.0717 85.5111 96.9868 85.5301 96.909 85.5668C96.8336 85.6024 96.7675 85.655 96.7158 85.7206C96.6601 85.7917 96.6179 85.8725 96.5914 85.9589C96.5604 86.0584 96.5447 86.1621 96.5448 86.2664Z" fill="black"/>
<path d="M100.425 86.7936C100.512 86.8615 100.607 86.9184 100.709 86.9629C100.816 87.0073 100.931 87.0293 101.046 87.0275C101.158 87.0365 101.269 87.0049 101.359 86.9384C101.394 86.9126 101.421 86.8789 101.44 86.8401C101.459 86.8014 101.467 86.7586 101.466 86.7156C101.467 86.668 101.451 86.6217 101.422 86.5842C101.391 86.5448 101.353 86.5116 101.311 86.4862C101.262 86.4557 101.209 86.4303 101.155 86.4105L100.982 86.3481C100.906 86.3236 100.831 86.2946 100.76 86.2656C100.688 86.2368 100.62 86.1986 100.558 86.152C100.5 86.11 100.451 86.0579 100.411 85.9983C100.37 85.9318 100.35 85.854 100.353 85.7755C100.354 85.6992 100.372 85.624 100.405 85.5556C100.439 85.4872 100.488 85.4276 100.549 85.3812C100.616 85.3298 100.691 85.2906 100.771 85.2654C100.87 85.2355 100.972 85.2212 101.075 85.2231C101.201 85.2222 101.326 85.2441 101.444 85.2877C101.547 85.326 101.644 85.3784 101.733 85.4436L101.564 85.653C101.495 85.6032 101.42 85.5614 101.342 85.5283C101.26 85.495 101.172 85.4783 101.084 85.4793C100.979 85.4713 100.874 85.5013 100.789 85.5639C100.76 85.5878 100.737 85.6178 100.721 85.6516C100.704 85.6855 100.696 85.7224 100.695 85.7599C100.694 85.8022 100.708 85.8434 100.735 85.8758C100.765 85.9116 100.8 85.9418 100.84 85.9649C100.888 85.9939 100.938 86.0178 100.991 86.0362L101.166 86.0986L101.388 86.181C101.462 86.2082 101.532 86.2457 101.595 86.2924C101.656 86.3358 101.707 86.3911 101.746 86.455C101.786 86.5222 101.807 86.5994 101.806 86.6778C101.806 86.7549 101.788 86.8311 101.755 86.9006C101.72 86.9726 101.669 87.0359 101.606 87.0855C101.534 87.1431 101.451 87.1856 101.362 87.2102C101.254 87.2432 101.141 87.259 101.029 87.257C100.882 87.258 100.736 87.2323 100.598 87.1812C100.47 87.1343 100.349 87.069 100.24 86.9874L100.425 86.7936Z" fill="black"/>
<path d="M106.758 85.2944H107.056L107.087 85.6464H107.098C107.165 85.5314 107.255 85.4319 107.362 85.3545C107.46 85.2828 107.579 85.2446 107.7 85.2454C107.776 85.2447 107.851 85.2583 107.922 85.2855L107.853 85.5751C107.822 85.5646 107.79 85.5564 107.758 85.5506C107.721 85.5478 107.685 85.5478 107.649 85.5506C107.547 85.5545 107.448 85.5894 107.367 85.6508C107.251 85.7415 107.163 85.8626 107.111 86.0006V87.2526H106.754L106.758 85.2944Z" fill="black"/>
<path d="M109.856 86.2661C109.853 86.1179 109.881 85.9707 109.938 85.834C109.99 85.7126 110.065 85.6028 110.16 85.5109C110.247 85.4251 110.349 85.357 110.462 85.3104C110.574 85.2636 110.694 85.2393 110.815 85.2391C110.936 85.2353 111.056 85.2542 111.17 85.2948C111.272 85.3345 111.364 85.3978 111.437 85.4797C111.51 85.5636 111.565 85.6614 111.599 85.7671C111.638 85.8887 111.658 86.0158 111.657 86.1436C111.658 86.2048 111.653 86.2659 111.643 86.3263H110.213C110.219 86.5139 110.294 86.6927 110.424 86.8275C110.491 86.8894 110.569 86.9373 110.654 86.9687C110.739 87.0001 110.829 87.0142 110.919 87.0102C111.015 87.0114 111.11 86.9971 111.201 86.9679C111.286 86.9403 111.368 86.9037 111.446 86.8587L111.572 87.0815C111.474 87.1379 111.371 87.1849 111.264 87.2218C111.138 87.2639 111.007 87.2842 110.875 87.282C110.739 87.2835 110.605 87.2601 110.477 87.2129C110.358 87.1687 110.248 87.1005 110.155 87.0124C110.06 86.9234 109.984 86.8147 109.933 86.6939C109.879 86.5579 109.853 86.4125 109.856 86.2661ZM111.337 86.1169C111.348 85.9525 111.3 85.7896 111.201 85.658C111.152 85.6049 111.092 85.5632 111.026 85.5358C110.959 85.5085 110.887 85.4962 110.815 85.4998C110.739 85.4983 110.663 85.5127 110.593 85.5421C110.525 85.5705 110.462 85.6113 110.409 85.6624C110.351 85.7167 110.304 85.7818 110.271 85.854C110.233 85.9372 110.208 86.0259 110.198 86.1169H111.337ZM110.802 84.9384H110.526L110.919 84.3726H111.295L110.802 84.9384Z" fill="black"/>
<path d="M113.755 87.6091C113.757 87.5232 113.786 87.4401 113.84 87.3729C113.899 87.2904 113.975 87.2207 114.062 87.168V87.1524C114.008 87.1226 113.963 87.0807 113.929 87.0299C113.89 86.9728 113.871 86.9049 113.873 86.8361C113.87 86.755 113.897 86.6757 113.949 86.6133C113.992 86.5571 114.044 86.5089 114.104 86.4707V86.4529C114.028 86.3907 113.964 86.3152 113.915 86.2301C113.857 86.1374 113.828 86.0297 113.831 85.9205C113.829 85.8204 113.85 85.7212 113.893 85.6309C113.934 85.5453 113.992 85.4693 114.064 85.4081C114.14 85.3461 114.226 85.2992 114.319 85.27C114.471 85.2204 114.633 85.2082 114.79 85.2343C114.837 85.2438 114.883 85.2557 114.928 85.27H115.665V85.5217H115.221C115.276 85.5733 115.319 85.6354 115.349 85.7043C115.379 85.7732 115.395 85.8475 115.396 85.9227C115.398 86.0206 115.377 86.1175 115.334 86.2056C115.298 86.2918 115.241 86.3681 115.17 86.4284C115.096 86.4879 115.013 86.5339 114.923 86.5643C114.826 86.596 114.724 86.6118 114.621 86.6111C114.567 86.6116 114.512 86.6056 114.459 86.5932C114.405 86.5816 114.353 86.5652 114.302 86.5442C114.265 86.5723 114.233 86.6053 114.206 86.6422C114.18 86.6816 114.166 86.7285 114.168 86.7759C114.168 86.8059 114.175 86.8356 114.188 86.8624C114.202 86.8892 114.222 86.9123 114.246 86.9296C114.336 86.9786 114.439 86.9996 114.541 86.9898H114.952C115.144 86.9775 115.335 87.0151 115.507 87.0989C115.568 87.1349 115.617 87.1871 115.65 87.2497C115.683 87.3123 115.697 87.3827 115.692 87.4531C115.692 87.5445 115.667 87.634 115.618 87.7116C115.563 87.8022 115.487 87.8786 115.396 87.9343C115.292 87.9996 115.178 88.0484 115.059 88.0791C114.914 88.118 114.765 88.1368 114.615 88.1348C114.495 88.1363 114.375 88.1244 114.257 88.0992C114.16 88.0809 114.066 88.047 113.98 87.9989C113.909 87.9571 113.849 87.901 113.802 87.8341C113.765 87.7652 113.749 87.687 113.755 87.6091ZM114.068 87.5645C114.07 87.6174 114.086 87.6689 114.115 87.7131C114.144 87.7572 114.185 87.7922 114.233 87.814C114.371 87.8803 114.524 87.9117 114.677 87.9054C114.771 87.9065 114.864 87.8952 114.955 87.872C115.029 87.8525 115.1 87.8225 115.165 87.7828C115.219 87.7505 115.265 87.7073 115.301 87.6559C115.331 87.6127 115.347 87.5614 115.348 87.5088C115.351 87.4699 115.342 87.4309 115.323 87.3971C115.303 87.3632 115.274 87.3361 115.239 87.3195C115.138 87.2804 115.029 87.263 114.921 87.2682H114.555H114.422C114.374 87.2633 114.328 87.2551 114.282 87.2437C114.216 87.284 114.159 87.338 114.115 87.4019C114.085 87.4509 114.069 87.5071 114.068 87.5645ZM114.632 86.3972C114.691 86.3982 114.749 86.3876 114.803 86.366C114.857 86.3445 114.906 86.3128 114.948 86.2724C114.991 86.2326 115.025 86.183 115.046 86.1276C115.069 86.0658 115.081 86.0001 115.081 85.9338C115.084 85.8717 115.074 85.8097 115.051 85.7517C115.029 85.6938 114.994 85.6412 114.95 85.5974C114.863 85.519 114.749 85.4767 114.632 85.4794C114.515 85.4769 114.401 85.519 114.313 85.5974C114.268 85.6409 114.234 85.6935 114.212 85.7515C114.189 85.8096 114.18 85.8718 114.184 85.9338C114.183 85.9999 114.194 86.0656 114.217 86.1276C114.239 86.1826 114.272 86.2321 114.315 86.2724C114.357 86.3128 114.406 86.3445 114.459 86.366C114.514 86.3917 114.573 86.4061 114.632 86.4083V86.3972Z" fill="black"/>
<path d="M118.083 84.8869C118.018 84.8889 117.955 84.8676 117.905 84.8268C117.882 84.8082 117.864 84.7848 117.852 84.7581C117.84 84.7315 117.834 84.7024 117.834 84.6731C117.833 84.6437 117.839 84.6146 117.852 84.5879C117.864 84.5612 117.882 84.5378 117.905 84.5193C117.956 84.4819 118.018 84.4617 118.082 84.4617C118.145 84.4617 118.207 84.4819 118.258 84.5193C118.281 84.5374 118.3 84.5608 118.312 84.5876C118.325 84.6143 118.33 84.6436 118.329 84.6731C118.33 84.7025 118.324 84.7317 118.312 84.7585C118.3 84.7852 118.281 84.8086 118.258 84.8268C118.209 84.8672 118.147 84.8886 118.083 84.8869ZM117.898 85.2879H118.256V87.2372H117.898V85.2879Z" fill="black"/>
<path d="M120.602 86.2664C120.598 86.1139 120.625 85.9623 120.682 85.8208C120.733 85.6988 120.808 85.5887 120.904 85.4978C120.992 85.4098 121.098 85.3415 121.215 85.2973C121.455 85.2053 121.721 85.2053 121.961 85.2973C122.078 85.3415 122.183 85.4098 122.272 85.4978C122.368 85.5887 122.443 85.6988 122.494 85.8208C122.552 85.9621 122.579 86.1138 122.576 86.2664C122.578 86.4138 122.55 86.56 122.494 86.6963C122.443 86.8177 122.368 86.927 122.272 87.0171C122.182 87.1036 122.077 87.1717 121.961 87.2176C121.72 87.3068 121.456 87.3068 121.215 87.2176C121.099 87.1717 120.994 87.1036 120.904 87.0171C120.808 86.927 120.733 86.8177 120.682 86.6963C120.627 86.5598 120.6 86.4136 120.602 86.2664ZM120.971 86.2664C120.97 86.3698 120.985 86.4727 121.015 86.5716C121.042 86.6529 121.084 86.7285 121.139 86.7943C121.192 86.8586 121.258 86.9103 121.333 86.9458C121.41 86.9825 121.495 87.0016 121.581 87.0016C121.667 87.0016 121.752 86.9825 121.83 86.9458C121.905 86.9103 121.971 86.8586 122.023 86.7943C122.078 86.7285 122.12 86.6529 122.148 86.5716C122.178 86.4727 122.193 86.3698 122.192 86.2664C122.193 86.1622 122.178 86.0585 122.148 85.9589C122.121 85.8725 122.079 85.7917 122.023 85.7206C121.972 85.655 121.905 85.6024 121.83 85.5668C121.752 85.5301 121.667 85.5111 121.581 85.5111C121.495 85.5111 121.41 85.5301 121.333 85.5668C121.257 85.6024 121.191 85.655 121.139 85.7206C121.084 85.7917 121.041 85.8725 121.015 85.9589C120.985 86.0585 120.97 86.1622 120.971 86.2664Z" fill="black"/>
<path d="M124.904 85.2956H125.2L125.231 85.5763H125.244C125.342 85.4863 125.449 85.4071 125.564 85.3401C125.684 85.2759 125.819 85.2437 125.955 85.2466C126.046 85.2387 126.138 85.2521 126.223 85.2857C126.308 85.3194 126.384 85.3723 126.445 85.4404C126.559 85.6069 126.613 85.8072 126.599 86.0085V87.2449H126.241V86.053C126.253 85.9132 126.22 85.7732 126.146 85.6543C126.108 85.6111 126.061 85.5775 126.008 85.5562C125.955 85.5349 125.898 85.5265 125.841 85.5317C125.739 85.5293 125.637 85.5555 125.548 85.6075C125.446 85.6722 125.35 85.7469 125.262 85.8302V87.2426H124.904V85.2956Z" fill="black"/>
<path d="M129.019 86.7944C129.107 86.8623 129.203 86.9192 129.305 86.9637C129.412 87.0085 129.527 87.0305 129.643 87.0283C129.755 87.0369 129.866 87.0053 129.956 86.9392C129.99 86.9129 130.017 86.879 130.035 86.8403C130.053 86.8016 130.062 86.7592 130.06 86.7164C130.061 86.6688 130.045 86.6225 130.016 86.585C129.986 86.5451 129.948 86.5117 129.905 86.487C129.857 86.4564 129.805 86.4311 129.752 86.4112L129.576 86.3488C129.501 86.3243 129.425 86.2954 129.354 86.2664C129.282 86.2371 129.215 86.1989 129.152 86.1528C129.095 86.1107 129.045 86.0587 129.006 85.9991C128.965 85.9323 128.945 85.8545 128.95 85.7763C128.949 85.6993 128.966 85.623 128.999 85.5535C129.033 85.4849 129.083 85.4248 129.143 85.3775C129.21 85.3265 129.285 85.2873 129.365 85.2617C129.464 85.2319 129.567 85.2176 129.67 85.2194C129.799 85.2206 129.927 85.2463 130.047 85.2951C130.151 85.3339 130.248 85.3863 130.338 85.4511L130.167 85.6605C130.098 85.6107 130.023 85.5688 129.945 85.5357C129.863 85.502 129.776 85.4853 129.687 85.4867C129.583 85.4781 129.478 85.5082 129.394 85.5714C129.365 85.5953 129.342 85.6252 129.326 85.6591C129.31 85.6929 129.301 85.7299 129.301 85.7674C129.3 85.8092 129.313 85.8502 129.339 85.8832C129.368 85.9185 129.404 85.9487 129.443 85.9724C129.491 86.001 129.542 86.0248 129.594 86.0436L129.772 86.106L129.994 86.1884C130.067 86.2166 130.137 86.254 130.2 86.2998C130.261 86.3439 130.312 86.3991 130.351 86.4625C130.39 86.5304 130.41 86.6072 130.409 86.6852C130.41 86.7622 130.393 86.8384 130.36 86.908C130.324 86.9792 130.273 87.0421 130.211 87.0929C130.139 87.1501 130.056 87.1925 129.967 87.2177C129.859 87.2503 129.747 87.2661 129.634 87.2644C129.487 87.2656 129.341 87.2399 129.203 87.1887C129.075 87.1428 128.954 87.0774 128.846 86.9949L129.019 86.7944Z" fill="black"/>
<path d="M61.4061 69.5543C61.2973 68.8681 63.3758 68.8525 63.3758 69.4763V79.4588C63.4558 80.3633 62.7585 80.2385 62.1989 80.2385H62.0034C61.4749 80.2385 61.3372 79.8887 61.355 79.4855C61.3728 79.0823 61.4061 69.5543 61.4061 69.5543Z" fill="black"/>
</g>
<defs>
<filter id="filter0_d_280_9302" x="0.000391006" y="-9.72748e-05" width="163.8" height="163.8" filterUnits="userSpaceOnUse" color-interpolation-filters="sRGB">
<feFlood flood-opacity="0" result="BackgroundImageFix"/>
<feColorMatrix in="SourceAlpha" type="matrix" values="0 0 0 0 0 0 0 0 0 0 0 0 0 0 0 0 0 0 127 0" result="hardAlpha"/>
<feOffset dx="5" dy="7"/>
<feGaussianBlur stdDeviation="8.45"/>
<feComposite in2="hardAlpha" operator="out"/>
<feColorMatrix type="matrix" values="0 0 0 0 0 0 0 0 0 0 0 0 0 0 0 0 0 0 0.25 0"/>
<feBlend mode="normal" in2="BackgroundImageFix" result="effect1_dropShadow_280_9302"/>
<feBlend mode="normal" in="SourceGraphic" in2="effect1_dropShadow_280_9302" result="shape"/>
</filter>
</defs>
</svg>
