<svg width="32" height="34" viewBox="0 0 32 34" fill="none" xmlns="http://www.w3.org/2000/svg">
<path fill-rule="evenodd" clip-rule="evenodd" d="M11.9415 1.51845C12.1171 0.635536 12.888 0 13.7833 0H18.2167C19.112 0 19.8829 0.635535 20.0585 1.51845L20.6792 4.63966C22.0021 5.14644 23.2226 5.86182 24.3011 6.74584L27.3031 5.72456C28.1512 5.43602 29.0839 5.78962 29.5316 6.56939L31.7483 10.4306C32.1959 11.2103 32.0341 12.1995 31.3616 12.7939L28.9823 14.8966C29.0912 15.5816 29.1478 16.2842 29.1478 17C29.1478 17.7158 29.0912 18.4184 28.9823 19.1033L31.3616 21.2061C32.0341 21.8005 32.1959 22.7896 31.7483 23.5694L29.5316 27.4306C29.0839 28.2103 28.1512 28.5639 27.3031 28.2754L24.3011 27.2541C23.2227 28.1382 22.0021 28.8536 20.6792 29.3603L20.0585 32.4816C19.8829 33.3645 19.112 34 18.2167 34H13.7833C12.888 34 12.1171 33.3645 11.9415 32.4816L11.3208 29.3603C9.9979 28.8536 8.77737 28.1382 7.69892 27.2542L4.69693 28.2754C3.84881 28.564 2.91609 28.2104 2.46843 27.4306L0.251719 23.5694C-0.195946 22.7896 -0.0340865 21.8005 0.638439 21.2061L3.01766 19.1034C2.90878 18.4184 2.85222 17.7158 2.85222 17C2.85222 16.2842 2.90878 15.5816 3.01766 14.8967L0.638439 12.7939C-0.0340862 12.1995 -0.195946 11.2104 0.251718 10.4306L2.46843 6.56942C2.91609 5.78965 3.84881 5.43605 4.69693 5.72458L7.6989 6.74586C8.77735 5.86184 9.9979 5.14644 11.3208 4.63966L11.9415 1.51845ZM16 22.6667C19.112 22.6667 21.6348 20.1296 21.6348 17C21.6348 13.8704 19.112 11.3333 16 11.3333C12.888 11.3333 10.3652 13.8704 10.3652 17C10.3652 20.1296 12.888 22.6667 16 22.6667Z" fill="white"/>
</svg>
