<svg width="32" height="34" viewBox="0 0 32 34" fill="none" xmlns="http://www.w3.org/2000/svg">
<path fill-rule="evenodd" clip-rule="evenodd" d="M10.882 3.65604C11.5858 3.28213 12.4142 3.28213 13.118 3.65604L19.7764 7.19329C19.9172 7.26807 20.0828 7.26807 20.2236 7.19329L25.382 4.45291C27.0442 3.56984 29 4.85413 29 6.82874V24.515C29 25.5211 28.465 26.4409 27.618 26.8908L21.118 30.3439C20.4142 30.7179 19.5858 30.7179 18.882 30.3439L12.2236 26.8067C12.0828 26.7319 11.9172 26.7319 11.7764 26.8067L6.61803 29.5471C4.95578 30.4301 3 29.1459 3 27.1713V9.48499C3 8.47887 3.53501 7.55911 4.38197 7.10916L10.882 3.65604ZM12 8.49998C12.5523 8.49998 13 8.97568 13 9.56248V21.25C13 21.8368 12.5523 22.3125 12 22.3125C11.4477 22.3125 11 21.8368 11 21.25V9.56248C11 8.97568 11.4477 8.49998 12 8.49998ZM21 12.75C21 12.1632 20.5523 11.6875 20 11.6875C19.4477 11.6875 19 12.1632 19 12.75V24.4375C19 25.0243 19.4477 25.5 20 25.5C20.5523 25.5 21 25.0243 21 24.4375V12.75Z" fill="white"/>
</svg>
