<svg width="32" height="34" viewBox="0 0 32 34" fill="none" xmlns="http://www.w3.org/2000/svg">
<path fill-rule="evenodd" clip-rule="evenodd" d="M12 6.375C12.4465 6.375 12.8389 6.68948 12.9615 7.14561L14.0458 11.1777C14.5204 12.9426 15.8188 14.3221 17.4798 14.8264L21.2747 15.9784C21.704 16.1087 22 16.5256 22 17C22 17.4744 21.704 17.8913 21.2747 18.0216L17.4798 19.1736C15.8188 19.6779 14.5204 21.0574 14.0458 22.8223L12.9615 26.8544C12.8389 27.3105 12.4465 27.625 12 27.625C11.5535 27.625 11.1611 27.3105 11.0385 26.8544L9.95421 22.8223C9.47963 21.0574 8.18124 19.6779 6.5202 19.1736L2.72528 18.0216C2.29598 17.8913 2 17.4744 2 17C2 16.5256 2.29598 16.1087 2.72528 15.9784L6.5202 14.8264C8.18124 14.3221 9.47963 12.9426 9.95421 11.1777L11.0385 7.14561C11.1611 6.68948 11.5535 6.375 12 6.375Z" fill="white"/>
<path fill-rule="evenodd" clip-rule="evenodd" d="M24 2.125C24.4589 2.125 24.8589 2.45682 24.9701 2.92981L25.3153 4.39671C25.6288 5.72908 26.6079 6.7694 27.8619 7.1025L29.2425 7.46922C29.6877 7.58747 30 8.01245 30 8.5C30 8.98755 29.6877 9.41253 29.2425 9.53078L27.8619 9.8975C26.6079 10.2306 25.6288 11.2709 25.3153 12.6033L24.9701 14.0702C24.8589 14.5432 24.4589 14.875 24 14.875C23.5411 14.875 23.1411 14.5432 23.0299 14.0702L22.6847 12.6033C22.3712 11.2709 21.3921 10.2306 20.1381 9.8975L18.7575 9.53078C18.3123 9.41253 18 8.98755 18 8.5C18 8.01245 18.3123 7.58747 18.7575 7.46922L20.1381 7.1025C21.3921 6.7694 22.3712 5.72908 22.6847 4.39671L23.0299 2.92981C23.1411 2.45682 23.5411 2.125 24 2.125Z" fill="white"/>
<path fill-rule="evenodd" clip-rule="evenodd" d="M22 21.25C22.4304 21.25 22.8126 21.5426 22.9487 21.9765L23.4743 23.652C23.6734 24.2866 24.142 24.7845 24.7393 24.996L26.3162 25.5545C26.7246 25.6991 27 26.1052 27 26.5625C27 27.0198 26.7246 27.4259 26.3162 27.5705L24.7393 28.129C24.142 28.3405 23.6734 28.8384 23.4743 29.473L22.9487 31.1485C22.8126 31.5824 22.4304 31.875 22 31.875C21.5696 31.875 21.1874 31.5824 21.0513 31.1485L20.5257 29.473C20.3266 28.8384 19.858 28.3405 19.2607 28.129L17.6838 27.5705C17.2754 27.4259 17 27.0198 17 26.5625C17 26.1052 17.2754 25.6991 17.6838 25.5545L19.2607 24.996C19.858 24.7845 20.3266 24.2866 20.5257 23.652L21.0513 21.9765C21.1874 21.5426 21.5696 21.25 22 21.25Z" fill="white"/>
</svg>
