<svg width="32" height="34" viewBox="0 0 32 34" fill="none" xmlns="http://www.w3.org/2000/svg">
<path d="M11 15.4062C11 13.3524 12.567 11.6875 14.5 11.6875C16.433 11.6875 18 13.3524 18 15.4062C18 16.4334 17.6093 17.3617 16.9749 18.0358C16.3404 18.7099 15.4668 19.125 14.5 19.125C12.567 19.125 11 17.4601 11 15.4062Z" fill="white"/>
<path fill-rule="evenodd" clip-rule="evenodd" d="M16 3.1875C8.8203 3.1875 3 9.37157 3 17C3 24.6284 8.8203 30.8125 16 30.8125C23.1797 30.8125 29 24.6284 29 17C29 9.37157 23.1797 3.1875 16 3.1875ZM14.5 9.5625C11.4624 9.5625 9 12.1788 9 15.4062C9 18.6337 11.4624 21.25 14.5 21.25C15.6571 21.25 16.7316 20.8696 17.6174 20.2211L20.2929 23.0638C20.6834 23.4787 21.3166 23.4787 21.7071 23.0638C22.0976 22.6489 22.0976 21.9761 21.7071 21.5612L19.0316 18.7185C19.6419 17.7773 20 16.6356 20 15.4062C20 12.1788 17.5376 9.5625 14.5 9.5625Z" fill="white"/>
</svg>
