<svg width="32" height="34" viewBox="0 0 32 34" fill="none" xmlns="http://www.w3.org/2000/svg">
<path d="M8.99964 19.125C11.7611 19.125 13.9996 21.5035 13.9996 24.4375C13.9996 28.5451 10.8656 31.875 6.99964 31.875C4.40437 31.8748 2.13992 30.3731 0.932255 28.1484C0.748191 27.809 0.755048 27.3893 0.949833 27.0566C1.14484 26.7238 1.49669 26.5318 1.86487 26.5576C1.90951 26.5608 1.9545 26.5625 1.99964 26.5625C3.10421 26.5625 3.99964 25.6111 3.99964 24.4375C3.99964 21.5036 6.23838 19.1252 8.99964 19.125ZM13.1451 13.5547C15.8914 14.7504 18.0955 17.099 19.2086 20.0586C18.3159 20.7664 17.3793 21.4151 16.4 21.9932L15.7282 22.3887C15.0658 19.9284 13.2431 17.9904 10.9274 17.2871L11.3004 16.5752C11.8513 15.5218 12.4692 14.5137 13.1451 13.5547ZM27.4655 2.125C28.8653 2.12533 30.0005 3.33104 30.0006 4.81836C30.0006 5.34997 29.8523 5.87012 29.5748 6.3125L25.0602 13.5078C23.8555 15.4277 22.4228 17.1638 20.8063 18.6807C19.5063 15.703 17.2291 13.2894 14.3942 11.9209C15.8273 10.1919 17.4699 8.66098 19.2867 7.37402L26.0592 2.57715C26.4755 2.2824 26.9652 2.125 27.4655 2.125Z" fill="white"/>
</svg>
