<svg width="72" height="72" viewBox="0 0 72 72" fill="none" xmlns="http://www.w3.org/2000/svg">
<rect width="72" height="72" rx="36" fill="#FFDAD3"/>
<path d="M27.2497 38.5C30.7015 38.5 33.4997 41.2982 33.4997 44.75C33.4997 49.5825 29.5822 53.5 24.7497 53.5C21.5056 53.4999 18.6753 51.7335 17.1657 49.1162C16.9354 48.7167 16.9436 48.2226 17.1872 47.8311C17.4309 47.4396 17.8707 47.2139 18.3308 47.2441C18.3866 47.2478 18.4432 47.25 18.4997 47.25C19.8804 47.25 20.9997 46.1307 20.9997 44.75C20.9997 41.2983 23.7981 38.5002 27.2497 38.5ZM32.5505 31.7891C36.0194 33.2092 38.7906 35.9812 40.2107 39.4502C39.0355 40.3419 37.7969 41.1543 36.4997 41.875L35.6608 42.3398C34.833 39.4456 32.5542 37.1665 29.6599 36.3389L30.1257 35.501C30.8465 34.2035 31.6587 32.9645 32.5505 31.7891ZM50.3317 18.5C52.0816 18.5003 53.5007 19.919 53.5007 21.6689C53.5007 22.2945 53.3154 22.9063 52.9685 23.4268L47.3249 31.8916C45.7733 34.219 43.9213 36.3191 41.8249 38.1416C40.2242 34.617 37.3837 31.7745 33.8591 30.1738C35.6811 28.0779 37.7813 26.2271 40.1081 24.6758L48.5739 19.0322C49.0944 18.6854 49.7063 18.5 50.3317 18.5Z" fill="#890C01"/>
</svg>
