<svg width="72" height="72" viewBox="0 0 72 72" fill="none" xmlns="http://www.w3.org/2000/svg">
<rect width="72" height="72" rx="36" fill="#D3E8FF"/>
<path d="M52.2186 19.7814C50.5101 18.0729 47.74 18.0729 46.0314 19.7814L44.1028 21.71L50.29 27.8972L52.2186 25.9686C53.9272 24.26 53.9272 21.49 52.2186 19.7814Z" fill="#0900B4"/>
<path d="M48.5223 29.665L42.3351 23.4778L22.0837 43.7292C21.0557 44.7571 20.3001 46.0251 19.885 47.4183L18.5521 51.8931C18.421 52.333 18.5416 52.8093 18.8661 53.1339C19.1907 53.4584 19.667 53.579 20.1069 53.448L24.5817 52.115C25.975 51.7 27.2429 50.9443 28.2709 49.9163L48.5223 29.665Z" fill="#0900B4"/>
</svg>
