<svg width="72" height="72" viewBox="0 0 72 72" fill="none" xmlns="http://www.w3.org/2000/svg">
<rect width="72" height="72" rx="36" fill="#FFD3FF"/>
<path fill-rule="evenodd" clip-rule="evenodd" d="M28.5001 26C28.5001 21.8579 31.8579 18.5 36.0001 18.5C40.1422 18.5 43.5001 21.8579 43.5001 26C43.5001 30.1421 40.1422 33.5 36.0001 33.5C31.8579 33.5 28.5001 30.1421 28.5001 26Z" fill="#890185"/>
<path fill-rule="evenodd" clip-rule="evenodd" d="M22.2521 49.5089C22.381 42.0259 28.4867 36 36.0001 36C43.5136 36 49.6194 42.0262 49.748 49.5094C49.7565 50.0057 49.4706 50.46 49.0195 50.667C45.0546 52.4863 40.6443 53.5 36.0006 53.5C31.3565 53.5 26.9458 52.4861 22.9806 50.6665C22.5295 50.4595 22.2436 50.0052 22.2521 49.5089Z" fill="#890185"/>
</svg>
