<svg width="72" height="72" viewBox="0 0 72 72" fill="none" xmlns="http://www.w3.org/2000/svg">
<rect width="72" height="72" rx="36" fill="#D3E8FF"/>
<path d="M36 41C38.7614 41 41 38.7614 41 36C41 33.2386 38.7614 31 36 31C33.2386 31 31 33.2386 31 36C31 38.7614 33.2386 41 36 41Z" fill="#0900B4"/>
<path fill-rule="evenodd" clip-rule="evenodd" d="M18.2057 35.0778C20.6844 27.6262 27.7132 22.25 36.0009 22.25C44.2847 22.25 51.3108 27.6212 53.7926 35.0674C53.9932 35.6692 53.9933 36.3203 53.7931 36.9222C51.3144 44.3738 44.2856 49.75 35.9979 49.75C27.7141 49.75 20.6881 44.3788 18.2062 36.9326C18.0057 36.3308 18.0055 35.6797 18.2057 35.0778ZM44.75 36C44.75 40.8325 40.8325 44.75 36 44.75C31.1675 44.75 27.25 40.8325 27.25 36C27.25 31.1675 31.1675 27.25 36 27.25C40.8325 27.25 44.75 31.1675 44.75 36Z" fill="#0900B4"/>
</svg>
