<svg width="72" height="72" viewBox="0 0 72 72" fill="none" xmlns="http://www.w3.org/2000/svg">
<rect width="72" height="72" rx="36" fill="#D3FFE1"/>
<path fill-rule="evenodd" clip-rule="evenodd" d="M21 19.75C21.6904 19.75 22.25 20.3096 22.25 21V21.899L25.3136 21.1331C29.0769 20.1923 33.0525 20.6287 36.5221 22.3635L36.7016 22.4533C39.5786 23.8918 42.869 24.2761 46.0001 23.5394L51.1827 22.3199C51.5776 22.227 51.9929 22.3315 52.2968 22.6001C52.6008 22.8687 52.7554 23.2681 52.7118 23.6713C52.4066 26.4886 52.25 29.3508 52.25 32.25C52.25 35.1734 52.4092 38.0592 52.7194 40.8991C52.788 41.5268 52.3777 42.107 51.7631 42.2516L46.5727 43.4729C42.8723 44.3436 38.9837 43.8894 35.5836 42.1893L35.404 42.0996C32.4683 40.6317 29.1043 40.2624 25.92 41.0585L22.25 41.976V51C22.25 51.6904 21.6904 52.25 21 52.25C20.3096 52.25 19.75 51.6904 19.75 51V21C19.75 20.3096 20.3096 19.75 21 19.75Z" fill="#049512"/>
</svg>
