<svg width="72" height="72" viewBox="0 0 72 72" fill="none" xmlns="http://www.w3.org/2000/svg">
<rect width="72" height="72" rx="36" fill="#FFDAD3"/>
<path fill-rule="evenodd" clip-rule="evenodd" d="M29.75 27.25C29.75 23.7982 32.5482 21 36 21C39.4518 21 42.25 23.7982 42.25 27.25C42.25 30.7018 39.4518 33.5 36 33.5C32.5482 33.5 29.75 30.7018 29.75 27.25Z" fill="#890C01"/>
<path fill-rule="evenodd" clip-rule="evenodd" d="M42.25 32.25C42.25 29.4886 44.4886 27.25 47.25 27.25C50.0114 27.25 52.25 29.4886 52.25 32.25C52.25 35.0114 50.0114 37.25 47.25 37.25C44.4886 37.25 42.25 35.0114 42.25 32.25Z" fill="#890C01"/>
<path fill-rule="evenodd" clip-rule="evenodd" d="M19.75 32.25C19.75 29.4886 21.9886 27.25 24.75 27.25C27.5114 27.25 29.75 29.4886 29.75 32.25C29.75 35.0114 27.5114 37.25 24.75 37.25C21.9886 37.25 19.75 35.0114 19.75 32.25Z" fill="#890C01"/>
<path fill-rule="evenodd" clip-rule="evenodd" d="M26.5164 41.1959C28.5131 38.074 32.0139 36 36 36C39.9866 36 43.4878 38.0745 45.4843 41.197C46.8646 43.3557 47.4617 45.9587 47.1816 48.4965C47.1378 48.8932 46.9073 49.245 46.5613 49.4436C43.449 51.2294 39.8418 52.25 36 52.25C32.1582 52.25 28.551 51.2294 25.4387 49.4436C25.0927 49.245 24.8622 48.8931 24.8184 48.4965C24.5382 45.9582 25.1357 43.3548 26.5164 41.1959Z" fill="#890C01"/>
<path d="M24.4705 39.7561C24.4504 39.787 24.4305 39.8179 24.4106 39.8489C22.8015 42.3648 22.0651 45.3611 22.2912 48.315C21.2778 48.1611 20.2945 47.9135 19.3507 47.5811L19.1591 47.5136C18.8096 47.3905 18.5654 47.0731 18.536 46.7037L18.5199 46.5012C18.5067 46.3357 18.5 46.1685 18.5 46C18.5 42.6419 21.1484 39.9024 24.4705 39.7561Z" fill="#890C01"/>
<path d="M49.7094 48.3149C49.9354 45.3617 49.1994 42.366 47.5909 39.8503C47.5707 39.8188 47.5505 39.7875 47.5301 39.7562C50.8519 39.9027 53.5 42.6421 53.5 46C53.5 46.1685 53.4933 46.3357 53.4801 46.5012L53.464 46.7037C53.4346 47.0731 53.1904 47.3905 52.8409 47.5136L52.6493 47.5811C51.7057 47.9134 50.7226 48.161 49.7094 48.3149Z" fill="#890C01"/>
</svg>
