<svg width="72" height="72" viewBox="0 0 72 72" fill="none" xmlns="http://www.w3.org/2000/svg">
<rect width="72" height="72" rx="36" fill="#D3E8FF"/>
<path fill-rule="evenodd" clip-rule="evenodd" d="M41.3657 26.4464C41.6131 25.8019 42.3362 25.48 42.9807 25.7274L52.8828 29.5285C53.1923 29.6473 53.4419 29.8842 53.5767 30.187C53.7116 30.4899 53.7206 30.8339 53.6018 31.1434L49.8007 41.0455C49.5533 41.69 48.8303 42.0119 48.1858 41.7645C47.5413 41.5171 47.2194 40.7941 47.4668 40.1496L50.1864 33.0648L48.3755 33.8711C44.2868 35.6915 41.1726 38.7928 39.2917 42.4936C39.1103 42.8505 38.7689 43.0989 38.3735 43.1618C37.9781 43.2246 37.5766 43.0942 37.2935 42.8111L31 36.5177L20.6339 46.8838C20.1457 47.3719 19.3543 47.3719 18.8661 46.8838C18.378 46.3956 18.378 45.6042 18.8661 45.116L30.1161 33.866C30.3505 33.6316 30.6685 33.4999 31 33.4999C31.3315 33.4999 31.6495 33.6316 31.8839 33.866L37.8939 39.876C40.0616 36.3408 43.2851 33.4009 47.3587 31.5872L49.1695 30.781L42.0847 28.0614C41.4402 27.814 41.1183 27.0909 41.3657 26.4464Z" fill="#0900B4"/>
</svg>
