<svg width="72" height="72" viewBox="0 0 72 72" fill="none" xmlns="http://www.w3.org/2000/svg">
<rect width="72" height="72" rx="36" fill="#FBFFD3"/>
<path fill-rule="evenodd" clip-rule="evenodd" d="M30.3381 22.3313C31.7118 20.7516 33.7389 19.75 36 19.75C38.261 19.75 40.288 20.7515 41.6617 22.331C43.7502 22.1851 45.892 22.9103 47.491 24.5093C49.0901 26.1083 49.8152 28.2501 49.6693 30.3387C51.2487 31.7123 52.25 33.7391 52.25 36C52.25 38.2613 51.2483 40.2885 49.6684 41.6621C49.814 43.7503 49.0889 45.8917 47.4901 47.4904C45.8914 49.0892 43.75 49.8144 41.6618 49.6688C40.2882 51.2485 38.2611 52.25 36 52.25C33.739 52.25 31.712 51.2486 30.3384 49.669C28.2499 49.815 26.108 49.0898 24.509 47.4908C22.9099 45.8917 22.1848 43.7499 22.3307 41.6614C20.7513 40.2877 19.75 38.2609 19.75 36C19.75 33.739 20.7514 31.712 22.3309 30.3384C22.1852 28.2501 22.9103 26.1085 24.5092 24.5096C26.1081 22.9107 28.2498 22.1855 30.3381 22.3313ZM42.0172 32.9765C42.4184 32.4148 42.2883 31.6341 41.7265 31.2328C41.1648 30.8316 40.3841 30.9617 39.9828 31.5235L34.5905 39.0727L31.8839 36.3661C31.3957 35.878 30.6043 35.878 30.1161 36.3661C29.628 36.8543 29.628 37.6457 30.1161 38.1339L33.8661 41.8839C34.1259 42.1437 34.4869 42.276 34.8531 42.2457C35.2193 42.2154 35.5536 42.0255 35.7672 41.7265L42.0172 32.9765Z" fill="#049512"/>
</svg>
