<svg width="72" height="72" viewBox="0 0 72 72" fill="none" xmlns="http://www.w3.org/2000/svg">
<rect width="72" height="72" rx="36" fill="#FBFFD3"/>
<path fill-rule="evenodd" clip-rule="evenodd" d="M31 23.5C31.5581 23.5 32.0486 23.87 32.2019 24.4066L33.5572 29.1502C34.1505 31.2265 35.7735 32.8495 37.8498 33.4428L42.5934 34.7981C43.13 34.9514 43.5 35.4419 43.5 36C43.5 36.5581 43.13 37.0486 42.5934 37.2019L37.8498 38.5572C35.7735 39.1505 34.1505 40.7735 33.5572 42.8498L32.2019 47.5934C32.0486 48.13 31.5581 48.5 31 48.5C30.4419 48.5 29.9514 48.13 29.7981 47.5934L28.4428 42.8498C27.8495 40.7735 26.2265 39.1505 24.1502 38.5572L19.4066 37.2019C18.87 37.0486 18.5 36.5581 18.5 36C18.5 35.4419 18.87 34.9514 19.4066 34.7981L24.1502 33.4428C26.2265 32.8495 27.8495 31.2265 28.4428 29.1502L29.7981 24.4066C29.9514 23.87 30.4419 23.5 31 23.5Z" fill="#898901"/>
<path fill-rule="evenodd" clip-rule="evenodd" d="M46 18.5C46.5736 18.5 47.0736 18.8904 47.2127 19.4468L47.6441 21.1726C48.036 22.7401 49.2599 23.964 50.8274 24.3559L52.5532 24.7873C53.1096 24.9264 53.5 25.4264 53.5 26C53.5 26.5736 53.1096 27.0736 52.5532 27.2127L50.8274 27.6441C49.2599 28.036 48.036 29.2599 47.6441 30.8274L47.2127 32.5532C47.0736 33.1096 46.5736 33.5 46 33.5C45.4264 33.5 44.9264 33.1096 44.7873 32.5532L44.3559 30.8274C43.964 29.2599 42.7401 28.036 41.1726 27.6441L39.4468 27.2127C38.8904 27.0736 38.5 26.5736 38.5 26C38.5 25.4264 38.8904 24.9264 39.4468 24.7873L41.1726 24.3559C42.7401 23.964 43.964 22.7401 44.3559 21.1726L44.7873 19.4468C44.9264 18.8904 45.4264 18.5 46 18.5Z" fill="#898901"/>
<path fill-rule="evenodd" clip-rule="evenodd" d="M43.5 41C44.038 41 44.5157 41.3443 44.6859 41.8547L45.3429 43.8259C45.5918 44.5724 46.1776 45.1582 46.9241 45.4071L48.8953 46.0641C49.4057 46.2343 49.75 46.712 49.75 47.25C49.75 47.788 49.4057 48.2657 48.8953 48.4359L46.9241 49.0929C46.1776 49.3418 45.5918 49.9276 45.3429 50.6741L44.6859 52.6453C44.5157 53.1557 44.038 53.5 43.5 53.5C42.962 53.5 42.4843 53.1557 42.3141 52.6453L41.6571 50.6741C41.4082 49.9276 40.8224 49.3418 40.0759 49.0929L38.1047 48.4359C37.5943 48.2657 37.25 47.788 37.25 47.25C37.25 46.712 37.5943 46.2343 38.1047 46.0641L40.0759 45.4071C40.8224 45.1582 41.4082 44.5724 41.6571 43.8259L42.3141 41.8547C42.4843 41.3443 42.962 41 43.5 41Z" fill="#898901"/>
</svg>
