<svg width="72" height="72" viewBox="0 0 72 72" fill="none" xmlns="http://www.w3.org/2000/svg">
<rect width="72" height="72" rx="36" fill="#D3E8FF"/>
<path fill-rule="evenodd" clip-rule="evenodd" d="M33.5 21C32.3568 21 31.3899 21.7683 31.0935 22.8192C31.0328 23.0342 31 23.2622 31 23.5H41C41 23.2622 40.9672 23.0342 40.9065 22.8192C40.6101 21.7683 39.6432 21 38.5 21H33.5ZM29.0109 21.2965C29.8252 19.6406 31.5282 18.5 33.5 18.5H38.5C40.4718 18.5 42.1748 19.6406 42.9891 21.2965C43.8184 21.3671 44.6442 21.4503 45.4663 21.5457C47.9619 21.8353 49.75 23.9787 49.75 26.4283V48.5C49.75 51.2614 47.5114 53.5 44.75 53.5H27.25C24.4886 53.5 22.25 51.2614 22.25 48.5V26.4283C22.25 23.9787 24.0381 21.8353 26.5337 21.5457C27.3558 21.4503 28.1816 21.3671 29.0109 21.2965Z" fill="#0900B4"/>
</svg>
