<svg width="72" height="72" viewBox="0 0 72 72" fill="none" xmlns="http://www.w3.org/2000/svg">
<rect width="72" height="72" rx="36" fill="#D3E8FF"/>
<path d="M52.2186 19.7814C50.51 18.0729 47.74 18.0729 46.0314 19.7814L44.1028 21.71L50.29 27.8972L52.2186 25.9686C53.9271 24.26 53.9271 21.49 52.2186 19.7814Z" fill="#0900B4"/>
<path d="M48.5222 29.6649L42.3351 23.4778L28.3337 37.4792C27.3057 38.5071 26.55 39.7751 26.135 41.1683L24.802 45.6431C24.671 46.083 24.7916 46.5593 25.1161 46.8839C25.4407 47.2084 25.917 47.329 26.3569 47.198L30.8317 45.865C32.225 45.45 33.4929 44.6943 34.5209 43.6663L48.5222 29.6649Z" fill="#0900B4"/>
<path d="M24.75 24.75C21.9886 24.75 19.75 26.9886 19.75 29.75V47.25C19.75 50.0114 21.9886 52.25 24.75 52.25H42.25C45.0114 52.25 47.25 50.0114 47.25 47.25V38.5C47.25 37.8096 46.6904 37.25 46 37.25C45.3096 37.25 44.75 37.8096 44.75 38.5V47.25C44.75 48.6307 43.6307 49.75 42.25 49.75H24.75C23.3693 49.75 22.25 48.6307 22.25 47.25V29.75C22.25 28.3693 23.3693 27.25 24.75 27.25H33.5C34.1904 27.25 34.75 26.6903 34.75 26C34.75 25.3096 34.1904 24.75 33.5 24.75H24.75Z" fill="#0900B4"/>
</svg>
