<svg width="72" height="72" viewBox="0 0 72 72" fill="none" xmlns="http://www.w3.org/2000/svg">
<rect width="72" height="72" rx="36" fill="#D3FFE1"/>
<path fill-rule="evenodd" clip-rule="evenodd" d="M19.75 24.75C19.75 21.9886 21.9886 19.75 24.75 19.75H47.25C50.0114 19.75 52.25 21.9886 52.25 24.75V41C52.25 43.7614 50.0114 46 47.25 46H42.25V46.4289C42.25 47.4235 42.6451 48.3773 43.3483 49.0806L44.3839 50.1161C44.7414 50.4736 44.8483 51.0113 44.6548 51.4784C44.4614 51.9454 44.0056 52.25 43.5 52.25H28.5C27.9944 52.25 27.5386 51.9454 27.3452 51.4784C27.1517 51.0113 27.2586 50.4736 27.6161 50.1161L28.6517 49.0806C29.3549 48.3773 29.75 47.4235 29.75 46.4289V46H24.75C21.9886 46 19.75 43.7614 19.75 41V24.75ZM22.25 24.75V37.25C22.25 38.6307 23.3693 39.75 24.75 39.75H47.25C48.6307 39.75 49.75 38.6307 49.75 37.25V24.75C49.75 23.3693 48.6307 22.25 47.25 22.25H24.75C23.3693 22.25 22.25 23.3693 22.25 24.75Z" fill="#049512"/>
</svg>
