<svg width="72" height="72" viewBox="0 0 72 72" fill="none" xmlns="http://www.w3.org/2000/svg">
<rect width="72" height="72" rx="36" fill="#FFDAD3"/>
<path fill-rule="evenodd" clip-rule="evenodd" d="M29.6025 20.3011C30.4822 19.8612 31.5178 19.8612 32.3975 20.3011L40.7205 24.4626C40.8964 24.5506 41.1036 24.5506 41.2795 24.4626L47.7275 21.2386C49.8053 20.1997 52.25 21.7106 52.25 24.0337V44.8411C52.25 46.0247 51.5812 47.1068 50.5225 47.6362L42.3975 51.6987C41.5178 52.1385 40.4822 52.1385 39.6025 51.6987L31.2795 47.5372C31.1036 47.4492 30.8964 47.4492 30.7205 47.5372L24.2725 50.7612C22.1947 51.8001 19.75 50.2891 19.75 47.9661V27.1587C19.75 25.975 20.4188 24.893 21.4775 24.3636L29.6025 20.3011ZM31 25.9999C31.6904 25.9999 32.25 26.5595 32.25 27.2499V40.9999C32.25 41.6902 31.6904 42.2499 31 42.2499C30.3096 42.2499 29.75 41.6902 29.75 40.9999V27.2499C29.75 26.5595 30.3096 25.9999 31 25.9999ZM42.25 30.9999C42.25 30.3095 41.6904 29.7499 41 29.7499C40.3096 29.7499 39.75 30.3095 39.75 30.9999V44.7499C39.75 45.4402 40.3096 45.9999 41 45.9999C41.6904 45.9999 42.25 45.4402 42.25 44.7499V30.9999Z" fill="#890C01"/>
</svg>
