<svg width="72" height="72" viewBox="0 0 72 72" fill="none" xmlns="http://www.w3.org/2000/svg">
<rect width="72" height="72" rx="36" fill="#FBFFD3"/>
<path fill-rule="evenodd" clip-rule="evenodd" d="M25.375 18.5C23.6491 18.5 22.25 19.8991 22.25 21.625V50.375C22.25 52.1009 23.6491 53.5 25.375 53.5H46.625C48.3509 53.5 49.75 52.1009 49.75 50.375V37.25C49.75 33.7982 46.9518 31 43.5 31H40.375C38.6491 31 37.25 29.6009 37.25 27.875V24.75C37.25 21.2982 34.4518 18.5 31 18.5H25.375ZM28.5 41C28.5 40.3096 29.0596 39.75 29.75 39.75H42.25C42.9404 39.75 43.5 40.3096 43.5 41C43.5 41.6904 42.9404 42.25 42.25 42.25H29.75C29.0596 42.25 28.5 41.6904 28.5 41ZM29.75 44.75C29.0596 44.75 28.5 45.3096 28.5 46C28.5 46.6904 29.0596 47.25 29.75 47.25H36C36.6904 47.25 37.25 46.6904 37.25 46C37.25 45.3096 36.6904 44.75 36 44.75H29.75Z" fill="#898901"/>
<path d="M37.6187 19.0265C38.9466 20.5608 39.75 22.5616 39.75 24.75V27.875C39.75 28.2202 40.0298 28.5 40.375 28.5H43.5C45.6884 28.5 47.6892 29.3034 49.2235 30.6313C47.7437 24.9665 43.2835 20.5063 37.6187 19.0265Z" fill="#898901"/>
</svg>
