<svg width="72" height="72" viewBox="0 0 72 72" fill="none" xmlns="http://www.w3.org/2000/svg">
<rect width="72" height="72" rx="36" fill="#FFDAD3"/>
<path fill-rule="evenodd" clip-rule="evenodd" d="M23.9254 32.7651C25.7121 26.0967 32.5663 22.1395 39.2347 23.9262C41.4363 24.5162 43.3393 25.6565 44.8391 27.159L48.0109 30.3308H42.7047C42.0143 30.3308 41.4547 30.8905 41.4547 31.5808C41.4547 32.2712 42.0143 32.8308 42.7047 32.8308H51.0257C51.3572 32.8308 51.6752 32.6991 51.9096 32.4646C52.144 32.2302 52.2757 31.9122 52.2757 31.5807V23.2598C52.2757 22.5695 51.716 22.0098 51.0257 22.0098C50.3353 22.0098 49.7757 22.5695 49.7757 23.2598V28.5601L46.6085 25.3929C44.8066 23.5878 42.519 22.2181 39.8817 21.5114C31.8797 19.3673 23.6547 24.116 21.5106 32.118C21.3319 32.7849 21.7276 33.4703 22.3944 33.649C23.0613 33.8276 23.7467 33.4319 23.9254 32.7651ZM49.6044 38.3517C48.9376 38.173 48.2522 38.5687 48.0735 39.2355C46.2867 45.9039 39.4325 49.8612 32.7642 48.0744C30.5626 47.4845 28.6596 46.3442 27.1598 44.8416L23.99 41.6697H29.2947C29.9851 41.6697 30.5447 41.1101 30.5447 40.4197C30.5447 39.7294 29.9851 39.1697 29.2947 39.1697L20.9736 39.1697C20.2833 39.1697 19.7236 39.7294 19.7236 40.4197V48.7408C19.7236 49.4311 20.2833 49.9908 20.9736 49.9908C21.664 49.9908 22.2236 49.4311 22.2236 48.7408V43.4389L25.3904 46.6077C27.1924 48.4131 29.4796 49.7825 32.1171 50.4892C40.1191 52.6333 48.3442 47.8846 50.4883 39.8826C50.667 39.2158 50.2713 38.5303 49.6044 38.3517Z" fill="#890C01"/>
</svg>
