<svg width="72" height="72" viewBox="0 0 72 72" fill="none" xmlns="http://www.w3.org/2000/svg">
<rect width="72" height="72" rx="36" fill="#D3FFE1"/>
<path fill-rule="evenodd" clip-rule="evenodd" d="M19.75 38.5C19.75 30.9061 25.9061 24.75 33.5 24.75C34.1904 24.75 34.75 25.3096 34.75 26V37.25H46C46.6904 37.25 47.25 37.8096 47.25 38.5C47.25 46.0939 41.0939 52.25 33.5 52.25C25.9061 52.25 19.75 46.0939 19.75 38.5Z" fill="#049512"/>
<path fill-rule="evenodd" clip-rule="evenodd" d="M37.25 21C37.25 20.3096 37.8096 19.75 38.5 19.75C46.0939 19.75 52.25 25.9061 52.25 33.5C52.25 34.1904 51.6904 34.75 51 34.75H38.5C37.8096 34.75 37.25 34.1904 37.25 33.5V21Z" fill="#049512"/>
</svg>
