<svg width="72" height="72" viewBox="0 0 72 72" fill="none" xmlns="http://www.w3.org/2000/svg">
<rect width="72" height="72" rx="36" fill="#FBFFD3"/>
<path d="M44.1353 23.2422C40.6833 24.6232 36.9862 25.5218 33.1266 25.8548C32.0141 25.9508 30.8879 25.9998 29.75 25.9998H28.5C23.6675 25.9998 19.75 29.9174 19.75 34.7498C19.75 39.0825 22.8991 42.6797 27.0333 43.3775C27.5904 45.6591 28.3634 47.8561 29.3294 49.9455C30.1028 51.6184 32.1197 52.1456 33.6338 51.2714L34.7277 50.6399C36.1945 49.793 36.6704 47.9854 36.0145 46.5263C35.623 45.6557 35.2737 44.7621 34.969 43.8482C38.1647 44.2782 41.2364 45.0978 44.1353 46.2575C45.3448 42.6419 46 38.7724 46 34.7498C46 30.7273 45.3448 26.8578 44.1353 23.2422Z" fill="#898901"/>
<path d="M46.4344 22.2344C47.7735 26.1605 48.5 30.3703 48.5 34.7498C48.5 39.1293 47.7735 43.3392 46.4343 47.2653V47.2653C46.3424 47.5349 46.2479 47.8033 46.1502 48.0702C45.9129 48.7185 46.2461 49.4364 46.8944 49.6737C47.5426 49.911 48.2606 49.5778 48.4979 48.9295C48.7312 48.292 48.9493 47.6471 49.1517 46.9953C50.0244 44.1841 50.6045 41.2446 50.8566 38.2128C51.7183 37.3153 52.25 36.0943 52.25 34.7498C52.25 33.4054 51.7183 32.1844 50.8566 31.2869C50.6045 28.2551 50.0244 25.3156 49.1517 22.5044C48.9493 21.8526 48.7312 21.2077 48.4979 20.5702C48.2606 19.9219 47.5426 19.5887 46.8944 19.826C46.2461 20.0633 45.9129 20.7812 46.1502 21.4295C46.2479 21.6964 46.3424 21.9648 46.4344 22.2344V22.2344Z" fill="#898901"/>
</svg>
