<svg width="72" height="72" viewBox="0 0 72 72" fill="none" xmlns="http://www.w3.org/2000/svg">
<rect width="72" height="72" rx="36" fill="#D3FFE1"/>
<path d="M36 17.25C28.4061 17.25 22.25 23.4061 22.25 31C22.25 36.0846 25.0105 40.523 29.1086 42.9008C30.251 43.5636 30.9664 44.5807 30.9988 45.6043C31.0167 46.1688 31.4109 46.6513 31.9607 46.7812C32.5463 46.9196 33.1431 47.0286 33.7493 47.1065C34.2887 47.1758 34.7503 46.7437 34.7503 46.2V38.4316C34.2182 38.3727 33.6967 38.2767 33.1887 38.1459C32.5202 37.9738 32.1177 37.2924 32.2898 36.6238C32.4618 35.9552 33.1433 35.5527 33.8119 35.7248C34.5099 35.9045 35.2429 36.0003 36.0003 36.0003C36.7577 36.0003 37.4907 35.9045 38.1887 35.7248C38.8573 35.5527 39.5388 35.9552 39.7108 36.6238C39.8829 37.2924 39.4804 37.9738 38.8119 38.1459C38.3039 38.2767 37.7824 38.3727 37.2503 38.4316V46.1999C37.2503 46.7437 37.712 47.1757 38.2513 47.1064C38.8573 47.0285 39.4539 46.9196 40.0393 46.7812C40.5891 46.6513 40.9833 46.1688 41.0012 45.6043C41.0336 44.5807 41.749 43.5636 42.8914 42.9008C46.9895 40.523 49.75 36.0846 49.75 31C49.75 23.4061 43.5939 17.25 36 17.25Z" fill="#049512"/>
<path fill-rule="evenodd" clip-rule="evenodd" d="M31.0219 49.1661C31.1506 48.4878 31.8047 48.0423 32.483 48.171C33.6212 48.3869 34.7968 48.5 36 48.5C37.2032 48.5 38.3788 48.3869 39.517 48.171C40.1953 48.0423 40.8494 48.4878 40.9781 49.1661C41.1068 49.8443 40.6612 50.4985 39.983 50.6272C38.6919 50.8721 37.3603 51 36 51C34.6397 51 33.3081 50.8721 32.017 50.6272C31.3388 50.4985 30.8932 49.8443 31.0219 49.1661Z" fill="#049512"/>
<path fill-rule="evenodd" clip-rule="evenodd" d="M32.2568 53.2399C32.3286 52.5533 32.9434 52.055 33.6301 52.1268C34.4085 52.2082 35.1992 52.25 36 52.25C36.8008 52.25 37.5915 52.2082 38.3699 52.1268C39.0566 52.055 39.6714 52.5533 39.7432 53.2399C39.815 53.9266 39.3167 54.5414 38.6301 54.6132C37.7653 54.7037 36.8879 54.75 36 54.75C35.1121 54.75 34.2347 54.7037 33.3699 54.6132C32.6833 54.5414 32.185 53.9266 32.2568 53.2399Z" fill="#049512"/>
</svg>
