<svg width="72" height="72" viewBox="0 0 72 72" fill="none" xmlns="http://www.w3.org/2000/svg">
<rect width="72" height="72" rx="36" fill="#FFDAD3"/>
<path d="M34.75 24.8949C34.75 24.303 34.4399 23.7679 34.0813 23.297C33.7132 22.8135 33.5 22.24 33.5 21.625C33.5 19.8991 35.1789 18.5 37.25 18.5C39.3211 18.5 41 19.8991 41 21.625C41 22.24 40.7868 22.8135 40.4187 23.297C40.0601 23.7679 39.75 24.303 39.75 24.8949C39.75 25.4488 40.2128 25.891 40.7658 25.858C43.9501 25.668 47.0831 25.2888 50.1536 24.7316C50.4915 24.6703 50.8398 24.7507 51.1166 24.954C51.3935 25.1573 51.5744 25.4655 51.6171 25.8063C51.9905 28.7887 52.2021 31.821 52.2431 34.8941C52.2513 35.5047 51.7555 35.9998 51.1449 36C50.553 36 50.0179 35.6899 49.547 35.3313C49.0635 34.9632 48.49 34.75 47.875 34.75C46.1491 34.75 44.75 36.4289 44.75 38.5C44.75 40.5711 46.1491 42.25 47.875 42.25C48.49 42.25 49.0635 42.0368 49.547 41.6687C50.0179 41.3101 50.553 41 51.1449 41C51.6623 41 52.0731 41.4361 52.0357 41.9521C51.8379 44.6831 51.5051 47.3769 51.0439 50.0269C50.9535 50.5466 50.5465 50.9536 50.0267 51.044C46.9949 51.5717 43.9057 51.9312 40.7691 52.1127C40.2141 52.1449 39.75 51.7008 39.75 51.1449C39.75 50.553 40.0601 50.0179 40.4187 49.547C40.7868 49.0635 41 48.49 41 47.875C41 46.1491 39.3211 44.75 37.25 44.75C35.1789 44.75 33.5 46.1491 33.5 47.875C33.5 48.49 33.7132 49.0635 34.0813 49.547C34.4399 50.0179 34.75 50.553 34.75 51.1449C34.75 51.7475 34.2566 52.2342 33.6542 52.2171C31.005 52.142 28.3873 51.94 25.8069 51.6169C25.4661 51.5743 25.1579 51.3933 24.9546 51.1164C24.7513 50.8396 24.6709 50.4913 24.7322 50.1534C25.2204 47.4635 25.5719 44.7256 25.7793 41.9472C25.8176 41.4342 25.4094 41 24.8949 41C24.303 41 23.7679 41.3101 23.297 41.6687C22.8135 42.0368 22.24 42.25 21.625 42.25C19.8991 42.25 18.5 40.5711 18.5 38.5C18.5 36.4289 19.8991 34.75 21.625 34.75C22.24 34.75 22.8135 34.9632 23.297 35.3313C23.7679 35.6899 24.303 36 24.8949 36C25.5055 36 26.0013 35.505 25.9929 34.8944C25.9556 32.1807 25.781 29.5004 25.476 26.8605C25.4322 26.4813 25.564 26.103 25.8338 25.8331C26.1037 25.5632 26.4821 25.4314 26.8612 25.4753C29.0984 25.7338 31.3643 25.8985 33.6551 25.9655C34.2569 25.9831 34.75 25.497 34.75 24.8949Z" fill="#890C01"/>
</svg>
