<svg width="72" height="72" viewBox="0 0 72 72" fill="none" xmlns="http://www.w3.org/2000/svg">
<rect width="72" height="72" rx="36" fill="#FFD3D4"/>
<path fill-rule="evenodd" clip-rule="evenodd" d="M36 27.25C36 22.4175 39.9175 18.5 44.75 18.5C45.6319 18.5 46.4855 18.6309 47.2912 18.8751C47.7117 19.0025 48.0344 19.3413 48.1412 19.7675C48.248 20.1936 48.1232 20.6446 47.8125 20.9552L42.2814 26.4864C42.3842 27.279 42.7397 28.043 43.3484 28.6517C43.957 29.2603 44.721 29.6158 45.5136 29.7186L51.0448 24.1875C51.3554 23.8768 51.8064 23.752 52.2325 23.8588C52.6587 23.9656 52.9975 24.2883 53.1249 24.7088C53.3691 25.5145 53.5 26.3681 53.5 27.25C53.5 32.0825 49.5825 36 44.75 36C44.4992 36 44.2505 35.9894 44.0045 35.9686C42.3091 35.8253 40.8896 36.1361 40.1574 37.0252L28.2388 51.4978C27.1947 52.7656 25.6385 53.5 23.9961 53.5C20.9607 53.5 18.5 51.0393 18.5 48.0039C18.5 46.3615 19.2344 44.8053 20.5022 43.7612L34.9748 31.8426C35.8639 31.1104 36.1747 29.6909 36.0314 27.9955C36.0106 27.7495 36 27.5008 36 27.25ZM22.8621 47.8751C22.8621 47.1847 23.4217 46.6251 24.1121 46.6251H24.1246C24.8149 46.6251 25.3746 47.1847 25.3746 47.8751V47.8876C25.3746 48.5779 24.8149 49.1376 24.1246 49.1376H24.1121C23.4217 49.1376 22.8621 48.5779 22.8621 47.8876V47.8751Z" fill="#B40000"/>
<path d="M32.7933 30.4005L29.125 26.7323V24.125C29.125 23.6859 28.8947 23.2791 28.5181 23.0532L22.2681 19.3032C21.7763 19.0081 21.1467 19.0856 20.7411 19.4911L19.4911 20.7411C19.0856 21.1467 19.0081 21.7763 19.3032 22.2681L23.0532 28.5181C23.2791 28.8947 23.6859 29.125 24.125 29.125H26.7323L30.169 32.5617L32.7933 30.4005Z" fill="#B40000"/>
<path fill-rule="evenodd" clip-rule="evenodd" d="M36.9265 44.8812L43.8977 51.8524C46.0944 54.0491 49.656 54.0491 51.8527 51.8524C54.0494 49.6557 54.0494 46.0941 51.8527 43.8974L46.3433 38.388C45.8228 38.4618 45.291 38.4999 44.7502 38.4999C44.429 38.4999 44.1101 38.4864 43.7941 38.4597C43.1369 38.4041 42.6566 38.4494 42.3482 38.5294C42.1755 38.5743 42.0957 38.6188 42.0698 38.6357L36.9265 44.8812ZM42.6163 42.6161C43.1044 42.128 43.8959 42.128 44.384 42.6161L47.509 45.7411C47.9972 46.2293 47.9972 47.0207 47.509 47.5089C47.0209 47.997 46.2294 47.997 45.7413 47.5089L42.6163 44.3839C42.1281 43.8957 42.1281 43.1043 42.6163 42.6161Z" fill="#B40000"/>
</svg>
