<svg width="72" height="72" viewBox="0 0 72 72" fill="none" xmlns="http://www.w3.org/2000/svg">
<rect width="72" height="72" rx="36" fill="#FFD3D4"/>
<path fill-rule="evenodd" clip-rule="evenodd" d="M36 18.5C31.1675 18.5 27.25 22.4175 27.25 27.25V32.25C24.4886 32.25 22.25 34.4886 22.25 37.25V48.5C22.25 51.2614 24.4886 53.5 27.25 53.5H44.75C47.5114 53.5 49.75 51.2614 49.75 48.5V37.25C49.75 34.4886 47.5114 32.25 44.75 32.25V27.25C44.75 22.4175 40.8325 18.5 36 18.5ZM42.25 32.25V27.25C42.25 23.7982 39.4518 21 36 21C32.5482 21 29.75 23.7982 29.75 27.25V32.25H42.25Z" fill="#B40000"/>
</svg>
