<svg width="72" height="72" viewBox="0 0 72 72" fill="none" xmlns="http://www.w3.org/2000/svg">
<rect width="72" height="72" rx="36" fill="#FFD3D4"/>
<path fill-rule="evenodd" clip-rule="evenodd" d="M28.4995 26V27.25H25.1876C23.5884 27.25 22.2472 28.4574 22.0798 30.0479L19.9745 50.0479C19.7803 51.893 21.227 53.5 23.0824 53.5H48.9169C50.7722 53.5 52.219 51.893 52.0247 50.0479L49.9195 30.0479C49.7521 28.4574 48.4109 27.25 46.8117 27.25H43.4995V26C43.4995 21.8579 40.1417 18.5 35.9995 18.5C31.8574 18.5 28.4995 21.8579 28.4995 26ZM35.9995 21C33.2381 21 30.9995 23.2386 30.9995 26V27.25H40.9995V26C40.9995 23.2386 38.7609 21 35.9995 21ZM30.9995 34.75C30.9995 37.5114 33.2381 39.75 35.9995 39.75C38.7609 39.75 40.9995 37.5114 40.9995 34.75V33.5C40.9995 32.8096 41.5592 32.25 42.2495 32.25C42.9399 32.25 43.4995 32.8096 43.4995 33.5V34.75C43.4995 38.8921 40.1417 42.25 35.9995 42.25C31.8574 42.25 28.4995 38.8921 28.4995 34.75V33.5C28.4995 32.8096 29.0592 32.25 29.7495 32.25C30.4399 32.25 30.9995 32.8096 30.9995 33.5V34.75Z" fill="#B40000"/>
</svg>
