<svg width="72" height="72" viewBox="0 0 72 72" fill="none" xmlns="http://www.w3.org/2000/svg">
<rect width="72" height="72" rx="36" fill="#FFD3D4"/>
<path fill-rule="evenodd" clip-rule="evenodd" d="M33.5 22.25C27.2868 22.25 22.25 27.2868 22.25 33.5C22.25 39.7132 27.2868 44.75 33.5 44.75C36.6069 44.75 39.4177 43.4922 41.455 41.455C43.4922 39.4177 44.75 36.6069 44.75 33.5C44.75 27.2868 39.7132 22.25 33.5 22.25ZM19.75 33.5C19.75 25.9061 25.9061 19.75 33.5 19.75C41.0939 19.75 47.25 25.9061 47.25 33.5C47.25 36.8464 46.0533 39.9151 44.0665 42.2988L51.8839 50.1161C52.372 50.6043 52.372 51.3957 51.8839 51.8839C51.3957 52.372 50.6043 52.372 50.1161 51.8839L42.2988 44.0665C39.9151 46.0533 36.8464 47.25 33.5 47.25C25.9061 47.25 19.75 41.0939 19.75 33.5Z" fill="#B40000"/>
</svg>
