<svg width="72" height="72" viewBox="0 0 72 72" fill="none" xmlns="http://www.w3.org/2000/svg">
<rect width="72" height="72" rx="36" fill="#FFD3D4"/>
<path d="M34.75 23.5548C32.2242 21.938 29.2208 21 26 21C24.103 21 22.2793 21.3256 20.5834 21.925C20.084 22.1015 19.75 22.5738 19.75 23.1035V46.8535C19.75 47.2593 19.947 47.6398 20.2783 47.8741C20.6096 48.1084 21.034 48.1673 21.4166 48.0321C22.8485 47.526 24.3907 47.25 26 47.25C29.325 47.25 32.3721 48.4288 34.75 50.3929V23.5548Z" fill="#B40000"/>
<path d="M37.25 50.3929C39.6279 48.4288 42.675 47.25 46 47.25C47.6093 47.25 49.1515 47.526 50.5834 48.0321C50.966 48.1673 51.3904 48.1084 51.7217 47.8741C52.053 47.6398 52.25 47.2593 52.25 46.8535V23.1035C52.25 22.5738 51.916 22.1015 51.4166 21.925C49.7207 21.3256 47.897 21 46 21C42.7792 21 39.7758 21.938 37.25 23.5548V50.3929Z" fill="#B40000"/>
</svg>
