<svg width="72" height="72" viewBox="0 0 72 72" fill="none" xmlns="http://www.w3.org/2000/svg">
<rect width="72" height="72" rx="36" fill="#FFD3D4"/>
<path fill-rule="evenodd" clip-rule="evenodd" d="M29.6025 20.3012C30.4822 19.8613 31.5178 19.8613 32.3975 20.3012L40.7205 24.4627C40.8964 24.5507 41.1036 24.5507 41.2795 24.4627L47.7275 21.2387C49.8053 20.1998 52.25 21.7107 52.25 24.0338V44.8412C52.25 46.0248 51.5812 47.1069 50.5225 47.6363L42.3975 51.6988C41.5178 52.1387 40.4822 52.1387 39.6025 51.6988L31.2795 47.5373C31.1036 47.4493 30.8964 47.4493 30.7205 47.5373L24.2725 50.7613C22.1947 51.8002 19.75 50.2893 19.75 47.9662V27.1588C19.75 25.9752 20.4188 24.8931 21.4775 24.3637L29.6025 20.3012ZM31 26C31.6904 26 32.25 26.5596 32.25 27.25V41C32.25 41.6903 31.6904 42.25 31 42.25C30.3096 42.25 29.75 41.6903 29.75 41V27.25C29.75 26.5596 30.3096 26 31 26ZM42.25 31C42.25 30.3096 41.6904 29.75 41 29.75C40.3096 29.75 39.75 30.3096 39.75 31V44.75C39.75 45.4403 40.3096 46 41 46C41.6904 46 42.25 45.4403 42.25 44.75V31Z" fill="#B40000"/>
</svg>
