<svg width="72" height="72" viewBox="0 0 72 72" fill="none" xmlns="http://www.w3.org/2000/svg">
<rect width="72" height="72" rx="36" fill="#FFD3D4"/>
<path d="M27.2517 38.5C30.7034 38.5002 33.5017 41.2983 33.5017 44.75C33.5017 49.5824 29.5841 53.4998 24.7517 53.5C21.5074 53.5 18.6764 51.7336 17.1667 49.1162C16.9364 48.7167 16.9455 48.2226 17.1892 47.8311C17.433 47.4396 17.8726 47.2137 18.3328 47.2441C18.3886 47.2478 18.4452 47.25 18.5017 47.25C19.8823 47.2498 21.0017 46.1306 21.0017 44.75C21.0017 41.2982 23.7999 38.5 27.2517 38.5ZM32.5515 31.7891C36.0205 33.2091 38.7916 35.9812 40.2117 39.4502C39.0365 40.3419 37.798 41.1543 36.5007 41.875L35.6619 42.3398C34.834 39.4455 32.5553 37.1665 29.6609 36.3389L30.1267 35.501C30.8475 34.2035 31.6597 32.9645 32.5515 31.7891ZM50.3328 18.5C52.0828 18.5002 53.5017 19.9189 53.5017 21.6689C53.5017 22.2945 53.3164 22.9062 52.9695 23.4268L47.3259 31.8916C45.7743 34.2191 43.9224 36.319 41.8259 38.1416C40.2252 34.6169 37.3848 31.7745 33.8601 30.1738C35.6822 28.0779 37.7823 26.2271 40.1091 24.6758L48.575 19.0322C49.0955 18.6853 49.7072 18.5 50.3328 18.5Z" fill="#B40000"/>
</svg>
