<svg width="72" height="72" viewBox="0 0 72 72" fill="none" xmlns="http://www.w3.org/2000/svg">
<rect width="72" height="72" rx="36" fill="#FFD3D4"/>
<path fill-rule="evenodd" clip-rule="evenodd" d="M30.9269 17.7864C31.1464 16.7477 32.11 16 33.2291 16H38.7709C39.89 16 40.8536 16.7477 41.0731 17.7864L41.849 21.4584C43.5026 22.0546 45.0283 22.8963 46.3763 23.9363L50.1288 22.7348C51.189 22.3953 52.3549 22.8113 52.9145 23.7287L55.6854 28.2713C56.2449 29.1886 56.0426 30.3523 55.202 31.0516L52.2279 33.5255C52.364 34.3313 52.4347 35.1578 52.4347 36C52.4347 36.8421 52.364 37.6687 52.2279 38.4745L55.202 40.9484C56.0426 41.6476 56.2449 42.8113 55.6854 43.7287L52.9145 48.2713C52.3549 49.1886 51.189 49.6046 50.1288 49.2652L46.3764 48.0637C45.0283 49.1037 43.5026 49.9454 41.849 50.5416L41.0731 54.2136C40.8536 55.2523 39.89 56 38.7709 56H33.2291C32.11 56 31.1464 55.2523 30.9269 54.2136L30.151 50.5416C28.4974 49.9454 26.9717 49.1037 25.6236 48.0637L21.8712 49.2652C20.811 49.6047 19.6451 49.1887 19.0855 48.2713L16.3146 43.7287C15.7551 42.8114 15.9574 41.6477 16.798 40.9484L19.7721 38.4746C19.636 37.6687 19.5653 36.8422 19.5653 36C19.5653 35.1579 19.636 34.3313 19.7721 33.5255L16.798 31.0516C15.9574 30.3524 15.7551 29.1887 16.3146 28.2713L19.0855 23.7287C19.6451 22.8114 20.811 22.3954 21.8712 22.7348L25.6236 23.9363C26.9717 22.8963 28.4974 22.0546 30.151 21.4584L30.9269 17.7864ZM36 42.6667C39.89 42.6667 43.0435 39.6819 43.0435 36C43.0435 32.3181 39.89 29.3333 36 29.3333C32.11 29.3333 28.9565 32.3181 28.9565 36C28.9565 39.6819 32.11 42.6667 36 42.6667Z" fill="#B40000"/>
</svg>
