<svg width="72" height="72" viewBox="0 0 72 72" fill="none" xmlns="http://www.w3.org/2000/svg">
<rect width="72" height="72" rx="36" fill="#FFD3D4"/>
<path d="M28.488 46.8334C27.7804 46.8334 27.1216 46.4392 26.8627 45.7807C26.3058 44.3645 26 42.8222 26 41.2084C26 38.2932 26.9979 35.6112 28.6707 33.4851C28.9222 33.1655 29.2909 32.9702 29.6702 32.8233C30.4583 32.5182 31.1542 31.9662 31.6902 31.2828C32.9788 29.6398 34.6028 28.2724 36.4592 27.2837C37.6628 26.6428 38.7071 25.6905 39.2136 24.4244C39.5679 23.5385 39.75 22.5932 39.75 21.639V20.5834C39.75 19.893 40.3096 19.3334 41 19.3334C43.0711 19.3334 44.75 21.0123 44.75 23.0834C44.75 25.0028 44.3174 26.8211 43.5444 28.4462C43.1017 29.3768 43.7227 30.5834 44.7532 30.5834H49.9629C51.6739 30.5834 53.2055 31.74 53.3867 33.4415C53.4616 34.1452 53.5 34.8598 53.5 35.5834C53.5 40.3294 51.8469 44.6893 49.085 48.1187C48.439 48.9209 47.4403 49.3334 46.4104 49.3334H39.7171C38.911 49.3334 38.1101 49.2034 37.3454 48.9485L32.1546 47.2182C31.3899 46.9633 30.589 46.8334 29.7829 46.8334H28.488Z" fill="#B40000"/>
<path d="M19.8858 33.8786C18.9913 36.1483 18.5 38.6209 18.5 41.2084C18.5 43.2418 18.8035 45.2044 19.3676 47.0533C19.7999 48.47 21.1736 49.3334 22.6548 49.3334H24.1678C24.9103 49.3334 25.3689 48.5029 25.0404 47.837C24.0541 45.8382 23.5 43.588 23.5 41.2084C23.5 38.3614 24.2931 35.6997 25.6705 33.4321C26.0788 32.7599 25.6234 31.8334 24.8369 31.8334H23.0823C21.6956 31.8334 20.3942 32.5884 19.8858 33.8786Z" fill="#B40000"/>
</svg>
