<svg width="72" height="72" viewBox="0 0 72 72" fill="none" xmlns="http://www.w3.org/2000/svg">
<rect width="72" height="72" rx="36" fill="#FFD3D4"/>
<path fill-rule="evenodd" clip-rule="evenodd" d="M19.75 36C19.75 27.0254 27.0254 19.75 36 19.75C44.9746 19.75 52.25 27.0254 52.25 36C52.25 44.9746 44.9746 52.25 36 52.25C27.0254 52.25 19.75 44.9746 19.75 36ZM38.7128 29.4721C37.2314 28.176 34.7693 28.176 33.288 29.4721C32.7684 29.9267 31.9787 29.8741 31.5241 29.3545C31.0695 28.835 31.1222 28.0453 31.6417 27.5907C34.0656 25.4698 37.9351 25.4698 40.359 27.5907C42.8808 29.7972 42.8808 33.4528 40.359 35.6593C39.9313 36.0336 39.4601 36.3402 38.9634 36.5806C37.8363 37.1261 37.2504 37.8703 37.2504 38.5V39.75C37.2504 40.4404 36.6907 41 36.0004 41C35.31 41 34.7504 40.4404 34.7504 39.75V38.5C34.7504 36.3683 36.5158 34.9877 37.8744 34.3303C38.1788 34.183 38.4608 33.9983 38.7128 33.7779C40.0962 32.5673 40.0962 30.6827 38.7128 29.4721ZM36 46C36.6904 46 37.25 45.4404 37.25 44.75C37.25 44.0596 36.6904 43.5 36 43.5C35.3096 43.5 34.75 44.0596 34.75 44.75C34.75 45.4404 35.3096 46 36 46Z" fill="#B40000"/>
</svg>
