<svg width="72" height="72" viewBox="0 0 72 72" fill="none" xmlns="http://www.w3.org/2000/svg">
<rect width="72" height="72" rx="36" fill="#FFD3D4"/>
<path d="M35.999 41C38.7604 41 40.999 38.7614 40.999 36C40.999 33.2386 38.7604 31 35.999 31C33.2376 31 30.999 33.2386 30.999 36C30.999 38.7614 33.2376 41 35.999 41Z" fill="#B40000"/>
<path fill-rule="evenodd" clip-rule="evenodd" d="M18.2047 35.0778C20.6835 27.6262 27.7122 22.25 35.9999 22.25C44.2837 22.25 51.3098 27.6212 53.7916 35.0674C53.9922 35.6692 53.9924 36.3203 53.7922 36.9222C51.3134 44.3738 44.2846 49.75 35.997 49.75C27.7131 49.75 20.6871 44.3788 18.2053 36.9326C18.0047 36.3308 18.0045 35.6797 18.2047 35.0778ZM44.749 36C44.749 40.8325 40.8315 44.75 35.999 44.75C31.1665 44.75 27.249 40.8325 27.249 36C27.249 31.1675 31.1665 27.25 35.999 27.25C40.8315 27.25 44.749 31.1675 44.749 36Z" fill="#B40000"/>
</svg>
