<svg width="72" height="72" viewBox="0 0 72 72" fill="none" xmlns="http://www.w3.org/2000/svg">
<rect width="72" height="72" rx="36" fill="#FFD3D4"/>
<path fill-rule="evenodd" clip-rule="evenodd" d="M23.9254 32.7648C25.7121 26.0965 32.5663 22.1392 39.2347 23.926C41.4363 24.5159 43.3393 25.6562 44.8391 27.1588L48.0109 30.3306H42.7047C42.0143 30.3306 41.4547 30.8902 41.4547 31.5806C41.4547 32.2709 42.0143 32.8306 42.7047 32.8306H51.0257C51.3572 32.8306 51.6752 32.6989 51.9096 32.4644C52.144 32.2299 52.2757 31.912 52.2757 31.5804V23.2596C52.2757 22.5692 51.716 22.0096 51.0257 22.0096C50.3353 22.0096 49.7757 22.5692 49.7757 23.2596V28.5599L46.6085 25.3927C44.8066 23.5876 42.519 22.2178 39.8817 21.5112C31.8797 19.367 23.6547 24.1158 21.5106 32.1178C21.3319 32.7846 21.7276 33.47 22.3944 33.6487C23.0613 33.8274 23.7467 33.4317 23.9254 32.7648ZM49.6044 38.3514C48.9376 38.1727 48.2522 38.5685 48.0735 39.2353C46.2867 45.9036 39.4325 49.8609 32.7642 48.0741C30.5626 47.4842 28.6596 46.3439 27.1598 44.8414L23.99 41.6695H29.2947C29.9851 41.6695 30.5447 41.1098 30.5447 40.4195C30.5447 39.7291 29.9851 39.1695 29.2947 39.1695L20.9736 39.1695C20.2833 39.1695 19.7236 39.7291 19.7236 40.4195V48.7405C19.7236 49.4309 20.2833 49.9905 20.9736 49.9905C21.664 49.9905 22.2236 49.4309 22.2236 48.7405V43.4386L25.3904 46.6075C27.1924 48.4128 29.4796 49.7822 32.1171 50.4889C40.1191 52.6331 48.3442 47.8843 50.4883 39.8823C50.667 39.2155 50.2713 38.5301 49.6044 38.3514Z" fill="#B40000"/>
</svg>
