<svg width="72" height="72" viewBox="0 0 72 72" fill="none" xmlns="http://www.w3.org/2000/svg">
<rect width="72" height="72" rx="36" fill="#FFD3D4"/>
<path fill-rule="evenodd" clip-rule="evenodd" d="M42.25 18.5C36.0368 18.5 31 23.5368 31 29.75C31 30.4062 31.0563 31.0503 31.1647 31.6773C31.2766 32.3255 31.1113 32.8709 30.7961 33.1861L19.9645 44.0178C19.0268 44.9554 18.5 46.2272 18.5 47.5533V52.25C18.5 52.9404 19.0596 53.5 19.75 53.5H26C26.6904 53.5 27.25 52.9404 27.25 52.25V49.75H29.75C30.4404 49.75 31 49.1904 31 48.5V46H33.5C33.8315 46 34.1495 45.8683 34.3839 45.6339L38.8139 41.2039C39.1291 40.8887 39.6745 40.7234 40.3227 40.8353C40.9497 40.9437 41.5938 41 42.25 41C48.4632 41 53.5 35.9632 53.5 29.75C53.5 23.5368 48.4632 18.5 42.25 18.5ZM42.25 23.5C41.5596 23.5 41 24.0596 41 24.75C41 25.4404 41.5596 26 42.25 26C44.3211 26 46 27.6789 46 29.75C46 30.4404 46.5596 31 47.25 31C47.9404 31 48.5 30.4404 48.5 29.75C48.5 26.2982 45.7018 23.5 42.25 23.5Z" fill="#B40000"/>
</svg>
