<svg width="72" height="72" viewBox="0 0 72 72" fill="none" xmlns="http://www.w3.org/2000/svg">
<rect width="72" height="72" rx="36" fill="#FFD3D4"/>
<path fill-rule="evenodd" clip-rule="evenodd" d="M19.75 22.875C19.75 21.1491 21.1491 19.75 22.875 19.75H31.625C33.3509 19.75 34.75 21.1491 34.75 22.875V44.75C34.75 48.8921 31.3921 52.25 27.25 52.25C23.1079 52.25 19.75 48.8921 19.75 44.75V22.875ZM27.25 46.625C28.2855 46.625 29.125 45.7855 29.125 44.75C29.125 43.7145 28.2855 42.875 27.25 42.875C26.2145 42.875 25.375 43.7145 25.375 44.75C25.375 45.7855 26.2145 46.625 27.25 46.625Z" fill="#B40000"/>
<path d="M33.865 52.25H49.1252C50.8511 52.25 52.2502 50.8509 52.2502 49.125V40.375C52.2502 38.6491 50.8511 37.25 49.1252 37.25H48.8922L34.3212 51.8211C34.1725 51.9697 34.0204 52.1127 33.865 52.25Z" fill="#B40000"/>
<path d="M37.2305 45.3758L48.0209 34.5853C49.2413 33.365 49.2413 31.3863 48.0209 30.1659L41.8337 23.9787C40.6133 22.7583 38.6347 22.7583 37.4143 23.9787L37.2497 24.1433V44.75C37.2497 44.9602 37.2432 45.1688 37.2305 45.3758Z" fill="#B40000"/>
</svg>
