<svg width="72" height="72" viewBox="0 0 72 72" fill="none" xmlns="http://www.w3.org/2000/svg">
<rect width="72" height="72" rx="36" fill="#FFD3D4"/>
<path d="M27.2492 38.5C30.701 38.5 33.4992 41.2982 33.4992 44.75C33.4992 49.5825 29.5817 53.5 24.7492 53.5C21.5051 53.4999 18.6748 51.7335 17.1652 49.1162C16.9349 48.7167 16.9431 48.2226 17.1867 47.8311C17.4304 47.4396 17.8702 47.2139 18.3303 47.2441C18.3861 47.2478 18.4428 47.25 18.4992 47.25C19.8799 47.25 20.9992 46.1307 20.9992 44.75C20.9992 41.2983 23.7976 38.5002 27.2492 38.5ZM32.55 31.7891C36.019 33.2092 38.7901 35.9812 40.2102 39.4502C39.035 40.3419 37.7964 41.1543 36.4992 41.875L35.6604 42.3398C34.8325 39.4456 32.5537 37.1665 29.6594 36.3389L30.1252 35.501C30.846 34.2035 31.6582 32.9645 32.55 31.7891ZM50.3313 18.5C52.0812 18.5003 53.5002 19.919 53.5002 21.6689C53.5002 22.2945 53.3149 22.9063 52.968 23.4268L47.3244 31.8916C45.7728 34.219 43.9209 36.3191 41.8244 38.1416C40.2237 34.617 37.3832 31.7745 33.8586 30.1738C35.6807 28.0779 37.7808 26.2271 40.1076 24.6758L48.5734 19.0322C49.0939 18.6854 49.7058 18.5 50.3313 18.5Z" fill="#B40000"/>
</svg>
