<svg width="72" height="72" viewBox="0 0 72 72" fill="none" xmlns="http://www.w3.org/2000/svg">
<rect width="72" height="72" rx="36" fill="#FFD3D4"/>
<path d="M27.2512 38.5C30.703 38.5 33.5012 41.2982 33.5012 44.75C33.5012 49.5825 29.5837 53.5 24.7512 53.5C21.507 53.4999 18.6768 51.7335 17.1672 49.1162C16.9368 48.7167 16.945 48.2226 17.1887 47.8311C17.4324 47.4396 17.8721 47.2139 18.3322 47.2441C18.3881 47.2478 18.4447 47.25 18.5012 47.25C19.8819 47.25 21.0012 46.1307 21.0012 44.75C21.0012 41.2983 23.7996 38.5002 27.2512 38.5ZM32.552 31.7891C36.0209 33.2092 38.7921 35.9812 40.2121 39.4502C39.037 40.3419 37.7983 41.1543 36.5012 41.875L35.6623 42.3398C34.8345 39.4456 32.5557 37.1665 29.6613 36.3389L30.1272 35.501C30.848 34.2035 31.6601 32.9645 32.552 31.7891ZM50.3332 18.5C52.0831 18.5003 53.5021 19.919 53.5022 21.6689C53.5022 22.2945 53.3168 22.9063 52.9699 23.4268L47.3264 31.8916C45.7748 34.219 43.9228 36.3191 41.8264 38.1416C40.2257 34.617 37.3852 31.7745 33.8606 30.1738C35.6826 28.0779 37.7827 26.2271 40.1096 24.6758L48.5754 19.0322C49.0959 18.6854 49.7077 18.5 50.3332 18.5Z" fill="#B40000"/>
</svg>
