<svg width="72" height="72" viewBox="0 0 72 72" fill="none" xmlns="http://www.w3.org/2000/svg">
<rect width="72" height="72" rx="36" fill="#FFD3D4"/>
<path fill-rule="evenodd" clip-rule="evenodd" d="M36 19.75C27.0254 19.75 19.75 27.0254 19.75 36C19.75 44.9746 27.0254 52.25 36 52.25C44.9746 52.25 52.25 44.9746 52.25 36C52.25 27.0254 44.9746 19.75 36 19.75ZM37.25 26C37.25 25.3096 36.6904 24.75 36 24.75C35.3096 24.75 34.75 25.3096 34.75 26V36C34.75 36.6904 35.3096 37.25 36 37.25H43.5C44.1904 37.25 44.75 36.6904 44.75 36C44.75 35.3096 44.1904 34.75 43.5 34.75H37.25V26Z" fill="#B40000"/>
</svg>
