<svg width="72" height="72" viewBox="0 0 72 72" fill="none" xmlns="http://www.w3.org/2000/svg">
<rect width="72" height="72" rx="36" fill="#FFD3D4"/>
<path d="M33.5 19.125C33.5 18.0895 34.3395 17.25 35.375 17.25C36.4105 17.25 37.25 18.0895 37.25 19.125V32.8231C38.1124 33.0934 38.9513 33.4594 39.75 33.9211V21.625C39.75 20.5895 40.5895 19.75 41.625 19.75C42.6605 19.75 43.5 20.5895 43.5 21.625V39.8537C41.1369 40.2501 39.1485 41.7517 38.0844 43.8087C40.0924 42.811 42.3557 42.25 44.75 42.25C45.4404 42.25 46 41.6904 46 41V37.25L46.0001 37.2227C46.0069 35.7951 46.5565 34.3635 47.6475 33.2725C48.3797 32.5403 49.5669 32.5403 50.2992 33.2725C51.0314 34.0047 51.0314 35.1919 50.2992 35.9242C49.935 36.2884 49.7523 36.7612 49.75 37.2408L49.7499 37.25L49.75 42.25H49.7423C49.6439 44.7597 48.6038 47.1462 46.8211 48.9289L43.9289 51.8211C42.0536 53.6964 39.51 54.75 36.8579 54.75H33.5C26.5964 54.75 21 49.1536 21 42.25V26.625C21 25.5895 21.8395 24.75 22.875 24.75C23.9105 24.75 24.75 25.5895 24.75 26.625V35.8232C25.518 35.0701 26.359 34.4361 27.25 33.9211V21.625C27.25 20.5895 28.0895 19.75 29.125 19.75C30.1605 19.75 31 20.5895 31 21.625V32.5012C31.8243 32.3337 32.6621 32.25 33.5 32.25V19.125Z" fill="#B40000"/>
</svg>
