<svg width="72" height="72" viewBox="0 0 72 72" fill="none" xmlns="http://www.w3.org/2000/svg">
<rect width="72" height="72" rx="36" fill="#FFD3D4"/>
<path fill-rule="evenodd" clip-rule="evenodd" d="M36 19.75C27.0254 19.75 19.75 27.0254 19.75 36C19.75 44.9746 27.0254 52.25 36 52.25C44.9746 52.25 52.25 44.9746 52.25 36C52.25 27.0254 44.9746 19.75 36 19.75ZM31.625 29.75C30.7239 29.75 30.2446 30.448 30.065 30.8071C29.8481 31.241 29.75 31.7528 29.75 32.25C29.75 32.7472 29.8481 33.259 30.065 33.6929C30.2446 34.052 30.7239 34.75 31.625 34.75C32.5261 34.75 33.0054 34.052 33.185 33.6929C33.4019 33.259 33.5 32.7472 33.5 32.25C33.5 31.7528 33.4019 31.241 33.185 30.8071C33.0054 30.448 32.5261 29.75 31.625 29.75ZM38.815 30.8071C38.9946 30.448 39.4739 29.75 40.375 29.75C41.2761 29.75 41.7554 30.448 41.935 30.8071C42.1519 31.241 42.25 31.7528 42.25 32.25C42.25 32.7472 42.1519 33.259 41.935 33.6929C41.7554 34.052 41.2761 34.75 40.375 34.75C39.4739 34.75 38.9946 34.052 38.815 33.6929C38.5981 33.259 38.5 32.7472 38.5 32.25C38.5 31.7528 38.5981 31.241 38.815 30.8071ZM31.5811 44.0804C31.093 44.5685 30.3015 44.5685 29.8134 44.0804C29.3252 43.5922 29.3252 42.8008 29.8134 42.3126C31.5293 40.5967 33.7832 39.7422 36.0306 39.7499C38.258 39.7575 40.4871 40.612 42.1877 42.3126C42.6759 42.8008 42.6759 43.5922 42.1877 44.0804C41.6996 44.5685 40.9081 44.5685 40.42 44.0804C39.2048 42.8652 37.6163 42.2553 36.0221 42.2498C34.4134 42.2444 32.8072 42.8543 31.5811 44.0804Z" fill="#B40000"/>
</svg>
