<svg width="32" height="32" viewBox="0 0 32 32" fill="none" xmlns="http://www.w3.org/2000/svg">
<path fill-rule="evenodd" clip-rule="evenodd" d="M9.99849 8C9.99849 4.68629 12.6848 2 15.9985 2C19.3122 2 21.9985 4.68629 21.9985 8C21.9985 11.3137 19.3122 14 15.9985 14C12.6848 14 9.99849 11.3137 9.99849 8Z" fill="#180808"/>
<path fill-rule="evenodd" clip-rule="evenodd" d="M5.00015 26.8071C5.10327 20.8208 9.9878 16 15.9985 16C22.0093 16 26.8939 20.821 26.9968 26.8075C27.0037 27.2046 26.7749 27.568 26.414 27.7336C23.2421 29.1891 19.7139 30 15.9989 30C12.2836 30 8.75507 29.1889 5.58292 27.7332C5.22202 27.5676 4.99331 27.2041 5.00015 26.8071Z" fill="#180808"/>
</svg>
