<svg width="56" height="56" viewBox="0 0 56 56" fill="none" xmlns="http://www.w3.org/2000/svg">
<rect width="56" height="56" rx="28" fill="#D3FFD4"/>
<path fill-rule="evenodd" clip-rule="evenodd" d="M28 21C28 17.134 31.134 14 35 14C35.7055 14 36.3884 14.1047 37.033 14.3001C37.3693 14.402 37.6275 14.6731 37.7129 15.014C37.7984 15.3549 37.6986 15.7157 37.45 15.9642L33.0251 20.3891C33.1074 21.0232 33.3918 21.6344 33.8787 22.1213C34.3656 22.6082 34.9768 22.8926 35.6109 22.9749L40.0358 18.55C40.2843 18.3014 40.6451 18.2016 40.986 18.2871C41.3269 18.3725 41.598 18.6307 41.6999 18.967C41.8953 19.6116 42 20.2945 42 21C42 24.866 38.866 28 35 28C34.7993 28 34.6004 27.9915 34.4036 27.9749C33.0473 27.8602 31.9117 28.1088 31.3259 28.8202L21.791 40.3982C20.9558 41.4124 19.7108 42 18.3969 42C15.9686 42 14 40.0314 14 37.6031C14 36.2892 14.5876 35.0442 15.6018 34.209L27.1798 24.6741C27.8912 24.0883 28.1398 22.9527 28.0251 21.5964C28.0085 21.3996 28 21.2007 28 21ZM17.4896 37.5001C17.4896 36.9478 17.9374 36.5001 18.4896 36.5001H18.4996C19.0519 36.5001 19.4996 36.9478 19.4996 37.5001V37.5101C19.4996 38.0623 19.0519 38.5101 18.4996 38.5101H18.4896C17.9374 38.5101 17.4896 38.0623 17.4896 37.5101V37.5001Z" fill="#00A603"/>
</svg>
