<svg width="56" height="56" viewBox="0 0 56 56" fill="none" xmlns="http://www.w3.org/2000/svg">
<rect width="56" height="56" rx="28" fill="#D3EDFF"/>
<path d="M20.9978 30C23.7593 30 25.9978 32.2385 25.9978 35C25.9978 38.866 22.8639 42 18.9978 42C16.4026 41.9998 14.1381 40.587 12.9305 38.4932C12.7461 38.1735 12.7531 37.7781 12.948 37.4648C13.143 37.1516 13.4949 36.9708 13.8631 36.9951C13.9077 36.9981 13.9527 37 13.9978 37C15.1024 37 15.9978 36.1046 15.9978 35C15.9978 32.2387 18.2366 30.0002 20.9978 30ZM25.1131 24.7979C27.8778 25.914 30.0837 28.1201 31.2 30.8848C30.3094 31.5489 29.3749 32.1576 28.3982 32.7002L27.7273 33.0723C27.0651 30.7564 25.2415 28.9325 22.9256 28.2705L23.2986 27.6006C23.8413 26.6238 24.4489 25.6885 25.1131 24.7979ZM39.4637 14C40.8635 14.0003 41.9988 15.1352 41.9988 16.5352C41.9988 17.0356 41.8506 17.525 41.573 17.9414L37.0584 24.7139C35.8561 26.5173 34.4268 28.1485 32.8143 29.5742C31.5177 26.7553 29.2426 24.48 26.4236 23.1836C27.8493 21.571 29.4815 20.1428 31.285 18.9404L38.0574 14.4258C38.4738 14.1483 38.9633 14 39.4637 14Z" fill="#0047EC"/>
</svg>
