<svg width="56" height="56" viewBox="0 0 56 56" fill="none" xmlns="http://www.w3.org/2000/svg">
<rect width="56" height="56" rx="28" fill="#FFDFD3"/>
<path d="M27 18.0438C24.9794 16.7504 22.5766 16 20 16C18.4824 16 17.0234 16.2605 15.6668 16.74C15.2672 16.8812 15 17.259 15 17.6828V36.6828C15 37.0074 15.1576 37.3119 15.4226 37.4993C15.6877 37.6867 16.0272 37.7338 16.3332 37.6257C17.4788 37.2208 18.7125 37 20 37C22.66 37 25.0977 37.943 27 39.5143V18.0438Z" fill="#AF6300"/>
<path d="M29 39.5143C30.9023 37.943 33.34 37 36 37C37.2875 37 38.5212 37.2208 39.6668 37.6257C39.9728 37.7338 40.3123 37.6867 40.5774 37.4993C40.8424 37.3119 41 37.0074 41 36.6828V17.6828C41 17.259 40.7328 16.8812 40.3332 16.74C38.9766 16.2605 37.5176 16 36 16C33.4234 16 31.0206 16.7504 29 18.0438V39.5143Z" fill="#AF6300"/>
</svg>
