<svg width="72" height="72" viewBox="0 0 72 72" fill="none" xmlns="http://www.w3.org/2000/svg">
<rect width="72" height="72" rx="36" fill="#D7FBFF"/>
<path fill-rule="evenodd" clip-rule="evenodd" d="M19.75 36C19.75 27.0254 27.0254 19.75 36 19.75C44.9746 19.75 52.25 27.0254 52.25 36C52.25 44.9746 44.9746 52.25 36 52.25C27.0254 52.25 19.75 44.9746 19.75 36ZM34.2604 33.5974C36.1708 32.6422 38.3218 34.3677 37.8038 36.4398L36.6221 41.1666L36.6913 41.132C37.3087 40.8233 38.0596 41.0735 38.3683 41.691C38.677 42.3085 38.4268 43.0593 37.8093 43.3681L37.7401 43.4026C35.8298 44.3578 33.6787 42.6323 34.1968 40.5602L35.3784 35.8335L35.3093 35.8681C34.6918 36.1768 33.941 35.9265 33.6322 35.309C33.3235 34.6916 33.5738 33.9407 34.1913 33.632L34.2604 33.5974ZM36 31C36.6904 31 37.25 30.4404 37.25 29.75C37.25 29.0596 36.6904 28.5 36 28.5C35.3096 28.5 34.75 29.0596 34.75 29.75C34.75 30.4404 35.3096 31 36 31Z" fill="#0051B4"/>
</svg>
