<svg width="32" height="32" viewBox="0 0 32 32" fill="none" xmlns="http://www.w3.org/2000/svg">
<path fill-rule="evenodd" clip-rule="evenodd" d="M3 16C3 8.8203 8.8203 3 16 3C23.1797 3 29 8.8203 29 16C29 23.1797 23.1797 29 16 29C8.8203 29 3 23.1797 3 16ZM18.1702 10.7777C16.9852 9.74077 15.0155 9.74077 13.8304 10.7777C13.4147 11.1414 12.783 11.0993 12.4193 10.6836C12.0556 10.268 12.0977 9.63623 12.5134 9.27255C14.4525 7.57582 17.5481 7.57582 19.4872 9.27255C21.5047 11.0378 21.5047 13.9622 19.4872 15.7275C19.145 16.0269 18.7681 16.2722 18.3707 16.4645C17.469 16.9009 17.0003 17.4962 17.0003 18V19C17.0003 19.5523 16.5526 20 16.0003 20C15.448 20 15.0003 19.5523 15.0003 19V18C15.0003 16.2946 16.4127 15.1902 17.4995 14.6642C17.743 14.5464 17.9687 14.3987 18.1702 14.2223C19.277 13.2539 19.277 11.7461 18.1702 10.7777ZM16 24C16.5523 24 17 23.5523 17 23C17 22.4477 16.5523 22 16 22C15.4477 22 15 22.4477 15 23C15 23.5523 15.4477 24 16 24Z" fill="#0F172A"/>
</svg>
