<svg width="204" height="40" viewBox="0 0 204 40" fill="none" xmlns="http://www.w3.org/2000/svg">
<rect width="204" height="40" rx="8" fill="#ABF1FF"/>
<path d="M32.8812 12.3454C30.81 13.1739 28.5917 13.7131 26.276 13.913C25.6085 13.9705 24.9328 14 24.25 14H23.5C20.6005 14 18.25 16.3505 18.25 19.25C18.25 21.8496 20.1394 24.0079 22.62 24.4265C22.9542 25.7955 23.4181 27.1137 23.9976 28.3674C24.4617 29.3711 25.6718 29.6874 26.5803 29.1629L27.2366 28.784C28.1167 28.2759 28.4023 27.1913 28.0087 26.3158C27.7738 25.7935 27.5642 25.2573 27.3814 24.7089C29.2988 24.967 31.1419 25.4587 32.8812 26.1545C33.6069 23.9852 34 21.6635 34 19.2499C34 16.8364 33.6069 14.5147 32.8812 12.3454Z" fill="#0F172A"/>
<path d="M34.2606 11.7407C35.0641 14.0964 35.5 16.6222 35.5 19.2499C35.5 21.8776 35.0641 24.4035 34.2606 26.7593C34.2054 26.921 34.1487 27.082 34.0901 27.2422C33.9477 27.6311 34.1476 28.0619 34.5366 28.2043C34.9256 28.3466 35.3563 28.1467 35.4987 27.7578C35.6387 27.3753 35.7696 26.9883 35.891 26.5972C36.4147 24.9105 36.7627 23.1468 36.914 21.3277C37.431 20.7893 37.75 20.0566 37.75 19.25C37.75 18.4433 37.431 17.7107 36.914 17.1722C36.7627 15.3531 36.4147 13.5894 35.891 11.9027C35.7696 11.5116 35.6387 11.1247 35.4987 10.7422C35.3563 10.3532 34.9256 10.1533 34.5366 10.2957C34.1476 10.438 33.9477 10.8688 34.0901 11.2578C34.1487 11.4179 34.2055 11.5789 34.2606 11.7407Z" fill="#0F172A"/>
<path d="M59.6484 21.9883L61.4551 21.9688C61.2598 22.9453 60.8919 23.7917 60.3516 24.5078C59.8177 25.224 59.1439 25.7741 58.3301 26.1582C57.5228 26.5423 56.6178 26.7214 55.6152 26.6953C54.7168 26.6758 53.9616 26.4707 53.3496 26.0801C52.7441 25.6895 52.2689 25.1751 51.9238 24.5371C51.5853 23.8991 51.3607 23.196 51.25 22.4277C51.1458 21.6595 51.1458 20.8848 51.25 20.1035L51.4551 18.6875C51.5853 17.8281 51.8197 17.0013 52.1582 16.207C52.5033 15.4062 52.9492 14.6934 53.4961 14.0684C54.0495 13.4434 54.7005 12.9518 55.4492 12.5938C56.2044 12.2357 57.0605 12.0664 58.0176 12.0859C58.9746 12.1055 59.7754 12.3203 60.4199 12.7305C61.0645 13.1406 61.5527 13.7005 61.8848 14.4102C62.2233 15.1198 62.4056 15.9336 62.4316 16.8516H60.6152C60.5957 16.2526 60.5013 15.7122 60.332 15.2305C60.1628 14.7487 59.8861 14.3646 59.502 14.0781C59.1178 13.7917 58.597 13.6387 57.9395 13.6191C57.2233 13.5996 56.5951 13.7331 56.0547 14.0195C55.5208 14.306 55.0651 14.6966 54.6875 15.1914C54.3099 15.6797 54.0072 16.2266 53.7793 16.832C53.5514 17.4375 53.3887 18.0495 53.291 18.668L53.0762 20.1133C53.0046 20.6276 52.9785 21.1745 52.998 21.7539C53.0176 22.3268 53.112 22.8704 53.2812 23.3848C53.457 23.8926 53.737 24.3125 54.1211 24.6445C54.5117 24.9701 55.0391 25.1426 55.7031 25.1621C56.4323 25.1882 57.054 25.0742 57.5684 24.8203C58.0827 24.5664 58.5091 24.1986 58.8477 23.7168C59.1862 23.2285 59.4531 22.6523 59.6484 21.9883ZM63.4082 21.3926L63.4375 21.168C63.5156 20.4583 63.6914 19.7747 63.9648 19.1172C64.2448 18.4596 64.6126 17.8737 65.0684 17.3594C65.5241 16.8451 66.0645 16.4414 66.6895 16.1484C67.3145 15.8555 68.0111 15.7188 68.7793 15.7383C69.5215 15.7513 70.1562 15.9108 70.6836 16.2168C71.2174 16.5228 71.6471 16.9297 71.9727 17.4375C72.3047 17.9388 72.5358 18.5052 72.666 19.1367C72.7962 19.7682 72.8288 20.4193 72.7637 21.0898L72.7441 21.3145C72.6595 22.0241 72.4772 22.7044 72.1973 23.3555C71.9173 24.0065 71.5462 24.5859 71.084 25.0938C70.6283 25.6016 70.0879 26.002 69.4629 26.2949C68.8379 26.5814 68.1445 26.7148 67.3828 26.6953C66.6471 26.6823 66.0124 26.526 65.4785 26.2266C64.9512 25.9206 64.5247 25.5169 64.1992 25.0156C63.8737 24.5143 63.6458 23.9512 63.5156 23.3262C63.3854 22.7012 63.3496 22.0566 63.4082 21.3926ZM65.1953 21.168L65.1758 21.4023C65.1302 21.8125 65.127 22.2389 65.166 22.6816C65.2116 23.1243 65.3158 23.5345 65.4785 23.9121C65.6478 24.2897 65.8919 24.599 66.2109 24.8398C66.5299 25.0807 66.9434 25.2077 67.4512 25.2207C67.9915 25.2337 68.4668 25.1296 68.877 24.9082C69.2871 24.6803 69.6354 24.3743 69.9219 23.9902C70.2148 23.6061 70.446 23.1797 70.6152 22.7109C70.791 22.2422 70.9082 21.7767 70.9668 21.3145L70.9863 21.0898C71.0319 20.6797 71.0319 20.2533 70.9863 19.8105C70.9473 19.3613 70.8431 18.9447 70.6738 18.5605C70.5111 18.1699 70.2702 17.8542 69.9512 17.6133C69.6322 17.3659 69.2188 17.2357 68.7109 17.2227C68.1706 17.2031 67.6921 17.3105 67.2754 17.5449C66.8652 17.7728 66.5169 18.082 66.2305 18.4727C65.944 18.8633 65.7129 19.2962 65.5371 19.7715C65.3678 20.2402 65.2539 20.7057 65.1953 21.168ZM77.2266 18.1406L75.7812 26.5H74.0039L75.8398 15.9336H77.5195L77.2266 18.1406ZM76.4355 20.8164L75.6348 20.7969C75.7259 20.1393 75.8887 19.5046 76.123 18.8926C76.3574 18.2806 76.6699 17.7337 77.0605 17.252C77.4577 16.7702 77.9362 16.3926 78.4961 16.1191C79.056 15.8457 79.7038 15.7188 80.4395 15.7383C80.9863 15.7513 81.4486 15.8587 81.8262 16.0605C82.2038 16.2559 82.5065 16.526 82.7344 16.8711C82.9688 17.2096 83.125 17.6003 83.2031 18.043C83.2878 18.4857 83.3073 18.9577 83.2617 19.459L82.0801 26.5H80.3125L81.4844 19.5371C81.5365 19.0944 81.5104 18.7038 81.4062 18.3652C81.3086 18.0267 81.123 17.7598 80.8496 17.5645C80.5762 17.3626 80.2051 17.2552 79.7363 17.2422C79.209 17.2292 78.75 17.3203 78.3594 17.5156C77.9753 17.7109 77.653 17.9811 77.3926 18.3262C77.1387 18.6647 76.9336 19.0521 76.7773 19.4883C76.6211 19.918 76.5072 20.3607 76.4355 20.8164ZM83.2617 19.8203L81.9922 20.1914C82.0703 19.5859 82.2331 19.013 82.4805 18.4727C82.7344 17.9323 83.0632 17.4538 83.4668 17.0371C83.8704 16.6204 84.3392 16.2949 84.873 16.0605C85.4069 15.8262 85.9961 15.7155 86.6406 15.7285C87.2135 15.7415 87.6986 15.849 88.0957 16.0508C88.4928 16.2461 88.8086 16.5163 89.043 16.8613C89.2839 17.2064 89.4434 17.61 89.5215 18.0723C89.6061 18.528 89.6191 19.0228 89.5605 19.5566L88.3984 26.5H86.6211L87.793 19.5273C87.8451 19.0781 87.8223 18.6842 87.7246 18.3457C87.6335 18.0072 87.4512 17.7435 87.1777 17.5547C86.9043 17.3594 86.5267 17.2585 86.0449 17.252C85.6608 17.2389 85.3092 17.2975 84.9902 17.4277C84.6712 17.5579 84.3945 17.7435 84.1602 17.9844C83.9258 18.2188 83.7305 18.4922 83.5742 18.8047C83.4245 19.1172 83.3203 19.4557 83.2617 19.8203ZM94.2383 18.1406L92.793 26.5H91.0156L92.8516 15.9336H94.5312L94.2383 18.1406ZM93.4473 20.8164L92.6465 20.7969C92.7376 20.1393 92.9004 19.5046 93.1348 18.8926C93.3691 18.2806 93.6816 17.7337 94.0723 17.252C94.4694 16.7702 94.9479 16.3926 95.5078 16.1191C96.0677 15.8457 96.7155 15.7188 97.4512 15.7383C97.998 15.7513 98.4603 15.8587 98.8379 16.0605C99.2155 16.2559 99.5182 16.526 99.7461 16.8711C99.9805 17.2096 100.137 17.6003 100.215 18.043C100.299 18.4857 100.319 18.9577 100.273 19.459L99.0918 26.5H97.3242L98.4961 19.5371C98.5482 19.0944 98.5221 18.7038 98.418 18.3652C98.3203 18.0267 98.1348 17.7598 97.8613 17.5645C97.5879 17.3626 97.2168 17.2552 96.748 17.2422C96.2207 17.2292 95.7617 17.3203 95.3711 17.5156C94.987 17.7109 94.6647 17.9811 94.4043 18.3262C94.1504 18.6647 93.9453 19.0521 93.7891 19.4883C93.6328 19.918 93.5189 20.3607 93.4473 20.8164ZM100.273 19.8203L99.0039 20.1914C99.082 19.5859 99.2448 19.013 99.4922 18.4727C99.7461 17.9323 100.075 17.4538 100.479 17.0371C100.882 16.6204 101.351 16.2949 101.885 16.0605C102.419 15.8262 103.008 15.7155 103.652 15.7285C104.225 15.7415 104.71 15.849 105.107 16.0508C105.505 16.2461 105.82 16.5163 106.055 16.8613C106.296 17.2064 106.455 17.61 106.533 18.0723C106.618 18.528 106.631 19.0228 106.572 19.5566L105.41 26.5H103.633L104.805 19.5273C104.857 19.0781 104.834 18.6842 104.736 18.3457C104.645 18.0072 104.463 17.7435 104.189 17.5547C103.916 17.3594 103.538 17.2585 103.057 17.252C102.673 17.2389 102.321 17.2975 102.002 17.4277C101.683 17.5579 101.406 17.7435 101.172 17.9844C100.938 18.2188 100.742 18.4922 100.586 18.8047C100.436 19.1172 100.332 19.4557 100.273 19.8203ZM114.766 23.9609L116.152 15.9336H117.93L116.094 26.5H114.404L114.766 23.9609ZM115.43 21.832L116.152 21.8027C116.068 22.4668 115.918 23.0983 115.703 23.6973C115.488 24.2897 115.195 24.8171 114.824 25.2793C114.46 25.735 114.004 26.0931 113.457 26.3535C112.917 26.6074 112.275 26.7246 111.533 26.7051C110.954 26.6855 110.469 26.5684 110.078 26.3535C109.694 26.1387 109.391 25.849 109.17 25.4844C108.949 25.1198 108.802 24.7031 108.73 24.2344C108.659 23.7656 108.649 23.2708 108.701 22.75L109.844 15.9336H111.611L110.469 22.7793C110.443 23.0658 110.439 23.349 110.459 23.6289C110.479 23.9023 110.537 24.153 110.635 24.3809C110.732 24.6087 110.882 24.7943 111.084 24.9375C111.292 25.0742 111.566 25.1491 111.904 25.1621C112.607 25.1882 113.203 25.0579 113.691 24.7715C114.18 24.4785 114.567 24.0749 114.854 23.5605C115.14 23.0462 115.332 22.4701 115.43 21.832ZM121.943 18.2969L120.518 26.5H118.75L120.586 15.9336H122.256L121.943 18.2969ZM121.123 20.8164L120.4 20.7969C120.492 20.1654 120.658 19.5469 120.898 18.9414C121.146 18.3294 121.468 17.7793 121.865 17.291C122.269 16.8027 122.747 16.4186 123.301 16.1387C123.861 15.8522 124.499 15.7188 125.215 15.7383C125.781 15.7513 126.253 15.862 126.631 16.0703C127.015 16.2721 127.314 16.5488 127.529 16.9004C127.744 17.252 127.887 17.6589 127.959 18.1211C128.031 18.5768 128.037 19.0618 127.979 19.5762L126.826 26.5H125.049L126.221 19.5469C126.266 19.1237 126.25 18.7428 126.172 18.4043C126.1 18.0592 125.938 17.7858 125.684 17.584C125.436 17.3757 125.078 17.265 124.609 17.252C124.115 17.2389 123.669 17.3333 123.271 17.5352C122.874 17.737 122.526 18.0137 122.227 18.3652C121.934 18.7103 121.693 19.0977 121.504 19.5273C121.322 19.9505 121.195 20.3802 121.123 20.8164ZM133.223 15.9336L131.387 26.5H129.619L131.455 15.9336H133.223ZM131.807 13.1602C131.807 12.8542 131.901 12.6003 132.09 12.3984C132.285 12.1901 132.536 12.0827 132.842 12.0762C133.148 12.0697 133.398 12.1641 133.594 12.3594C133.796 12.5547 133.893 12.8021 133.887 13.1016C133.887 13.401 133.786 13.6517 133.584 13.8535C133.389 14.0488 133.141 14.1497 132.842 14.1562C132.542 14.1628 132.295 14.0749 132.1 13.8926C131.904 13.7038 131.807 13.4596 131.807 13.1602ZM138.604 25.2207C139.033 25.2272 139.434 25.1458 139.805 24.9766C140.176 24.8073 140.492 24.5664 140.752 24.2539C141.012 23.9414 141.198 23.5801 141.309 23.1699L142.988 23.1602C142.884 23.8698 142.607 24.4915 142.158 25.0254C141.715 25.5592 141.172 25.9759 140.527 26.2754C139.889 26.5684 139.222 26.7083 138.525 26.6953C137.783 26.6823 137.152 26.5293 136.631 26.2363C136.117 25.9368 135.703 25.5397 135.391 25.0449C135.078 24.5501 134.863 23.9935 134.746 23.375C134.629 22.75 134.603 22.1087 134.668 21.4512L134.707 21.0312C134.785 20.3216 134.958 19.6478 135.225 19.0098C135.492 18.3652 135.846 17.7956 136.289 17.3008C136.738 16.7995 137.269 16.4089 137.881 16.1289C138.493 15.849 139.18 15.7188 139.941 15.7383C140.684 15.7513 141.328 15.9271 141.875 16.2656C142.422 16.5977 142.845 17.0501 143.145 17.623C143.444 18.196 143.594 18.847 143.594 19.5762L141.934 19.5664C141.927 19.1497 141.846 18.7656 141.689 18.4141C141.533 18.0625 141.302 17.7793 140.996 17.5645C140.69 17.3496 140.312 17.2324 139.863 17.2129C139.323 17.1999 138.851 17.3008 138.447 17.5156C138.05 17.7305 137.712 18.0267 137.432 18.4043C137.158 18.7754 136.94 19.1888 136.777 19.6445C136.621 20.1003 136.514 20.5625 136.455 21.0312L136.406 21.4414C136.367 21.8581 136.361 22.2845 136.387 22.7207C136.419 23.1569 136.51 23.5638 136.66 23.9414C136.81 24.3125 137.041 24.6152 137.354 24.8496C137.666 25.084 138.083 25.2077 138.604 25.2207ZM150.742 24.6934L151.621 19.2344C151.667 18.8307 151.628 18.4759 151.504 18.1699C151.387 17.8639 151.188 17.6263 150.908 17.457C150.635 17.2878 150.29 17.1966 149.873 17.1836C149.508 17.1771 149.15 17.2357 148.799 17.3594C148.454 17.4831 148.154 17.6686 147.9 17.916C147.646 18.1634 147.48 18.4759 147.402 18.8535L145.645 18.8633C145.69 18.3359 145.856 17.877 146.143 17.4863C146.429 17.0892 146.787 16.7604 147.217 16.5C147.646 16.2331 148.109 16.0378 148.604 15.9141C149.098 15.7839 149.58 15.722 150.049 15.7285C150.758 15.7415 151.374 15.8945 151.895 16.1875C152.422 16.474 152.819 16.8776 153.086 17.3984C153.353 17.9193 153.451 18.5443 153.379 19.2734L152.568 24.1953C152.51 24.5534 152.474 24.9147 152.461 25.2793C152.454 25.6374 152.497 25.9889 152.588 26.334L152.568 26.5L150.781 26.5098C150.71 26.2103 150.674 25.9076 150.674 25.6016C150.68 25.2956 150.703 24.9928 150.742 24.6934ZM151.826 20.0938L151.621 21.3633L149.951 21.3535C149.6 21.3535 149.229 21.3796 148.838 21.4316C148.447 21.4837 148.076 21.5814 147.725 21.7246C147.373 21.8678 147.077 22.0762 146.836 22.3496C146.595 22.6165 146.449 22.9648 146.396 23.3945C146.357 23.7461 146.4 24.0521 146.523 24.3125C146.654 24.5664 146.849 24.765 147.109 24.9082C147.37 25.0514 147.673 25.1263 148.018 25.1328C148.467 25.1393 148.91 25.0514 149.346 24.8691C149.782 24.6868 150.163 24.4264 150.488 24.0879C150.814 23.7493 151.038 23.3587 151.162 22.916L151.807 23.7852C151.683 24.2148 151.481 24.612 151.201 24.9766C150.921 25.3346 150.589 25.6439 150.205 25.9043C149.827 26.1647 149.421 26.3665 148.984 26.5098C148.548 26.653 148.112 26.7214 147.676 26.7148C147.083 26.7018 146.546 26.5684 146.064 26.3145C145.589 26.0605 145.212 25.7057 144.932 25.25C144.658 24.7878 144.541 24.2507 144.58 23.6387C144.619 22.9681 144.795 22.4049 145.107 21.9492C145.42 21.4935 145.82 21.1289 146.309 20.8555C146.803 20.582 147.344 20.3867 147.93 20.2695C148.516 20.1458 149.095 20.084 149.668 20.084L151.826 20.0938ZM161.064 15.9336L160.82 17.3203H155.264L155.508 15.9336H161.064ZM157.832 13.3652H159.59L157.803 23.9023C157.783 24.1302 157.79 24.3353 157.822 24.5176C157.855 24.6999 157.933 24.8464 158.057 24.957C158.18 25.0612 158.369 25.1165 158.623 25.123C158.766 25.123 158.906 25.1133 159.043 25.0938C159.186 25.0677 159.329 25.0449 159.473 25.0254L159.346 26.5098C159.137 26.5684 158.923 26.6107 158.701 26.6367C158.486 26.6693 158.271 26.6823 158.057 26.6758C157.516 26.6693 157.093 26.5326 156.787 26.2656C156.481 25.9987 156.273 25.6536 156.162 25.2305C156.051 24.8073 156.019 24.3548 156.064 23.873L157.832 13.3652ZM165.02 15.9336L163.184 26.5H161.416L163.252 15.9336H165.02ZM163.604 13.1602C163.604 12.8542 163.698 12.6003 163.887 12.3984C164.082 12.1901 164.333 12.0827 164.639 12.0762C164.945 12.0697 165.195 12.1641 165.391 12.3594C165.592 12.5547 165.69 12.8021 165.684 13.1016C165.684 13.401 165.583 13.6517 165.381 13.8535C165.186 14.0488 164.938 14.1497 164.639 14.1562C164.339 14.1628 164.092 14.0749 163.896 13.8926C163.701 13.7038 163.604 13.4596 163.604 13.1602ZM166.455 21.3926L166.484 21.168C166.562 20.4583 166.738 19.7747 167.012 19.1172C167.292 18.4596 167.66 17.8737 168.115 17.3594C168.571 16.8451 169.111 16.4414 169.736 16.1484C170.361 15.8555 171.058 15.7188 171.826 15.7383C172.568 15.7513 173.203 15.9108 173.73 16.2168C174.264 16.5228 174.694 16.9297 175.02 17.4375C175.352 17.9388 175.583 18.5052 175.713 19.1367C175.843 19.7682 175.876 20.4193 175.811 21.0898L175.791 21.3145C175.706 22.0241 175.524 22.7044 175.244 23.3555C174.964 24.0065 174.593 24.5859 174.131 25.0938C173.675 25.6016 173.135 26.002 172.51 26.2949C171.885 26.5814 171.191 26.7148 170.43 26.6953C169.694 26.6823 169.059 26.526 168.525 26.2266C167.998 25.9206 167.572 25.5169 167.246 25.0156C166.921 24.5143 166.693 23.9512 166.562 23.3262C166.432 22.7012 166.396 22.0566 166.455 21.3926ZM168.242 21.168L168.223 21.4023C168.177 21.8125 168.174 22.2389 168.213 22.6816C168.258 23.1243 168.363 23.5345 168.525 23.9121C168.695 24.2897 168.939 24.599 169.258 24.8398C169.577 25.0807 169.99 25.2077 170.498 25.2207C171.038 25.2337 171.514 25.1296 171.924 24.9082C172.334 24.6803 172.682 24.3743 172.969 23.9902C173.262 23.6061 173.493 23.1797 173.662 22.7109C173.838 22.2422 173.955 21.7767 174.014 21.3145L174.033 21.0898C174.079 20.6797 174.079 20.2533 174.033 19.8105C173.994 19.3613 173.89 18.9447 173.721 18.5605C173.558 18.1699 173.317 17.8542 172.998 17.6133C172.679 17.3659 172.266 17.2357 171.758 17.2227C171.217 17.2031 170.739 17.3105 170.322 17.5449C169.912 17.7728 169.564 18.082 169.277 18.4727C168.991 18.8633 168.76 19.2962 168.584 19.7715C168.415 20.2402 168.301 20.7057 168.242 21.168ZM180.264 18.2969L178.838 26.5H177.07L178.906 15.9336H180.576L180.264 18.2969ZM179.443 20.8164L178.721 20.7969C178.812 20.1654 178.978 19.5469 179.219 18.9414C179.466 18.3294 179.788 17.7793 180.186 17.291C180.589 16.8027 181.068 16.4186 181.621 16.1387C182.181 15.8522 182.819 15.7188 183.535 15.7383C184.102 15.7513 184.574 15.862 184.951 16.0703C185.335 16.2721 185.635 16.5488 185.85 16.9004C186.064 17.252 186.208 17.6589 186.279 18.1211C186.351 18.5768 186.357 19.0618 186.299 19.5762L185.146 26.5H183.369L184.541 19.5469C184.587 19.1237 184.57 18.7428 184.492 18.4043C184.421 18.0592 184.258 17.7858 184.004 17.584C183.757 17.3757 183.398 17.265 182.93 17.252C182.435 17.2389 181.989 17.3333 181.592 17.5352C181.195 17.737 180.846 18.0137 180.547 18.3652C180.254 18.7103 180.013 19.0977 179.824 19.5273C179.642 19.9505 179.515 20.3802 179.443 20.8164Z" fill="#0F172A"/>
</svg>
