<svg width="171" height="40" viewBox="0 0 171 40" fill="none" xmlns="http://www.w3.org/2000/svg">
<rect width="170.8" height="40" rx="8" fill="#BCFFAB"/>
<path fill-rule="evenodd" clip-rule="evenodd" d="M18.3252 13.25C18.3252 11.5931 19.7131 10.25 21.4252 10.25H35.3752C37.0873 10.25 38.4752 11.5931 38.4752 13.25V23C38.4752 24.6569 37.0873 26 35.3752 26H32.2752V26.2574C32.2752 26.8541 32.5201 27.4264 32.9562 27.8483L33.5982 28.4697C33.8199 28.6842 33.8862 29.0068 33.7662 29.287C33.6462 29.5673 33.3637 29.75 33.0502 29.75H23.7502C23.4367 29.75 23.1541 29.5673 23.0342 29.287C22.9142 29.0068 22.9805 28.6842 23.2022 28.4697L23.8442 27.8484C24.2802 27.4264 24.5252 26.8541 24.5252 26.2574V26H21.4252C19.7131 26 18.3252 24.6569 18.3252 23V13.25ZM19.8752 13.25V20.75C19.8752 21.5784 20.5692 22.25 21.4252 22.25H35.3752C36.2312 22.25 36.9252 21.5784 36.9252 20.75V13.25C36.9252 12.4216 36.2312 11.75 35.3752 11.75H21.4252C20.5692 11.75 19.8752 12.4216 19.8752 13.25Z" fill="#0F172A"/>
<path d="M59.3545 22.8379C59.4131 22.4082 59.3708 22.0501 59.2275 21.7637C59.0843 21.4707 58.876 21.2266 58.6025 21.0312C58.3291 20.8294 58.0231 20.6634 57.6846 20.5332C57.346 20.3965 57.0075 20.2695 56.6689 20.1523C56.1807 19.9831 55.6989 19.7845 55.2236 19.5566C54.7549 19.3288 54.3317 19.0553 53.9541 18.7363C53.5765 18.4108 53.2803 18.0267 53.0654 17.584C52.8571 17.1413 52.7757 16.6237 52.8213 16.0312C52.8734 15.3737 53.0589 14.7975 53.3779 14.3027C53.6969 13.8014 54.1038 13.3848 54.5986 13.0527C55.0934 12.7207 55.637 12.4733 56.2295 12.3105C56.8219 12.1478 57.4209 12.0729 58.0264 12.0859C58.8662 12.1055 59.6182 12.2943 60.2822 12.6523C60.9463 13.0039 61.4639 13.4987 61.835 14.1367C62.2061 14.7747 62.3688 15.5267 62.3232 16.3926L60.4873 16.3828C60.5329 15.8164 60.4613 15.3314 60.2725 14.9277C60.0837 14.5176 59.7907 14.2018 59.3936 13.9805C59.0029 13.7591 58.5212 13.6419 57.9482 13.6289C57.4274 13.6159 56.9294 13.694 56.4541 13.8633C55.9854 14.0326 55.5882 14.2962 55.2627 14.6543C54.9372 15.0059 54.7386 15.4583 54.667 16.0117C54.6149 16.3958 54.667 16.7246 54.8232 16.998C54.9795 17.2715 55.1943 17.5026 55.4678 17.6914C55.7477 17.8802 56.0505 18.0397 56.376 18.1699C56.708 18.3001 57.0238 18.4141 57.3232 18.5117C57.8441 18.6875 58.3454 18.8958 58.8271 19.1367C59.3154 19.3711 59.7451 19.6576 60.1162 19.9961C60.4938 20.3281 60.7803 20.7253 60.9756 21.1875C61.1774 21.6497 61.2523 22.1934 61.2002 22.8184C61.1416 23.4954 60.9495 24.0814 60.624 24.5762C60.2985 25.071 59.8818 25.4779 59.374 25.7969C58.8662 26.1094 58.3096 26.3405 57.7041 26.4902C57.0986 26.64 56.4899 26.7083 55.8779 26.6953C55.2399 26.6888 54.6344 26.5879 54.0615 26.3926C53.4951 26.1908 52.9938 25.9043 52.5576 25.5332C52.1214 25.1621 51.7861 24.7129 51.5518 24.1855C51.3174 23.6517 51.2165 23.0462 51.249 22.3691L53.0752 22.3789C53.0426 22.8346 53.0915 23.235 53.2217 23.5801C53.3519 23.9251 53.5472 24.2148 53.8076 24.4492C54.0745 24.6771 54.3903 24.8529 54.7549 24.9766C55.1195 25.0938 55.5199 25.1556 55.9561 25.1621C56.4704 25.1751 56.9717 25.1035 57.46 24.9473C57.9548 24.791 58.3747 24.5404 58.7197 24.1953C59.0648 23.8503 59.2764 23.3978 59.3545 22.8379ZM66.3857 15.9336L64.5498 26.5H62.7822L64.6182 15.9336H66.3857ZM64.9697 13.1602C64.9697 12.8542 65.0641 12.6003 65.2529 12.3984C65.4482 12.1901 65.6989 12.0827 66.0049 12.0762C66.3109 12.0697 66.5615 12.1641 66.7568 12.3594C66.9587 12.5547 67.0563 12.8021 67.0498 13.1016C67.0498 13.401 66.9489 13.6517 66.7471 13.8535C66.5518 14.0488 66.3044 14.1497 66.0049 14.1562C65.7054 14.1628 65.458 14.0749 65.2627 13.8926C65.0674 13.7038 64.9697 13.4596 64.9697 13.1602ZM73.5049 15.9336L73.2607 17.3203H67.7041L67.9482 15.9336H73.5049ZM70.2725 13.3652H72.0303L70.2432 23.9023C70.2236 24.1302 70.2301 24.3353 70.2627 24.5176C70.2952 24.6999 70.3734 24.8464 70.4971 24.957C70.6208 25.0612 70.8096 25.1165 71.0635 25.123C71.2067 25.123 71.3467 25.1133 71.4834 25.0938C71.6266 25.0677 71.7699 25.0449 71.9131 25.0254L71.7861 26.5098C71.5778 26.5684 71.363 26.6107 71.1416 26.6367C70.9268 26.6693 70.7119 26.6823 70.4971 26.6758C69.9567 26.6693 69.5335 26.5326 69.2275 26.2656C68.9215 25.9987 68.7132 25.6536 68.6025 25.2305C68.4919 24.8073 68.4593 24.3548 68.5049 23.873L70.2725 13.3652ZM78.1826 26.6953C77.46 26.6823 76.8317 26.5391 76.2979 26.2656C75.7705 25.9857 75.3376 25.6113 74.999 25.1426C74.667 24.6673 74.4294 24.127 74.2861 23.5215C74.1429 22.916 74.1006 22.2812 74.1592 21.6172L74.1982 21.1973C74.2633 20.5202 74.4294 19.8561 74.6963 19.2051C74.9632 18.5475 75.318 17.9551 75.7607 17.4277C76.21 16.9004 76.7373 16.4837 77.3428 16.1777C77.9548 15.8652 78.6318 15.7188 79.374 15.7383C80.1097 15.7513 80.7217 15.9076 81.21 16.207C81.6982 16.5065 82.0791 16.9036 82.3525 17.3984C82.6325 17.8867 82.8148 18.4368 82.8994 19.0488C82.984 19.6543 82.9906 20.276 82.9189 20.9141L82.8115 21.7246H75.1455L75.3799 20.25L81.2295 20.2598L81.2588 20.1035C81.3239 19.6348 81.2979 19.1823 81.1807 18.7461C81.0635 18.3099 80.8486 17.9518 80.5361 17.6719C80.2301 17.3854 79.8167 17.2357 79.2959 17.2227C78.7555 17.2031 78.2868 17.3138 77.8896 17.5547C77.4925 17.7891 77.1605 18.1081 76.8936 18.5117C76.6266 18.9089 76.415 19.3451 76.2588 19.8203C76.109 20.2891 76.0049 20.748 75.9463 21.1973L75.9072 21.6074C75.8682 22.0241 75.8812 22.444 75.9463 22.8672C76.0114 23.2904 76.1351 23.6777 76.3174 24.0293C76.5062 24.3743 76.7666 24.6576 77.0986 24.8789C77.4307 25.0938 77.8408 25.2077 78.3291 25.2207C78.9215 25.2337 79.4521 25.1068 79.9209 24.8398C80.3962 24.5664 80.8291 24.2214 81.2197 23.8047L82.2256 24.6641C81.9196 25.1133 81.555 25.4909 81.1318 25.7969C80.7087 26.1029 80.2464 26.3307 79.7451 26.4805C79.2438 26.6302 78.723 26.7018 78.1826 26.6953ZM92.6748 15.9336L90.8389 26.5H89.0713L90.9072 15.9336H92.6748ZM91.2588 13.1602C91.2588 12.8542 91.3532 12.6003 91.542 12.3984C91.7373 12.1901 91.988 12.0827 92.2939 12.0762C92.5999 12.0697 92.8506 12.1641 93.0459 12.3594C93.2477 12.5547 93.3454 12.8021 93.3389 13.1016C93.3389 13.401 93.238 13.6517 93.0361 13.8535C92.8408 14.0488 92.5934 14.1497 92.2939 14.1562C91.9945 14.1628 91.7471 14.0749 91.5518 13.8926C91.3564 13.7038 91.2588 13.4596 91.2588 13.1602ZM96.8447 18.2969L95.4189 26.5H93.6514L95.4873 15.9336H97.1572L96.8447 18.2969ZM96.0244 20.8164L95.3018 20.7969C95.3929 20.1654 95.5589 19.5469 95.7998 18.9414C96.0472 18.3294 96.3695 17.7793 96.7666 17.291C97.1702 16.8027 97.6488 16.4186 98.2021 16.1387C98.762 15.8522 99.4001 15.7188 100.116 15.7383C100.683 15.7513 101.155 15.862 101.532 16.0703C101.916 16.2721 102.216 16.5488 102.431 16.9004C102.646 17.252 102.789 17.6589 102.86 18.1211C102.932 18.5768 102.938 19.0618 102.88 19.5762L101.728 26.5H99.9502L101.122 19.5469C101.168 19.1237 101.151 18.7428 101.073 18.4043C101.002 18.0592 100.839 17.7858 100.585 17.584C100.338 17.3757 99.9795 17.265 99.5107 17.252C99.016 17.2389 98.57 17.3333 98.1729 17.5352C97.7757 17.737 97.4274 18.0137 97.1279 18.3652C96.835 18.7103 96.5941 19.0977 96.4053 19.5273C96.223 19.9505 96.096 20.3802 96.0244 20.8164ZM110.517 15.9336L110.272 17.3203H104.716L104.96 15.9336H110.517ZM107.284 13.3652H109.042L107.255 23.9023C107.235 24.1302 107.242 24.3353 107.274 24.5176C107.307 24.6999 107.385 24.8464 107.509 24.957C107.632 25.0612 107.821 25.1165 108.075 25.123C108.218 25.123 108.358 25.1133 108.495 25.0938C108.638 25.0677 108.782 25.0449 108.925 25.0254L108.798 26.5098C108.59 26.5684 108.375 26.6107 108.153 26.6367C107.938 26.6693 107.724 26.6823 107.509 26.6758C106.968 26.6693 106.545 26.5326 106.239 26.2656C105.933 25.9987 105.725 25.6536 105.614 25.2305C105.504 24.8073 105.471 24.3548 105.517 23.873L107.284 13.3652ZM115.194 26.6953C114.472 26.6823 113.843 26.5391 113.31 26.2656C112.782 25.9857 112.349 25.6113 112.011 25.1426C111.679 24.6673 111.441 24.127 111.298 23.5215C111.155 22.916 111.112 22.2812 111.171 21.6172L111.21 21.1973C111.275 20.5202 111.441 19.8561 111.708 19.2051C111.975 18.5475 112.33 17.9551 112.772 17.4277C113.222 16.9004 113.749 16.4837 114.354 16.1777C114.966 15.8652 115.644 15.7188 116.386 15.7383C117.121 15.7513 117.733 15.9076 118.222 16.207C118.71 16.5065 119.091 16.9036 119.364 17.3984C119.644 17.8867 119.826 18.4368 119.911 19.0488C119.996 19.6543 120.002 20.276 119.931 20.9141L119.823 21.7246H112.157L112.392 20.25L118.241 20.2598L118.271 20.1035C118.336 19.6348 118.31 19.1823 118.192 18.7461C118.075 18.3099 117.86 17.9518 117.548 17.6719C117.242 17.3854 116.828 17.2357 116.308 17.2227C115.767 17.2031 115.299 17.3138 114.901 17.5547C114.504 17.7891 114.172 18.1081 113.905 18.5117C113.638 18.9089 113.427 19.3451 113.271 19.8203C113.121 20.2891 113.017 20.748 112.958 21.1973L112.919 21.6074C112.88 22.0241 112.893 22.444 112.958 22.8672C113.023 23.2904 113.147 23.6777 113.329 24.0293C113.518 24.3743 113.778 24.6576 114.11 24.8789C114.442 25.0938 114.853 25.2077 115.341 25.2207C115.933 25.2337 116.464 25.1068 116.933 24.8398C117.408 24.5664 117.841 24.2214 118.231 23.8047L119.237 24.6641C118.931 25.1133 118.567 25.4909 118.144 25.7969C117.72 26.1029 117.258 26.3307 116.757 26.4805C116.256 26.6302 115.735 26.7018 115.194 26.6953ZM124.315 17.6719L122.782 26.5H121.015L122.851 15.9336H124.569L124.315 17.6719ZM127.743 15.8457L127.577 17.5449C127.44 17.5189 127.3 17.4961 127.157 17.4766C127.021 17.457 126.884 17.4473 126.747 17.4473C126.324 17.4408 125.943 17.5059 125.604 17.6426C125.272 17.7728 124.976 17.9583 124.716 18.1992C124.462 18.4401 124.244 18.7233 124.062 19.0488C123.886 19.3743 123.746 19.7259 123.642 20.1035L123.085 20.3965C123.157 19.8691 123.274 19.3288 123.437 18.7754C123.606 18.222 123.837 17.7109 124.13 17.2422C124.429 16.7734 124.804 16.3958 125.253 16.1094C125.709 15.8229 126.256 15.6895 126.894 15.709C127.037 15.709 127.177 15.722 127.313 15.748C127.457 15.7741 127.6 15.8066 127.743 15.8457ZM130.79 18.2969L129.364 26.5H127.597L129.433 15.9336H131.103L130.79 18.2969ZM129.97 20.8164L129.247 20.7969C129.338 20.1654 129.504 19.5469 129.745 18.9414C129.993 18.3294 130.315 17.7793 130.712 17.291C131.116 16.8027 131.594 16.4186 132.147 16.1387C132.707 15.8522 133.345 15.7188 134.062 15.7383C134.628 15.7513 135.1 15.862 135.478 16.0703C135.862 16.2721 136.161 16.5488 136.376 16.9004C136.591 17.252 136.734 17.6589 136.806 18.1211C136.877 18.5768 136.884 19.0618 136.825 19.5762L135.673 26.5H133.896L135.067 19.5469C135.113 19.1237 135.097 18.7428 135.019 18.4043C134.947 18.0592 134.784 17.7858 134.53 17.584C134.283 17.3757 133.925 17.265 133.456 17.252C132.961 17.2389 132.515 17.3333 132.118 17.5352C131.721 17.737 131.373 18.0137 131.073 18.3652C130.78 18.7103 130.539 19.0977 130.351 19.5273C130.168 19.9505 130.041 20.3802 129.97 20.8164ZM142.792 26.6953C142.069 26.6823 141.441 26.5391 140.907 26.2656C140.38 25.9857 139.947 25.6113 139.608 25.1426C139.276 24.6673 139.039 24.127 138.896 23.5215C138.752 22.916 138.71 22.2812 138.769 21.6172L138.808 21.1973C138.873 20.5202 139.039 19.8561 139.306 19.2051C139.573 18.5475 139.927 17.9551 140.37 17.4277C140.819 16.9004 141.347 16.4837 141.952 16.1777C142.564 15.8652 143.241 15.7188 143.983 15.7383C144.719 15.7513 145.331 15.9076 145.819 16.207C146.308 16.5065 146.688 16.9036 146.962 17.3984C147.242 17.8867 147.424 18.4368 147.509 19.0488C147.593 19.6543 147.6 20.276 147.528 20.9141L147.421 21.7246H139.755L139.989 20.25L145.839 20.2598L145.868 20.1035C145.933 19.6348 145.907 19.1823 145.79 18.7461C145.673 18.3099 145.458 17.9518 145.146 17.6719C144.84 17.3854 144.426 17.2357 143.905 17.2227C143.365 17.2031 142.896 17.3138 142.499 17.5547C142.102 17.7891 141.77 18.1081 141.503 18.5117C141.236 18.9089 141.024 19.3451 140.868 19.8203C140.718 20.2891 140.614 20.748 140.556 21.1973L140.517 21.6074C140.478 22.0241 140.491 22.444 140.556 22.8672C140.621 23.2904 140.744 23.6777 140.927 24.0293C141.116 24.3743 141.376 24.6576 141.708 24.8789C142.04 25.0938 142.45 25.2077 142.938 25.2207C143.531 25.2337 144.062 25.1068 144.53 24.8398C145.006 24.5664 145.438 24.2214 145.829 23.8047L146.835 24.6641C146.529 25.1133 146.164 25.4909 145.741 25.7969C145.318 26.1029 144.856 26.3307 144.354 26.4805C143.853 26.6302 143.332 26.7018 142.792 26.6953ZM154.755 15.9336L154.511 17.3203H148.954L149.198 15.9336H154.755ZM151.522 13.3652H153.28L151.493 23.9023C151.474 24.1302 151.48 24.3353 151.513 24.5176C151.545 24.6999 151.623 24.8464 151.747 24.957C151.871 25.0612 152.06 25.1165 152.313 25.123C152.457 25.123 152.597 25.1133 152.733 25.0938C152.877 25.0677 153.02 25.0449 153.163 25.0254L153.036 26.5098C152.828 26.5684 152.613 26.6107 152.392 26.6367C152.177 26.6693 151.962 26.6823 151.747 26.6758C151.207 26.6693 150.784 26.5326 150.478 26.2656C150.172 25.9987 149.963 25.6536 149.853 25.2305C149.742 24.8073 149.709 24.3548 149.755 23.873L151.522 13.3652Z" fill="#0F172A"/>
</svg>
