<svg width="133" height="40" viewBox="0 0 133 40" fill="none" xmlns="http://www.w3.org/2000/svg">
<rect width="132.8" height="40" rx="8" fill="#FFC3C3"/>
<path d="M28.3998 15.5C27.1157 15.5 26.0748 16.5074 26.0748 17.75C26.0748 18.9926 27.1157 20 28.3998 20C29.6839 20 30.7248 18.9926 30.7248 17.75C30.7248 16.5074 29.6839 15.5 28.3998 15.5Z" fill="#0F172A"/>
<path fill-rule="evenodd" clip-rule="evenodd" d="M17.5498 12.875C17.5498 11.8395 18.4173 11 19.4873 11H37.3123C38.3824 11 39.2498 11.8395 39.2498 12.875V22.625C39.2498 23.6605 38.3824 24.5 37.3123 24.5H19.4873C18.4173 24.5 17.5498 23.6605 17.5498 22.625V12.875ZM24.5248 17.75C24.5248 15.6789 26.2597 14 28.3998 14C30.5399 14 32.2748 15.6789 32.2748 17.75C32.2748 19.8211 30.5399 21.5 28.3998 21.5C26.2597 21.5 24.5248 19.8211 24.5248 17.75ZM35.3748 17C34.9468 17 34.5998 17.3358 34.5998 17.75V17.7575C34.5998 18.1717 34.9468 18.5075 35.3748 18.5075H35.3826C35.8106 18.5075 36.1576 18.1717 36.1576 17.7575V17.75C36.1576 17.3358 35.8106 17 35.3826 17H35.3748ZM20.6498 17.75C20.6498 17.3358 20.9968 17 21.4248 17H21.4326C21.8606 17 22.2076 17.3358 22.2076 17.75V17.7575C22.2076 18.1717 21.8606 18.5075 21.4326 18.5075H21.4248C20.9968 18.5075 20.6498 18.1717 20.6498 17.7575V17.75Z" fill="#0F172A"/>
<path d="M18.3248 26C17.8968 26 17.5498 26.3358 17.5498 26.75C17.5498 27.1642 17.8968 27.5 18.3248 27.5C23.9049 27.5 29.3094 28.2222 34.4446 29.5749C35.6748 29.899 36.9248 29.0168 36.9248 27.7551V26.75C36.9248 26.3358 36.5778 26 36.1498 26H18.3248Z" fill="#0F172A"/>
<path d="M57.5576 19.8496H53.9541L54.1982 18.3359L57.2744 18.3457C57.7757 18.3457 58.2477 18.2578 58.6904 18.082C59.1396 17.9062 59.514 17.6426 59.8135 17.291C60.1195 16.9395 60.305 16.4967 60.3701 15.9629C60.4352 15.4551 60.3831 15.0482 60.2139 14.7422C60.0446 14.4297 59.7842 14.2051 59.4326 14.0684C59.0876 13.9251 58.6807 13.847 58.2119 13.834L55.4189 13.8242L53.2217 26.5H51.376L53.8467 12.2812L58.251 12.291C58.8434 12.304 59.3903 12.3854 59.8916 12.5352C60.3994 12.6784 60.8356 12.8997 61.2002 13.1992C61.5648 13.4922 61.8382 13.8698 62.0205 14.332C62.2093 14.7943 62.2777 15.3477 62.2256 15.9922C62.1735 16.6888 61.9521 17.2747 61.5615 17.75C61.1774 18.2253 60.6924 18.5996 60.1064 18.873C59.527 19.14 58.9248 19.3158 58.2998 19.4004L57.5576 19.8496ZM56.3369 26.5H52.0205L53.3193 24.9668L56.3857 24.9766C56.9391 24.9766 57.4502 24.8757 57.9189 24.6738C58.3877 24.472 58.7751 24.1758 59.0811 23.7852C59.3936 23.3945 59.5856 22.9128 59.6572 22.3398C59.7158 21.832 59.6768 21.3958 59.54 21.0312C59.4033 20.6667 59.1689 20.3867 58.8369 20.1914C58.5049 19.9896 58.0817 19.8789 57.5674 19.8594L54.8428 19.8496L55.126 18.3359L58.5928 18.3457L58.8955 18.8926C59.4814 18.9837 59.973 19.1921 60.3701 19.5176C60.7738 19.8366 61.0667 20.2402 61.249 20.7285C61.4378 21.2103 61.5127 21.7409 61.4736 22.3203C61.402 23.2513 61.1221 24.0293 60.6338 24.6543C60.152 25.2728 59.5335 25.7383 58.7783 26.0508C58.0231 26.3568 57.2093 26.5065 56.3369 26.5ZM69.5889 24.6934L70.4678 19.2344C70.5133 18.8307 70.4743 18.4759 70.3506 18.1699C70.2334 17.8639 70.0348 17.6263 69.7549 17.457C69.4814 17.2878 69.1364 17.1966 68.7197 17.1836C68.3551 17.1771 67.9971 17.2357 67.6455 17.3594C67.3005 17.4831 67.001 17.6686 66.7471 17.916C66.4932 18.1634 66.3271 18.4759 66.249 18.8535L64.4912 18.8633C64.5368 18.3359 64.7028 17.877 64.9893 17.4863C65.2757 17.0892 65.6338 16.7604 66.0635 16.5C66.4932 16.2331 66.9554 16.0378 67.4502 15.9141C67.945 15.7839 68.4268 15.722 68.8955 15.7285C69.6051 15.7415 70.2204 15.8945 70.7412 16.1875C71.2686 16.474 71.6657 16.8776 71.9326 17.3984C72.1995 17.9193 72.2972 18.5443 72.2256 19.2734L71.415 24.1953C71.3564 24.5534 71.3206 24.9147 71.3076 25.2793C71.3011 25.6374 71.3434 25.9889 71.4346 26.334L71.415 26.5L69.6279 26.5098C69.5563 26.2103 69.5205 25.9076 69.5205 25.6016C69.527 25.2956 69.5498 24.9928 69.5889 24.6934ZM70.6729 20.0938L70.4678 21.3633L68.7979 21.3535C68.4463 21.3535 68.0752 21.3796 67.6846 21.4316C67.2939 21.4837 66.9229 21.5814 66.5713 21.7246C66.2197 21.8678 65.9235 22.0762 65.6826 22.3496C65.4417 22.6165 65.2952 22.9648 65.2432 23.3945C65.2041 23.7461 65.2464 24.0521 65.3701 24.3125C65.5003 24.5664 65.6956 24.765 65.9561 24.9082C66.2165 25.0514 66.5192 25.1263 66.8643 25.1328C67.3135 25.1393 67.7562 25.0514 68.1924 24.8691C68.6286 24.6868 69.0094 24.4264 69.335 24.0879C69.6605 23.7493 69.8851 23.3587 70.0088 22.916L70.6533 23.7852C70.5296 24.2148 70.3278 24.612 70.0479 24.9766C69.7679 25.3346 69.4359 25.6439 69.0518 25.9043C68.6742 26.1647 68.2673 26.3665 67.8311 26.5098C67.3949 26.653 66.9587 26.7214 66.5225 26.7148C65.93 26.7018 65.3929 26.5684 64.9111 26.3145C64.4359 26.0605 64.0583 25.7057 63.7783 25.25C63.5049 24.7878 63.3877 24.2507 63.4268 23.6387C63.4658 22.9681 63.6416 22.4049 63.9541 21.9492C64.2666 21.4935 64.667 21.1289 65.1553 20.8555C65.6501 20.582 66.1904 20.3867 66.7764 20.2695C67.3623 20.1458 67.9417 20.084 68.5146 20.084L70.6729 20.0938ZM76.9619 18.2969L75.5361 26.5H73.7686L75.6045 15.9336H77.2744L76.9619 18.2969ZM76.1416 20.8164L75.4189 20.7969C75.5101 20.1654 75.6761 19.5469 75.917 18.9414C76.1644 18.3294 76.4867 17.7793 76.8838 17.291C77.2874 16.8027 77.766 16.4186 78.3193 16.1387C78.8792 15.8522 79.5173 15.7188 80.2334 15.7383C80.7998 15.7513 81.2718 15.862 81.6494 16.0703C82.0335 16.2721 82.333 16.5488 82.5479 16.9004C82.7627 17.252 82.9059 17.6589 82.9775 18.1211C83.0492 18.5768 83.0557 19.0618 82.9971 19.5762L81.8447 26.5H80.0674L81.2393 19.5469C81.2848 19.1237 81.2686 18.7428 81.1904 18.4043C81.1188 18.0592 80.9561 17.7858 80.7021 17.584C80.4548 17.3757 80.0967 17.265 79.6279 17.252C79.1331 17.2389 78.6872 17.3333 78.29 17.5352C77.8929 17.737 77.5446 18.0137 77.2451 18.3652C76.9521 18.7103 76.7113 19.0977 76.5225 19.5273C76.3402 19.9505 76.2132 20.3802 76.1416 20.8164ZM90.2432 30.5625L92.4404 17.8574L92.9189 15.9336H94.5596L92.0107 30.5625H90.2432ZM84.96 21.4023L84.9893 21.1973C85.0674 20.5397 85.2236 19.8854 85.458 19.2344C85.6924 18.5768 86.0049 17.9811 86.3955 17.4473C86.7926 16.9134 87.2777 16.4902 87.8506 16.1777C88.4235 15.8652 89.0908 15.7155 89.8525 15.7285C90.5296 15.748 91.0993 15.9076 91.5615 16.207C92.0238 16.5065 92.3883 16.9004 92.6553 17.3887C92.9287 17.877 93.1143 18.4173 93.2119 19.0098C93.3161 19.5957 93.3486 20.1849 93.3096 20.7773L93.2021 21.6758C93.0915 22.3138 92.9059 22.9355 92.6455 23.541C92.3851 24.1465 92.0498 24.6934 91.6396 25.1816C91.2295 25.6634 90.7445 26.0443 90.1846 26.3242C89.6247 26.5977 88.9867 26.7246 88.2705 26.7051C87.5674 26.679 86.9847 26.5033 86.5225 26.1777C86.0667 25.8457 85.7119 25.4193 85.458 24.8984C85.2106 24.3776 85.0479 23.8112 84.9697 23.1992C84.8981 22.5872 84.8949 21.9883 84.96 21.4023ZM86.7764 21.1973L86.7471 21.4023C86.7015 21.793 86.6885 22.2064 86.708 22.6426C86.7275 23.0788 86.8057 23.4889 86.9424 23.873C87.0791 24.2572 87.2939 24.5762 87.5869 24.8301C87.8799 25.0775 88.277 25.2109 88.7783 25.2305C89.3187 25.2435 89.82 25.1198 90.2822 24.8594C90.751 24.599 91.1514 24.2539 91.4834 23.8242C91.8154 23.388 92.0563 22.9225 92.2061 22.4277L92.5869 20.0547C92.5999 19.6966 92.5511 19.3516 92.4404 19.0195C92.3363 18.681 92.1768 18.3815 91.9619 18.1211C91.7536 17.8542 91.4997 17.6393 91.2002 17.4766C90.9007 17.3138 90.5654 17.2292 90.1943 17.2227C89.6475 17.2031 89.1722 17.3105 88.7686 17.5449C88.3714 17.7793 88.0361 18.0951 87.7627 18.4922C87.4893 18.8828 87.2712 19.3158 87.1084 19.791C86.9456 20.2663 86.835 20.735 86.7764 21.1973ZM102.245 23.9609L103.632 15.9336H105.409L103.573 26.5H101.884L102.245 23.9609ZM102.909 21.832L103.632 21.8027C103.547 22.4668 103.397 23.0983 103.183 23.6973C102.968 24.2897 102.675 24.8171 102.304 25.2793C101.939 25.735 101.483 26.0931 100.937 26.3535C100.396 26.6074 99.7549 26.7246 99.0127 26.7051C98.4333 26.6855 97.9482 26.5684 97.5576 26.3535C97.1735 26.1387 96.8708 25.849 96.6494 25.4844C96.4281 25.1198 96.2816 24.7031 96.21 24.2344C96.1383 23.7656 96.1286 23.2708 96.1807 22.75L97.3232 15.9336H99.0908L97.9482 22.7793C97.9222 23.0658 97.9189 23.349 97.9385 23.6289C97.958 23.9023 98.0166 24.153 98.1143 24.3809C98.2119 24.6087 98.3617 24.7943 98.5635 24.9375C98.7718 25.0742 99.0452 25.1491 99.3838 25.1621C100.087 25.1882 100.683 25.0579 101.171 24.7715C101.659 24.4785 102.047 24.0749 102.333 23.5605C102.619 23.0462 102.812 22.4701 102.909 21.832ZM110.702 26.6953C109.979 26.6823 109.351 26.5391 108.817 26.2656C108.29 25.9857 107.857 25.6113 107.519 25.1426C107.187 24.6673 106.949 24.127 106.806 23.5215C106.662 22.916 106.62 22.2812 106.679 21.6172L106.718 21.1973C106.783 20.5202 106.949 19.8561 107.216 19.2051C107.483 18.5475 107.838 17.9551 108.28 17.4277C108.729 16.9004 109.257 16.4837 109.862 16.1777C110.474 15.8652 111.151 15.7188 111.894 15.7383C112.629 15.7513 113.241 15.9076 113.729 16.207C114.218 16.5065 114.599 16.9036 114.872 17.3984C115.152 17.8867 115.334 18.4368 115.419 19.0488C115.504 19.6543 115.51 20.276 115.438 20.9141L115.331 21.7246H107.665L107.899 20.25L113.749 20.2598L113.778 20.1035C113.843 19.6348 113.817 19.1823 113.7 18.7461C113.583 18.3099 113.368 17.9518 113.056 17.6719C112.75 17.3854 112.336 17.2357 111.815 17.2227C111.275 17.2031 110.806 17.3138 110.409 17.5547C110.012 17.7891 109.68 18.1081 109.413 18.5117C109.146 18.9089 108.935 19.3451 108.778 19.8203C108.629 20.2891 108.524 20.748 108.466 21.1973L108.427 21.6074C108.388 22.0241 108.401 22.444 108.466 22.8672C108.531 23.2904 108.655 23.6777 108.837 24.0293C109.026 24.3743 109.286 24.6576 109.618 24.8789C109.95 25.0938 110.36 25.2077 110.849 25.2207C111.441 25.2337 111.972 25.1068 112.44 24.8398C112.916 24.5664 113.349 24.2214 113.739 23.8047L114.745 24.6641C114.439 25.1133 114.075 25.4909 113.651 25.7969C113.228 26.1029 112.766 26.3307 112.265 26.4805C111.763 26.6302 111.243 26.7018 110.702 26.6953Z" fill="#0F172A"/>
</svg>
