<svg width="224" height="40" viewBox="0 0 224 40" fill="none" xmlns="http://www.w3.org/2000/svg">
<rect width="224" height="40" rx="8" fill="#CBFFAB"/>
<path fill-rule="evenodd" clip-rule="evenodd" d="M23.5 13.25C23.5 11.5931 24.8431 10.25 26.5 10.25H29.5C31.1569 10.25 32.5 11.5931 32.5 13.25V13.455C33.4325 13.5403 34.3574 13.652 35.274 13.7891C36.7281 14.0067 37.75 15.2716 37.75 16.7057V19.7389C37.75 20.95 37.0164 22.0913 35.8137 22.4911C33.3566 23.308 30.7292 23.75 28 23.75C25.2709 23.75 22.6434 23.308 20.1863 22.4911C18.9836 22.0912 18.25 20.95 18.25 19.7389V16.7057C18.25 15.2716 19.2719 14.0067 20.726 13.7891C21.6426 13.652 22.5675 13.5403 23.5 13.455V13.25ZM31 13.25V13.3408C30.0077 13.2806 29.0074 13.25 28 13.25C26.9927 13.25 25.9924 13.2806 25 13.3408V13.25C25 12.4216 25.6716 11.75 26.5 11.75H29.5C30.3284 11.75 31 12.4216 31 13.25ZM28 21.5C28.4142 21.5 28.75 21.1642 28.75 20.75C28.75 20.3358 28.4142 20 28 20C27.5858 20 27.25 20.3358 27.25 20.75C27.25 21.1642 27.5858 21.5 28 21.5Z" fill="#0F172A"/>
<path d="M19 26.4V23.6039C19.223 23.7263 19.461 23.8307 19.713 23.9145C22.3209 24.7815 25.108 25.25 28 25.25C30.892 25.25 33.6791 24.7815 36.287 23.9145C36.539 23.8307 36.777 23.7263 37 23.604V26.4C37 27.8519 35.9528 29.1275 34.4769 29.3234C32.3575 29.6048 30.1955 29.75 28 29.75C25.8045 29.75 23.6425 29.6048 21.5231 29.3234C20.0472 29.1275 19 27.8519 19 26.4Z" fill="#0F172A"/>
<path d="M57.9297 13.6484L51.1719 26.5H49.209L56.9434 12.2812H58.2031L57.9297 13.6484ZM59.5508 26.5L57.1973 13.4336L57.3828 12.2812H58.5547L61.3574 26.5H59.5508ZM60.2051 21.2363L59.9316 22.7793H52.168L52.4414 21.2363H60.2051ZM66.2012 18.0723L64.0332 30.5625H62.2559L64.7949 15.9336H66.416L66.2012 18.0723ZM72.5586 21.0703L72.5391 21.2754C72.4544 21.9134 72.2982 22.5579 72.0703 23.209C71.849 23.8535 71.5462 24.4427 71.1621 24.9766C70.778 25.5104 70.306 25.9368 69.7461 26.2559C69.1927 26.5749 68.5417 26.7246 67.793 26.7051C67.1354 26.6921 66.5723 26.5488 66.1035 26.2754C65.6348 25.9954 65.2572 25.6276 64.9707 25.1719C64.6842 24.7096 64.4792 24.1953 64.3555 23.6289C64.2383 23.056 64.1992 22.4701 64.2383 21.8711L64.375 20.7871C64.4857 20.1491 64.6712 19.5273 64.9316 18.9219C65.1986 18.3099 65.5371 17.7598 65.9473 17.2715C66.3574 16.7832 66.8424 16.4023 67.4023 16.1289C67.9688 15.849 68.61 15.7188 69.3262 15.7383C70.0488 15.7578 70.6348 15.9336 71.084 16.2656C71.5397 16.5911 71.8848 17.0176 72.1191 17.5449C72.36 18.0658 72.5098 18.6354 72.5684 19.2539C72.627 19.8659 72.6237 20.4714 72.5586 21.0703ZM70.7617 21.2656L70.791 21.0508C70.8366 20.6602 70.8464 20.2467 70.8203 19.8105C70.8008 19.3743 70.7194 18.9674 70.5762 18.5898C70.4395 18.2057 70.2214 17.89 69.9219 17.6426C69.6289 17.3952 69.2285 17.265 68.7207 17.252C68.3171 17.2389 67.9329 17.3073 67.5684 17.457C67.2103 17.6003 66.8848 17.8053 66.5918 18.0723C66.2988 18.3327 66.0482 18.6354 65.8398 18.9805C65.6315 19.319 65.4785 19.6771 65.3809 20.0547L64.9609 22.6035C64.9544 23.0658 65.0553 23.4954 65.2637 23.8926C65.472 24.2832 65.7552 24.599 66.1133 24.8398C66.4779 25.0807 66.8913 25.2077 67.3535 25.2207C67.8939 25.2337 68.3626 25.1263 68.7598 24.8984C69.1634 24.6641 69.502 24.3516 69.7754 23.9609C70.0488 23.5638 70.2669 23.1309 70.4297 22.6621C70.5924 22.1868 70.7031 21.7214 70.7617 21.2656ZM77.0996 18.0723L74.9316 30.5625H73.1543L75.6934 15.9336H77.3145L77.0996 18.0723ZM83.457 21.0703L83.4375 21.2754C83.3529 21.9134 83.1966 22.5579 82.9688 23.209C82.7474 23.8535 82.4447 24.4427 82.0605 24.9766C81.6764 25.5104 81.2044 25.9368 80.6445 26.2559C80.0911 26.5749 79.4401 26.7246 78.6914 26.7051C78.0339 26.6921 77.4707 26.5488 77.002 26.2754C76.5332 25.9954 76.1556 25.6276 75.8691 25.1719C75.5827 24.7096 75.3776 24.1953 75.2539 23.6289C75.1367 23.056 75.0977 22.4701 75.1367 21.8711L75.2734 20.7871C75.3841 20.1491 75.5697 19.5273 75.8301 18.9219C76.097 18.3099 76.4355 17.7598 76.8457 17.2715C77.2559 16.7832 77.7409 16.4023 78.3008 16.1289C78.8672 15.849 79.5085 15.7188 80.2246 15.7383C80.9473 15.7578 81.5332 15.9336 81.9824 16.2656C82.4382 16.5911 82.7832 17.0176 83.0176 17.5449C83.2585 18.0658 83.4082 18.6354 83.4668 19.2539C83.5254 19.8659 83.5221 20.4714 83.457 21.0703ZM81.6602 21.2656L81.6895 21.0508C81.735 20.6602 81.7448 20.2467 81.7188 19.8105C81.6992 19.3743 81.6178 18.9674 81.4746 18.5898C81.3379 18.2057 81.1198 17.89 80.8203 17.6426C80.5273 17.3952 80.127 17.265 79.6191 17.252C79.2155 17.2389 78.8314 17.3073 78.4668 17.457C78.1087 17.6003 77.7832 17.8053 77.4902 18.0723C77.1973 18.3327 76.9466 18.6354 76.7383 18.9805C76.5299 19.319 76.377 19.6771 76.2793 20.0547L75.8594 22.6035C75.8529 23.0658 75.9538 23.4954 76.1621 23.8926C76.3704 24.2832 76.6536 24.599 77.0117 24.8398C77.3763 25.0807 77.7897 25.2077 78.252 25.2207C78.7923 25.2337 79.2611 25.1263 79.6582 24.8984C80.0618 24.6641 80.4004 24.3516 80.6738 23.9609C80.9473 23.5638 81.1654 23.1309 81.3281 22.6621C81.4909 22.1868 81.6016 21.7214 81.6602 21.2656ZM89.2871 11.5L86.6797 26.5H84.9121L87.5098 11.5H89.2871ZM93.2422 15.9336L91.4062 26.5H89.6387L91.4746 15.9336H93.2422ZM91.8262 13.1602C91.8262 12.8542 91.9206 12.6003 92.1094 12.3984C92.3047 12.1901 92.5553 12.0827 92.8613 12.0762C93.1673 12.0697 93.418 12.1641 93.6133 12.3594C93.8151 12.5547 93.9128 12.8021 93.9062 13.1016C93.9062 13.401 93.8053 13.6517 93.6035 13.8535C93.4082 14.0488 93.1608 14.1497 92.8613 14.1562C92.5618 14.1628 92.3145 14.0749 92.1191 13.8926C91.9238 13.7038 91.8262 13.4596 91.8262 13.1602ZM98.623 25.2207C99.0527 25.2272 99.4531 25.1458 99.8242 24.9766C100.195 24.8073 100.511 24.5664 100.771 24.2539C101.032 23.9414 101.217 23.5801 101.328 23.1699L103.008 23.1602C102.904 23.8698 102.627 24.4915 102.178 25.0254C101.735 25.5592 101.191 25.9759 100.547 26.2754C99.9089 26.5684 99.2415 26.7083 98.5449 26.6953C97.8027 26.6823 97.1712 26.5293 96.6504 26.2363C96.1361 25.9368 95.7227 25.5397 95.4102 25.0449C95.0977 24.5501 94.8828 23.9935 94.7656 23.375C94.6484 22.75 94.6224 22.1087 94.6875 21.4512L94.7266 21.0312C94.8047 20.3216 94.9772 19.6478 95.2441 19.0098C95.5111 18.3652 95.8659 17.7956 96.3086 17.3008C96.7578 16.7995 97.2884 16.4089 97.9004 16.1289C98.5124 15.849 99.1992 15.7188 99.9609 15.7383C100.703 15.7513 101.348 15.9271 101.895 16.2656C102.441 16.5977 102.865 17.0501 103.164 17.623C103.464 18.196 103.613 18.847 103.613 19.5762L101.953 19.5664C101.947 19.1497 101.865 18.7656 101.709 18.4141C101.553 18.0625 101.322 17.7793 101.016 17.5645C100.71 17.3496 100.332 17.2324 99.8828 17.2129C99.3424 17.1999 98.8704 17.3008 98.4668 17.5156C98.0697 17.7305 97.7311 18.0267 97.4512 18.4043C97.1777 18.7754 96.9596 19.1888 96.7969 19.6445C96.6406 20.1003 96.5332 20.5625 96.4746 21.0312L96.4258 21.4414C96.3867 21.8581 96.3802 22.2845 96.4062 22.7207C96.4388 23.1569 96.5299 23.5638 96.6797 23.9414C96.8294 24.3125 97.0605 24.6152 97.373 24.8496C97.6855 25.084 98.1022 25.2077 98.623 25.2207ZM110.762 24.6934L111.641 19.2344C111.686 18.8307 111.647 18.4759 111.523 18.1699C111.406 17.8639 111.208 17.6263 110.928 17.457C110.654 17.2878 110.309 17.1966 109.893 17.1836C109.528 17.1771 109.17 17.2357 108.818 17.3594C108.473 17.4831 108.174 17.6686 107.92 17.916C107.666 18.1634 107.5 18.4759 107.422 18.8535L105.664 18.8633C105.71 18.3359 105.876 17.877 106.162 17.4863C106.449 17.0892 106.807 16.7604 107.236 16.5C107.666 16.2331 108.128 16.0378 108.623 15.9141C109.118 15.7839 109.6 15.722 110.068 15.7285C110.778 15.7415 111.393 15.8945 111.914 16.1875C112.441 16.474 112.839 16.8776 113.105 17.3984C113.372 17.9193 113.47 18.5443 113.398 19.2734L112.588 24.1953C112.529 24.5534 112.493 24.9147 112.48 25.2793C112.474 25.6374 112.516 25.9889 112.607 26.334L112.588 26.5L110.801 26.5098C110.729 26.2103 110.693 25.9076 110.693 25.6016C110.7 25.2956 110.723 24.9928 110.762 24.6934ZM111.846 20.0938L111.641 21.3633L109.971 21.3535C109.619 21.3535 109.248 21.3796 108.857 21.4316C108.467 21.4837 108.096 21.5814 107.744 21.7246C107.393 21.8678 107.096 22.0762 106.855 22.3496C106.615 22.6165 106.468 22.9648 106.416 23.3945C106.377 23.7461 106.419 24.0521 106.543 24.3125C106.673 24.5664 106.868 24.765 107.129 24.9082C107.389 25.0514 107.692 25.1263 108.037 25.1328C108.486 25.1393 108.929 25.0514 109.365 24.8691C109.801 24.6868 110.182 24.4264 110.508 24.0879C110.833 23.7493 111.058 23.3587 111.182 22.916L111.826 23.7852C111.702 24.2148 111.501 24.612 111.221 24.9766C110.941 25.3346 110.609 25.6439 110.225 25.9043C109.847 26.1647 109.44 26.3665 109.004 26.5098C108.568 26.653 108.132 26.7214 107.695 26.7148C107.103 26.7018 106.566 26.5684 106.084 26.3145C105.609 26.0605 105.231 25.7057 104.951 25.25C104.678 24.7878 104.561 24.2507 104.6 23.6387C104.639 22.9681 104.814 22.4049 105.127 21.9492C105.439 21.4935 105.84 21.1289 106.328 20.8555C106.823 20.582 107.363 20.3867 107.949 20.2695C108.535 20.1458 109.115 20.084 109.688 20.084L111.846 20.0938ZM121.084 15.9336L120.84 17.3203H115.283L115.527 15.9336H121.084ZM117.852 13.3652H119.609L117.822 23.9023C117.803 24.1302 117.809 24.3353 117.842 24.5176C117.874 24.6999 117.952 24.8464 118.076 24.957C118.2 25.0612 118.389 25.1165 118.643 25.123C118.786 25.123 118.926 25.1133 119.062 25.0938C119.206 25.0677 119.349 25.0449 119.492 25.0254L119.365 26.5098C119.157 26.5684 118.942 26.6107 118.721 26.6367C118.506 26.6693 118.291 26.6823 118.076 26.6758C117.536 26.6693 117.113 26.5326 116.807 26.2656C116.501 25.9987 116.292 25.6536 116.182 25.2305C116.071 24.8073 116.038 24.3548 116.084 23.873L117.852 13.3652ZM125.039 15.9336L123.203 26.5H121.436L123.271 15.9336H125.039ZM123.623 13.1602C123.623 12.8542 123.717 12.6003 123.906 12.3984C124.102 12.1901 124.352 12.0827 124.658 12.0762C124.964 12.0697 125.215 12.1641 125.41 12.3594C125.612 12.5547 125.71 12.8021 125.703 13.1016C125.703 13.401 125.602 13.6517 125.4 13.8535C125.205 14.0488 124.958 14.1497 124.658 14.1562C124.359 14.1628 124.111 14.0749 123.916 13.8926C123.721 13.7038 123.623 13.4596 123.623 13.1602ZM126.475 21.3926L126.504 21.168C126.582 20.4583 126.758 19.7747 127.031 19.1172C127.311 18.4596 127.679 17.8737 128.135 17.3594C128.59 16.8451 129.131 16.4414 129.756 16.1484C130.381 15.8555 131.077 15.7188 131.846 15.7383C132.588 15.7513 133.223 15.9108 133.75 16.2168C134.284 16.5228 134.714 16.9297 135.039 17.4375C135.371 17.9388 135.602 18.5052 135.732 19.1367C135.863 19.7682 135.895 20.4193 135.83 21.0898L135.811 21.3145C135.726 22.0241 135.544 22.7044 135.264 23.3555C134.984 24.0065 134.613 24.5859 134.15 25.0938C133.695 25.6016 133.154 26.002 132.529 26.2949C131.904 26.5814 131.211 26.7148 130.449 26.6953C129.714 26.6823 129.079 26.526 128.545 26.2266C128.018 25.9206 127.591 25.5169 127.266 25.0156C126.94 24.5143 126.712 23.9512 126.582 23.3262C126.452 22.7012 126.416 22.0566 126.475 21.3926ZM128.262 21.168L128.242 21.4023C128.197 21.8125 128.193 22.2389 128.232 22.6816C128.278 23.1243 128.382 23.5345 128.545 23.9121C128.714 24.2897 128.958 24.599 129.277 24.8398C129.596 25.0807 130.01 25.2077 130.518 25.2207C131.058 25.2337 131.533 25.1296 131.943 24.9082C132.354 24.6803 132.702 24.3743 132.988 23.9902C133.281 23.6061 133.512 23.1797 133.682 22.7109C133.857 22.2422 133.975 21.7767 134.033 21.3145L134.053 21.0898C134.098 20.6797 134.098 20.2533 134.053 19.8105C134.014 19.3613 133.91 18.9447 133.74 18.5605C133.577 18.1699 133.337 17.8542 133.018 17.6133C132.699 17.3659 132.285 17.2357 131.777 17.2227C131.237 17.2031 130.758 17.3105 130.342 17.5449C129.932 17.7728 129.583 18.082 129.297 18.4727C129.01 18.8633 128.779 19.2962 128.604 19.7715C128.434 20.2402 128.32 20.7057 128.262 21.168ZM140.283 18.2969L138.857 26.5H137.09L138.926 15.9336H140.596L140.283 18.2969ZM139.463 20.8164L138.74 20.7969C138.831 20.1654 138.997 19.5469 139.238 18.9414C139.486 18.3294 139.808 17.7793 140.205 17.291C140.609 16.8027 141.087 16.4186 141.641 16.1387C142.201 15.8522 142.839 15.7188 143.555 15.7383C144.121 15.7513 144.593 15.862 144.971 16.0703C145.355 16.2721 145.654 16.5488 145.869 16.9004C146.084 17.252 146.227 17.6589 146.299 18.1211C146.37 18.5768 146.377 19.0618 146.318 19.5762L145.166 26.5H143.389L144.561 19.5469C144.606 19.1237 144.59 18.7428 144.512 18.4043C144.44 18.0592 144.277 17.7858 144.023 17.584C143.776 17.3757 143.418 17.265 142.949 17.252C142.454 17.2389 142.008 17.3333 141.611 17.5352C141.214 17.737 140.866 18.0137 140.566 18.3652C140.273 18.7103 140.033 19.0977 139.844 19.5273C139.661 19.9505 139.535 20.3802 139.463 20.8164ZM155.938 18.1406L154.492 26.5H152.715L154.551 15.9336H156.23L155.938 18.1406ZM155.146 20.8164L154.346 20.7969C154.437 20.1393 154.6 19.5046 154.834 18.8926C155.068 18.2806 155.381 17.7337 155.771 17.252C156.169 16.7702 156.647 16.3926 157.207 16.1191C157.767 15.8457 158.415 15.7188 159.15 15.7383C159.697 15.7513 160.16 15.8587 160.537 16.0605C160.915 16.2559 161.217 16.526 161.445 16.8711C161.68 17.2096 161.836 17.6003 161.914 18.043C161.999 18.4857 162.018 18.9577 161.973 19.459L160.791 26.5H159.023L160.195 19.5371C160.247 19.0944 160.221 18.7038 160.117 18.3652C160.02 18.0267 159.834 17.7598 159.561 17.5645C159.287 17.3626 158.916 17.2552 158.447 17.2422C157.92 17.2292 157.461 17.3203 157.07 17.5156C156.686 17.7109 156.364 17.9811 156.104 18.3262C155.85 18.6647 155.645 19.0521 155.488 19.4883C155.332 19.918 155.218 20.3607 155.146 20.8164ZM161.973 19.8203L160.703 20.1914C160.781 19.5859 160.944 19.013 161.191 18.4727C161.445 17.9323 161.774 17.4538 162.178 17.0371C162.581 16.6204 163.05 16.2949 163.584 16.0605C164.118 15.8262 164.707 15.7155 165.352 15.7285C165.924 15.7415 166.41 15.849 166.807 16.0508C167.204 16.2461 167.52 16.5163 167.754 16.8613C167.995 17.2064 168.154 17.61 168.232 18.0723C168.317 18.528 168.33 19.0228 168.271 19.5566L167.109 26.5H165.332L166.504 19.5273C166.556 19.0781 166.533 18.6842 166.436 18.3457C166.344 18.0072 166.162 17.7435 165.889 17.5547C165.615 17.3594 165.238 17.2585 164.756 17.252C164.372 17.2389 164.02 17.2975 163.701 17.4277C163.382 17.5579 163.105 17.7435 162.871 17.9844C162.637 18.2188 162.441 18.4922 162.285 18.8047C162.135 19.1172 162.031 19.4557 161.973 19.8203ZM174.219 26.6953C173.496 26.6823 172.868 26.5391 172.334 26.2656C171.807 25.9857 171.374 25.6113 171.035 25.1426C170.703 24.6673 170.465 24.127 170.322 23.5215C170.179 22.916 170.137 22.2812 170.195 21.6172L170.234 21.1973C170.299 20.5202 170.465 19.8561 170.732 19.2051C170.999 18.5475 171.354 17.9551 171.797 17.4277C172.246 16.9004 172.773 16.4837 173.379 16.1777C173.991 15.8652 174.668 15.7188 175.41 15.7383C176.146 15.7513 176.758 15.9076 177.246 16.207C177.734 16.5065 178.115 16.9036 178.389 17.3984C178.669 17.8867 178.851 18.4368 178.936 19.0488C179.02 19.6543 179.027 20.276 178.955 20.9141L178.848 21.7246H171.182L171.416 20.25L177.266 20.2598L177.295 20.1035C177.36 19.6348 177.334 19.1823 177.217 18.7461C177.1 18.3099 176.885 17.9518 176.572 17.6719C176.266 17.3854 175.853 17.2357 175.332 17.2227C174.792 17.2031 174.323 17.3138 173.926 17.5547C173.529 17.7891 173.197 18.1081 172.93 18.5117C172.663 18.9089 172.451 19.3451 172.295 19.8203C172.145 20.2891 172.041 20.748 171.982 21.1973L171.943 21.6074C171.904 22.0241 171.917 22.444 171.982 22.8672C172.048 23.2904 172.171 23.6777 172.354 24.0293C172.542 24.3743 172.803 24.6576 173.135 24.8789C173.467 25.0938 173.877 25.2077 174.365 25.2207C174.958 25.2337 175.488 25.1068 175.957 24.8398C176.432 24.5664 176.865 24.2214 177.256 23.8047L178.262 24.6641C177.956 25.1133 177.591 25.4909 177.168 25.7969C176.745 26.1029 176.283 26.3307 175.781 26.4805C175.28 26.6302 174.759 26.7018 174.219 26.6953ZM174.736 14.3711L177.031 11.5H179.277L176.289 14.3711H174.736ZM186.182 15.9336L185.938 17.3203H180.381L180.625 15.9336H186.182ZM182.949 13.3652H184.707L182.92 23.9023C182.9 24.1302 182.907 24.3353 182.939 24.5176C182.972 24.6999 183.05 24.8464 183.174 24.957C183.298 25.0612 183.486 25.1165 183.74 25.123C183.883 25.123 184.023 25.1133 184.16 25.0938C184.303 25.0677 184.447 25.0449 184.59 25.0254L184.463 26.5098C184.255 26.5684 184.04 26.6107 183.818 26.6367C183.604 26.6693 183.389 26.6823 183.174 26.6758C182.633 26.6693 182.21 26.5326 181.904 26.2656C181.598 25.9987 181.39 25.6536 181.279 25.2305C181.169 24.8073 181.136 24.3548 181.182 23.873L182.949 13.3652ZM190.137 15.9336L188.301 26.5H186.533L188.369 15.9336H190.137ZM188.721 13.1602C188.721 12.8542 188.815 12.6003 189.004 12.3984C189.199 12.1901 189.45 12.0827 189.756 12.0762C190.062 12.0697 190.312 12.1641 190.508 12.3594C190.71 12.5547 190.807 12.8021 190.801 13.1016C190.801 13.401 190.7 13.6517 190.498 13.8535C190.303 14.0488 190.055 14.1497 189.756 14.1562C189.456 14.1628 189.209 14.0749 189.014 13.8926C188.818 13.7038 188.721 13.4596 188.721 13.1602ZM195.586 26.6953C194.863 26.6823 194.235 26.5391 193.701 26.2656C193.174 25.9857 192.741 25.6113 192.402 25.1426C192.07 24.6673 191.833 24.127 191.689 23.5215C191.546 22.916 191.504 22.2812 191.562 21.6172L191.602 21.1973C191.667 20.5202 191.833 19.8561 192.1 19.2051C192.367 18.5475 192.721 17.9551 193.164 17.4277C193.613 16.9004 194.141 16.4837 194.746 16.1777C195.358 15.8652 196.035 15.7188 196.777 15.7383C197.513 15.7513 198.125 15.9076 198.613 16.207C199.102 16.5065 199.482 16.9036 199.756 17.3984C200.036 17.8867 200.218 18.4368 200.303 19.0488C200.387 19.6543 200.394 20.276 200.322 20.9141L200.215 21.7246H192.549L192.783 20.25L198.633 20.2598L198.662 20.1035C198.727 19.6348 198.701 19.1823 198.584 18.7461C198.467 18.3099 198.252 17.9518 197.939 17.6719C197.633 17.3854 197.22 17.2357 196.699 17.2227C196.159 17.2031 195.69 17.3138 195.293 17.5547C194.896 17.7891 194.564 18.1081 194.297 18.5117C194.03 18.9089 193.818 19.3451 193.662 19.8203C193.512 20.2891 193.408 20.748 193.35 21.1973L193.311 21.6074C193.271 22.0241 193.285 22.444 193.35 22.8672C193.415 23.2904 193.538 23.6777 193.721 24.0293C193.91 24.3743 194.17 24.6576 194.502 24.8789C194.834 25.0938 195.244 25.2077 195.732 25.2207C196.325 25.2337 196.855 25.1068 197.324 24.8398C197.799 24.5664 198.232 24.2214 198.623 23.8047L199.629 24.6641C199.323 25.1133 198.958 25.4909 198.535 25.7969C198.112 26.1029 197.65 26.3307 197.148 26.4805C196.647 26.6302 196.126 26.7018 195.586 26.6953ZM204.707 17.6719L203.174 26.5H201.406L203.242 15.9336H204.961L204.707 17.6719ZM208.135 15.8457L207.969 17.5449C207.832 17.5189 207.692 17.4961 207.549 17.4766C207.412 17.457 207.275 17.4473 207.139 17.4473C206.715 17.4408 206.335 17.5059 205.996 17.6426C205.664 17.7728 205.368 17.9583 205.107 18.1992C204.854 18.4401 204.635 18.7233 204.453 19.0488C204.277 19.3743 204.137 19.7259 204.033 20.1035L203.477 20.3965C203.548 19.8691 203.665 19.3288 203.828 18.7754C203.997 18.222 204.229 17.7109 204.521 17.2422C204.821 16.7734 205.195 16.3958 205.645 16.1094C206.1 15.8229 206.647 15.6895 207.285 15.709C207.428 15.709 207.568 15.722 207.705 15.748C207.848 15.7741 207.992 15.8066 208.135 15.8457Z" fill="#0F172A"/>
</svg>
