<svg width="154" height="40" viewBox="0 0 154 40" fill="none" xmlns="http://www.w3.org/2000/svg">
<rect width="153.8" height="40" rx="8" fill="#FFE6C3"/>
<g clip-path="url(#clip0_352_16010)">
<path d="M28.0902 10.8054C28.2881 10.7218 28.513 10.7218 28.7108 10.8054C32.5536 12.4302 36.1956 14.4165 39.591 16.7197C39.8367 16.8864 39.9609 17.1753 39.9098 17.4615C39.8587 17.7476 39.6416 17.9795 39.3523 18.0568C38.6446 18.2459 37.9429 18.4495 37.2476 18.6665C34.4255 19.5473 31.7089 20.6555 29.1208 21.9689L29.1174 21.9706C29.0001 22.0302 28.883 22.0902 28.7662 22.1506C28.538 22.2686 28.264 22.2686 28.0358 22.1506C27.9178 22.0896 27.7996 22.029 27.6811 21.9689C26.4014 21.3195 25.0902 20.7202 23.7504 20.1738V19.9501C23.7504 19.8187 23.8201 19.7022 23.9279 19.639C25.4832 18.7271 27.0875 17.8858 28.736 17.1195C29.1218 16.9401 29.2844 16.4921 29.099 16.1187C28.9137 15.7453 28.4507 15.588 28.0649 15.7674C26.371 16.5547 24.7227 17.4192 23.1248 18.356C22.6563 18.6307 22.3413 19.0803 22.2377 19.5839C21.3543 19.255 20.4593 18.9487 19.5533 18.666C18.8581 18.449 18.1564 18.2458 17.4487 18.0568C17.1595 17.9795 16.9423 17.7476 16.8912 17.4615C16.8401 17.1753 16.9644 16.8863 17.2101 16.7197C20.6054 14.4165 24.2474 12.4302 28.0902 10.8054Z" fill="#0F172A"/>
<path d="M29.4967 23.4735C32.0168 22.1704 34.6646 21.0688 37.4171 20.1907C37.5558 21.6055 37.6444 23.0344 37.6811 24.4756C37.689 24.7848 37.4999 25.067 37.2049 25.1862C34.2587 26.3765 31.4564 27.8342 28.8302 29.5278C28.57 29.6957 28.231 29.6957 27.9707 29.5278C25.3445 27.8342 22.5422 26.3765 19.596 25.1862C19.3011 25.067 19.112 24.7848 19.1198 24.4756C19.1565 23.0343 19.2451 21.6053 19.3839 20.1904C20.3356 20.494 21.2747 20.8243 22.2004 21.1804V22.4508C21.7371 22.7102 21.4254 23.1949 21.4254 23.7501C21.4254 24.2454 21.6735 24.6847 22.056 24.9578C21.9635 25.3385 21.8266 25.7109 21.6453 26.0676C22.1131 26.2813 22.5769 26.5018 23.0365 26.7291C23.2983 26.2138 23.4881 25.673 23.6059 25.1208C24.1477 24.8871 24.5254 24.3613 24.5254 23.7501C24.5254 23.1949 24.2137 22.7102 23.7504 22.4508V21.806C24.9609 22.3178 26.1466 22.8744 27.3053 23.4735C27.99 23.8276 28.812 23.8276 29.4967 23.4735Z" fill="#0F172A"/>
<path d="M20.6114 27.4624C21.0445 27.0433 21.3893 26.5712 21.6453 26.0676C22.1131 26.2813 22.5769 26.5018 23.0365 26.7291C22.7073 27.3769 22.2641 27.9843 21.7074 28.5231C21.4048 28.816 20.9141 28.816 20.6114 28.5231C20.3087 28.2302 20.3087 27.7553 20.6114 27.4624Z" fill="#0F172A"/>
</g>
<path d="M60.4287 24.9668L60.1553 26.5H52.8408L53.1045 24.9668H60.4287ZM55.6924 12.2812L53.2217 26.5H51.376L53.8467 12.2812H55.6924ZM60.5947 18.3945L60.3311 19.9277H53.9736L54.2471 18.3945H60.5947ZM62.5283 12.2812L62.2549 13.8242H55.0381L55.3115 12.2812H62.5283ZM68.8076 24.3418L71.0342 11.5H72.8115L70.2041 26.5H68.5928L68.8076 24.3418ZM62.4404 21.4121L62.46 21.207C62.5446 20.556 62.7008 19.9049 62.9287 19.2539C63.1631 18.6029 63.4788 18.0072 63.876 17.4668C64.2731 16.9264 64.7549 16.4967 65.3213 16.1777C65.8877 15.8587 66.5485 15.709 67.3037 15.7285C67.9808 15.748 68.5472 15.9076 69.0029 16.207C69.4587 16.5065 69.8167 16.9036 70.0771 17.3984C70.3441 17.8867 70.5231 18.4238 70.6143 19.0098C70.7119 19.5957 70.7412 20.1849 70.7021 20.7773L70.5947 21.6758C70.484 22.3073 70.3018 22.9258 70.0479 23.5312C69.7939 24.1367 69.4652 24.6836 69.0615 25.1719C68.6644 25.6536 68.1859 26.0345 67.626 26.3145C67.0726 26.5944 66.4378 26.7246 65.7217 26.7051C65.0316 26.679 64.4587 26.5 64.0029 26.168C63.5537 25.8359 63.2021 25.4095 62.9482 24.8887C62.7008 24.3613 62.5381 23.7949 62.46 23.1895C62.3883 22.5775 62.3818 21.985 62.4404 21.4121ZM64.2568 21.1875L64.2373 21.3926C64.1917 21.7832 64.1755 22.1966 64.1885 22.6328C64.208 23.0625 64.2829 23.4694 64.4131 23.8535C64.5433 24.2311 64.7549 24.5436 65.0479 24.791C65.3408 25.0319 65.738 25.1621 66.2393 25.1816C66.7731 25.1947 67.2679 25.0742 67.7236 24.8203C68.1794 24.5664 68.57 24.2279 68.8955 23.8047C69.221 23.3815 69.4554 22.9225 69.5986 22.4277L69.9795 20.0547C69.999 19.6966 69.9567 19.3548 69.8525 19.0293C69.7484 18.6973 69.5921 18.401 69.3838 18.1406C69.182 17.8802 68.9313 17.6719 68.6318 17.5156C68.3389 17.3529 68.0101 17.2682 67.6455 17.2617C67.0986 17.2422 66.6266 17.3496 66.2295 17.584C65.8324 17.8118 65.4971 18.1211 65.2236 18.5117C64.9567 18.8958 64.7451 19.3223 64.5889 19.791C64.4326 20.2598 64.3219 20.7253 64.2568 21.1875ZM79.6279 23.9609L81.0146 15.9336H82.792L80.9561 26.5H79.2666L79.6279 23.9609ZM80.292 21.832L81.0146 21.8027C80.93 22.4668 80.7803 23.0983 80.5654 23.6973C80.3506 24.2897 80.0576 24.8171 79.6865 25.2793C79.3219 25.735 78.8662 26.0931 78.3193 26.3535C77.779 26.6074 77.1377 26.7246 76.3955 26.7051C75.8161 26.6855 75.3311 26.5684 74.9404 26.3535C74.5563 26.1387 74.2536 25.849 74.0322 25.4844C73.8109 25.1198 73.6644 24.7031 73.5928 24.2344C73.5212 23.7656 73.5114 23.2708 73.5635 22.75L74.7061 15.9336H76.4736L75.3311 22.7793C75.305 23.0658 75.3018 23.349 75.3213 23.6289C75.3408 23.9023 75.3994 24.153 75.4971 24.3809C75.5947 24.6087 75.7445 24.7943 75.9463 24.9375C76.1546 25.0742 76.4281 25.1491 76.7666 25.1621C77.4697 25.1882 78.0654 25.0579 78.5537 24.7715C79.042 24.4785 79.4294 24.0749 79.7158 23.5605C80.0023 23.0462 80.1943 22.4701 80.292 21.832ZM88.0166 25.2207C88.4463 25.2272 88.8467 25.1458 89.2178 24.9766C89.5889 24.8073 89.9046 24.5664 90.165 24.2539C90.4255 23.9414 90.611 23.5801 90.7217 23.1699L92.4014 23.1602C92.2972 23.8698 92.0205 24.4915 91.5713 25.0254C91.1286 25.5592 90.585 25.9759 89.9404 26.2754C89.3024 26.5684 88.6351 26.7083 87.9385 26.6953C87.1963 26.6823 86.5648 26.5293 86.0439 26.2363C85.5296 25.9368 85.1162 25.5397 84.8037 25.0449C84.4912 24.5501 84.2764 23.9935 84.1592 23.375C84.042 22.75 84.016 22.1087 84.0811 21.4512L84.1201 21.0312C84.1982 20.3216 84.3708 19.6478 84.6377 19.0098C84.9046 18.3652 85.2594 17.7956 85.7021 17.3008C86.1514 16.7995 86.682 16.4089 87.2939 16.1289C87.9059 15.849 88.5928 15.7188 89.3545 15.7383C90.0967 15.7513 90.7412 15.9271 91.2881 16.2656C91.835 16.5977 92.2581 17.0501 92.5576 17.623C92.8571 18.196 93.0068 18.847 93.0068 19.5762L91.3467 19.5664C91.3402 19.1497 91.2588 18.7656 91.1025 18.4141C90.9463 18.0625 90.7152 17.7793 90.4092 17.5645C90.1032 17.3496 89.7256 17.2324 89.2764 17.2129C88.736 17.1999 88.264 17.3008 87.8604 17.5156C87.4632 17.7305 87.1247 18.0267 86.8447 18.4043C86.5713 18.7754 86.3532 19.1888 86.1904 19.6445C86.0342 20.1003 85.9268 20.5625 85.8682 21.0312L85.8193 21.4414C85.7803 21.8581 85.7738 22.2845 85.7998 22.7207C85.8324 23.1569 85.9235 23.5638 86.0732 23.9414C86.223 24.3125 86.4541 24.6152 86.7666 24.8496C87.0791 25.084 87.4958 25.2077 88.0166 25.2207ZM100.155 24.6934L101.034 19.2344C101.08 18.8307 101.041 18.4759 100.917 18.1699C100.8 17.8639 100.601 17.6263 100.321 17.457C100.048 17.2878 99.7028 17.1966 99.2861 17.1836C98.9215 17.1771 98.5635 17.2357 98.2119 17.3594C97.8669 17.4831 97.5674 17.6686 97.3135 17.916C97.0596 18.1634 96.8936 18.4759 96.8154 18.8535L95.0576 18.8633C95.1032 18.3359 95.2692 17.877 95.5557 17.4863C95.8421 17.0892 96.2002 16.7604 96.6299 16.5C97.0596 16.2331 97.5218 16.0378 98.0166 15.9141C98.5114 15.7839 98.9932 15.722 99.4619 15.7285C100.172 15.7415 100.787 15.8945 101.308 16.1875C101.835 16.474 102.232 16.8776 102.499 17.3984C102.766 17.9193 102.864 18.5443 102.792 19.2734L101.981 24.1953C101.923 24.5534 101.887 24.9147 101.874 25.2793C101.868 25.6374 101.91 25.9889 102.001 26.334L101.981 26.5L100.194 26.5098C100.123 26.2103 100.087 25.9076 100.087 25.6016C100.093 25.2956 100.116 24.9928 100.155 24.6934ZM101.239 20.0938L101.034 21.3633L99.3643 21.3535C99.0127 21.3535 98.6416 21.3796 98.251 21.4316C97.8604 21.4837 97.4893 21.5814 97.1377 21.7246C96.7861 21.8678 96.4899 22.0762 96.249 22.3496C96.0081 22.6165 95.8617 22.9648 95.8096 23.3945C95.7705 23.7461 95.8128 24.0521 95.9365 24.3125C96.0667 24.5664 96.262 24.765 96.5225 24.9082C96.7829 25.0514 97.0856 25.1263 97.4307 25.1328C97.8799 25.1393 98.3226 25.0514 98.7588 24.8691C99.195 24.6868 99.5758 24.4264 99.9014 24.0879C100.227 23.7493 100.451 23.3587 100.575 22.916L101.22 23.7852C101.096 24.2148 100.894 24.612 100.614 24.9766C100.334 25.3346 100.002 25.6439 99.6182 25.9043C99.2406 26.1647 98.8337 26.3665 98.3975 26.5098C97.9613 26.653 97.5251 26.7214 97.0889 26.7148C96.4964 26.7018 95.9593 26.5684 95.4775 26.3145C95.0023 26.0605 94.6247 25.7057 94.3447 25.25C94.0713 24.7878 93.9541 24.2507 93.9932 23.6387C94.0322 22.9681 94.208 22.4049 94.5205 21.9492C94.833 21.4935 95.2334 21.1289 95.7217 20.8555C96.2165 20.582 96.7568 20.3867 97.3428 20.2695C97.9287 20.1458 98.5081 20.084 99.0811 20.084L101.239 20.0938ZM110.478 15.9336L110.233 17.3203H104.677L104.921 15.9336H110.478ZM107.245 13.3652H109.003L107.216 23.9023C107.196 24.1302 107.203 24.3353 107.235 24.5176C107.268 24.6999 107.346 24.8464 107.47 24.957C107.593 25.0612 107.782 25.1165 108.036 25.123C108.179 25.123 108.319 25.1133 108.456 25.0938C108.599 25.0677 108.743 25.0449 108.886 25.0254L108.759 26.5098C108.55 26.5684 108.336 26.6107 108.114 26.6367C107.899 26.6693 107.685 26.6823 107.47 26.6758C106.929 26.6693 106.506 26.5326 106.2 26.2656C105.894 25.9987 105.686 25.6536 105.575 25.2305C105.465 24.8073 105.432 24.3548 105.478 23.873L107.245 13.3652ZM114.433 15.9336L112.597 26.5H110.829L112.665 15.9336H114.433ZM113.017 13.1602C113.017 12.8542 113.111 12.6003 113.3 12.3984C113.495 12.1901 113.746 12.0827 114.052 12.0762C114.358 12.0697 114.608 12.1641 114.804 12.3594C115.006 12.5547 115.103 12.8021 115.097 13.1016C115.097 13.401 114.996 13.6517 114.794 13.8535C114.599 14.0488 114.351 14.1497 114.052 14.1562C113.752 14.1628 113.505 14.0749 113.31 13.8926C113.114 13.7038 113.017 13.4596 113.017 13.1602ZM115.868 21.3926L115.897 21.168C115.976 20.4583 116.151 19.7747 116.425 19.1172C116.705 18.4596 117.073 17.8737 117.528 17.3594C117.984 16.8451 118.524 16.4414 119.149 16.1484C119.774 15.8555 120.471 15.7188 121.239 15.7383C121.981 15.7513 122.616 15.9108 123.144 16.2168C123.677 16.5228 124.107 16.9297 124.433 17.4375C124.765 17.9388 124.996 18.5052 125.126 19.1367C125.256 19.7682 125.289 20.4193 125.224 21.0898L125.204 21.3145C125.119 22.0241 124.937 22.7044 124.657 23.3555C124.377 24.0065 124.006 24.5859 123.544 25.0938C123.088 25.6016 122.548 26.002 121.923 26.2949C121.298 26.5814 120.604 26.7148 119.843 26.6953C119.107 26.6823 118.472 26.526 117.938 26.2266C117.411 25.9206 116.985 25.5169 116.659 25.0156C116.334 24.5143 116.106 23.9512 115.976 23.3262C115.845 22.7012 115.81 22.0566 115.868 21.3926ZM117.655 21.168L117.636 21.4023C117.59 21.8125 117.587 22.2389 117.626 22.6816C117.672 23.1243 117.776 23.5345 117.938 23.9121C118.108 24.2897 118.352 24.599 118.671 24.8398C118.99 25.0807 119.403 25.2077 119.911 25.2207C120.451 25.2337 120.927 25.1296 121.337 24.9082C121.747 24.6803 122.095 24.3743 122.382 23.9902C122.675 23.6061 122.906 23.1797 123.075 22.7109C123.251 22.2422 123.368 21.7767 123.427 21.3145L123.446 21.0898C123.492 20.6797 123.492 20.2533 123.446 19.8105C123.407 19.3613 123.303 18.9447 123.134 18.5605C122.971 18.1699 122.73 17.8542 122.411 17.6133C122.092 17.3659 121.679 17.2357 121.171 17.2227C120.631 17.2031 120.152 17.3105 119.735 17.5449C119.325 17.7728 118.977 18.082 118.69 18.4727C118.404 18.8633 118.173 19.2962 117.997 19.7715C117.828 20.2402 117.714 20.7057 117.655 21.168ZM129.677 18.2969L128.251 26.5H126.483L128.319 15.9336H129.989L129.677 18.2969ZM128.856 20.8164L128.134 20.7969C128.225 20.1654 128.391 19.5469 128.632 18.9414C128.879 18.3294 129.201 17.7793 129.599 17.291C130.002 16.8027 130.481 16.4186 131.034 16.1387C131.594 15.8522 132.232 15.7188 132.948 15.7383C133.515 15.7513 133.987 15.862 134.364 16.0703C134.748 16.2721 135.048 16.5488 135.263 16.9004C135.478 17.252 135.621 17.6589 135.692 18.1211C135.764 18.5768 135.771 19.0618 135.712 19.5762L134.56 26.5H132.782L133.954 19.5469C134 19.1237 133.983 18.7428 133.905 18.4043C133.834 18.0592 133.671 17.7858 133.417 17.584C133.17 17.3757 132.812 17.265 132.343 17.252C131.848 17.2389 131.402 17.3333 131.005 17.5352C130.608 17.737 130.259 18.0137 129.96 18.3652C129.667 18.7103 129.426 19.0977 129.237 19.5273C129.055 19.9505 128.928 20.3802 128.856 20.8164Z" fill="#0F172A"/>
<defs>
<clipPath id="clip0_352_16010">
<rect width="24.8" height="24" fill="white" transform="translate(16 8)"/>
</clipPath>
</defs>
</svg>
