<svg width="135" height="40" viewBox="0 0 135 40" fill="none" xmlns="http://www.w3.org/2000/svg">
<rect width="134.8" height="40" rx="8" fill="#FFC3C3"/>
<path d="M28.3998 15.5C27.1157 15.5 26.0748 16.5074 26.0748 17.75C26.0748 18.9926 27.1157 20 28.3998 20C29.6839 20 30.7248 18.9926 30.7248 17.75C30.7248 16.5074 29.6839 15.5 28.3998 15.5Z" fill="#0F172A"/>
<path fill-rule="evenodd" clip-rule="evenodd" d="M17.5498 12.875C17.5498 11.8395 18.4173 11 19.4873 11H37.3123C38.3824 11 39.2498 11.8395 39.2498 12.875V22.625C39.2498 23.6605 38.3824 24.5 37.3123 24.5H19.4873C18.4173 24.5 17.5498 23.6605 17.5498 22.625V12.875ZM24.5248 17.75C24.5248 15.6789 26.2597 14 28.3998 14C30.5399 14 32.2748 15.6789 32.2748 17.75C32.2748 19.8211 30.5399 21.5 28.3998 21.5C26.2597 21.5 24.5248 19.8211 24.5248 17.75ZM35.3748 17C34.9468 17 34.5998 17.3358 34.5998 17.75V17.7575C34.5998 18.1717 34.9468 18.5075 35.3748 18.5075H35.3826C35.8106 18.5075 36.1576 18.1717 36.1576 17.7575V17.75C36.1576 17.3358 35.8106 17 35.3826 17H35.3748ZM20.6498 17.75C20.6498 17.3358 20.9968 17 21.4248 17H21.4326C21.8606 17 22.2076 17.3358 22.2076 17.75V17.7575C22.2076 18.1717 21.8606 18.5075 21.4326 18.5075H21.4248C20.9968 18.5075 20.6498 18.1717 20.6498 17.7575V17.75Z" fill="#0F172A"/>
<path d="M18.3248 26C17.8968 26 17.5498 26.3358 17.5498 26.75C17.5498 27.1642 17.8968 27.5 18.3248 27.5C23.9049 27.5 29.3094 28.2222 34.4446 29.5749C35.6748 29.899 36.9248 29.0168 36.9248 27.7551V26.75C36.9248 26.3358 36.5778 26 36.1498 26H18.3248Z" fill="#0F172A"/>
<path d="M55.6924 12.2812L53.2217 26.5H51.376L53.8467 12.2812H55.6924ZM60.3604 18.6777L60.0869 20.2207H53.8955L54.1689 18.6777H60.3604ZM62.4014 12.2812L62.1279 13.8242H55.0088L55.2822 12.2812H62.4014ZM65.585 15.9336L63.749 26.5H61.9814L63.8174 15.9336H65.585ZM64.1689 13.1602C64.1689 12.8542 64.2633 12.6003 64.4521 12.3984C64.6475 12.1901 64.8981 12.0827 65.2041 12.0762C65.5101 12.0697 65.7607 12.1641 65.9561 12.3594C66.1579 12.5547 66.2555 12.8021 66.249 13.1016C66.249 13.401 66.1481 13.6517 65.9463 13.8535C65.751 14.0488 65.5036 14.1497 65.2041 14.1562C64.9046 14.1628 64.6572 14.0749 64.4619 13.8926C64.2666 13.7038 64.1689 13.4596 64.1689 13.1602ZM69.7549 18.2969L68.3291 26.5H66.5615L68.3975 15.9336H70.0674L69.7549 18.2969ZM68.9346 20.8164L68.2119 20.7969C68.3031 20.1654 68.4691 19.5469 68.71 18.9414C68.9574 18.3294 69.2796 17.7793 69.6768 17.291C70.0804 16.8027 70.5589 16.4186 71.1123 16.1387C71.6722 15.8522 72.3102 15.7188 73.0264 15.7383C73.5928 15.7513 74.0648 15.862 74.4424 16.0703C74.8265 16.2721 75.126 16.5488 75.3408 16.9004C75.5557 17.252 75.6989 17.6589 75.7705 18.1211C75.8421 18.5768 75.8486 19.0618 75.79 19.5762L74.6377 26.5H72.8604L74.0322 19.5469C74.0778 19.1237 74.0615 18.7428 73.9834 18.4043C73.9118 18.0592 73.749 17.7858 73.4951 17.584C73.2477 17.3757 72.8896 17.265 72.4209 17.252C71.9261 17.2389 71.4801 17.3333 71.083 17.5352C70.6859 17.737 70.3376 18.0137 70.0381 18.3652C69.7451 18.7103 69.5042 19.0977 69.3154 19.5273C69.1331 19.9505 69.0062 20.3802 68.9346 20.8164ZM83.6709 24.6934L84.5498 19.2344C84.5954 18.8307 84.5563 18.4759 84.4326 18.1699C84.3154 17.8639 84.1169 17.6263 83.8369 17.457C83.5635 17.2878 83.2184 17.1966 82.8018 17.1836C82.4372 17.1771 82.0791 17.2357 81.7275 17.3594C81.3825 17.4831 81.083 17.6686 80.8291 17.916C80.5752 18.1634 80.4092 18.4759 80.3311 18.8535L78.5732 18.8633C78.6188 18.3359 78.7848 17.877 79.0713 17.4863C79.3577 17.0892 79.7158 16.7604 80.1455 16.5C80.5752 16.2331 81.0374 16.0378 81.5322 15.9141C82.027 15.7839 82.5088 15.722 82.9775 15.7285C83.6872 15.7415 84.3024 15.8945 84.8232 16.1875C85.3506 16.474 85.7477 16.8776 86.0146 17.3984C86.2816 17.9193 86.3792 18.5443 86.3076 19.2734L85.4971 24.1953C85.4385 24.5534 85.4027 24.9147 85.3896 25.2793C85.3831 25.6374 85.4255 25.9889 85.5166 26.334L85.4971 26.5L83.71 26.5098C83.6383 26.2103 83.6025 25.9076 83.6025 25.6016C83.609 25.2956 83.6318 24.9928 83.6709 24.6934ZM84.7549 20.0938L84.5498 21.3633L82.8799 21.3535C82.5283 21.3535 82.1572 21.3796 81.7666 21.4316C81.376 21.4837 81.0049 21.5814 80.6533 21.7246C80.3018 21.8678 80.0055 22.0762 79.7646 22.3496C79.5238 22.6165 79.3773 22.9648 79.3252 23.3945C79.2861 23.7461 79.3285 24.0521 79.4521 24.3125C79.5824 24.5664 79.7777 24.765 80.0381 24.9082C80.2985 25.0514 80.6012 25.1263 80.9463 25.1328C81.3955 25.1393 81.8382 25.0514 82.2744 24.8691C82.7106 24.6868 83.0915 24.4264 83.417 24.0879C83.7425 23.7493 83.9671 23.3587 84.0908 22.916L84.7354 23.7852C84.6117 24.2148 84.4098 24.612 84.1299 24.9766C83.8499 25.3346 83.5179 25.6439 83.1338 25.9043C82.7562 26.1647 82.3493 26.3665 81.9131 26.5098C81.4769 26.653 81.0407 26.7214 80.6045 26.7148C80.012 26.7018 79.4749 26.5684 78.9932 26.3145C78.5179 26.0605 78.1403 25.7057 77.8604 25.25C77.5869 24.7878 77.4697 24.2507 77.5088 23.6387C77.5479 22.9681 77.7236 22.4049 78.0361 21.9492C78.3486 21.4935 78.749 21.1289 79.2373 20.8555C79.7321 20.582 80.2725 20.3867 80.8584 20.2695C81.4443 20.1458 82.0238 20.084 82.5967 20.084L84.7549 20.0938ZM91.0439 18.2969L89.6182 26.5H87.8506L89.6865 15.9336H91.3564L91.0439 18.2969ZM90.2236 20.8164L89.501 20.7969C89.5921 20.1654 89.7581 19.5469 89.999 18.9414C90.2464 18.3294 90.5687 17.7793 90.9658 17.291C91.3695 16.8027 91.848 16.4186 92.4014 16.1387C92.9613 15.8522 93.5993 15.7188 94.3154 15.7383C94.8818 15.7513 95.3538 15.862 95.7314 16.0703C96.1156 16.2721 96.415 16.5488 96.6299 16.9004C96.8447 17.252 96.988 17.6589 97.0596 18.1211C97.1312 18.5768 97.1377 19.0618 97.0791 19.5762L95.9268 26.5H94.1494L95.3213 19.5469C95.3669 19.1237 95.3506 18.7428 95.2725 18.4043C95.2008 18.0592 95.0381 17.7858 94.7842 17.584C94.5368 17.3757 94.1787 17.265 93.71 17.252C93.2152 17.2389 92.7692 17.3333 92.3721 17.5352C91.9749 17.737 91.6266 18.0137 91.3271 18.3652C91.0342 18.7103 90.7933 19.0977 90.6045 19.5273C90.4222 19.9505 90.2952 20.3802 90.2236 20.8164ZM102.978 25.2207C103.407 25.2272 103.808 25.1458 104.179 24.9766C104.55 24.8073 104.866 24.5664 105.126 24.2539C105.386 23.9414 105.572 23.5801 105.683 23.1699L107.362 23.1602C107.258 23.8698 106.981 24.4915 106.532 25.0254C106.09 25.5592 105.546 25.9759 104.901 26.2754C104.263 26.5684 103.596 26.7083 102.899 26.6953C102.157 26.6823 101.526 26.5293 101.005 26.2363C100.491 25.9368 100.077 25.5397 99.7646 25.0449C99.4521 24.5501 99.2373 23.9935 99.1201 23.375C99.0029 22.75 98.9769 22.1087 99.042 21.4512L99.0811 21.0312C99.1592 20.3216 99.3317 19.6478 99.5986 19.0098C99.8656 18.3652 100.22 17.7956 100.663 17.3008C101.112 16.7995 101.643 16.4089 102.255 16.1289C102.867 15.849 103.554 15.7188 104.315 15.7383C105.058 15.7513 105.702 15.9271 106.249 16.2656C106.796 16.5977 107.219 17.0501 107.519 17.623C107.818 18.196 107.968 18.847 107.968 19.5762L106.308 19.5664C106.301 19.1497 106.22 18.7656 106.063 18.4141C105.907 18.0625 105.676 17.7793 105.37 17.5645C105.064 17.3496 104.687 17.2324 104.237 17.2129C103.697 17.1999 103.225 17.3008 102.821 17.5156C102.424 17.7305 102.086 18.0267 101.806 18.4043C101.532 18.7754 101.314 19.1888 101.151 19.6445C100.995 20.1003 100.888 20.5625 100.829 21.0312L100.78 21.4414C100.741 21.8581 100.735 22.2845 100.761 22.7207C100.793 23.1569 100.884 23.5638 101.034 23.9414C101.184 24.3125 101.415 24.6152 101.728 24.8496C102.04 25.084 102.457 25.2077 102.978 25.2207ZM113.202 26.6953C112.479 26.6823 111.851 26.5391 111.317 26.2656C110.79 25.9857 110.357 25.6113 110.019 25.1426C109.687 24.6673 109.449 24.127 109.306 23.5215C109.162 22.916 109.12 22.2812 109.179 21.6172L109.218 21.1973C109.283 20.5202 109.449 19.8561 109.716 19.2051C109.983 18.5475 110.338 17.9551 110.78 17.4277C111.229 16.9004 111.757 16.4837 112.362 16.1777C112.974 15.8652 113.651 15.7188 114.394 15.7383C115.129 15.7513 115.741 15.9076 116.229 16.207C116.718 16.5065 117.099 16.9036 117.372 17.3984C117.652 17.8867 117.834 18.4368 117.919 19.0488C118.004 19.6543 118.01 20.276 117.938 20.9141L117.831 21.7246H110.165L110.399 20.25L116.249 20.2598L116.278 20.1035C116.343 19.6348 116.317 19.1823 116.2 18.7461C116.083 18.3099 115.868 17.9518 115.556 17.6719C115.25 17.3854 114.836 17.2357 114.315 17.2227C113.775 17.2031 113.306 17.3138 112.909 17.5547C112.512 17.7891 112.18 18.1081 111.913 18.5117C111.646 18.9089 111.435 19.3451 111.278 19.8203C111.129 20.2891 111.024 20.748 110.966 21.1973L110.927 21.6074C110.888 22.0241 110.901 22.444 110.966 22.8672C111.031 23.2904 111.155 23.6777 111.337 24.0293C111.526 24.3743 111.786 24.6576 112.118 24.8789C112.45 25.0938 112.86 25.2077 113.349 25.2207C113.941 25.2337 114.472 25.1068 114.94 24.8398C115.416 24.5664 115.849 24.2214 116.239 23.8047L117.245 24.6641C116.939 25.1133 116.575 25.4909 116.151 25.7969C115.728 26.1029 115.266 26.3307 114.765 26.4805C114.263 26.6302 113.743 26.7018 113.202 26.6953Z" fill="#0F172A"/>
</svg>
