<svg width="160" height="40" viewBox="0 0 160 40" fill="none" xmlns="http://www.w3.org/2000/svg">
<rect width="159.8" height="40" rx="8" fill="#ABF1FF"/>
<path fill-rule="evenodd" clip-rule="evenodd" d="M19.0998 10.25C18.6718 10.25 18.3248 10.5858 18.3248 11C18.3248 11.4142 18.6718 11.75 19.0998 11.75V28.25H18.3248C17.8968 28.25 17.5498 28.5858 17.5498 29C17.5498 29.4142 17.8968 29.75 18.3248 29.75H31.4998V11.75C31.9278 11.75 32.2748 11.4142 32.2748 11C32.2748 10.5858 31.9278 10.25 31.4998 10.25H19.0998ZM22.9748 27.5V25.25C22.9748 24.8358 23.3218 24.5 23.7498 24.5H26.8498C27.2778 24.5 27.6248 24.8358 27.6248 25.25V27.5C27.6248 27.9142 27.2778 28.25 26.8498 28.25H23.7498C23.3218 28.25 22.9748 27.9142 22.9748 27.5ZM22.1998 14.75C22.1998 14.3358 22.5468 14 22.9748 14H23.7498C24.1778 14 24.5248 14.3358 24.5248 14.75C24.5248 15.1642 24.1778 15.5 23.7498 15.5H22.9748C22.5468 15.5 22.1998 15.1642 22.1998 14.75ZM22.9748 17C22.5468 17 22.1998 17.3358 22.1998 17.75C22.1998 18.1642 22.5468 18.5 22.9748 18.5H23.7498C24.1778 18.5 24.5248 18.1642 24.5248 17.75C24.5248 17.3358 24.1778 17 23.7498 17H22.9748ZM22.1998 20.75C22.1998 20.3358 22.5468 20 22.9748 20H23.7498C24.1778 20 24.5248 20.3358 24.5248 20.75C24.5248 21.1642 24.1778 21.5 23.7498 21.5H22.9748C22.5468 21.5 22.1998 21.1642 22.1998 20.75ZM26.8498 14C26.4218 14 26.0748 14.3358 26.0748 14.75C26.0748 15.1642 26.4218 15.5 26.8498 15.5H27.6248C28.0528 15.5 28.3998 15.1642 28.3998 14.75C28.3998 14.3358 28.0528 14 27.6248 14H26.8498ZM26.0748 17.75C26.0748 17.3358 26.4218 17 26.8498 17H27.6248C28.0528 17 28.3998 17.3358 28.3998 17.75C28.3998 18.1642 28.0528 18.5 27.6248 18.5H26.8498C26.4218 18.5 26.0748 18.1642 26.0748 17.75ZM26.8498 20C26.4218 20 26.0748 20.3358 26.0748 20.75C26.0748 21.1642 26.4218 21.5 26.8498 21.5H27.6248C28.0528 21.5 28.3998 21.1642 28.3998 20.75C28.3998 20.3358 28.0528 20 27.6248 20H26.8498Z" fill="#0F172A"/>
<path fill-rule="evenodd" clip-rule="evenodd" d="M33.0498 14.75V29.75H38.4748C38.9028 29.75 39.2498 29.4142 39.2498 29C39.2498 28.5858 38.9028 28.25 38.4748 28.25H37.6998V16.25C38.1278 16.25 38.4748 15.9142 38.4748 15.5C38.4748 15.0858 38.1278 14.75 37.6998 14.75H33.0498ZM34.5998 19.25C34.5998 18.8358 34.9468 18.5 35.3748 18.5H35.3826C35.8106 18.5 36.1576 18.8358 36.1576 19.25V19.2575C36.1576 19.6717 35.8106 20.0075 35.3826 20.0075H35.3748C34.9468 20.0075 34.5998 19.6717 34.5998 19.2575V19.25ZM35.3748 21.5C34.9468 21.5 34.5998 21.8358 34.5998 22.25V22.2575C34.5998 22.6717 34.9468 23.0075 35.3748 23.0075H35.3826C35.8106 23.0075 36.1576 22.6717 36.1576 22.2575V22.25C36.1576 21.8358 35.8106 21.5 35.3826 21.5H35.3748ZM34.5998 25.25C34.5998 24.8358 34.9468 24.5 35.3748 24.5H35.3826C35.8106 24.5 36.1576 24.8358 36.1576 25.25V25.2575C36.1576 25.6717 35.8106 26.0075 35.3826 26.0075H35.3748C34.9468 26.0075 34.5998 25.6717 34.5998 25.2575V25.25Z" fill="#0F172A"/>
<path d="M55.8193 12.2812L53.3486 26.5H51.5127L53.9834 12.2812H55.8193ZM59.5889 18.1406L58.1436 26.5H56.3662L58.2021 15.9336H59.8818L59.5889 18.1406ZM58.7979 20.8164L57.9971 20.7969C58.0882 20.1393 58.251 19.5046 58.4854 18.8926C58.7197 18.2806 59.0322 17.7337 59.4229 17.252C59.82 16.7702 60.2985 16.3926 60.8584 16.1191C61.4183 15.8457 62.0661 15.7188 62.8018 15.7383C63.3486 15.7513 63.8109 15.8587 64.1885 16.0605C64.5661 16.2559 64.8688 16.526 65.0967 16.8711C65.3311 17.2096 65.4873 17.6003 65.5654 18.043C65.6501 18.4857 65.6696 18.9577 65.624 19.459L64.4424 26.5H62.6748L63.8467 19.5371C63.8988 19.0944 63.8727 18.7038 63.7686 18.3652C63.6709 18.0267 63.4854 17.7598 63.2119 17.5645C62.9385 17.3626 62.5674 17.2552 62.0986 17.2422C61.5713 17.2292 61.1123 17.3203 60.7217 17.5156C60.3376 17.7109 60.0153 17.9811 59.7549 18.3262C59.501 18.6647 59.2959 19.0521 59.1396 19.4883C58.9834 19.918 58.8695 20.3607 58.7979 20.8164ZM65.624 19.8203L64.3545 20.1914C64.4326 19.5859 64.5954 19.013 64.8428 18.4727C65.0967 17.9323 65.4255 17.4538 65.8291 17.0371C66.2327 16.6204 66.7015 16.2949 67.2354 16.0605C67.7692 15.8262 68.3584 15.7155 69.0029 15.7285C69.5758 15.7415 70.0609 15.849 70.458 16.0508C70.8551 16.2461 71.1709 16.5163 71.4053 16.8613C71.6462 17.2064 71.8057 17.61 71.8838 18.0723C71.9684 18.528 71.9814 19.0228 71.9229 19.5566L70.7607 26.5H68.9834L70.1553 19.5273C70.2074 19.0781 70.1846 18.6842 70.0869 18.3457C69.9958 18.0072 69.8135 17.7435 69.54 17.5547C69.2666 17.3594 68.889 17.2585 68.4072 17.252C68.0231 17.2389 67.6715 17.2975 67.3525 17.4277C67.0335 17.5579 66.7568 17.7435 66.5225 17.9844C66.2881 18.2188 66.0928 18.4922 65.9365 18.8047C65.7868 19.1172 65.6826 19.4557 65.624 19.8203ZM76.6006 18.1406L75.1553 26.5H73.3779L75.2139 15.9336H76.8936L76.6006 18.1406ZM75.8096 20.8164L75.0088 20.7969C75.0999 20.1393 75.2627 19.5046 75.4971 18.8926C75.7314 18.2806 76.0439 17.7337 76.4346 17.252C76.8317 16.7702 77.3102 16.3926 77.8701 16.1191C78.43 15.8457 79.0778 15.7188 79.8135 15.7383C80.3604 15.7513 80.8226 15.8587 81.2002 16.0605C81.5778 16.2559 81.8805 16.526 82.1084 16.8711C82.3428 17.2096 82.499 17.6003 82.5771 18.043C82.6618 18.4857 82.6813 18.9577 82.6357 19.459L81.4541 26.5H79.6865L80.8584 19.5371C80.9105 19.0944 80.8844 18.7038 80.7803 18.3652C80.6826 18.0267 80.4971 17.7598 80.2236 17.5645C79.9502 17.3626 79.5791 17.2552 79.1104 17.2422C78.583 17.2292 78.124 17.3203 77.7334 17.5156C77.3493 17.7109 77.027 17.9811 76.7666 18.3262C76.5127 18.6647 76.3076 19.0521 76.1514 19.4883C75.9951 19.918 75.8812 20.3607 75.8096 20.8164ZM82.6357 19.8203L81.3662 20.1914C81.4443 19.5859 81.6071 19.013 81.8545 18.4727C82.1084 17.9323 82.4372 17.4538 82.8408 17.0371C83.2445 16.6204 83.7132 16.2949 84.2471 16.0605C84.7809 15.8262 85.3701 15.7155 86.0146 15.7285C86.5876 15.7415 87.0726 15.849 87.4697 16.0508C87.8669 16.2461 88.1826 16.5163 88.417 16.8613C88.6579 17.2064 88.8174 17.61 88.8955 18.0723C88.9801 18.528 88.9932 19.0228 88.9346 19.5566L87.7725 26.5H85.9951L87.167 19.5273C87.2191 19.0781 87.1963 18.6842 87.0986 18.3457C87.0075 18.0072 86.8252 17.7435 86.5518 17.5547C86.2783 17.3594 85.9007 17.2585 85.4189 17.252C85.0348 17.2389 84.6833 17.2975 84.3643 17.4277C84.0452 17.5579 83.7686 17.7435 83.5342 17.9844C83.2998 18.2188 83.1045 18.4922 82.9482 18.8047C82.7985 19.1172 82.6943 19.4557 82.6357 19.8203ZM90.8682 21.3926L90.8975 21.168C90.9756 20.4583 91.1514 19.7747 91.4248 19.1172C91.7048 18.4596 92.0726 17.8737 92.5283 17.3594C92.984 16.8451 93.5244 16.4414 94.1494 16.1484C94.7744 15.8555 95.471 15.7188 96.2393 15.7383C96.9814 15.7513 97.6162 15.9108 98.1436 16.2168C98.6774 16.5228 99.1071 16.9297 99.4326 17.4375C99.7646 17.9388 99.9958 18.5052 100.126 19.1367C100.256 19.7682 100.289 20.4193 100.224 21.0898L100.204 21.3145C100.119 22.0241 99.9372 22.7044 99.6572 23.3555C99.3773 24.0065 99.0062 24.5859 98.5439 25.0938C98.0882 25.6016 97.5479 26.002 96.9229 26.2949C96.2979 26.5814 95.6045 26.7148 94.8428 26.6953C94.1071 26.6823 93.4723 26.526 92.9385 26.2266C92.4111 25.9206 91.9847 25.5169 91.6592 25.0156C91.3337 24.5143 91.1058 23.9512 90.9756 23.3262C90.8454 22.7012 90.8096 22.0566 90.8682 21.3926ZM92.6553 21.168L92.6357 21.4023C92.5902 21.8125 92.5869 22.2389 92.626 22.6816C92.6715 23.1243 92.7757 23.5345 92.9385 23.9121C93.1077 24.2897 93.3519 24.599 93.6709 24.8398C93.9899 25.0807 94.4033 25.2077 94.9111 25.2207C95.4515 25.2337 95.9268 25.1296 96.3369 24.9082C96.7471 24.6803 97.0954 24.3743 97.3818 23.9902C97.6748 23.6061 97.9059 23.1797 98.0752 22.7109C98.251 22.2422 98.3682 21.7767 98.4268 21.3145L98.4463 21.0898C98.4919 20.6797 98.4919 20.2533 98.4463 19.8105C98.4072 19.3613 98.3031 18.9447 98.1338 18.5605C97.971 18.1699 97.7301 17.8542 97.4111 17.6133C97.0921 17.3659 96.6787 17.2357 96.1709 17.2227C95.6305 17.2031 95.152 17.3105 94.7354 17.5449C94.3252 17.7728 93.9769 18.082 93.6904 18.4727C93.404 18.8633 93.1729 19.2962 92.9971 19.7715C92.8278 20.2402 92.7139 20.7057 92.6553 21.168ZM104.081 11.5H105.858L103.593 24.5566L103.104 26.5H101.474L104.081 11.5ZM111.093 21.0703L111.073 21.2754C110.989 21.9199 110.832 22.5645 110.604 23.209C110.383 23.8535 110.077 24.4427 109.687 24.9766C109.302 25.5104 108.83 25.9368 108.271 26.2559C107.717 26.5749 107.066 26.7246 106.317 26.7051C105.64 26.6921 105.071 26.5358 104.608 26.2363C104.146 25.9368 103.782 25.5462 103.515 25.0645C103.248 24.5762 103.065 24.0391 102.968 23.4531C102.87 22.8607 102.841 22.2682 102.88 21.6758L102.987 20.7773C103.098 20.1458 103.28 19.5273 103.534 18.9219C103.788 18.3164 104.117 17.7695 104.521 17.2812C104.924 16.793 105.403 16.4089 105.956 16.1289C106.509 15.8424 107.144 15.709 107.86 15.7285C108.583 15.748 109.169 15.9238 109.618 16.2559C110.074 16.5879 110.419 17.0176 110.653 17.5449C110.888 18.0658 111.034 18.6354 111.093 19.2539C111.158 19.8724 111.158 20.4779 111.093 21.0703ZM109.296 21.2656L109.325 21.0508C109.371 20.6602 109.387 20.2467 109.374 19.8105C109.361 19.3743 109.289 18.9642 109.159 18.5801C109.035 18.196 108.827 17.8835 108.534 17.6426C108.248 17.3952 107.847 17.265 107.333 17.252C106.923 17.2389 106.535 17.3073 106.171 17.457C105.813 17.6003 105.487 17.8053 105.194 18.0723C104.901 18.3327 104.651 18.6354 104.442 18.9805C104.241 19.319 104.088 19.6771 103.983 20.0547L103.603 22.4277C103.59 22.8965 103.681 23.3392 103.876 23.7559C104.071 24.166 104.348 24.5013 104.706 24.7617C105.071 25.0156 105.494 25.1523 105.976 25.1719C106.516 25.1914 106.981 25.0872 107.372 24.8594C107.763 24.625 108.088 24.3158 108.349 23.9316C108.616 23.541 108.824 23.1113 108.974 22.6426C109.13 22.1738 109.237 21.7148 109.296 21.2656ZM116.132 15.9336L114.296 26.5H112.528L114.364 15.9336H116.132ZM114.716 13.1602C114.716 12.8542 114.81 12.6003 114.999 12.3984C115.194 12.1901 115.445 12.0827 115.751 12.0762C116.057 12.0697 116.308 12.1641 116.503 12.3594C116.705 12.5547 116.802 12.8021 116.796 13.1016C116.796 13.401 116.695 13.6517 116.493 13.8535C116.298 14.0488 116.05 14.1497 115.751 14.1562C115.451 14.1628 115.204 14.0749 115.009 13.8926C114.813 13.7038 114.716 13.4596 114.716 13.1602ZM121.63 11.5L119.022 26.5H117.255L119.853 11.5H121.63ZM125.585 15.9336L123.749 26.5H121.981L123.817 15.9336H125.585ZM124.169 13.1602C124.169 12.8542 124.263 12.6003 124.452 12.3984C124.647 12.1901 124.898 12.0827 125.204 12.0762C125.51 12.0697 125.761 12.1641 125.956 12.3594C126.158 12.5547 126.256 12.8021 126.249 13.1016C126.249 13.401 126.148 13.6517 125.946 13.8535C125.751 14.0488 125.504 14.1497 125.204 14.1562C124.905 14.1628 124.657 14.0749 124.462 13.8926C124.267 13.7038 124.169 13.4596 124.169 13.1602ZM131.034 26.6953C130.312 26.6823 129.683 26.5391 129.149 26.2656C128.622 25.9857 128.189 25.6113 127.851 25.1426C127.519 24.6673 127.281 24.127 127.138 23.5215C126.994 22.916 126.952 22.2812 127.011 21.6172L127.05 21.1973C127.115 20.5202 127.281 19.8561 127.548 19.2051C127.815 18.5475 128.17 17.9551 128.612 17.4277C129.062 16.9004 129.589 16.4837 130.194 16.1777C130.806 15.8652 131.483 15.7188 132.226 15.7383C132.961 15.7513 133.573 15.9076 134.062 16.207C134.55 16.5065 134.931 16.9036 135.204 17.3984C135.484 17.8867 135.666 18.4368 135.751 19.0488C135.836 19.6543 135.842 20.276 135.771 20.9141L135.663 21.7246H127.997L128.231 20.25L134.081 20.2598L134.11 20.1035C134.175 19.6348 134.149 19.1823 134.032 18.7461C133.915 18.3099 133.7 17.9518 133.388 17.6719C133.082 17.3854 132.668 17.2357 132.147 17.2227C131.607 17.2031 131.138 17.3138 130.741 17.5547C130.344 17.7891 130.012 18.1081 129.745 18.5117C129.478 18.9089 129.267 19.3451 129.11 19.8203C128.961 20.2891 128.856 20.748 128.798 21.1973L128.759 21.6074C128.72 22.0241 128.733 22.444 128.798 22.8672C128.863 23.2904 128.987 23.6777 129.169 24.0293C129.358 24.3743 129.618 24.6576 129.95 24.8789C130.282 25.0938 130.692 25.2077 131.181 25.2207C131.773 25.2337 132.304 25.1068 132.772 24.8398C133.248 24.5664 133.681 24.2214 134.071 23.8047L135.077 24.6641C134.771 25.1133 134.407 25.4909 133.983 25.7969C133.56 26.1029 133.098 26.3307 132.597 26.4805C132.095 26.6302 131.575 26.7018 131.034 26.6953ZM140.155 17.6719L138.622 26.5H136.854L138.69 15.9336H140.409L140.155 17.6719ZM143.583 15.8457L143.417 17.5449C143.28 17.5189 143.14 17.4961 142.997 17.4766C142.86 17.457 142.724 17.4473 142.587 17.4473C142.164 17.4408 141.783 17.5059 141.444 17.6426C141.112 17.7728 140.816 17.9583 140.556 18.1992C140.302 18.4401 140.084 18.7233 139.901 19.0488C139.726 19.3743 139.586 19.7259 139.481 20.1035L138.925 20.3965C138.996 19.8691 139.114 19.3288 139.276 18.7754C139.446 18.222 139.677 17.7109 139.97 17.2422C140.269 16.7734 140.644 16.3958 141.093 16.1094C141.549 15.8229 142.095 15.6895 142.733 15.709C142.877 15.709 143.017 15.722 143.153 15.748C143.297 15.7741 143.44 15.8066 143.583 15.8457Z" fill="#0F172A"/>
</svg>
