<svg width="116" height="40" viewBox="0 0 116 40" fill="none" xmlns="http://www.w3.org/2000/svg">
<rect width="115.8" height="40" rx="8" fill="#FFE6C3"/>
<path d="M18.3248 10.25C17.8968 10.25 17.5498 10.5858 17.5498 11C17.5498 11.4142 17.8968 11.75 18.3248 11.75H19.7567C19.9322 11.75 20.0859 11.8642 20.1311 12.0284L22.7741 21.6199C21.1063 22.0385 19.8748 23.5051 19.8748 25.25C19.8748 25.6642 20.2218 26 20.6498 26H36.9248C37.3528 26 37.6998 25.6642 37.6998 25.25C37.6998 24.8358 37.3528 24.5 36.9248 24.5H21.5571C21.8763 23.6261 22.7375 23 23.7498 23H35.342C35.6384 23 35.9088 22.8364 36.0387 22.5785C37.2117 20.249 38.2354 17.836 39.0976 15.3513C39.1662 15.1536 39.1467 14.9372 39.0436 14.754C38.9406 14.5708 38.7635 14.4374 38.5547 14.3858C33.5721 13.1544 28.3519 12.5 22.9748 12.5C22.605 12.5 22.236 12.5031 21.8678 12.5093L21.6288 11.6419C21.4026 10.8211 20.6345 10.25 19.7567 10.25H18.3248Z" fill="#0F172A"/>
<path d="M19.8748 28.25C19.8748 27.4216 20.5688 26.75 21.4248 26.75C22.2808 26.75 22.9748 27.4216 22.9748 28.25C22.9748 29.0784 22.2808 29.75 21.4248 29.75C20.5688 29.75 19.8748 29.0784 19.8748 28.25Z" fill="#0F172A"/>
<path d="M33.0498 28.25C33.0498 27.4216 33.7438 26.75 34.5998 26.75C35.4558 26.75 36.1498 27.4216 36.1498 28.25C36.1498 29.0784 35.4558 29.75 34.5998 29.75C33.7438 29.75 33.0498 29.0784 33.0498 28.25Z" fill="#0F172A"/>
<path d="M53.8477 12.2812L58.3008 12.291C59.1667 12.3105 59.9316 12.4766 60.5957 12.7891C61.2598 13.1016 61.7643 13.5638 62.1094 14.1758C62.4609 14.7812 62.5977 15.5462 62.5195 16.4707C62.4544 17.2064 62.2461 17.8411 61.8945 18.375C61.5495 18.9023 61.1035 19.3451 60.5566 19.7031C60.0098 20.0547 59.4043 20.3346 58.7402 20.543L58.1934 20.7383H53.7793L54.0332 19.2051L57.168 19.2148C57.7409 19.2148 58.278 19.1107 58.7793 18.9023C59.2871 18.694 59.7103 18.388 60.0488 17.9844C60.3939 17.5742 60.6055 17.0697 60.6836 16.4707C60.7552 15.8978 60.6999 15.4193 60.5176 15.0352C60.3353 14.651 60.0488 14.3581 59.6582 14.1562C59.2741 13.9544 58.8086 13.847 58.2617 13.834L55.4199 13.8242L53.2227 26.5H51.377L53.8477 12.2812ZM59.4922 26.5L57.2559 20.0547L59.0723 20.0449L61.4551 26.373L61.4453 26.5H59.4922ZM67.5391 26.6953C66.8164 26.6823 66.1882 26.5391 65.6543 26.2656C65.127 25.9857 64.694 25.6113 64.3555 25.1426C64.0234 24.6673 63.7858 24.127 63.6426 23.5215C63.4993 22.916 63.457 22.2812 63.5156 21.6172L63.5547 21.1973C63.6198 20.5202 63.7858 19.8561 64.0527 19.2051C64.3197 18.5475 64.6745 17.9551 65.1172 17.4277C65.5664 16.9004 66.0938 16.4837 66.6992 16.1777C67.3112 15.8652 67.9883 15.7188 68.7305 15.7383C69.4661 15.7513 70.0781 15.9076 70.5664 16.207C71.0547 16.5065 71.4355 16.9036 71.709 17.3984C71.9889 17.8867 72.1712 18.4368 72.2559 19.0488C72.3405 19.6543 72.347 20.276 72.2754 20.9141L72.168 21.7246H64.502L64.7363 20.25L70.5859 20.2598L70.6152 20.1035C70.6803 19.6348 70.6543 19.1823 70.5371 18.7461C70.4199 18.3099 70.2051 17.9518 69.8926 17.6719C69.5866 17.3854 69.1732 17.2357 68.6523 17.2227C68.112 17.2031 67.6432 17.3138 67.2461 17.5547C66.849 17.7891 66.5169 18.1081 66.25 18.5117C65.9831 18.9089 65.7715 19.3451 65.6152 19.8203C65.4655 20.2891 65.3613 20.748 65.3027 21.1973L65.2637 21.6074C65.2246 22.0241 65.2376 22.444 65.3027 22.8672C65.3678 23.2904 65.4915 23.6777 65.6738 24.0293C65.8626 24.3743 66.123 24.6576 66.4551 24.8789C66.7871 25.0938 67.1973 25.2077 67.6855 25.2207C68.278 25.2337 68.8086 25.1068 69.2773 24.8398C69.7526 24.5664 70.1855 24.2214 70.5762 23.8047L71.582 24.6641C71.276 25.1133 70.9115 25.4909 70.4883 25.7969C70.0651 26.1029 69.6029 26.3307 69.1016 26.4805C68.6003 26.6302 68.0794 26.7018 67.5391 26.6953ZM79.502 15.9336L79.2578 17.3203H73.7012L73.9453 15.9336H79.502ZM76.2695 13.3652H78.0273L76.2402 23.9023C76.2207 24.1302 76.2272 24.3353 76.2598 24.5176C76.2923 24.6999 76.3704 24.8464 76.4941 24.957C76.6178 25.0612 76.8066 25.1165 77.0605 25.123C77.2038 25.123 77.3438 25.1133 77.4805 25.0938C77.6237 25.0677 77.7669 25.0449 77.9102 25.0254L77.7832 26.5098C77.5749 26.5684 77.36 26.6107 77.1387 26.6367C76.9238 26.6693 76.709 26.6823 76.4941 26.6758C75.9538 26.6693 75.5306 26.5326 75.2246 26.2656C74.9186 25.9987 74.7103 25.6536 74.5996 25.2305C74.4889 24.8073 74.4564 24.3548 74.502 23.873L76.2695 13.3652ZM86.0938 24.6934L86.9727 19.2344C87.0182 18.8307 86.9792 18.4759 86.8555 18.1699C86.7383 17.8639 86.5397 17.6263 86.2598 17.457C85.9863 17.2878 85.6413 17.1966 85.2246 17.1836C84.86 17.1771 84.502 17.2357 84.1504 17.3594C83.8053 17.4831 83.5059 17.6686 83.252 17.916C82.998 18.1634 82.832 18.4759 82.7539 18.8535L80.9961 18.8633C81.0417 18.3359 81.2077 17.877 81.4941 17.4863C81.7806 17.0892 82.1387 16.7604 82.5684 16.5C82.998 16.2331 83.4603 16.0378 83.9551 15.9141C84.4499 15.7839 84.9316 15.722 85.4004 15.7285C86.11 15.7415 86.7253 15.8945 87.2461 16.1875C87.7734 16.474 88.1706 16.8776 88.4375 17.3984C88.7044 17.9193 88.8021 18.5443 88.7305 19.2734L87.9199 24.1953C87.8613 24.5534 87.8255 24.9147 87.8125 25.2793C87.806 25.6374 87.8483 25.9889 87.9395 26.334L87.9199 26.5L86.1328 26.5098C86.0612 26.2103 86.0254 25.9076 86.0254 25.6016C86.0319 25.2956 86.0547 24.9928 86.0938 24.6934ZM87.1777 20.0938L86.9727 21.3633L85.3027 21.3535C84.9512 21.3535 84.5801 21.3796 84.1895 21.4316C83.7988 21.4837 83.4277 21.5814 83.0762 21.7246C82.7246 21.8678 82.4284 22.0762 82.1875 22.3496C81.9466 22.6165 81.8001 22.9648 81.748 23.3945C81.709 23.7461 81.7513 24.0521 81.875 24.3125C82.0052 24.5664 82.2005 24.765 82.4609 24.9082C82.7214 25.0514 83.0241 25.1263 83.3691 25.1328C83.8184 25.1393 84.2611 25.0514 84.6973 24.8691C85.1335 24.6868 85.5143 24.4264 85.8398 24.0879C86.1654 23.7493 86.39 23.3587 86.5137 22.916L87.1582 23.7852C87.0345 24.2148 86.8327 24.612 86.5527 24.9766C86.2728 25.3346 85.9408 25.6439 85.5566 25.9043C85.179 26.1647 84.7721 26.3665 84.3359 26.5098C83.8997 26.653 83.4635 26.7214 83.0273 26.7148C82.4349 26.7018 81.8978 26.5684 81.416 26.3145C80.9408 26.0605 80.5632 25.7057 80.2832 25.25C80.0098 24.7878 79.8926 24.2507 79.9316 23.6387C79.9707 22.9681 80.1465 22.4049 80.459 21.9492C80.7715 21.4935 81.1719 21.1289 81.6602 20.8555C82.1549 20.582 82.6953 20.3867 83.2812 20.2695C83.8672 20.1458 84.4466 20.084 85.0195 20.084L87.1777 20.0938ZM94.0234 15.9336L92.1875 26.5H90.4199L92.2559 15.9336H94.0234ZM92.6074 13.1602C92.6074 12.8542 92.7018 12.6003 92.8906 12.3984C93.0859 12.1901 93.3366 12.0827 93.6426 12.0762C93.9486 12.0697 94.1992 12.1641 94.3945 12.3594C94.5964 12.5547 94.694 12.8021 94.6875 13.1016C94.6875 13.401 94.5866 13.6517 94.3848 13.8535C94.1895 14.0488 93.9421 14.1497 93.6426 14.1562C93.3431 14.1628 93.0957 14.0749 92.9004 13.8926C92.7051 13.7038 92.6074 13.4596 92.6074 13.1602ZM99.5215 11.5L96.9141 26.5H95.1465L97.7441 11.5H99.5215Z" fill="#0F172A"/>
</svg>
