<svg width="108" height="40" viewBox="0 0 108 40" fill="none" xmlns="http://www.w3.org/2000/svg">
<rect width="108" height="40" rx="8" fill="#FFF1AB"/>
<path fill-rule="evenodd" clip-rule="evenodd" d="M17.5 12.5C17.5 10.8431 18.8431 9.5 20.5 9.5H21.8716C22.732 9.5 23.482 10.0856 23.6906 10.9202L24.7964 15.3434C24.9794 16.0753 24.7059 16.8455 24.1024 17.2982L22.8088 18.2684C22.6745 18.3691 22.6453 18.5167 22.683 18.6197C23.8185 21.7195 26.2805 24.1815 29.3803 25.317C29.4833 25.3547 29.6309 25.3255 29.7316 25.1912L30.7018 23.8976C31.1545 23.2941 31.9247 23.0206 32.6566 23.2036L37.0798 24.3094C37.9144 24.518 38.5 25.268 38.5 26.1284V27.5C38.5 29.1569 37.1569 30.5 35.5 30.5H33.25C24.5515 30.5 17.5 23.4485 17.5 14.75V12.5Z" fill="#0F172A"/>
<path fill-rule="evenodd" clip-rule="evenodd" d="M17.5 12.5C17.5 10.8431 18.8431 9.5 20.5 9.5H21.8716C22.732 9.5 23.482 10.0856 23.6906 10.9202L24.7964 15.3434C24.9794 16.0753 24.7059 16.8455 24.1024 17.2982L22.8088 18.2684C22.6745 18.3691 22.6453 18.5167 22.683 18.6197C23.8185 21.7195 26.2805 24.1815 29.3803 25.317C29.4833 25.3547 29.6309 25.3255 29.7316 25.1912L30.7018 23.8976C31.1545 23.2941 31.9247 23.0206 32.6566 23.2036L37.0798 24.3094C37.9144 24.518 38.5 25.268 38.5 26.1284V27.5C38.5 29.1569 37.1569 30.5 35.5 30.5H33.25C24.5515 30.5 17.5 23.4485 17.5 14.75V12.5Z" fill="#0F172A"/>
<path d="M59.6484 21.9883L61.4551 21.9688C61.2598 22.9453 60.8919 23.7917 60.3516 24.5078C59.8177 25.224 59.1439 25.7741 58.3301 26.1582C57.5228 26.5423 56.6178 26.7214 55.6152 26.6953C54.7168 26.6758 53.9616 26.4707 53.3496 26.0801C52.7441 25.6895 52.2689 25.1751 51.9238 24.5371C51.5853 23.8991 51.3607 23.196 51.25 22.4277C51.1458 21.6595 51.1458 20.8848 51.25 20.1035L51.4551 18.6875C51.5853 17.8281 51.8197 17.0013 52.1582 16.207C52.5033 15.4062 52.9492 14.6934 53.4961 14.0684C54.0495 13.4434 54.7005 12.9518 55.4492 12.5938C56.2044 12.2357 57.0605 12.0664 58.0176 12.0859C58.9746 12.1055 59.7754 12.3203 60.4199 12.7305C61.0645 13.1406 61.5527 13.7005 61.8848 14.4102C62.2233 15.1198 62.4056 15.9336 62.4316 16.8516H60.6152C60.5957 16.2526 60.5013 15.7122 60.332 15.2305C60.1628 14.7487 59.8861 14.3646 59.502 14.0781C59.1178 13.7917 58.597 13.6387 57.9395 13.6191C57.2233 13.5996 56.5951 13.7331 56.0547 14.0195C55.5208 14.306 55.0651 14.6966 54.6875 15.1914C54.3099 15.6797 54.0072 16.2266 53.7793 16.832C53.5514 17.4375 53.3887 18.0495 53.291 18.668L53.0762 20.1133C53.0046 20.6276 52.9785 21.1745 52.998 21.7539C53.0176 22.3268 53.112 22.8704 53.2812 23.3848C53.457 23.8926 53.737 24.3125 54.1211 24.6445C54.5117 24.9701 55.0391 25.1426 55.7031 25.1621C56.4323 25.1882 57.054 25.0742 57.5684 24.8203C58.0827 24.5664 58.5091 24.1986 58.8477 23.7168C59.1862 23.2285 59.4531 22.6523 59.6484 21.9883ZM65.6836 12.2812L70.1367 12.291C71.0026 12.3105 71.7676 12.4766 72.4316 12.7891C73.0957 13.1016 73.6003 13.5638 73.9453 14.1758C74.2969 14.7812 74.4336 15.5462 74.3555 16.4707C74.2904 17.2064 74.082 17.8411 73.7305 18.375C73.3854 18.9023 72.9395 19.3451 72.3926 19.7031C71.8457 20.0547 71.2402 20.3346 70.5762 20.543L70.0293 20.7383H65.6152L65.8691 19.2051L69.0039 19.2148C69.5768 19.2148 70.1139 19.1107 70.6152 18.9023C71.123 18.694 71.5462 18.388 71.8848 17.9844C72.2298 17.5742 72.4414 17.0697 72.5195 16.4707C72.5911 15.8978 72.5358 15.4193 72.3535 15.0352C72.1712 14.651 71.8848 14.3581 71.4941 14.1562C71.11 13.9544 70.6445 13.847 70.0977 13.834L67.2559 13.8242L65.0586 26.5H63.2129L65.6836 12.2812ZM71.3281 26.5L69.0918 20.0547L70.9082 20.0449L73.291 26.373L73.2812 26.5H71.3281ZM78.252 12.2812H79.9512L82.4609 23.8535L88.9746 12.2812H90.8496L82.7734 26.5H81.377L78.252 12.2812ZM77.6367 12.2812H79.209L77.959 21.0117L77.002 26.5H75.166L77.6367 12.2812ZM89.7949 12.2812H91.377L88.9062 26.5H87.0801L88.0566 20.8555L89.7949 12.2812Z" fill="#0F172A"/>
</svg>
