<svg width="159" height="40" viewBox="0 0 159 40" fill="none" xmlns="http://www.w3.org/2000/svg">
<rect width="158.8" height="40" rx="8" fill="#CAC3FF"/>
<path d="M27.9704 10.376C28.2307 10.208 28.5698 10.208 28.8302 10.376L38.1302 16.376C38.4863 16.6057 38.5825 17.0714 38.3451 17.416C38.1077 17.7607 37.6265 17.8538 37.2704 17.624L28.4003 11.9014L19.5302 17.624C19.174 17.8538 18.6929 17.7607 18.4554 17.416C18.218 17.0714 18.3143 16.6057 18.6704 16.376L27.9704 10.376Z" fill="#0F172A"/>
<path fill-rule="evenodd" clip-rule="evenodd" d="M36.9252 18.3325V28.25H37.7002C38.1282 28.25 38.4752 28.5858 38.4752 29C38.4752 29.4142 38.1282 29.75 37.7002 29.75H19.1002C18.6722 29.75 18.3252 29.4142 18.3252 29C18.3252 28.5858 18.6722 28.25 19.1002 28.25H19.8752V18.3325C19.8752 17.9632 20.153 17.6488 20.5301 17.5916C23.0948 17.2021 25.7234 17 28.4002 17C31.077 17 33.7056 17.2021 36.2703 17.5916C36.6474 17.6488 36.9252 17.9632 36.9252 18.3325ZM29.1752 20.75C29.1752 20.3358 28.8282 20 28.4002 20C27.9722 20 27.6252 20.3358 27.6252 20.75V27.5C27.6252 27.9142 27.9722 28.25 28.4002 28.25C28.8282 28.25 29.1752 27.9142 29.1752 27.5V20.75ZM32.2752 20C32.7032 20 33.0502 20.3358 33.0502 20.75V27.5C33.0502 27.9142 32.7032 28.25 32.2752 28.25C31.8472 28.25 31.5002 27.9142 31.5002 27.5V20.75C31.5002 20.3358 31.8472 20 32.2752 20ZM25.3002 20.75C25.3002 20.3358 24.9532 20 24.5252 20C24.0972 20 23.7502 20.3358 23.7502 20.75V27.5C23.7502 27.9142 24.0972 28.25 24.5252 28.25C24.9532 28.25 25.3002 27.9142 25.3002 27.5V20.75Z" fill="#0F172A"/>
<path d="M28.4002 15.875C29.0422 15.875 29.5627 15.3713 29.5627 14.75C29.5627 14.1287 29.0422 13.625 28.4002 13.625C27.7582 13.625 27.2377 14.1287 27.2377 14.75C27.2377 15.3713 27.7582 15.875 28.4002 15.875Z" fill="#0F172A"/>
<path d="M58.7295 13.6484L51.9717 26.5H50.0088L57.7432 12.2812H59.0029L58.7295 13.6484ZM60.3506 26.5L57.9971 13.4336L58.1826 12.2812H59.3545L62.1572 26.5H60.3506ZM61.0049 21.2363L60.7314 22.7793H52.9678L53.2412 21.2363H61.0049ZM70.292 23.6387C70.3506 23.235 70.2757 22.9193 70.0674 22.6914C69.8656 22.4635 69.5986 22.291 69.2666 22.1738C68.9411 22.0501 68.6221 21.9492 68.3096 21.8711C67.9189 21.7734 67.5251 21.653 67.1279 21.5098C66.7308 21.3665 66.3662 21.1842 66.0342 20.9629C65.7087 20.735 65.4482 20.4551 65.2529 20.123C65.0641 19.7845 64.9795 19.3743 64.999 18.8926C65.0251 18.3717 65.1618 17.9128 65.4092 17.5156C65.6631 17.1185 65.9886 16.7865 66.3857 16.5195C66.7894 16.2526 67.2288 16.054 67.7041 15.9238C68.1794 15.7936 68.6514 15.7318 69.1201 15.7383C69.7842 15.7513 70.3864 15.888 70.9268 16.1484C71.4736 16.4089 71.9066 16.7832 72.2256 17.2715C72.5446 17.7598 72.6943 18.3522 72.6748 19.0488L70.9268 19.0391C70.9398 18.668 70.8649 18.349 70.7021 18.082C70.5394 17.8151 70.3148 17.61 70.0283 17.4668C69.7419 17.3171 69.4163 17.2389 69.0518 17.2324C68.7067 17.2259 68.3682 17.2812 68.0361 17.3984C67.7041 17.5091 67.4209 17.6849 67.1865 17.9258C66.9521 18.1602 66.8089 18.4661 66.7568 18.8438C66.7178 19.1237 66.7601 19.3548 66.8838 19.5371C67.0075 19.7129 67.1768 19.8561 67.3916 19.9668C67.613 20.071 67.8441 20.1589 68.085 20.2305C68.3324 20.2956 68.557 20.3542 68.7588 20.4062C69.2926 20.556 69.82 20.7448 70.3408 20.9727C70.8617 21.2005 71.2848 21.5163 71.6104 21.9199C71.9359 22.3171 72.0824 22.8411 72.0498 23.4922C72.0238 24.0456 71.8773 24.5273 71.6104 24.9375C71.3499 25.3411 71.0114 25.6764 70.5947 25.9434C70.1846 26.2038 69.7321 26.3958 69.2373 26.5195C68.7425 26.6432 68.2477 26.7018 67.7529 26.6953C67.0693 26.6823 66.4313 26.5423 65.8389 26.2754C65.2529 26.002 64.7842 25.6113 64.4326 25.1035C64.0811 24.5892 63.915 23.9642 63.9346 23.2285L65.7021 23.2383C65.7021 23.6615 65.79 24.0195 65.9658 24.3125C66.1481 24.599 66.3988 24.8171 66.7178 24.9668C67.0368 25.1165 67.4014 25.1947 67.8115 25.2012C68.1566 25.2077 68.5081 25.1621 68.8662 25.0645C69.2308 24.9668 69.5433 24.804 69.8037 24.5762C70.0706 24.3418 70.2334 24.0293 70.292 23.6387ZM80.3115 23.6387C80.3701 23.235 80.2952 22.9193 80.0869 22.6914C79.8851 22.4635 79.6182 22.291 79.2861 22.1738C78.9606 22.0501 78.6416 21.9492 78.3291 21.8711C77.9385 21.7734 77.5446 21.653 77.1475 21.5098C76.7503 21.3665 76.3857 21.1842 76.0537 20.9629C75.7282 20.735 75.4678 20.4551 75.2725 20.123C75.0837 19.7845 74.999 19.3743 75.0186 18.8926C75.0446 18.3717 75.1813 17.9128 75.4287 17.5156C75.6826 17.1185 76.0081 16.7865 76.4053 16.5195C76.8089 16.2526 77.2484 16.054 77.7236 15.9238C78.1989 15.7936 78.6709 15.7318 79.1396 15.7383C79.8037 15.7513 80.4059 15.888 80.9463 16.1484C81.4932 16.4089 81.9261 16.7832 82.2451 17.2715C82.5641 17.7598 82.7139 18.3522 82.6943 19.0488L80.9463 19.0391C80.9593 18.668 80.8844 18.349 80.7217 18.082C80.5589 17.8151 80.3343 17.61 80.0479 17.4668C79.7614 17.3171 79.4359 17.2389 79.0713 17.2324C78.7262 17.2259 78.3877 17.2812 78.0557 17.3984C77.7236 17.5091 77.4404 17.6849 77.2061 17.9258C76.9717 18.1602 76.8285 18.4661 76.7764 18.8438C76.7373 19.1237 76.7796 19.3548 76.9033 19.5371C77.027 19.7129 77.1963 19.8561 77.4111 19.9668C77.6325 20.071 77.8636 20.1589 78.1045 20.2305C78.3519 20.2956 78.5765 20.3542 78.7783 20.4062C79.3122 20.556 79.8395 20.7448 80.3604 20.9727C80.8812 21.2005 81.3044 21.5163 81.6299 21.9199C81.9554 22.3171 82.1019 22.8411 82.0693 23.4922C82.0433 24.0456 81.8968 24.5273 81.6299 24.9375C81.3695 25.3411 81.0309 25.6764 80.6143 25.9434C80.2041 26.2038 79.7516 26.3958 79.2568 26.5195C78.762 26.6432 78.2673 26.7018 77.7725 26.6953C77.0889 26.6823 76.4508 26.5423 75.8584 26.2754C75.2725 26.002 74.8037 25.6113 74.4521 25.1035C74.1006 24.5892 73.9346 23.9642 73.9541 23.2285L75.7217 23.2383C75.7217 23.6615 75.8096 24.0195 75.9854 24.3125C76.1676 24.599 76.4183 24.8171 76.7373 24.9668C77.0563 25.1165 77.4209 25.1947 77.8311 25.2012C78.1761 25.2077 78.5277 25.1621 78.8857 25.0645C79.2503 24.9668 79.5628 24.804 79.8232 24.5762C80.0902 24.3418 80.2529 24.0293 80.3115 23.6387ZM90.5264 23.9609L91.9131 15.9336H93.6904L91.8545 26.5H90.165L90.5264 23.9609ZM91.1904 21.832L91.9131 21.8027C91.8285 22.4668 91.6787 23.0983 91.4639 23.6973C91.249 24.2897 90.9561 24.8171 90.585 25.2793C90.2204 25.735 89.7646 26.0931 89.2178 26.3535C88.6774 26.6074 88.0361 26.7246 87.2939 26.7051C86.7145 26.6855 86.2295 26.5684 85.8389 26.3535C85.4548 26.1387 85.152 25.849 84.9307 25.4844C84.7093 25.1198 84.5628 24.7031 84.4912 24.2344C84.4196 23.7656 84.4098 23.2708 84.4619 22.75L85.6045 15.9336H87.3721L86.2295 22.7793C86.2035 23.0658 86.2002 23.349 86.2197 23.6289C86.2393 23.9023 86.2979 24.153 86.3955 24.3809C86.4932 24.6087 86.6429 24.7943 86.8447 24.9375C87.0531 25.0742 87.3265 25.1491 87.665 25.1621C88.3682 25.1882 88.9639 25.0579 89.4521 24.7715C89.9404 24.4785 90.3278 24.0749 90.6143 23.5605C90.9007 23.0462 91.0928 22.4701 91.1904 21.832ZM97.8115 17.6719L96.2783 26.5H94.5107L96.3467 15.9336H98.0654L97.8115 17.6719ZM101.239 15.8457L101.073 17.5449C100.937 17.5189 100.797 17.4961 100.653 17.4766C100.517 17.457 100.38 17.4473 100.243 17.4473C99.82 17.4408 99.4391 17.5059 99.1006 17.6426C98.7686 17.7728 98.4723 17.9583 98.2119 18.1992C97.958 18.4401 97.7399 18.7233 97.5576 19.0488C97.3818 19.3743 97.2419 19.7259 97.1377 20.1035L96.5811 20.3965C96.6527 19.8691 96.7699 19.3288 96.9326 18.7754C97.1019 18.222 97.333 17.7109 97.626 17.2422C97.9255 16.7734 98.2998 16.3958 98.749 16.1094C99.2048 15.8229 99.7516 15.6895 100.39 15.709C100.533 15.709 100.673 15.722 100.81 15.748C100.953 15.7741 101.096 15.8066 101.239 15.8457ZM107.089 24.6934L107.968 19.2344C108.013 18.8307 107.974 18.4759 107.851 18.1699C107.733 17.8639 107.535 17.6263 107.255 17.457C106.981 17.2878 106.636 17.1966 106.22 17.1836C105.855 17.1771 105.497 17.2357 105.146 17.3594C104.8 17.4831 104.501 17.6686 104.247 17.916C103.993 18.1634 103.827 18.4759 103.749 18.8535L101.991 18.8633C102.037 18.3359 102.203 17.877 102.489 17.4863C102.776 17.0892 103.134 16.7604 103.563 16.5C103.993 16.2331 104.455 16.0378 104.95 15.9141C105.445 15.7839 105.927 15.722 106.396 15.7285C107.105 15.7415 107.72 15.8945 108.241 16.1875C108.769 16.474 109.166 16.8776 109.433 17.3984C109.7 17.9193 109.797 18.5443 109.726 19.2734L108.915 24.1953C108.856 24.5534 108.821 24.9147 108.808 25.2793C108.801 25.6374 108.843 25.9889 108.935 26.334L108.915 26.5L107.128 26.5098C107.056 26.2103 107.021 25.9076 107.021 25.6016C107.027 25.2956 107.05 24.9928 107.089 24.6934ZM108.173 20.0938L107.968 21.3633L106.298 21.3535C105.946 21.3535 105.575 21.3796 105.185 21.4316C104.794 21.4837 104.423 21.5814 104.071 21.7246C103.72 21.8678 103.424 22.0762 103.183 22.3496C102.942 22.6165 102.795 22.9648 102.743 23.3945C102.704 23.7461 102.746 24.0521 102.87 24.3125C103 24.5664 103.196 24.765 103.456 24.9082C103.716 25.0514 104.019 25.1263 104.364 25.1328C104.813 25.1393 105.256 25.0514 105.692 24.8691C106.129 24.6868 106.509 24.4264 106.835 24.0879C107.16 23.7493 107.385 23.3587 107.509 22.916L108.153 23.7852C108.03 24.2148 107.828 24.612 107.548 24.9766C107.268 25.3346 106.936 25.6439 106.552 25.9043C106.174 26.1647 105.767 26.3665 105.331 26.5098C104.895 26.653 104.459 26.7214 104.022 26.7148C103.43 26.7018 102.893 26.5684 102.411 26.3145C101.936 26.0605 101.558 25.7057 101.278 25.25C101.005 24.7878 100.888 24.2507 100.927 23.6387C100.966 22.9681 101.142 22.4049 101.454 21.9492C101.767 21.4935 102.167 21.1289 102.655 20.8555C103.15 20.582 103.69 20.3867 104.276 20.2695C104.862 20.1458 105.442 20.084 106.015 20.084L108.173 20.0938ZM114.462 18.2969L113.036 26.5H111.269L113.104 15.9336H114.774L114.462 18.2969ZM113.642 20.8164L112.919 20.7969C113.01 20.1654 113.176 19.5469 113.417 18.9414C113.664 18.3294 113.987 17.7793 114.384 17.291C114.787 16.8027 115.266 16.4186 115.819 16.1387C116.379 15.8522 117.017 15.7188 117.733 15.7383C118.3 15.7513 118.772 15.862 119.149 16.0703C119.534 16.2721 119.833 16.5488 120.048 16.9004C120.263 17.252 120.406 17.6589 120.478 18.1211C120.549 18.5768 120.556 19.0618 120.497 19.5762L119.345 26.5H117.567L118.739 19.5469C118.785 19.1237 118.769 18.7428 118.69 18.4043C118.619 18.0592 118.456 17.7858 118.202 17.584C117.955 17.3757 117.597 17.265 117.128 17.252C116.633 17.2389 116.187 17.3333 115.79 17.5352C115.393 17.737 115.045 18.0137 114.745 18.3652C114.452 18.7103 114.211 19.0977 114.022 19.5273C113.84 19.9505 113.713 20.3802 113.642 20.8164ZM126.396 25.2207C126.825 25.2272 127.226 25.1458 127.597 24.9766C127.968 24.8073 128.284 24.5664 128.544 24.2539C128.804 23.9414 128.99 23.5801 129.101 23.1699L130.78 23.1602C130.676 23.8698 130.399 24.4915 129.95 25.0254C129.507 25.5592 128.964 25.9759 128.319 26.2754C127.681 26.5684 127.014 26.7083 126.317 26.6953C125.575 26.6823 124.944 26.5293 124.423 26.2363C123.909 25.9368 123.495 25.5397 123.183 25.0449C122.87 24.5501 122.655 23.9935 122.538 23.375C122.421 22.75 122.395 22.1087 122.46 21.4512L122.499 21.0312C122.577 20.3216 122.75 19.6478 123.017 19.0098C123.284 18.3652 123.638 17.7956 124.081 17.3008C124.53 16.7995 125.061 16.4089 125.673 16.1289C126.285 15.849 126.972 15.7188 127.733 15.7383C128.476 15.7513 129.12 15.9271 129.667 16.2656C130.214 16.5977 130.637 17.0501 130.937 17.623C131.236 18.196 131.386 18.847 131.386 19.5762L129.726 19.5664C129.719 19.1497 129.638 18.7656 129.481 18.4141C129.325 18.0625 129.094 17.7793 128.788 17.5645C128.482 17.3496 128.104 17.2324 127.655 17.2129C127.115 17.1999 126.643 17.3008 126.239 17.5156C125.842 17.7305 125.504 18.0267 125.224 18.4043C124.95 18.7754 124.732 19.1888 124.569 19.6445C124.413 20.1003 124.306 20.5625 124.247 21.0312L124.198 21.4414C124.159 21.8581 124.153 22.2845 124.179 22.7207C124.211 23.1569 124.302 23.5638 124.452 23.9414C124.602 24.3125 124.833 24.6152 125.146 24.8496C125.458 25.084 125.875 25.2077 126.396 25.2207ZM136.62 26.6953C135.897 26.6823 135.269 26.5391 134.735 26.2656C134.208 25.9857 133.775 25.6113 133.437 25.1426C133.104 24.6673 132.867 24.127 132.724 23.5215C132.58 22.916 132.538 22.2812 132.597 21.6172L132.636 21.1973C132.701 20.5202 132.867 19.8561 133.134 19.2051C133.401 18.5475 133.756 17.9551 134.198 17.4277C134.647 16.9004 135.175 16.4837 135.78 16.1777C136.392 15.8652 137.069 15.7188 137.812 15.7383C138.547 15.7513 139.159 15.9076 139.647 16.207C140.136 16.5065 140.517 16.9036 140.79 17.3984C141.07 17.8867 141.252 18.4368 141.337 19.0488C141.422 19.6543 141.428 20.276 141.356 20.9141L141.249 21.7246H133.583L133.817 20.25L139.667 20.2598L139.696 20.1035C139.761 19.6348 139.735 19.1823 139.618 18.7461C139.501 18.3099 139.286 17.9518 138.974 17.6719C138.668 17.3854 138.254 17.2357 137.733 17.2227C137.193 17.2031 136.724 17.3138 136.327 17.5547C135.93 17.7891 135.598 18.1081 135.331 18.5117C135.064 18.9089 134.853 19.3451 134.696 19.8203C134.547 20.2891 134.442 20.748 134.384 21.1973L134.345 21.6074C134.306 22.0241 134.319 22.444 134.384 22.8672C134.449 23.2904 134.573 23.6777 134.755 24.0293C134.944 24.3743 135.204 24.6576 135.536 24.8789C135.868 25.0938 136.278 25.2077 136.767 25.2207C137.359 25.2337 137.89 25.1068 138.358 24.8398C138.834 24.5664 139.267 24.2214 139.657 23.8047L140.663 24.6641C140.357 25.1133 139.993 25.4909 139.569 25.7969C139.146 26.1029 138.684 26.3307 138.183 26.4805C137.681 26.6302 137.16 26.7018 136.62 26.6953Z" fill="#0F172A"/>
</svg>
