<svg width="227" height="40" viewBox="0 0 227 40" fill="none" xmlns="http://www.w3.org/2000/svg">
<rect width="227" height="40" rx="8" fill="#BCFFAB"/>
<path fill-rule="evenodd" clip-rule="evenodd" d="M28 9.5C28.4142 9.5 28.75 9.83579 28.75 10.25V12.5C28.75 12.9142 28.4142 13.25 28 13.25C27.5858 13.25 27.25 12.9142 27.25 12.5V10.25C27.25 9.83579 27.5858 9.5 28 9.5ZM21.636 12.136C21.9289 11.8431 22.4038 11.8431 22.6967 12.136L24.2877 13.727C24.5806 14.0199 24.5806 14.4948 24.2877 14.7877C23.9948 15.0806 23.5199 15.0806 23.227 14.7877L21.636 13.1967C21.3431 12.9038 21.3431 12.4289 21.636 12.136ZM34.364 12.136C34.6569 12.4289 34.6569 12.9038 34.364 13.1967L32.773 14.7877C32.4801 15.0806 32.0052 15.0806 31.7123 14.7877C31.4194 14.4948 31.4194 14.0199 31.7123 13.727L33.3033 12.136C33.5962 11.8431 34.0711 11.8431 34.364 12.136ZM27.5484 16.6318C27.8602 16.5482 28.1905 16.6736 28.3684 16.943L33.5955 24.8599C33.7627 25.113 33.7609 25.4419 33.591 25.6932C33.421 25.9445 33.1165 26.0687 32.8193 26.0079L30.722 25.5787L31.7668 29.4777C31.874 29.8778 31.6365 30.289 31.2364 30.3963C30.8363 30.5035 30.4251 30.266 30.3179 29.8659L29.2732 25.967L27.6717 27.3872C27.4447 27.5884 27.1189 27.6332 26.8461 27.5005C26.5733 27.3678 26.4073 27.0839 26.4254 26.7811L26.9939 17.3113C27.0132 16.9891 27.2366 16.7153 27.5484 16.6318ZM19 18.5C19 18.0858 19.3358 17.75 19.75 17.75H22C22.4142 17.75 22.75 18.0858 22.75 18.5C22.75 18.9142 22.4142 19.25 22 19.25H19.75C19.3358 19.25 19 18.9142 19 18.5ZM33.25 18.5C33.25 18.0858 33.5858 17.75 34 17.75H36.25C36.6642 17.75 37 18.0858 37 18.5C37 18.9142 36.6642 19.25 36.25 19.25H34C33.5858 19.25 33.25 18.9142 33.25 18.5ZM24.2877 22.2123C24.5806 22.5052 24.5806 22.9801 24.2877 23.273L22.6967 24.864C22.4038 25.1569 21.9289 25.1569 21.636 24.864C21.3431 24.5711 21.3431 24.0962 21.636 23.8033L23.227 22.2123C23.5199 21.9194 23.9948 21.9194 24.2877 22.2123Z" fill="#0F172A"/>
<path d="M58.5547 22.8379C58.6133 22.4082 58.571 22.0501 58.4277 21.7637C58.2845 21.4707 58.0762 21.2266 57.8027 21.0312C57.5293 20.8294 57.2233 20.6634 56.8848 20.5332C56.5462 20.3965 56.2077 20.2695 55.8691 20.1523C55.3809 19.9831 54.8991 19.7845 54.4238 19.5566C53.9551 19.3288 53.5319 19.0553 53.1543 18.7363C52.7767 18.4108 52.4805 18.0267 52.2656 17.584C52.0573 17.1413 51.9759 16.6237 52.0215 16.0312C52.0736 15.3737 52.2591 14.7975 52.5781 14.3027C52.8971 13.8014 53.304 13.3848 53.7988 13.0527C54.2936 12.7207 54.8372 12.4733 55.4297 12.3105C56.0221 12.1478 56.6211 12.0729 57.2266 12.0859C58.0664 12.1055 58.8184 12.2943 59.4824 12.6523C60.1465 13.0039 60.6641 13.4987 61.0352 14.1367C61.4062 14.7747 61.569 15.5267 61.5234 16.3926L59.6875 16.3828C59.7331 15.8164 59.6615 15.3314 59.4727 14.9277C59.2839 14.5176 58.9909 14.2018 58.5938 13.9805C58.2031 13.7591 57.7214 13.6419 57.1484 13.6289C56.6276 13.6159 56.1296 13.694 55.6543 13.8633C55.1855 14.0326 54.7884 14.2962 54.4629 14.6543C54.1374 15.0059 53.9388 15.4583 53.8672 16.0117C53.8151 16.3958 53.8672 16.7246 54.0234 16.998C54.1797 17.2715 54.3945 17.5026 54.668 17.6914C54.9479 17.8802 55.2507 18.0397 55.5762 18.1699C55.9082 18.3001 56.224 18.4141 56.5234 18.5117C57.0443 18.6875 57.5456 18.8958 58.0273 19.1367C58.5156 19.3711 58.9453 19.6576 59.3164 19.9961C59.694 20.3281 59.9805 20.7253 60.1758 21.1875C60.3776 21.6497 60.4525 22.1934 60.4004 22.8184C60.3418 23.4954 60.1497 24.0814 59.8242 24.5762C59.4987 25.071 59.082 25.4779 58.5742 25.7969C58.0664 26.1094 57.5098 26.3405 56.9043 26.4902C56.2988 26.64 55.6901 26.7083 55.0781 26.6953C54.4401 26.6888 53.8346 26.5879 53.2617 26.3926C52.6953 26.1908 52.194 25.9043 51.7578 25.5332C51.3216 25.1621 50.9863 24.7129 50.752 24.1855C50.5176 23.6517 50.4167 23.0462 50.4492 22.3691L52.2754 22.3789C52.2428 22.8346 52.2917 23.235 52.4219 23.5801C52.5521 23.9251 52.7474 24.2148 53.0078 24.4492C53.2747 24.6771 53.5905 24.8529 53.9551 24.9766C54.3197 25.0938 54.7201 25.1556 55.1562 25.1621C55.6706 25.1751 56.1719 25.1035 56.6602 24.9473C57.1549 24.791 57.5749 24.5404 57.9199 24.1953C58.265 23.8503 58.4766 23.3978 58.5547 22.8379ZM66.3086 26.6953C65.5859 26.6823 64.9577 26.5391 64.4238 26.2656C63.8965 25.9857 63.4635 25.6113 63.125 25.1426C62.793 24.6673 62.5553 24.127 62.4121 23.5215C62.2689 22.916 62.2266 22.2812 62.2852 21.6172L62.3242 21.1973C62.3893 20.5202 62.5553 19.8561 62.8223 19.2051C63.0892 18.5475 63.444 17.9551 63.8867 17.4277C64.3359 16.9004 64.8633 16.4837 65.4688 16.1777C66.0807 15.8652 66.7578 15.7188 67.5 15.7383C68.2357 15.7513 68.8477 15.9076 69.3359 16.207C69.8242 16.5065 70.2051 16.9036 70.4785 17.3984C70.7585 17.8867 70.9408 18.4368 71.0254 19.0488C71.11 19.6543 71.1165 20.276 71.0449 20.9141L70.9375 21.7246H63.2715L63.5059 20.25L69.3555 20.2598L69.3848 20.1035C69.4499 19.6348 69.4238 19.1823 69.3066 18.7461C69.1895 18.3099 68.9746 17.9518 68.6621 17.6719C68.3561 17.3854 67.9427 17.2357 67.4219 17.2227C66.8815 17.2031 66.4128 17.3138 66.0156 17.5547C65.6185 17.7891 65.2865 18.1081 65.0195 18.5117C64.7526 18.9089 64.541 19.3451 64.3848 19.8203C64.235 20.2891 64.1309 20.748 64.0723 21.1973L64.0332 21.6074C63.9941 22.0241 64.0072 22.444 64.0723 22.8672C64.1374 23.2904 64.2611 23.6777 64.4434 24.0293C64.6322 24.3743 64.8926 24.6576 65.2246 24.8789C65.5566 25.0938 65.9668 25.2077 66.4551 25.2207C67.0475 25.2337 67.5781 25.1068 68.0469 24.8398C68.5221 24.5664 68.9551 24.2214 69.3457 23.8047L70.3516 24.6641C70.0456 25.1133 69.681 25.4909 69.2578 25.7969C68.8346 26.1029 68.3724 26.3307 67.8711 26.4805C67.3698 26.6302 66.849 26.7018 66.3086 26.6953ZM75.4297 17.6719L73.8965 26.5H72.1289L73.9648 15.9336H75.6836L75.4297 17.6719ZM78.8574 15.8457L78.6914 17.5449C78.5547 17.5189 78.4147 17.4961 78.2715 17.4766C78.1348 17.457 77.998 17.4473 77.8613 17.4473C77.4382 17.4408 77.0573 17.5059 76.7188 17.6426C76.3867 17.7728 76.0905 17.9583 75.8301 18.1992C75.5762 18.4401 75.3581 18.7233 75.1758 19.0488C75 19.3743 74.86 19.7259 74.7559 20.1035L74.1992 20.3965C74.2708 19.8691 74.388 19.3288 74.5508 18.7754C74.7201 18.222 74.9512 17.7109 75.2441 17.2422C75.5436 16.7734 75.918 16.3958 76.3672 16.1094C76.8229 15.8229 77.3698 15.6895 78.0078 15.709C78.151 15.709 78.291 15.722 78.4277 15.748C78.571 15.7741 78.7142 15.8066 78.8574 15.8457ZM82.373 24.7812L86.5332 15.9336H88.3984L83.0566 26.5H81.8164L82.373 24.7812ZM81.3965 15.9336L82.9004 25.0059L82.8516 26.5H81.7188L79.6484 15.9336H81.3965ZM92.0312 15.9336L90.1953 26.5H88.4277L90.2637 15.9336H92.0312ZM90.6152 13.1602C90.6152 12.8542 90.7096 12.6003 90.8984 12.3984C91.0938 12.1901 91.3444 12.0827 91.6504 12.0762C91.9564 12.0697 92.207 12.1641 92.4023 12.3594C92.6042 12.5547 92.7018 12.8021 92.6953 13.1016C92.6953 13.401 92.5944 13.6517 92.3926 13.8535C92.1973 14.0488 91.9499 14.1497 91.6504 14.1562C91.3509 14.1628 91.1035 14.0749 90.9082 13.8926C90.7129 13.7038 90.6152 13.4596 90.6152 13.1602ZM97.4121 25.2207C97.8418 25.2272 98.2422 25.1458 98.6133 24.9766C98.9844 24.8073 99.3001 24.5664 99.5605 24.2539C99.821 23.9414 100.007 23.5801 100.117 23.1699L101.797 23.1602C101.693 23.8698 101.416 24.4915 100.967 25.0254C100.524 25.5592 99.9805 25.9759 99.3359 26.2754C98.6979 26.5684 98.0306 26.7083 97.334 26.6953C96.5918 26.6823 95.9603 26.5293 95.4395 26.2363C94.9251 25.9368 94.5117 25.5397 94.1992 25.0449C93.8867 24.5501 93.6719 23.9935 93.5547 23.375C93.4375 22.75 93.4115 22.1087 93.4766 21.4512L93.5156 21.0312C93.5938 20.3216 93.7663 19.6478 94.0332 19.0098C94.3001 18.3652 94.6549 17.7956 95.0977 17.3008C95.5469 16.7995 96.0775 16.4089 96.6895 16.1289C97.3014 15.849 97.9883 15.7188 98.75 15.7383C99.4922 15.7513 100.137 15.9271 100.684 16.2656C101.23 16.5977 101.654 17.0501 101.953 17.623C102.253 18.196 102.402 18.847 102.402 19.5762L100.742 19.5664C100.736 19.1497 100.654 18.7656 100.498 18.4141C100.342 18.0625 100.111 17.7793 99.8047 17.5645C99.4987 17.3496 99.1211 17.2324 98.6719 17.2129C98.1315 17.1999 97.6595 17.3008 97.2559 17.5156C96.8587 17.7305 96.5202 18.0267 96.2402 18.4043C95.9668 18.7754 95.7487 19.1888 95.5859 19.6445C95.4297 20.1003 95.3223 20.5625 95.2637 21.0312L95.2148 21.4414C95.1758 21.8581 95.1693 22.2845 95.1953 22.7207C95.2279 23.1569 95.319 23.5638 95.4688 23.9414C95.6185 24.3125 95.8496 24.6152 96.1621 24.8496C96.4746 25.084 96.8913 25.2077 97.4121 25.2207ZM107.637 26.6953C106.914 26.6823 106.286 26.5391 105.752 26.2656C105.225 25.9857 104.792 25.6113 104.453 25.1426C104.121 24.6673 103.883 24.127 103.74 23.5215C103.597 22.916 103.555 22.2812 103.613 21.6172L103.652 21.1973C103.717 20.5202 103.883 19.8561 104.15 19.2051C104.417 18.5475 104.772 17.9551 105.215 17.4277C105.664 16.9004 106.191 16.4837 106.797 16.1777C107.409 15.8652 108.086 15.7188 108.828 15.7383C109.564 15.7513 110.176 15.9076 110.664 16.207C111.152 16.5065 111.533 16.9036 111.807 17.3984C112.087 17.8867 112.269 18.4368 112.354 19.0488C112.438 19.6543 112.445 20.276 112.373 20.9141L112.266 21.7246H104.6L104.834 20.25L110.684 20.2598L110.713 20.1035C110.778 19.6348 110.752 19.1823 110.635 18.7461C110.518 18.3099 110.303 17.9518 109.99 17.6719C109.684 17.3854 109.271 17.2357 108.75 17.2227C108.21 17.2031 107.741 17.3138 107.344 17.5547C106.947 17.7891 106.615 18.1081 106.348 18.5117C106.081 18.9089 105.869 19.3451 105.713 19.8203C105.563 20.2891 105.459 20.748 105.4 21.1973L105.361 21.6074C105.322 22.0241 105.335 22.444 105.4 22.8672C105.465 23.2904 105.589 23.6777 105.771 24.0293C105.96 24.3743 106.221 24.6576 106.553 24.8789C106.885 25.0938 107.295 25.2077 107.783 25.2207C108.376 25.2337 108.906 25.1068 109.375 24.8398C109.85 24.5664 110.283 24.2214 110.674 23.8047L111.68 24.6641C111.374 25.1133 111.009 25.4909 110.586 25.7969C110.163 26.1029 109.701 26.3307 109.199 26.4805C108.698 26.6302 108.177 26.7018 107.637 26.6953ZM121.572 18.2969L120.146 26.5H118.379L120.215 15.9336H121.885L121.572 18.2969ZM120.752 20.8164L120.029 20.7969C120.12 20.1654 120.286 19.5469 120.527 18.9414C120.775 18.3294 121.097 17.7793 121.494 17.291C121.898 16.8027 122.376 16.4186 122.93 16.1387C123.49 15.8522 124.128 15.7188 124.844 15.7383C125.41 15.7513 125.882 15.862 126.26 16.0703C126.644 16.2721 126.943 16.5488 127.158 16.9004C127.373 17.252 127.516 17.6589 127.588 18.1211C127.66 18.5768 127.666 19.0618 127.607 19.5762L126.455 26.5H124.678L125.85 19.5469C125.895 19.1237 125.879 18.7428 125.801 18.4043C125.729 18.0592 125.566 17.7858 125.312 17.584C125.065 17.3757 124.707 17.265 124.238 17.252C123.743 17.2389 123.298 17.3333 122.9 17.5352C122.503 17.737 122.155 18.0137 121.855 18.3652C121.562 18.7103 121.322 19.0977 121.133 19.5273C120.951 19.9505 120.824 20.3802 120.752 20.8164ZM135.82 23.9609L137.207 15.9336H138.984L137.148 26.5H135.459L135.82 23.9609ZM136.484 21.832L137.207 21.8027C137.122 22.4668 136.973 23.0983 136.758 23.6973C136.543 24.2897 136.25 24.8171 135.879 25.2793C135.514 25.735 135.059 26.0931 134.512 26.3535C133.971 26.6074 133.33 26.7246 132.588 26.7051C132.008 26.6855 131.523 26.5684 131.133 26.3535C130.749 26.1387 130.446 25.849 130.225 25.4844C130.003 25.1198 129.857 24.7031 129.785 24.2344C129.714 23.7656 129.704 23.2708 129.756 22.75L130.898 15.9336H132.666L131.523 22.7793C131.497 23.0658 131.494 23.349 131.514 23.6289C131.533 23.9023 131.592 24.153 131.689 24.3809C131.787 24.6087 131.937 24.7943 132.139 24.9375C132.347 25.0742 132.62 25.1491 132.959 25.1621C133.662 25.1882 134.258 25.0579 134.746 24.7715C135.234 24.4785 135.622 24.0749 135.908 23.5605C136.195 23.0462 136.387 22.4701 136.484 21.832ZM143.008 18.1406L141.562 26.5H139.785L141.621 15.9336H143.301L143.008 18.1406ZM142.217 20.8164L141.416 20.7969C141.507 20.1393 141.67 19.5046 141.904 18.8926C142.139 18.2806 142.451 17.7337 142.842 17.252C143.239 16.7702 143.717 16.3926 144.277 16.1191C144.837 15.8457 145.485 15.7188 146.221 15.7383C146.768 15.7513 147.23 15.8587 147.607 16.0605C147.985 16.2559 148.288 16.526 148.516 16.8711C148.75 17.2096 148.906 17.6003 148.984 18.043C149.069 18.4857 149.089 18.9577 149.043 19.459L147.861 26.5H146.094L147.266 19.5371C147.318 19.0944 147.292 18.7038 147.188 18.3652C147.09 18.0267 146.904 17.7598 146.631 17.5645C146.357 17.3626 145.986 17.2552 145.518 17.2422C144.99 17.2292 144.531 17.3203 144.141 17.5156C143.757 17.7109 143.434 17.9811 143.174 18.3262C142.92 18.6647 142.715 19.0521 142.559 19.4883C142.402 19.918 142.288 20.3607 142.217 20.8164ZM149.043 19.8203L147.773 20.1914C147.852 19.5859 148.014 19.013 148.262 18.4727C148.516 17.9323 148.844 17.4538 149.248 17.0371C149.652 16.6204 150.12 16.2949 150.654 16.0605C151.188 15.8262 151.777 15.7155 152.422 15.7285C152.995 15.7415 153.48 15.849 153.877 16.0508C154.274 16.2461 154.59 16.5163 154.824 16.8613C155.065 17.2064 155.225 17.61 155.303 18.0723C155.387 18.528 155.4 19.0228 155.342 19.5566L154.18 26.5H152.402L153.574 19.5273C153.626 19.0781 153.604 18.6842 153.506 18.3457C153.415 18.0072 153.232 17.7435 152.959 17.5547C152.686 17.3594 152.308 17.2585 151.826 17.252C151.442 17.2389 151.09 17.2975 150.771 17.4277C150.452 17.5579 150.176 17.7435 149.941 17.9844C149.707 18.2188 149.512 18.4922 149.355 18.8047C149.206 19.1172 149.102 19.4557 149.043 19.8203ZM161.289 26.6953C160.566 26.6823 159.938 26.5391 159.404 26.2656C158.877 25.9857 158.444 25.6113 158.105 25.1426C157.773 24.6673 157.536 24.127 157.393 23.5215C157.249 22.916 157.207 22.2812 157.266 21.6172L157.305 21.1973C157.37 20.5202 157.536 19.8561 157.803 19.2051C158.07 18.5475 158.424 17.9551 158.867 17.4277C159.316 16.9004 159.844 16.4837 160.449 16.1777C161.061 15.8652 161.738 15.7188 162.48 15.7383C163.216 15.7513 163.828 15.9076 164.316 16.207C164.805 16.5065 165.186 16.9036 165.459 17.3984C165.739 17.8867 165.921 18.4368 166.006 19.0488C166.09 19.6543 166.097 20.276 166.025 20.9141L165.918 21.7246H158.252L158.486 20.25L164.336 20.2598L164.365 20.1035C164.43 19.6348 164.404 19.1823 164.287 18.7461C164.17 18.3099 163.955 17.9518 163.643 17.6719C163.337 17.3854 162.923 17.2357 162.402 17.2227C161.862 17.2031 161.393 17.3138 160.996 17.5547C160.599 17.7891 160.267 18.1081 160 18.5117C159.733 18.9089 159.521 19.3451 159.365 19.8203C159.215 20.2891 159.111 20.748 159.053 21.1973L159.014 21.6074C158.975 22.0241 158.988 22.444 159.053 22.8672C159.118 23.2904 159.242 23.6777 159.424 24.0293C159.613 24.3743 159.873 24.6576 160.205 24.8789C160.537 25.0938 160.947 25.2077 161.436 25.2207C162.028 25.2337 162.559 25.1068 163.027 24.8398C163.503 24.5664 163.936 24.2214 164.326 23.8047L165.332 24.6641C165.026 25.1133 164.661 25.4909 164.238 25.7969C163.815 26.1029 163.353 26.3307 162.852 26.4805C162.35 26.6302 161.829 26.7018 161.289 26.6953ZM161.807 14.3711L164.102 11.5H166.348L163.359 14.3711H161.807ZM170.41 17.6719L168.877 26.5H167.109L168.945 15.9336H170.664L170.41 17.6719ZM173.838 15.8457L173.672 17.5449C173.535 17.5189 173.395 17.4961 173.252 17.4766C173.115 17.457 172.979 17.4473 172.842 17.4473C172.419 17.4408 172.038 17.5059 171.699 17.6426C171.367 17.7728 171.071 17.9583 170.811 18.1992C170.557 18.4401 170.339 18.7233 170.156 19.0488C169.98 19.3743 169.84 19.7259 169.736 20.1035L169.18 20.3965C169.251 19.8691 169.368 19.3288 169.531 18.7754C169.701 18.222 169.932 17.7109 170.225 17.2422C170.524 16.7734 170.898 16.3958 171.348 16.1094C171.803 15.8229 172.35 15.6895 172.988 15.709C173.132 15.709 173.271 15.722 173.408 15.748C173.551 15.7741 173.695 15.8066 173.838 15.8457ZM177.441 15.9336L175.605 26.5H173.838L175.674 15.9336H177.441ZM176.025 13.1602C176.025 12.8542 176.12 12.6003 176.309 12.3984C176.504 12.1901 176.755 12.0827 177.061 12.0762C177.367 12.0697 177.617 12.1641 177.812 12.3594C178.014 12.5547 178.112 12.8021 178.105 13.1016C178.105 13.401 178.005 13.6517 177.803 13.8535C177.607 14.0488 177.36 14.1497 177.061 14.1562C176.761 14.1628 176.514 14.0749 176.318 13.8926C176.123 13.7038 176.025 13.4596 176.025 13.1602ZM184.17 30.5625L186.367 17.8574L186.846 15.9336H188.486L185.938 30.5625H184.17ZM178.887 21.4023L178.916 21.1973C178.994 20.5397 179.15 19.8854 179.385 19.2344C179.619 18.5768 179.932 17.9811 180.322 17.4473C180.719 16.9134 181.204 16.4902 181.777 16.1777C182.35 15.8652 183.018 15.7155 183.779 15.7285C184.456 15.748 185.026 15.9076 185.488 16.207C185.951 16.5065 186.315 16.9004 186.582 17.3887C186.855 17.877 187.041 18.4173 187.139 19.0098C187.243 19.5957 187.275 20.1849 187.236 20.7773L187.129 21.6758C187.018 22.3138 186.833 22.9355 186.572 23.541C186.312 24.1465 185.977 24.6934 185.566 25.1816C185.156 25.6634 184.671 26.0443 184.111 26.3242C183.551 26.5977 182.913 26.7246 182.197 26.7051C181.494 26.679 180.911 26.5033 180.449 26.1777C179.993 25.8457 179.639 25.4193 179.385 24.8984C179.137 24.3776 178.975 23.8112 178.896 23.1992C178.825 22.5872 178.822 21.9883 178.887 21.4023ZM180.703 21.1973L180.674 21.4023C180.628 21.793 180.615 22.2064 180.635 22.6426C180.654 23.0788 180.732 23.4889 180.869 23.873C181.006 24.2572 181.221 24.5762 181.514 24.8301C181.807 25.0775 182.204 25.2109 182.705 25.2305C183.245 25.2435 183.747 25.1198 184.209 24.8594C184.678 24.599 185.078 24.2539 185.41 23.8242C185.742 23.388 185.983 22.9225 186.133 22.4277L186.514 20.0547C186.527 19.6966 186.478 19.3516 186.367 19.0195C186.263 18.681 186.104 18.3815 185.889 18.1211C185.68 17.8542 185.426 17.6393 185.127 17.4766C184.827 17.3138 184.492 17.2292 184.121 17.2227C183.574 17.2031 183.099 17.3105 182.695 17.5449C182.298 17.7793 181.963 18.0951 181.689 18.4922C181.416 18.8828 181.198 19.3158 181.035 19.791C180.872 20.2663 180.762 20.735 180.703 21.1973ZM196.172 23.9609L197.559 15.9336H199.336L197.5 26.5H195.811L196.172 23.9609ZM196.836 21.832L197.559 21.8027C197.474 22.4668 197.324 23.0983 197.109 23.6973C196.895 24.2897 196.602 24.8171 196.23 25.2793C195.866 25.735 195.41 26.0931 194.863 26.3535C194.323 26.6074 193.682 26.7246 192.939 26.7051C192.36 26.6855 191.875 26.5684 191.484 26.3535C191.1 26.1387 190.798 25.849 190.576 25.4844C190.355 25.1198 190.208 24.7031 190.137 24.2344C190.065 23.7656 190.055 23.2708 190.107 22.75L191.25 15.9336H193.018L191.875 22.7793C191.849 23.0658 191.846 23.349 191.865 23.6289C191.885 23.9023 191.943 24.153 192.041 24.3809C192.139 24.6087 192.288 24.7943 192.49 24.9375C192.699 25.0742 192.972 25.1491 193.311 25.1621C194.014 25.1882 194.609 25.0579 195.098 24.7715C195.586 24.4785 195.973 24.0749 196.26 23.5605C196.546 23.0462 196.738 22.4701 196.836 21.832ZM204.629 26.6953C203.906 26.6823 203.278 26.5391 202.744 26.2656C202.217 25.9857 201.784 25.6113 201.445 25.1426C201.113 24.6673 200.876 24.127 200.732 23.5215C200.589 22.916 200.547 22.2812 200.605 21.6172L200.645 21.1973C200.71 20.5202 200.876 19.8561 201.143 19.2051C201.41 18.5475 201.764 17.9551 202.207 17.4277C202.656 16.9004 203.184 16.4837 203.789 16.1777C204.401 15.8652 205.078 15.7188 205.82 15.7383C206.556 15.7513 207.168 15.9076 207.656 16.207C208.145 16.5065 208.525 16.9036 208.799 17.3984C209.079 17.8867 209.261 18.4368 209.346 19.0488C209.43 19.6543 209.437 20.276 209.365 20.9141L209.258 21.7246H201.592L201.826 20.25L207.676 20.2598L207.705 20.1035C207.77 19.6348 207.744 19.1823 207.627 18.7461C207.51 18.3099 207.295 17.9518 206.982 17.6719C206.676 17.3854 206.263 17.2357 205.742 17.2227C205.202 17.2031 204.733 17.3138 204.336 17.5547C203.939 17.7891 203.607 18.1081 203.34 18.5117C203.073 18.9089 202.861 19.3451 202.705 19.8203C202.555 20.2891 202.451 20.748 202.393 21.1973L202.354 21.6074C202.314 22.0241 202.327 22.444 202.393 22.8672C202.458 23.2904 202.581 23.6777 202.764 24.0293C202.952 24.3743 203.213 24.6576 203.545 24.8789C203.877 25.0938 204.287 25.2077 204.775 25.2207C205.368 25.2337 205.898 25.1068 206.367 24.8398C206.842 24.5664 207.275 24.2214 207.666 23.8047L208.672 24.6641C208.366 25.1133 208.001 25.4909 207.578 25.7969C207.155 26.1029 206.693 26.3307 206.191 26.4805C205.69 26.6302 205.169 26.7018 204.629 26.6953Z" fill="#0F172A"/>
</svg>
