<svg width="57" height="40" viewBox="0 0 57 40" fill="none" xmlns="http://www.w3.org/2000/svg">
<rect width="56.8" height="40" rx="8" fill="#D4D4D4"/>
<path fill-rule="evenodd" clip-rule="evenodd" d="M18.3242 13.25C18.3242 11.5931 19.7121 10.25 21.4242 10.25H35.3742C37.0863 10.25 38.4742 11.5931 38.4742 13.25V23C38.4742 24.6569 37.0863 26 35.3742 26H32.2742V26.2574C32.2742 26.8541 32.5192 27.4264 32.9552 27.8483L33.5972 28.4697C33.8189 28.6842 33.8852 29.0068 33.7652 29.287C33.6453 29.5673 33.3627 29.75 33.0492 29.75H23.7492C23.4358 29.75 23.1532 29.5673 23.0332 29.287C22.9133 29.0068 22.9796 28.6842 23.2012 28.4697L23.8432 27.8483C24.2793 27.4264 24.5242 26.8541 24.5242 26.2574V26H21.4242C19.7121 26 18.3242 24.6569 18.3242 23V13.25ZM19.8742 13.25V20.75C19.8742 21.5784 20.5682 22.25 21.4242 22.25H35.3742C36.2303 22.25 36.9242 21.5784 36.9242 20.75V13.25C36.9242 12.4216 36.2303 11.75 35.3742 11.75H21.4242C20.5682 11.75 19.8742 12.4216 19.8742 13.25Z" fill="#0F172A"/>
</svg>
