<svg width="92" height="40" viewBox="0 0 92 40" fill="none" xmlns="http://www.w3.org/2000/svg">
<rect width="91.6" height="40" rx="8" fill="#D4D4D4"/>
<path fill-rule="evenodd" clip-rule="evenodd" d="M18.3252 13.25C18.3252 11.5931 19.7131 10.25 21.4252 10.25H35.3752C37.0873 10.25 38.4752 11.5931 38.4752 13.25V23C38.4752 24.6569 37.0873 26 35.3752 26H32.2752V26.2574C32.2752 26.8541 32.5201 27.4264 32.9562 27.8483L33.5982 28.4697C33.8199 28.6842 33.8862 29.0068 33.7662 29.287C33.6462 29.5673 33.3637 29.75 33.0502 29.75H23.7502C23.4367 29.75 23.1541 29.5673 23.0342 29.287C22.9142 29.0068 22.9805 28.6842 23.2022 28.4697L23.8442 27.8484C24.2802 27.4264 24.5252 26.8541 24.5252 26.2574V26H21.4252C19.7131 26 18.3252 24.6569 18.3252 23V13.25ZM19.8752 13.25V20.75C19.8752 21.5784 20.5692 22.25 21.4252 22.25H35.3752C36.2312 22.25 36.9252 21.5784 36.9252 20.75V13.25C36.9252 12.4216 36.2312 11.75 35.3752 11.75H21.4252C20.5692 11.75 19.8752 12.4216 19.8752 13.25Z" fill="#0F172A"/>
<path d="M61.6506 26.75C61.2226 26.75 60.8756 27.0858 60.8756 27.5C60.8756 27.9142 61.2226 28.25 61.6506 28.25H64.7506C65.1786 28.25 65.5256 27.9142 65.5256 27.5C65.5256 27.0858 65.1786 26.75 64.7506 26.75H61.6506Z" fill="#0F172A"/>
<path fill-rule="evenodd" clip-rule="evenodd" d="M59.7131 8.75C57.787 8.75 56.2256 10.261 56.2256 12.125V27.875C56.2256 29.739 57.787 31.25 59.7131 31.25H66.6881C68.6142 31.25 70.1756 29.739 70.1756 27.875V12.125C70.1756 10.261 68.6142 8.75 66.6881 8.75H59.7131ZM58.5506 12.125C58.5506 11.5037 59.0711 11 59.7131 11H60.8756V11.375C60.8756 11.9963 61.3961 12.5 62.0381 12.5H64.3631C65.0051 12.5 65.5256 11.9963 65.5256 11.375V11H66.6881C67.3301 11 67.8506 11.5037 67.8506 12.125V27.875C67.8506 28.4963 67.3301 29 66.6881 29H59.7131C59.0711 29 58.5506 28.4963 58.5506 27.875V12.125Z" fill="#0F172A"/>
</svg>
