<svg width="234" height="40" viewBox="0 0 234 40" fill="none" xmlns="http://www.w3.org/2000/svg">
<rect width="234" height="40" rx="8" fill="#ABF2FF"/>
<path d="M27.25 12.5329C25.7345 11.5628 23.9325 11 22 11C20.8618 11 19.7676 11.1954 18.7501 11.555C18.4504 11.6609 18.25 11.9443 18.25 12.2621V26.5121C18.25 26.7556 18.3682 26.9839 18.567 27.1245C18.7657 27.265 19.0204 27.3004 19.2499 27.2192C20.1091 26.9156 21.0344 26.75 22 26.75C23.995 26.75 25.8232 27.4573 27.25 28.6357V12.5329Z" fill="#0F172A"/>
<path d="M28.75 28.6357C30.1768 27.4573 32.005 26.75 34 26.75C34.9656 26.75 35.8909 26.9156 36.7501 27.2192C36.9796 27.3004 37.2343 27.265 37.433 27.1245C37.6318 26.9839 37.75 26.7556 37.75 26.5121V12.2621C37.75 11.9443 37.5496 11.6609 37.2499 11.555C36.2324 11.1954 35.1382 11 34 11C32.0675 11 30.2655 11.5628 28.75 12.5329V28.6357Z" fill="#0F172A"/>
<path d="M54.4336 26.5H51.4355L51.7188 24.9668L54.4824 24.9766C55.5176 24.9766 56.4128 24.752 57.168 24.3027C57.9297 23.847 58.5417 23.2318 59.0039 22.457C59.4661 21.6758 59.7721 20.7969 59.9219 19.8203L60.0488 18.9414C60.127 18.3164 60.1367 17.7044 60.0781 17.1055C60.026 16.5065 59.8796 15.9661 59.6387 15.4844C59.3978 14.9961 59.0462 14.6055 58.584 14.3125C58.1217 14.013 57.526 13.8535 56.7969 13.834L53.5742 13.8242L53.8477 12.2812L56.8359 12.291C57.7865 12.3105 58.6003 12.5059 59.2773 12.877C59.9609 13.2415 60.5111 13.7331 60.9277 14.3516C61.3509 14.9701 61.6374 15.6764 61.7871 16.4707C61.9434 17.265 61.9694 18.0983 61.8652 18.9707L61.748 19.8203C61.6113 20.7839 61.3411 21.6758 60.9375 22.4961C60.5339 23.3099 60.0163 24.0163 59.3848 24.6152C58.7533 25.2142 58.0208 25.6797 57.1875 26.0117C56.3542 26.3372 55.4362 26.5 54.4336 26.5ZM54.8926 12.2812L52.4219 26.5H50.5762L53.0469 12.2812H54.8926ZM63.5059 21.3926L63.5352 21.168C63.6133 20.4583 63.7891 19.7747 64.0625 19.1172C64.3424 18.4596 64.7103 17.8737 65.166 17.3594C65.6217 16.8451 66.1621 16.4414 66.7871 16.1484C67.4121 15.8555 68.1087 15.7188 68.877 15.7383C69.6191 15.7513 70.2539 15.9108 70.7812 16.2168C71.3151 16.5228 71.7448 16.9297 72.0703 17.4375C72.4023 17.9388 72.6335 18.5052 72.7637 19.1367C72.8939 19.7682 72.9264 20.4193 72.8613 21.0898L72.8418 21.3145C72.7572 22.0241 72.5749 22.7044 72.2949 23.3555C72.015 24.0065 71.6439 24.5859 71.1816 25.0938C70.7259 25.6016 70.1855 26.002 69.5605 26.2949C68.9355 26.5814 68.2422 26.7148 67.4805 26.6953C66.7448 26.6823 66.11 26.526 65.5762 26.2266C65.0488 25.9206 64.6224 25.5169 64.2969 25.0156C63.9714 24.5143 63.7435 23.9512 63.6133 23.3262C63.4831 22.7012 63.4473 22.0566 63.5059 21.3926ZM65.293 21.168L65.2734 21.4023C65.2279 21.8125 65.2246 22.2389 65.2637 22.6816C65.3092 23.1243 65.4134 23.5345 65.5762 23.9121C65.7454 24.2897 65.9896 24.599 66.3086 24.8398C66.6276 25.0807 67.041 25.2077 67.5488 25.2207C68.0892 25.2337 68.5645 25.1296 68.9746 24.9082C69.3848 24.6803 69.7331 24.3743 70.0195 23.9902C70.3125 23.6061 70.5436 23.1797 70.7129 22.7109C70.8887 22.2422 71.0059 21.7767 71.0645 21.3145L71.084 21.0898C71.1296 20.6797 71.1296 20.2533 71.084 19.8105C71.0449 19.3613 70.9408 18.9447 70.7715 18.5605C70.6087 18.1699 70.3678 17.8542 70.0488 17.6133C69.7298 17.3659 69.3164 17.2357 68.8086 17.2227C68.2682 17.2031 67.7897 17.3105 67.373 17.5449C66.9629 17.7728 66.6146 18.082 66.3281 18.4727C66.0417 18.8633 65.8105 19.2962 65.6348 19.7715C65.4655 20.2402 65.3516 20.7057 65.293 21.168ZM78.5254 25.2207C78.9551 25.2272 79.3555 25.1458 79.7266 24.9766C80.0977 24.8073 80.4134 24.5664 80.6738 24.2539C80.9342 23.9414 81.1198 23.5801 81.2305 23.1699L82.9102 23.1602C82.806 23.8698 82.5293 24.4915 82.0801 25.0254C81.6374 25.5592 81.0938 25.9759 80.4492 26.2754C79.8112 26.5684 79.1439 26.7083 78.4473 26.6953C77.7051 26.6823 77.0736 26.5293 76.5527 26.2363C76.0384 25.9368 75.625 25.5397 75.3125 25.0449C75 24.5501 74.7852 23.9935 74.668 23.375C74.5508 22.75 74.5247 22.1087 74.5898 21.4512L74.6289 21.0312C74.707 20.3216 74.8796 19.6478 75.1465 19.0098C75.4134 18.3652 75.7682 17.7956 76.2109 17.3008C76.6602 16.7995 77.1908 16.4089 77.8027 16.1289C78.4147 15.849 79.1016 15.7188 79.8633 15.7383C80.6055 15.7513 81.25 15.9271 81.7969 16.2656C82.3438 16.5977 82.7669 17.0501 83.0664 17.623C83.3659 18.196 83.5156 18.847 83.5156 19.5762L81.8555 19.5664C81.849 19.1497 81.7676 18.7656 81.6113 18.4141C81.4551 18.0625 81.224 17.7793 80.918 17.5645C80.612 17.3496 80.2344 17.2324 79.7852 17.2129C79.2448 17.1999 78.7728 17.3008 78.3691 17.5156C77.972 17.7305 77.6335 18.0267 77.3535 18.4043C77.0801 18.7754 76.862 19.1888 76.6992 19.6445C76.543 20.1003 76.4355 20.5625 76.377 21.0312L76.3281 21.4414C76.2891 21.8581 76.2826 22.2845 76.3086 22.7207C76.3411 23.1569 76.4323 23.5638 76.582 23.9414C76.7318 24.3125 76.9629 24.6152 77.2754 24.8496C77.5879 25.084 78.0046 25.2077 78.5254 25.2207ZM90.9961 23.9609L92.3828 15.9336H94.1602L92.3242 26.5H90.6348L90.9961 23.9609ZM91.6602 21.832L92.3828 21.8027C92.2982 22.4668 92.1484 23.0983 91.9336 23.6973C91.7188 24.2897 91.4258 24.8171 91.0547 25.2793C90.6901 25.735 90.2344 26.0931 89.6875 26.3535C89.1471 26.6074 88.5059 26.7246 87.7637 26.7051C87.1842 26.6855 86.6992 26.5684 86.3086 26.3535C85.9245 26.1387 85.6217 25.849 85.4004 25.4844C85.179 25.1198 85.0326 24.7031 84.9609 24.2344C84.8893 23.7656 84.8796 23.2708 84.9316 22.75L86.0742 15.9336H87.8418L86.6992 22.7793C86.6732 23.0658 86.6699 23.349 86.6895 23.6289C86.709 23.9023 86.7676 24.153 86.8652 24.3809C86.9629 24.6087 87.1126 24.7943 87.3145 24.9375C87.5228 25.0742 87.7962 25.1491 88.1348 25.1621C88.8379 25.1882 89.4336 25.0579 89.9219 24.7715C90.4102 24.4785 90.7975 24.0749 91.084 23.5605C91.3704 23.0462 91.5625 22.4701 91.6602 21.832ZM98.1836 18.1406L96.7383 26.5H94.9609L96.7969 15.9336H98.4766L98.1836 18.1406ZM97.3926 20.8164L96.5918 20.7969C96.6829 20.1393 96.8457 19.5046 97.0801 18.8926C97.3145 18.2806 97.627 17.7337 98.0176 17.252C98.4147 16.7702 98.8932 16.3926 99.4531 16.1191C100.013 15.8457 100.661 15.7188 101.396 15.7383C101.943 15.7513 102.406 15.8587 102.783 16.0605C103.161 16.2559 103.464 16.526 103.691 16.8711C103.926 17.2096 104.082 17.6003 104.16 18.043C104.245 18.4857 104.264 18.9577 104.219 19.459L103.037 26.5H101.27L102.441 19.5371C102.493 19.0944 102.467 18.7038 102.363 18.3652C102.266 18.0267 102.08 17.7598 101.807 17.5645C101.533 17.3626 101.162 17.2552 100.693 17.2422C100.166 17.2292 99.707 17.3203 99.3164 17.5156C98.9323 17.7109 98.61 17.9811 98.3496 18.3262C98.0957 18.6647 97.8906 19.0521 97.7344 19.4883C97.5781 19.918 97.4642 20.3607 97.3926 20.8164ZM104.219 19.8203L102.949 20.1914C103.027 19.5859 103.19 19.013 103.438 18.4727C103.691 17.9323 104.02 17.4538 104.424 17.0371C104.827 16.6204 105.296 16.2949 105.83 16.0605C106.364 15.8262 106.953 15.7155 107.598 15.7285C108.171 15.7415 108.656 15.849 109.053 16.0508C109.45 16.2461 109.766 16.5163 110 16.8613C110.241 17.2064 110.4 17.61 110.479 18.0723C110.563 18.528 110.576 19.0228 110.518 19.5566L109.355 26.5H107.578L108.75 19.5273C108.802 19.0781 108.779 18.6842 108.682 18.3457C108.59 18.0072 108.408 17.7435 108.135 17.5547C107.861 17.3594 107.484 17.2585 107.002 17.252C106.618 17.2389 106.266 17.2975 105.947 17.4277C105.628 17.5579 105.352 17.7435 105.117 17.9844C104.883 18.2188 104.688 18.4922 104.531 18.8047C104.382 19.1172 104.277 19.4557 104.219 19.8203ZM116.465 26.6953C115.742 26.6823 115.114 26.5391 114.58 26.2656C114.053 25.9857 113.62 25.6113 113.281 25.1426C112.949 24.6673 112.712 24.127 112.568 23.5215C112.425 22.916 112.383 22.2812 112.441 21.6172L112.48 21.1973C112.546 20.5202 112.712 19.8561 112.979 19.2051C113.245 18.5475 113.6 17.9551 114.043 17.4277C114.492 16.9004 115.02 16.4837 115.625 16.1777C116.237 15.8652 116.914 15.7188 117.656 15.7383C118.392 15.7513 119.004 15.9076 119.492 16.207C119.98 16.5065 120.361 16.9036 120.635 17.3984C120.915 17.8867 121.097 18.4368 121.182 19.0488C121.266 19.6543 121.273 20.276 121.201 20.9141L121.094 21.7246H113.428L113.662 20.25L119.512 20.2598L119.541 20.1035C119.606 19.6348 119.58 19.1823 119.463 18.7461C119.346 18.3099 119.131 17.9518 118.818 17.6719C118.512 17.3854 118.099 17.2357 117.578 17.2227C117.038 17.2031 116.569 17.3138 116.172 17.5547C115.775 17.7891 115.443 18.1081 115.176 18.5117C114.909 18.9089 114.697 19.3451 114.541 19.8203C114.391 20.2891 114.287 20.748 114.229 21.1973L114.189 21.6074C114.15 22.0241 114.163 22.444 114.229 22.8672C114.294 23.2904 114.417 23.6777 114.6 24.0293C114.788 24.3743 115.049 24.6576 115.381 24.8789C115.713 25.0938 116.123 25.2077 116.611 25.2207C117.204 25.2337 117.734 25.1068 118.203 24.8398C118.678 24.5664 119.111 24.2214 119.502 23.8047L120.508 24.6641C120.202 25.1133 119.837 25.4909 119.414 25.7969C118.991 26.1029 118.529 26.3307 118.027 26.4805C117.526 26.6302 117.005 26.7018 116.465 26.6953ZM125.479 18.2969L124.053 26.5H122.285L124.121 15.9336H125.791L125.479 18.2969ZM124.658 20.8164L123.936 20.7969C124.027 20.1654 124.193 19.5469 124.434 18.9414C124.681 18.3294 125.003 17.7793 125.4 17.291C125.804 16.8027 126.283 16.4186 126.836 16.1387C127.396 15.8522 128.034 15.7188 128.75 15.7383C129.316 15.7513 129.788 15.862 130.166 16.0703C130.55 16.2721 130.85 16.5488 131.064 16.9004C131.279 17.252 131.423 17.6589 131.494 18.1211C131.566 18.5768 131.572 19.0618 131.514 19.5762L130.361 26.5H128.584L129.756 19.5469C129.801 19.1237 129.785 18.7428 129.707 18.4043C129.635 18.0592 129.473 17.7858 129.219 17.584C128.971 17.3757 128.613 17.265 128.145 17.252C127.65 17.2389 127.204 17.3333 126.807 17.5352C126.41 17.737 126.061 18.0137 125.762 18.3652C125.469 18.7103 125.228 19.0977 125.039 19.5273C124.857 19.9505 124.73 20.3802 124.658 20.8164ZM139.15 15.9336L138.906 17.3203H133.35L133.594 15.9336H139.15ZM135.918 13.3652H137.676L135.889 23.9023C135.869 24.1302 135.876 24.3353 135.908 24.5176C135.941 24.6999 136.019 24.8464 136.143 24.957C136.266 25.0612 136.455 25.1165 136.709 25.123C136.852 25.123 136.992 25.1133 137.129 25.0938C137.272 25.0677 137.415 25.0449 137.559 25.0254L137.432 26.5098C137.223 26.5684 137.008 26.6107 136.787 26.6367C136.572 26.6693 136.357 26.6823 136.143 26.6758C135.602 26.6693 135.179 26.5326 134.873 26.2656C134.567 25.9987 134.359 25.6536 134.248 25.2305C134.137 24.8073 134.105 24.3548 134.15 23.873L135.918 13.3652ZM145.742 24.6934L146.621 19.2344C146.667 18.8307 146.628 18.4759 146.504 18.1699C146.387 17.8639 146.188 17.6263 145.908 17.457C145.635 17.2878 145.29 17.1966 144.873 17.1836C144.508 17.1771 144.15 17.2357 143.799 17.3594C143.454 17.4831 143.154 17.6686 142.9 17.916C142.646 18.1634 142.48 18.4759 142.402 18.8535L140.645 18.8633C140.69 18.3359 140.856 17.877 141.143 17.4863C141.429 17.0892 141.787 16.7604 142.217 16.5C142.646 16.2331 143.109 16.0378 143.604 15.9141C144.098 15.7839 144.58 15.722 145.049 15.7285C145.758 15.7415 146.374 15.8945 146.895 16.1875C147.422 16.474 147.819 16.8776 148.086 17.3984C148.353 17.9193 148.451 18.5443 148.379 19.2734L147.568 24.1953C147.51 24.5534 147.474 24.9147 147.461 25.2793C147.454 25.6374 147.497 25.9889 147.588 26.334L147.568 26.5L145.781 26.5098C145.71 26.2103 145.674 25.9076 145.674 25.6016C145.68 25.2956 145.703 24.9928 145.742 24.6934ZM146.826 20.0938L146.621 21.3633L144.951 21.3535C144.6 21.3535 144.229 21.3796 143.838 21.4316C143.447 21.4837 143.076 21.5814 142.725 21.7246C142.373 21.8678 142.077 22.0762 141.836 22.3496C141.595 22.6165 141.449 22.9648 141.396 23.3945C141.357 23.7461 141.4 24.0521 141.523 24.3125C141.654 24.5664 141.849 24.765 142.109 24.9082C142.37 25.0514 142.673 25.1263 143.018 25.1328C143.467 25.1393 143.91 25.0514 144.346 24.8691C144.782 24.6868 145.163 24.4264 145.488 24.0879C145.814 23.7493 146.038 23.3587 146.162 22.916L146.807 23.7852C146.683 24.2148 146.481 24.612 146.201 24.9766C145.921 25.3346 145.589 25.6439 145.205 25.9043C144.827 26.1647 144.421 26.3665 143.984 26.5098C143.548 26.653 143.112 26.7214 142.676 26.7148C142.083 26.7018 141.546 26.5684 141.064 26.3145C140.589 26.0605 140.212 25.7057 139.932 25.25C139.658 24.7878 139.541 24.2507 139.58 23.6387C139.619 22.9681 139.795 22.4049 140.107 21.9492C140.42 21.4935 140.82 21.1289 141.309 20.8555C141.803 20.582 142.344 20.3867 142.93 20.2695C143.516 20.1458 144.095 20.084 144.668 20.084L146.826 20.0938ZM156.064 15.9336L155.82 17.3203H150.264L150.508 15.9336H156.064ZM152.832 13.3652H154.59L152.803 23.9023C152.783 24.1302 152.79 24.3353 152.822 24.5176C152.855 24.6999 152.933 24.8464 153.057 24.957C153.18 25.0612 153.369 25.1165 153.623 25.123C153.766 25.123 153.906 25.1133 154.043 25.0938C154.186 25.0677 154.329 25.0449 154.473 25.0254L154.346 26.5098C154.137 26.5684 153.923 26.6107 153.701 26.6367C153.486 26.6693 153.271 26.6823 153.057 26.6758C152.516 26.6693 152.093 26.5326 151.787 26.2656C151.481 25.9987 151.273 25.6536 151.162 25.2305C151.051 24.8073 151.019 24.3548 151.064 23.873L152.832 13.3652ZM160.02 15.9336L158.184 26.5H156.416L158.252 15.9336H160.02ZM158.604 13.1602C158.604 12.8542 158.698 12.6003 158.887 12.3984C159.082 12.1901 159.333 12.0827 159.639 12.0762C159.945 12.0697 160.195 12.1641 160.391 12.3594C160.592 12.5547 160.69 12.8021 160.684 13.1016C160.684 13.401 160.583 13.6517 160.381 13.8535C160.186 14.0488 159.938 14.1497 159.639 14.1562C159.339 14.1628 159.092 14.0749 158.896 13.8926C158.701 13.7038 158.604 13.4596 158.604 13.1602ZM161.455 21.3926L161.484 21.168C161.562 20.4583 161.738 19.7747 162.012 19.1172C162.292 18.4596 162.66 17.8737 163.115 17.3594C163.571 16.8451 164.111 16.4414 164.736 16.1484C165.361 15.8555 166.058 15.7188 166.826 15.7383C167.568 15.7513 168.203 15.9108 168.73 16.2168C169.264 16.5228 169.694 16.9297 170.02 17.4375C170.352 17.9388 170.583 18.5052 170.713 19.1367C170.843 19.7682 170.876 20.4193 170.811 21.0898L170.791 21.3145C170.706 22.0241 170.524 22.7044 170.244 23.3555C169.964 24.0065 169.593 24.5859 169.131 25.0938C168.675 25.6016 168.135 26.002 167.51 26.2949C166.885 26.5814 166.191 26.7148 165.43 26.6953C164.694 26.6823 164.059 26.526 163.525 26.2266C162.998 25.9206 162.572 25.5169 162.246 25.0156C161.921 24.5143 161.693 23.9512 161.562 23.3262C161.432 22.7012 161.396 22.0566 161.455 21.3926ZM163.242 21.168L163.223 21.4023C163.177 21.8125 163.174 22.2389 163.213 22.6816C163.258 23.1243 163.363 23.5345 163.525 23.9121C163.695 24.2897 163.939 24.599 164.258 24.8398C164.577 25.0807 164.99 25.2077 165.498 25.2207C166.038 25.2337 166.514 25.1296 166.924 24.9082C167.334 24.6803 167.682 24.3743 167.969 23.9902C168.262 23.6061 168.493 23.1797 168.662 22.7109C168.838 22.2422 168.955 21.7767 169.014 21.3145L169.033 21.0898C169.079 20.6797 169.079 20.2533 169.033 19.8105C168.994 19.3613 168.89 18.9447 168.721 18.5605C168.558 18.1699 168.317 17.8542 167.998 17.6133C167.679 17.3659 167.266 17.2357 166.758 17.2227C166.217 17.2031 165.739 17.3105 165.322 17.5449C164.912 17.7728 164.564 18.082 164.277 18.4727C163.991 18.8633 163.76 19.2962 163.584 19.7715C163.415 20.2402 163.301 20.7057 163.242 21.168ZM175.264 18.2969L173.838 26.5H172.07L173.906 15.9336H175.576L175.264 18.2969ZM174.443 20.8164L173.721 20.7969C173.812 20.1654 173.978 19.5469 174.219 18.9414C174.466 18.3294 174.788 17.7793 175.186 17.291C175.589 16.8027 176.068 16.4186 176.621 16.1387C177.181 15.8522 177.819 15.7188 178.535 15.7383C179.102 15.7513 179.574 15.862 179.951 16.0703C180.335 16.2721 180.635 16.5488 180.85 16.9004C181.064 17.252 181.208 17.6589 181.279 18.1211C181.351 18.5768 181.357 19.0618 181.299 19.5762L180.146 26.5H178.369L179.541 19.5469C179.587 19.1237 179.57 18.7428 179.492 18.4043C179.421 18.0592 179.258 17.7858 179.004 17.584C178.757 17.3757 178.398 17.265 177.93 17.252C177.435 17.2389 176.989 17.3333 176.592 17.5352C176.195 17.737 175.846 18.0137 175.547 18.3652C175.254 18.7103 175.013 19.0977 174.824 19.5273C174.642 19.9505 174.515 20.3802 174.443 20.8164ZM195.332 13.6484L188.574 26.5H186.611L194.346 12.2812H195.605L195.332 13.6484ZM196.953 26.5L194.6 13.4336L194.785 12.2812H195.957L198.76 26.5H196.953ZM197.607 21.2363L197.334 22.7793H189.57L189.844 21.2363H197.607ZM206.816 20.9336L203.008 20.9238L203.281 19.3906L206.865 19.4004C207.477 19.4004 208.037 19.2962 208.545 19.0879C209.059 18.8796 209.482 18.5671 209.814 18.1504C210.153 17.7337 210.361 17.2031 210.439 16.5586C210.511 16.0052 210.456 15.5299 210.273 15.1328C210.098 14.7292 209.818 14.4167 209.434 14.1953C209.049 13.974 208.584 13.8535 208.037 13.834L204.678 13.8242L202.48 26.5H200.635L203.105 12.2812L208.086 12.291C208.932 12.3105 209.684 12.4896 210.342 12.8281C211.006 13.1602 211.514 13.6387 211.865 14.2637C212.217 14.8887 212.354 15.6471 212.275 16.5391C212.191 17.5417 211.891 18.3685 211.377 19.0195C210.869 19.6706 210.215 20.1523 209.414 20.4648C208.62 20.7773 207.754 20.9336 206.816 20.9336ZM217.324 12.2812L214.854 26.5H213.018L215.488 12.2812H217.324Z" fill="#0F172A"/>
</svg>
