<svg width="102" height="40" viewBox="0 0 102 40" fill="none" xmlns="http://www.w3.org/2000/svg">
<rect width="102" height="40" rx="8" fill="#ABFFBB"/>
<path d="M27.25 13.3369C27.25 12.9818 27.064 12.6608 26.8488 12.3782C26.6279 12.0881 26.5 11.744 26.5 11.375C26.5 10.3395 27.5074 9.5 28.75 9.5C29.9926 9.5 31 10.3395 31 11.375C31 11.744 30.8721 12.0881 30.6512 12.3782C30.436 12.6608 30.25 12.9818 30.25 13.3369C30.25 13.6693 30.5277 13.9346 30.8595 13.9148C32.7701 13.8008 34.6498 13.5733 36.4922 13.239C36.6949 13.2022 36.9039 13.2504 37.07 13.3724C37.2361 13.4944 37.3447 13.6793 37.3703 13.8838C37.5943 15.6732 37.7213 17.4926 37.7459 19.3365C37.7508 19.7028 37.4533 19.9999 37.0869 20C36.7318 20 36.4108 19.814 36.1282 19.5988C35.8381 19.3779 35.494 19.25 35.125 19.25C34.0895 19.25 33.25 20.2574 33.25 21.5C33.25 22.7426 34.0895 23.75 35.125 23.75C35.494 23.75 35.8381 23.6221 36.1282 23.4012C36.4108 23.186 36.7318 23 37.0869 23C37.3974 23 37.6439 23.2617 37.6214 23.5713C37.5028 25.2098 37.3031 26.8261 37.0263 28.4161C36.9721 28.728 36.7279 28.9721 36.416 29.0264C34.5969 29.343 32.7434 29.5587 30.8615 29.6677C30.5285 29.6869 30.25 29.4205 30.25 29.0869C30.25 28.7318 30.436 28.4108 30.6512 28.1282C30.8721 27.8381 31 27.494 31 27.125C31 26.0895 29.9926 25.25 28.75 25.25C27.5074 25.25 26.5 26.0895 26.5 27.125C26.5 27.494 26.6279 27.8381 26.8488 28.1282C27.064 28.4108 27.25 28.7318 27.25 29.0869C27.25 29.4485 26.954 29.7405 26.5925 29.7303C25.003 29.6852 23.4324 29.564 21.8841 29.3702C21.6797 29.3446 21.4947 29.236 21.3728 29.0699C21.2508 28.9038 21.2026 28.6948 21.2393 28.4921C21.5322 26.8781 21.7431 25.2354 21.8676 23.5683C21.8906 23.2605 21.6456 23 21.3369 23C20.9818 23 20.6608 23.186 20.3782 23.4012C20.0881 23.6221 19.744 23.75 19.375 23.75C18.3395 23.75 17.5 22.7426 17.5 21.5C17.5 20.2574 18.3395 19.25 19.375 19.25C19.744 19.25 20.0881 19.3779 20.3782 19.5988C20.6608 19.814 20.9818 20 21.3369 20C21.7033 20 22.0008 19.703 21.9957 19.3367C21.9733 17.7084 21.8686 16.1003 21.6856 14.5163C21.6593 14.2888 21.7384 14.0618 21.9003 13.8999C22.0622 13.7379 22.2892 13.6589 22.5167 13.6852C23.859 13.8403 25.2186 13.9391 26.5931 13.9793C26.9541 13.9899 27.25 13.6982 27.25 13.3369Z" fill="#0F172A"/>
<path d="M56.7578 19.8496H53.1543L53.3984 18.3359L56.4746 18.3457C56.9759 18.3457 57.4479 18.2578 57.8906 18.082C58.3398 17.9062 58.7142 17.6426 59.0137 17.291C59.3197 16.9395 59.5052 16.4967 59.5703 15.9629C59.6354 15.4551 59.5833 15.0482 59.4141 14.7422C59.2448 14.4297 58.9844 14.2051 58.6328 14.0684C58.2878 13.9251 57.8809 13.847 57.4121 13.834L54.6191 13.8242L52.4219 26.5H50.5762L53.0469 12.2812L57.4512 12.291C58.0436 12.304 58.5905 12.3854 59.0918 12.5352C59.5996 12.6784 60.0358 12.8997 60.4004 13.1992C60.765 13.4922 61.0384 13.8698 61.2207 14.332C61.4095 14.7943 61.4779 15.3477 61.4258 15.9922C61.3737 16.6888 61.1523 17.2747 60.7617 17.75C60.3776 18.2253 59.8926 18.5996 59.3066 18.873C58.7272 19.14 58.125 19.3158 57.5 19.4004L56.7578 19.8496ZM55.5371 26.5H51.2207L52.5195 24.9668L55.5859 24.9766C56.1393 24.9766 56.6504 24.8757 57.1191 24.6738C57.5879 24.472 57.9753 24.1758 58.2812 23.7852C58.5938 23.3945 58.7858 22.9128 58.8574 22.3398C58.916 21.832 58.877 21.3958 58.7402 21.0312C58.6035 20.6667 58.3691 20.3867 58.0371 20.1914C57.7051 19.9896 57.2819 19.8789 56.7676 19.8594L54.043 19.8496L54.3262 18.3359L57.793 18.3457L58.0957 18.8926C58.6816 18.9837 59.1732 19.1921 59.5703 19.5176C59.974 19.8366 60.2669 20.2402 60.4492 20.7285C60.638 21.2103 60.7129 21.7409 60.6738 22.3203C60.6022 23.2513 60.3223 24.0293 59.834 24.6543C59.3522 25.2728 58.7337 25.7383 57.9785 26.0508C57.2233 26.3568 56.4095 26.5065 55.5371 26.5ZM69.9902 12.2812L67.5293 26.5H65.7129L68.1836 12.2812H69.9902ZM74.4238 12.2812L74.1504 13.8242H63.4863L63.7598 12.2812H74.4238ZM80.1758 20.9336L76.3672 20.9238L76.6406 19.3906L80.2246 19.4004C80.8366 19.4004 81.3965 19.2962 81.9043 19.0879C82.4186 18.8796 82.8418 18.5671 83.1738 18.1504C83.5124 17.7337 83.7207 17.2031 83.7988 16.5586C83.8704 16.0052 83.8151 15.5299 83.6328 15.1328C83.457 14.7292 83.1771 14.4167 82.793 14.1953C82.4089 13.974 81.9434 13.8535 81.3965 13.834L78.0371 13.8242L75.8398 26.5H73.9941L76.4648 12.2812L81.4453 12.291C82.2917 12.3105 83.0436 12.4896 83.7012 12.8281C84.3652 13.1602 84.873 13.6387 85.2246 14.2637C85.5762 14.8887 85.7129 15.6471 85.6348 16.5391C85.5501 17.5417 85.2507 18.3685 84.7363 19.0195C84.2285 19.6706 83.5742 20.1523 82.7734 20.4648C81.9792 20.7773 81.1133 20.9336 80.1758 20.9336Z" fill="#0F172A"/>
</svg>
