<svg width="174" height="40" viewBox="0 0 174 40" fill="none" xmlns="http://www.w3.org/2000/svg">
<rect width="174" height="40" rx="8" fill="#FFABF8"/>
<path d="M37.7214 20.7517C37.7404 20.5036 37.75 20.2529 37.75 19.9999C37.75 18.4758 37.4003 17.0333 36.7767 15.7483C35.5396 16.9227 34.0671 17.8515 32.4374 18.4565C32.4789 18.9655 32.5 19.4803 32.5 19.9999C32.5 21.1011 32.4051 22.1802 32.2229 23.2293C34.2163 22.7277 36.0717 21.8792 37.7214 20.7517Z" fill="#0F172A"/>
<path d="M30.6343 23.5501C30.874 22.4043 31 21.2168 31 19.9999C31 19.6315 30.9885 19.2659 30.9657 18.9032C30.0141 19.1299 29.021 19.2499 28 19.2499C26.979 19.2499 25.9859 19.1299 25.0343 18.9032C25.0115 19.2659 25 19.6315 25 19.9999C25 21.2168 25.126 22.4043 25.3657 23.5501C26.2246 23.6817 27.1043 23.7499 28 23.7499C28.8957 23.7499 29.7754 23.6817 30.6343 23.5501Z" fill="#0F172A"/>
<path d="M25.7722 25.119C26.5028 25.2054 27.2462 25.2499 28 25.2499C28.7538 25.2499 29.4972 25.2054 30.2278 25.119C29.714 26.7746 28.9575 28.3235 28 29.724C27.0425 28.3235 26.286 26.7746 25.7722 25.119Z" fill="#0F172A"/>
<path d="M23.7771 23.2293C23.5949 22.1802 23.5 21.1011 23.5 19.9999C23.5 19.4803 23.5211 18.9655 23.5626 18.4565C21.9329 17.8515 20.4604 16.9227 19.2233 15.7483C18.5997 17.0333 18.25 18.4758 18.25 19.9999C18.25 20.2529 18.2596 20.5036 18.2786 20.7517C19.9283 21.8792 21.7837 22.7277 23.7771 23.2293Z" fill="#0F172A"/>
<path d="M37.3561 22.7525C36.3404 26.2104 33.4597 28.8705 29.8776 29.5693C30.744 28.1123 31.4185 26.5278 31.8664 24.8508C33.8263 24.44 35.6736 23.7231 37.3561 22.7525Z" fill="#0F172A"/>
<path d="M18.644 22.7525C20.3264 23.7231 22.1737 24.44 24.1336 24.8508C24.5815 26.5278 25.256 28.1123 26.1224 29.5693C22.5403 28.8705 19.6596 26.2104 18.644 22.7525Z" fill="#0F172A"/>
<path d="M29.8776 10.4306C32.3991 10.9224 34.5731 12.3862 35.9937 14.416C34.9351 15.4848 33.6637 16.3425 32.2483 16.9202C31.862 14.5828 31.0435 12.3913 29.8776 10.4306Z" fill="#0F172A"/>
<path d="M28 10.2759C29.4287 12.3655 30.4097 14.7854 30.805 17.3974C29.9083 17.6276 28.9684 17.7499 28 17.7499C27.0316 17.7499 26.0917 17.6276 25.195 17.3974C25.5903 14.7854 26.5713 12.3655 28 10.2759Z" fill="#0F172A"/>
<path d="M26.1224 10.4306C24.9565 12.3913 24.138 14.5828 23.7517 16.9202C22.3363 16.3425 21.0649 15.4848 20.0063 14.416C21.4269 12.3862 23.6009 10.9224 26.1224 10.4306Z" fill="#0F172A"/>
<path d="M53.6621 12.2812H55.3613L57.8711 23.8535L64.3848 12.2812H66.2598L58.1836 26.5H56.7871L53.6621 12.2812ZM53.0469 12.2812H54.6191L53.3691 21.0117L52.4121 26.5H50.5762L53.0469 12.2812ZM65.2051 12.2812H66.7871L64.3164 26.5H62.4902L63.4668 20.8555L65.2051 12.2812ZM73.6328 24.6934L74.5117 19.2344C74.5573 18.8307 74.5182 18.4759 74.3945 18.1699C74.2773 17.8639 74.0788 17.6263 73.7988 17.457C73.5254 17.2878 73.1803 17.1966 72.7637 17.1836C72.3991 17.1771 72.041 17.2357 71.6895 17.3594C71.3444 17.4831 71.0449 17.6686 70.791 17.916C70.5371 18.1634 70.3711 18.4759 70.293 18.8535L68.5352 18.8633C68.5807 18.3359 68.7467 17.877 69.0332 17.4863C69.3197 17.0892 69.6777 16.7604 70.1074 16.5C70.5371 16.2331 70.9993 16.0378 71.4941 15.9141C71.9889 15.7839 72.4707 15.722 72.9395 15.7285C73.6491 15.7415 74.2643 15.8945 74.7852 16.1875C75.3125 16.474 75.7096 16.8776 75.9766 17.3984C76.2435 17.9193 76.3411 18.5443 76.2695 19.2734L75.459 24.1953C75.4004 24.5534 75.3646 24.9147 75.3516 25.2793C75.3451 25.6374 75.3874 25.9889 75.4785 26.334L75.459 26.5L73.6719 26.5098C73.6003 26.2103 73.5645 25.9076 73.5645 25.6016C73.571 25.2956 73.5938 24.9928 73.6328 24.6934ZM74.7168 20.0938L74.5117 21.3633L72.8418 21.3535C72.4902 21.3535 72.1191 21.3796 71.7285 21.4316C71.3379 21.4837 70.9668 21.5814 70.6152 21.7246C70.2637 21.8678 69.9674 22.0762 69.7266 22.3496C69.4857 22.6165 69.3392 22.9648 69.2871 23.3945C69.248 23.7461 69.2904 24.0521 69.4141 24.3125C69.5443 24.5664 69.7396 24.765 70 24.9082C70.2604 25.0514 70.5632 25.1263 70.9082 25.1328C71.3574 25.1393 71.8001 25.0514 72.2363 24.8691C72.6725 24.6868 73.0534 24.4264 73.3789 24.0879C73.7044 23.7493 73.929 23.3587 74.0527 22.916L74.6973 23.7852C74.5736 24.2148 74.3717 24.612 74.0918 24.9766C73.8118 25.3346 73.4798 25.6439 73.0957 25.9043C72.7181 26.1647 72.3112 26.3665 71.875 26.5098C71.4388 26.653 71.0026 26.7214 70.5664 26.7148C69.974 26.7018 69.4368 26.5684 68.9551 26.3145C68.4798 26.0605 68.1022 25.7057 67.8223 25.25C67.5488 24.7878 67.4316 24.2507 67.4707 23.6387C67.5098 22.9681 67.6855 22.4049 67.998 21.9492C68.3105 21.4935 68.7109 21.1289 69.1992 20.8555C69.694 20.582 70.2344 20.3867 70.8203 20.2695C71.4062 20.1458 71.9857 20.084 72.5586 20.084L74.7168 20.0938ZM81.1133 17.6719L79.5801 26.5H77.8125L79.6484 15.9336H81.3672L81.1133 17.6719ZM84.541 15.8457L84.375 17.5449C84.2383 17.5189 84.0983 17.4961 83.9551 17.4766C83.8184 17.457 83.6816 17.4473 83.5449 17.4473C83.1217 17.4408 82.7409 17.5059 82.4023 17.6426C82.0703 17.7728 81.7741 17.9583 81.5137 18.1992C81.2598 18.4401 81.0417 18.7233 80.8594 19.0488C80.6836 19.3743 80.5436 19.7259 80.4395 20.1035L79.8828 20.3965C79.9544 19.8691 80.0716 19.3288 80.2344 18.7754C80.4036 18.222 80.6348 17.7109 80.9277 17.2422C81.2272 16.7734 81.6016 16.3958 82.0508 16.1094C82.5065 15.8229 83.0534 15.6895 83.6914 15.709C83.8346 15.709 83.9746 15.722 84.1113 15.748C84.2546 15.7741 84.3978 15.8066 84.541 15.8457ZM88.7793 11.5L86.1719 26.5H84.3945L87.002 11.5H88.7793ZM94.3457 15.9336L89.1113 20.7773L85.957 23.6191L86.1719 21.5293L88.2812 19.3809L92.041 15.9336H94.3457ZM90.8984 26.5L88.0469 21.3633L89.1699 19.8496L92.832 26.5H90.8984ZM98.5156 26.6953C97.793 26.6823 97.1647 26.5391 96.6309 26.2656C96.1035 25.9857 95.6706 25.6113 95.332 25.1426C95 24.6673 94.7624 24.127 94.6191 23.5215C94.4759 22.916 94.4336 22.2812 94.4922 21.6172L94.5312 21.1973C94.5964 20.5202 94.7624 19.8561 95.0293 19.2051C95.2962 18.5475 95.651 17.9551 96.0938 17.4277C96.543 16.9004 97.0703 16.4837 97.6758 16.1777C98.2878 15.8652 98.9648 15.7188 99.707 15.7383C100.443 15.7513 101.055 15.9076 101.543 16.207C102.031 16.5065 102.412 16.9036 102.686 17.3984C102.965 17.8867 103.148 18.4368 103.232 19.0488C103.317 19.6543 103.324 20.276 103.252 20.9141L103.145 21.7246H95.4785L95.7129 20.25L101.562 20.2598L101.592 20.1035C101.657 19.6348 101.631 19.1823 101.514 18.7461C101.396 18.3099 101.182 17.9518 100.869 17.6719C100.563 17.3854 100.15 17.2357 99.6289 17.2227C99.0885 17.2031 98.6198 17.3138 98.2227 17.5547C97.8255 17.7891 97.4935 18.1081 97.2266 18.5117C96.9596 18.9089 96.748 19.3451 96.5918 19.8203C96.4421 20.2891 96.3379 20.748 96.2793 21.1973L96.2402 21.6074C96.2012 22.0241 96.2142 22.444 96.2793 22.8672C96.3444 23.2904 96.4681 23.6777 96.6504 24.0293C96.8392 24.3743 97.0996 24.6576 97.4316 24.8789C97.7637 25.0938 98.1738 25.2077 98.6621 25.2207C99.2546 25.2337 99.7852 25.1068 100.254 24.8398C100.729 24.5664 101.162 24.2214 101.553 23.8047L102.559 24.6641C102.253 25.1133 101.888 25.4909 101.465 25.7969C101.042 26.1029 100.579 26.3307 100.078 26.4805C99.5768 26.6302 99.056 26.7018 98.5156 26.6953ZM110.479 15.9336L110.234 17.3203H104.678L104.922 15.9336H110.479ZM107.246 13.3652H109.004L107.217 23.9023C107.197 24.1302 107.204 24.3353 107.236 24.5176C107.269 24.6999 107.347 24.8464 107.471 24.957C107.594 25.0612 107.783 25.1165 108.037 25.123C108.18 25.123 108.32 25.1133 108.457 25.0938C108.6 25.0677 108.743 25.0449 108.887 25.0254L108.76 26.5098C108.551 26.5684 108.337 26.6107 108.115 26.6367C107.9 26.6693 107.686 26.6823 107.471 26.6758C106.93 26.6693 106.507 26.5326 106.201 26.2656C105.895 25.9987 105.687 25.6536 105.576 25.2305C105.465 24.8073 105.433 24.3548 105.479 23.873L107.246 13.3652ZM113.916 18.0723L111.748 30.5625H109.971L112.51 15.9336H114.131L113.916 18.0723ZM120.273 21.0703L120.254 21.2754C120.169 21.9134 120.013 22.5579 119.785 23.209C119.564 23.8535 119.261 24.4427 118.877 24.9766C118.493 25.5104 118.021 25.9368 117.461 26.2559C116.908 26.5749 116.257 26.7246 115.508 26.7051C114.85 26.6921 114.287 26.5488 113.818 26.2754C113.35 25.9954 112.972 25.6276 112.686 25.1719C112.399 24.7096 112.194 24.1953 112.07 23.6289C111.953 23.056 111.914 22.4701 111.953 21.8711L112.09 20.7871C112.201 20.1491 112.386 19.5273 112.646 18.9219C112.913 18.3099 113.252 17.7598 113.662 17.2715C114.072 16.7832 114.557 16.4023 115.117 16.1289C115.684 15.849 116.325 15.7188 117.041 15.7383C117.764 15.7578 118.35 15.9336 118.799 16.2656C119.255 16.5911 119.6 17.0176 119.834 17.5449C120.075 18.0658 120.225 18.6354 120.283 19.2539C120.342 19.8659 120.339 20.4714 120.273 21.0703ZM118.477 21.2656L118.506 21.0508C118.551 20.6602 118.561 20.2467 118.535 19.8105C118.516 19.3743 118.434 18.9674 118.291 18.5898C118.154 18.2057 117.936 17.89 117.637 17.6426C117.344 17.3952 116.943 17.265 116.436 17.252C116.032 17.2389 115.648 17.3073 115.283 17.457C114.925 17.6003 114.6 17.8053 114.307 18.0723C114.014 18.3327 113.763 18.6354 113.555 18.9805C113.346 19.319 113.193 19.6771 113.096 20.0547L112.676 22.6035C112.669 23.0658 112.77 23.4954 112.979 23.8926C113.187 24.2832 113.47 24.599 113.828 24.8398C114.193 25.0807 114.606 25.2077 115.068 25.2207C115.609 25.2337 116.077 25.1263 116.475 24.8984C116.878 24.6641 117.217 24.3516 117.49 23.9609C117.764 23.5638 117.982 23.1309 118.145 22.6621C118.307 22.1868 118.418 21.7214 118.477 21.2656ZM126.104 11.5L123.496 26.5H121.729L124.326 11.5H126.104ZM132.695 24.6934L133.574 19.2344C133.62 18.8307 133.581 18.4759 133.457 18.1699C133.34 17.8639 133.141 17.6263 132.861 17.457C132.588 17.2878 132.243 17.1966 131.826 17.1836C131.462 17.1771 131.104 17.2357 130.752 17.3594C130.407 17.4831 130.107 17.6686 129.854 17.916C129.6 18.1634 129.434 18.4759 129.355 18.8535L127.598 18.8633C127.643 18.3359 127.809 17.877 128.096 17.4863C128.382 17.0892 128.74 16.7604 129.17 16.5C129.6 16.2331 130.062 16.0378 130.557 15.9141C131.051 15.7839 131.533 15.722 132.002 15.7285C132.712 15.7415 133.327 15.8945 133.848 16.1875C134.375 16.474 134.772 16.8776 135.039 17.3984C135.306 17.9193 135.404 18.5443 135.332 19.2734L134.521 24.1953C134.463 24.5534 134.427 24.9147 134.414 25.2793C134.408 25.6374 134.45 25.9889 134.541 26.334L134.521 26.5L132.734 26.5098C132.663 26.2103 132.627 25.9076 132.627 25.6016C132.633 25.2956 132.656 24.9928 132.695 24.6934ZM133.779 20.0938L133.574 21.3633L131.904 21.3535C131.553 21.3535 131.182 21.3796 130.791 21.4316C130.4 21.4837 130.029 21.5814 129.678 21.7246C129.326 21.8678 129.03 22.0762 128.789 22.3496C128.548 22.6165 128.402 22.9648 128.35 23.3945C128.311 23.7461 128.353 24.0521 128.477 24.3125C128.607 24.5664 128.802 24.765 129.062 24.9082C129.323 25.0514 129.626 25.1263 129.971 25.1328C130.42 25.1393 130.863 25.0514 131.299 24.8691C131.735 24.6868 132.116 24.4264 132.441 24.0879C132.767 23.7493 132.992 23.3587 133.115 22.916L133.76 23.7852C133.636 24.2148 133.434 24.612 133.154 24.9766C132.874 25.3346 132.542 25.6439 132.158 25.9043C131.781 26.1647 131.374 26.3665 130.938 26.5098C130.501 26.653 130.065 26.7214 129.629 26.7148C129.036 26.7018 128.499 26.5684 128.018 26.3145C127.542 26.0605 127.165 25.7057 126.885 25.25C126.611 24.7878 126.494 24.2507 126.533 23.6387C126.572 22.9681 126.748 22.4049 127.061 21.9492C127.373 21.4935 127.773 21.1289 128.262 20.8555C128.757 20.582 129.297 20.3867 129.883 20.2695C130.469 20.1458 131.048 20.084 131.621 20.084L133.779 20.0938ZM141.279 25.2207C141.709 25.2272 142.109 25.1458 142.48 24.9766C142.852 24.8073 143.167 24.5664 143.428 24.2539C143.688 23.9414 143.874 23.5801 143.984 23.1699L145.664 23.1602C145.56 23.8698 145.283 24.4915 144.834 25.0254C144.391 25.5592 143.848 25.9759 143.203 26.2754C142.565 26.5684 141.898 26.7083 141.201 26.6953C140.459 26.6823 139.827 26.5293 139.307 26.2363C138.792 25.9368 138.379 25.5397 138.066 25.0449C137.754 24.5501 137.539 23.9935 137.422 23.375C137.305 22.75 137.279 22.1087 137.344 21.4512L137.383 21.0312C137.461 20.3216 137.633 19.6478 137.9 19.0098C138.167 18.3652 138.522 17.7956 138.965 17.3008C139.414 16.7995 139.945 16.4089 140.557 16.1289C141.169 15.849 141.855 15.7188 142.617 15.7383C143.359 15.7513 144.004 15.9271 144.551 16.2656C145.098 16.5977 145.521 17.0501 145.82 17.623C146.12 18.196 146.27 18.847 146.27 19.5762L144.609 19.5664C144.603 19.1497 144.521 18.7656 144.365 18.4141C144.209 18.0625 143.978 17.7793 143.672 17.5645C143.366 17.3496 142.988 17.2324 142.539 17.2129C141.999 17.1999 141.527 17.3008 141.123 17.5156C140.726 17.7305 140.387 18.0267 140.107 18.4043C139.834 18.7754 139.616 19.1888 139.453 19.6445C139.297 20.1003 139.189 20.5625 139.131 21.0312L139.082 21.4414C139.043 21.8581 139.036 22.2845 139.062 22.7207C139.095 23.1569 139.186 23.5638 139.336 23.9414C139.486 24.3125 139.717 24.6152 140.029 24.8496C140.342 25.084 140.758 25.2077 141.279 25.2207ZM151.504 26.6953C150.781 26.6823 150.153 26.5391 149.619 26.2656C149.092 25.9857 148.659 25.6113 148.32 25.1426C147.988 24.6673 147.751 24.127 147.607 23.5215C147.464 22.916 147.422 22.2812 147.48 21.6172L147.52 21.1973C147.585 20.5202 147.751 19.8561 148.018 19.2051C148.285 18.5475 148.639 17.9551 149.082 17.4277C149.531 16.9004 150.059 16.4837 150.664 16.1777C151.276 15.8652 151.953 15.7188 152.695 15.7383C153.431 15.7513 154.043 15.9076 154.531 16.207C155.02 16.5065 155.4 16.9036 155.674 17.3984C155.954 17.8867 156.136 18.4368 156.221 19.0488C156.305 19.6543 156.312 20.276 156.24 20.9141L156.133 21.7246H148.467L148.701 20.25L154.551 20.2598L154.58 20.1035C154.645 19.6348 154.619 19.1823 154.502 18.7461C154.385 18.3099 154.17 17.9518 153.857 17.6719C153.551 17.3854 153.138 17.2357 152.617 17.2227C152.077 17.2031 151.608 17.3138 151.211 17.5547C150.814 17.7891 150.482 18.1081 150.215 18.5117C149.948 18.9089 149.736 19.3451 149.58 19.8203C149.43 20.2891 149.326 20.748 149.268 21.1973L149.229 21.6074C149.189 22.0241 149.202 22.444 149.268 22.8672C149.333 23.2904 149.456 23.6777 149.639 24.0293C149.827 24.3743 150.088 24.6576 150.42 24.8789C150.752 25.0938 151.162 25.2077 151.65 25.2207C152.243 25.2337 152.773 25.1068 153.242 24.8398C153.717 24.5664 154.15 24.2214 154.541 23.8047L155.547 24.6641C155.241 25.1133 154.876 25.4909 154.453 25.7969C154.03 26.1029 153.568 26.3307 153.066 26.4805C152.565 26.6302 152.044 26.7018 151.504 26.6953Z" fill="#0F172A"/>
</svg>
